%TF.GenerationSoftware,KiCad,Pcbnew,8.0.8-8.0.8-0~ubuntu24.04.1*%
%TF.CreationDate,2025-05-06T14:00:30+03:00*%
%TF.ProjectId,kicad_soundcard_dev_v0,6b696361-645f-4736-9f75-6e6463617264,rev?*%
%TF.SameCoordinates,Original*%
%TF.FileFunction,Copper,L4,Bot*%
%TF.FilePolarity,Positive*%
%FSLAX46Y46*%
G04 Gerber Fmt 4.6, Leading zero omitted, Abs format (unit mm)*
G04 Created by KiCad (PCBNEW 8.0.8-8.0.8-0~ubuntu24.04.1) date 2025-05-06 14:00:30*
%MOMM*%
%LPD*%
G01*
G04 APERTURE LIST*
G04 Aperture macros list*
%AMRoundRect*
0 Rectangle with rounded corners*
0 $1 Rounding radius*
0 $2 $3 $4 $5 $6 $7 $8 $9 X,Y pos of 4 corners*
0 Add a 4 corners polygon primitive as box body*
4,1,4,$2,$3,$4,$5,$6,$7,$8,$9,$2,$3,0*
0 Add four circle primitives for the rounded corners*
1,1,$1+$1,$2,$3*
1,1,$1+$1,$4,$5*
1,1,$1+$1,$6,$7*
1,1,$1+$1,$8,$9*
0 Add four rect primitives between the rounded corners*
20,1,$1+$1,$2,$3,$4,$5,0*
20,1,$1+$1,$4,$5,$6,$7,0*
20,1,$1+$1,$6,$7,$8,$9,0*
20,1,$1+$1,$8,$9,$2,$3,0*%
G04 Aperture macros list end*
%TA.AperFunction,SMDPad,CuDef*%
%ADD10RoundRect,0.200000X-0.200000X-0.275000X0.200000X-0.275000X0.200000X0.275000X-0.200000X0.275000X0*%
%TD*%
%TA.AperFunction,SMDPad,CuDef*%
%ADD11RoundRect,0.200000X0.200000X0.275000X-0.200000X0.275000X-0.200000X-0.275000X0.200000X-0.275000X0*%
%TD*%
%TA.AperFunction,HeatsinkPad*%
%ADD12O,2.100000X1.000000*%
%TD*%
%TA.AperFunction,HeatsinkPad*%
%ADD13O,1.600000X1.000000*%
%TD*%
%TA.AperFunction,SMDPad,CuDef*%
%ADD14RoundRect,0.140000X0.170000X-0.140000X0.170000X0.140000X-0.170000X0.140000X-0.170000X-0.140000X0*%
%TD*%
%TA.AperFunction,SMDPad,CuDef*%
%ADD15RoundRect,0.050000X-0.350000X-0.300000X0.350000X-0.300000X0.350000X0.300000X-0.350000X0.300000X0*%
%TD*%
%TA.AperFunction,SMDPad,CuDef*%
%ADD16RoundRect,0.140000X-0.140000X-0.170000X0.140000X-0.170000X0.140000X0.170000X-0.140000X0.170000X0*%
%TD*%
%TA.AperFunction,SMDPad,CuDef*%
%ADD17RoundRect,0.135000X0.135000X0.185000X-0.135000X0.185000X-0.135000X-0.185000X0.135000X-0.185000X0*%
%TD*%
%TA.AperFunction,SMDPad,CuDef*%
%ADD18RoundRect,0.050000X0.350000X0.300000X-0.350000X0.300000X-0.350000X-0.300000X0.350000X-0.300000X0*%
%TD*%
%TA.AperFunction,SMDPad,CuDef*%
%ADD19RoundRect,0.140000X-0.170000X0.140000X-0.170000X-0.140000X0.170000X-0.140000X0.170000X0.140000X0*%
%TD*%
%TA.AperFunction,SMDPad,CuDef*%
%ADD20RoundRect,0.140000X0.140000X0.170000X-0.140000X0.170000X-0.140000X-0.170000X0.140000X-0.170000X0*%
%TD*%
%TA.AperFunction,SMDPad,CuDef*%
%ADD21R,1.000000X1.250000*%
%TD*%
%TA.AperFunction,SMDPad,CuDef*%
%ADD22RoundRect,0.087500X0.087500X0.225000X-0.087500X0.225000X-0.087500X-0.225000X0.087500X-0.225000X0*%
%TD*%
%TA.AperFunction,SMDPad,CuDef*%
%ADD23RoundRect,0.087500X0.225000X0.087500X-0.225000X0.087500X-0.225000X-0.087500X0.225000X-0.087500X0*%
%TD*%
%TA.AperFunction,SMDPad,CuDef*%
%ADD24RoundRect,0.087500X-0.087500X0.125000X-0.087500X-0.125000X0.087500X-0.125000X0.087500X0.125000X0*%
%TD*%
%TA.AperFunction,SMDPad,CuDef*%
%ADD25RoundRect,0.087500X-0.125000X0.087500X-0.125000X-0.087500X0.125000X-0.087500X0.125000X0.087500X0*%
%TD*%
%TA.AperFunction,ViaPad*%
%ADD26C,0.700000*%
%TD*%
%TA.AperFunction,ViaPad*%
%ADD27C,0.800000*%
%TD*%
%TA.AperFunction,ViaPad*%
%ADD28C,0.550000*%
%TD*%
%TA.AperFunction,Conductor*%
%ADD29C,0.300000*%
%TD*%
%TA.AperFunction,Conductor*%
%ADD30C,0.500000*%
%TD*%
%TA.AperFunction,Conductor*%
%ADD31C,0.150000*%
%TD*%
%TA.AperFunction,Conductor*%
%ADD32C,0.349300*%
%TD*%
G04 APERTURE END LIST*
D10*
%TO.P,R304,1*%
%TO.N,Net-(U302-SDA)*%
X157875000Y-94800000D03*
%TO.P,R304,2*%
%TO.N,I2C_SDA*%
X159525000Y-94800000D03*
%TD*%
D11*
%TO.P,R303,2*%
%TO.N,I2C_SCL*%
X151875000Y-93300000D03*
%TO.P,R303,1*%
%TO.N,Net-(U302-SCL)*%
X153525000Y-93300000D03*
%TD*%
%TO.P,R302,1*%
%TO.N,Net-(U301-SCL)*%
X153600000Y-76500000D03*
%TO.P,R302,2*%
%TO.N,I2C_SCL*%
X151950000Y-76500000D03*
%TD*%
D10*
%TO.P,R301,1*%
%TO.N,Net-(U301-SDA)*%
X157775000Y-76500000D03*
%TO.P,R301,2*%
%TO.N,I2C_SDA*%
X159425000Y-76500000D03*
%TD*%
D12*
%TO.P,J101,S1,SHIELD*%
%TO.N,/Power/USB_shield_disconnect*%
X145170000Y-64180000D03*
D13*
X140990000Y-64180000D03*
D12*
X145170000Y-72820000D03*
D13*
X140990000Y-72820000D03*
%TD*%
D14*
%TO.P,C414,1*%
%TO.N,GND*%
X166650000Y-104130000D03*
%TO.P,C414,2*%
%TO.N,/Audio CODEC/ES8388_I2C_CCLK*%
X166650000Y-103170000D03*
%TD*%
D15*
%TO.P,D302,1,VDD*%
%TO.N,+3.3V*%
X194100000Y-104700000D03*
%TO.P,D302,2,DOUT*%
%TO.N,/sense_feedback/WS2812B_Chain2*%
X194100000Y-105900000D03*
%TO.P,D302,3,GND*%
%TO.N,GND*%
X192800000Y-105900000D03*
%TO.P,D302,4,DIN*%
%TO.N,/sense_feedback/WS2812B_Chain1*%
X192800000Y-104700000D03*
%TD*%
D16*
%TO.P,C305,1*%
%TO.N,GND*%
X190520000Y-95900000D03*
%TO.P,C305,2*%
%TO.N,+3.3V*%
X191480000Y-95900000D03*
%TD*%
D17*
%TO.P,R409,1*%
%TO.N,/Audio CODEC/ES8388_I2C_CCLK*%
X165610000Y-103150000D03*
%TO.P,R409,2*%
%TO.N,I2C_SCL*%
X164590000Y-103150000D03*
%TD*%
D18*
%TO.P,D306,1,VDD*%
%TO.N,+3.3V*%
X174300000Y-95900000D03*
%TO.P,D306,2,DOUT*%
%TO.N,/sense_feedback/WS2812B_Chain3*%
X174300000Y-94700000D03*
%TO.P,D306,3,GND*%
%TO.N,GND*%
X175600000Y-94700000D03*
%TO.P,D306,4,DIN*%
%TO.N,/sense_feedback/WS2812B_Chain5*%
X175600000Y-95900000D03*
%TD*%
%TO.P,D304,1,VDD*%
%TO.N,+3.3V*%
X211700000Y-95900000D03*
%TO.P,D304,2,DOUT*%
%TO.N,/sense_feedback/WS2812B_Chain4*%
X211700000Y-94700000D03*
%TO.P,D304,3,GND*%
%TO.N,GND*%
X213000000Y-94700000D03*
%TO.P,D304,4,DIN*%
%TO.N,WS2812B_D*%
X213000000Y-95900000D03*
%TD*%
D19*
%TO.P,C309,2*%
%TO.N,GND*%
X156700000Y-96880000D03*
%TO.P,C309,1*%
%TO.N,+3.3V*%
X156700000Y-95920000D03*
%TD*%
%TO.P,C413,1*%
%TO.N,GND*%
X166650000Y-101070000D03*
%TO.P,C413,2*%
%TO.N,/Audio CODEC/ES8388_I2C_CDATA*%
X166650000Y-102030000D03*
%TD*%
%TO.P,C203,1*%
%TO.N,/MCU/STRAP_GPIO_9*%
X206950000Y-80820000D03*
%TO.P,C203,2*%
%TO.N,GND*%
X206950000Y-81780000D03*
%TD*%
D16*
%TO.P,C308,2*%
%TO.N,+3.3V*%
X156380000Y-81475000D03*
%TO.P,C308,1*%
%TO.N,GND*%
X155420000Y-81475000D03*
%TD*%
D20*
%TO.P,C302,1*%
%TO.N,GND*%
X196580000Y-104700000D03*
%TO.P,C302,2*%
%TO.N,+3.3V*%
X195620000Y-104700000D03*
%TD*%
D16*
%TO.P,C304,1*%
%TO.N,GND*%
X209320000Y-95900000D03*
%TO.P,C304,2*%
%TO.N,+3.3V*%
X210280000Y-95900000D03*
%TD*%
D21*
%TO.P,SW201,1,1*%
%TO.N,GND*%
X209550000Y-86375000D03*
%TO.P,SW201,2,2*%
%TO.N,/MCU/STRAP_GPIO_9*%
X209550000Y-78625000D03*
%TD*%
D20*
%TO.P,C301,1*%
%TO.N,GND*%
X177980000Y-104700000D03*
%TO.P,C301,2*%
%TO.N,+3.3V*%
X177020000Y-104700000D03*
%TD*%
D22*
%TO.P,U301,14,SDA*%
%TO.N,Net-(U301-SDA)*%
X155500000Y-78275000D03*
%TO.P,U301,13,SCL*%
%TO.N,Net-(U301-SCL)*%
X155000000Y-78275000D03*
%TO.P,U301,12,CS*%
%TO.N,+3.3V*%
X154500000Y-78275000D03*
D23*
%TO.P,U301,11,NC*%
%TO.N,unconnected-(U301-NC-Pad11)*%
X153837500Y-78437500D03*
%TO.P,U301,10,NC*%
%TO.N,unconnected-(U301-NC-Pad10)*%
X153837500Y-78937500D03*
%TO.P,U301,9,INT2*%
%TO.N,unconnected-(U301-INT2-Pad9)*%
X153837500Y-79437500D03*
%TO.P,U301,8,VDD*%
%TO.N,+3.3V*%
X153837500Y-79937500D03*
D22*
%TO.P,U301,7,GND*%
%TO.N,GND*%
X154500000Y-80100000D03*
%TO.P,U301,6,GND*%
X155000000Y-80100000D03*
%TO.P,U301,5,VDDIO*%
%TO.N,+3.3V*%
X155500000Y-80100000D03*
D23*
%TO.P,U301,4,INT1*%
%TO.N,unconnected-(U301-INT1-Pad4)*%
X156162500Y-79937500D03*
%TO.P,U301,3,SCX*%
%TO.N,GND*%
X156162500Y-79437500D03*
%TO.P,U301,2,SDX*%
X156162500Y-78937500D03*
%TO.P,U301,1,SDO/SA0*%
X156162500Y-78437500D03*
%TD*%
D17*
%TO.P,R410,1*%
%TO.N,/Audio CODEC/ES8388_I2C_CDATA*%
X165610000Y-102000000D03*
%TO.P,R410,2*%
%TO.N,I2C_SDA*%
X164590000Y-102000000D03*
%TD*%
D21*
%TO.P,SW202,1,1*%
%TO.N,GND*%
X209550000Y-76575000D03*
%TO.P,SW202,2,2*%
%TO.N,/MCU/CHIP_PU*%
X209550000Y-68825000D03*
%TD*%
D18*
%TO.P,D305,1,VDD*%
%TO.N,+3.3V*%
X192900000Y-95900000D03*
%TO.P,D305,2,DOUT*%
%TO.N,/sense_feedback/WS2812B_Chain5*%
X192900000Y-94700000D03*
%TO.P,D305,3,GND*%
%TO.N,GND*%
X194200000Y-94700000D03*
%TO.P,D305,4,DIN*%
%TO.N,/sense_feedback/WS2812B_Chain4*%
X194200000Y-95900000D03*
%TD*%
D15*
%TO.P,D301,1,VDD*%
%TO.N,+3.3V*%
X175500000Y-104700000D03*
%TO.P,D301,2,DOUT*%
%TO.N,/sense_feedback/WS2812B_Chain1*%
X175500000Y-105900000D03*
%TO.P,D301,3,GND*%
%TO.N,GND*%
X174200000Y-105900000D03*
%TO.P,D301,4,DIN*%
%TO.N,/sense_feedback/WS2812B_Chain3*%
X174200000Y-104700000D03*
%TD*%
%TO.P,D303,1,VDD*%
%TO.N,+3.3V*%
X213000000Y-104700000D03*
%TO.P,D303,2,DOUT*%
%TO.N,unconnected-(D303-DOUT-Pad2)*%
X213000000Y-105900000D03*
%TO.P,D303,3,GND*%
%TO.N,GND*%
X211700000Y-105900000D03*
%TO.P,D303,4,DIN*%
%TO.N,/sense_feedback/WS2812B_Chain2*%
X211700000Y-104700000D03*
%TD*%
D24*
%TO.P,U302,1,CSB*%
%TO.N,+3.3V*%
X154612500Y-94637500D03*
%TO.P,U302,2,SCL*%
%TO.N,Net-(U302-SCL)*%
X155112500Y-94637500D03*
D25*
%TO.P,U302,3,VSS*%
%TO.N,GND*%
X155625000Y-94900000D03*
%TO.P,U302,4,SDA*%
%TO.N,Net-(U302-SDA)*%
X155625000Y-95400000D03*
%TO.P,U302,5,VDD*%
%TO.N,+3.3V*%
X155625000Y-95900000D03*
D24*
%TO.P,U302,6,SD0*%
%TO.N,GND*%
X155112500Y-96162500D03*
%TO.P,U302,7,INT*%
%TO.N,unconnected-(U302-INT-Pad7)*%
X154612500Y-96162500D03*
D25*
%TO.P,U302,8,RESV*%
%TO.N,GND*%
X154100000Y-95900000D03*
%TO.P,U302,9,RESV*%
X154100000Y-95400000D03*
%TO.P,U302,10,VDDIO*%
%TO.N,+3.3V*%
X154100000Y-94900000D03*
%TD*%
D20*
%TO.P,C303,1*%
%TO.N,GND*%
X215380000Y-104700000D03*
%TO.P,C303,2*%
%TO.N,+3.3V*%
X214420000Y-104700000D03*
%TD*%
%TO.P,C306,1*%
%TO.N,GND*%
X175280000Y-97100000D03*
%TO.P,C306,2*%
%TO.N,+3.3V*%
X174320000Y-97100000D03*
%TD*%
D16*
%TO.P,C204,1*%
%TO.N,/MCU/CHIP_PU*%
X209570000Y-67450000D03*
%TO.P,C204,2*%
%TO.N,GND*%
X210530000Y-67450000D03*
%TD*%
D14*
%TO.P,C310,1*%
%TO.N,GND*%
X153100000Y-95880000D03*
%TO.P,C310,2*%
%TO.N,+3.3V*%
X153100000Y-94920000D03*
%TD*%
D16*
%TO.P,C307,2*%
%TO.N,GND*%
X154480000Y-81475000D03*
%TO.P,C307,1*%
%TO.N,+3.3V*%
X153520000Y-81475000D03*
%TD*%
D26*
%TO.N,GND*%
X189510000Y-95910000D03*
X200800000Y-91400000D03*
X206000000Y-67200000D03*
X202400000Y-67800000D03*
X200800000Y-67800000D03*
X199200000Y-67800000D03*
X197600000Y-67800000D03*
X196000000Y-67800000D03*
X194400000Y-67800000D03*
X205150000Y-77800000D03*
X195300000Y-75300000D03*
X191150000Y-76950000D03*
X211800000Y-76550000D03*
%TO.N,+3.3V*%
X182600000Y-72900000D03*
%TO.N,GND*%
X207400000Y-95900000D03*
X176300000Y-72500000D03*
%TO.N,+3.3V*%
X175400000Y-72500000D03*
%TO.N,GND*%
X180500000Y-69600000D03*
X182600000Y-71800000D03*
%TO.N,I2C_SCL*%
X181350000Y-70250000D03*
%TO.N,I2C_SDA*%
X181900000Y-71100000D03*
%TO.N,VBUS*%
X217000000Y-81650000D03*
X154150000Y-63700000D03*
%TO.N,GND*%
X162912500Y-108900000D03*
D27*
X190750000Y-67200000D03*
D26*
X147500000Y-72600000D03*
X205400000Y-84300000D03*
X163500000Y-97750000D03*
X174200000Y-107200000D03*
X175600000Y-97900000D03*
X207525000Y-90800000D03*
X167650000Y-62350000D03*
X212100000Y-79800000D03*
X220900000Y-109900000D03*
X144650000Y-62700000D03*
X153800000Y-62900000D03*
X172350000Y-85400000D03*
X160189998Y-100519998D03*
X143000000Y-98500000D03*
X178909481Y-97313792D03*
X181750000Y-103775000D03*
X164675000Y-92075000D03*
X171950000Y-69400000D03*
X203075000Y-79525000D03*
X213525000Y-90800000D03*
X204500000Y-103500000D03*
X216300000Y-104700000D03*
X212450000Y-70500000D03*
X188950000Y-74050000D03*
X167700000Y-77400000D03*
X211700000Y-107000000D03*
D27*
X190200000Y-72000000D03*
D28*
X156400000Y-94400000D03*
D26*
X143480000Y-92280000D03*
X209475000Y-90800000D03*
X223350000Y-77000000D03*
X175100000Y-82200000D03*
X171000000Y-101150000D03*
D28*
X156700000Y-97500000D03*
X153100000Y-96500000D03*
D26*
X154750000Y-66900000D03*
D28*
X155000000Y-82075000D03*
D26*
X215400000Y-79800000D03*
X220910000Y-87640000D03*
X147550000Y-65200000D03*
X178800000Y-104700000D03*
X147500000Y-71799997D03*
X203380000Y-90720000D03*
X172750000Y-69400000D03*
X224470000Y-87870000D03*
X215200000Y-94700000D03*
X147550000Y-64300000D03*
X223350000Y-82050000D03*
X164412500Y-104000000D03*
X197700000Y-104700000D03*
X215150000Y-73650000D03*
X212200000Y-73350000D03*
X172350000Y-70100000D03*
X161300000Y-67150000D03*
X144650000Y-74300000D03*
X171950000Y-84700000D03*
X207700000Y-86400000D03*
X172750000Y-84700000D03*
X195800000Y-94700000D03*
X215150000Y-70500000D03*
X211400000Y-68000000D03*
X211525000Y-90800000D03*
X176400000Y-97100000D03*
X216100000Y-81700000D03*
D28*
X157200000Y-78975000D03*
D26*
X191300000Y-105900000D03*
X177100000Y-94700000D03*
X212163740Y-82030993D03*
X215500000Y-90800000D03*
X205500000Y-90800000D03*
X168275001Y-101125000D03*
X162250000Y-106450000D03*
%TO.N,+3.3VA*%
X163125000Y-92075000D03*
X174250000Y-82200000D03*
X160700000Y-101200000D03*
%TO.N,+3.3V*%
X207525000Y-91775000D03*
X215500000Y-91800000D03*
X209500000Y-91775000D03*
X204475000Y-102275000D03*
X211525000Y-91800000D03*
X179525000Y-97900000D03*
X213525000Y-91800000D03*
X175625000Y-99425000D03*
X202500000Y-90220000D03*
X176300000Y-104000000D03*
X205525000Y-91775000D03*
%TO.N,/MCU/STRAP_GPIO_9*%
X215350000Y-78950000D03*
X202550000Y-78750000D03*
%TO.N,/MCU/CHIP_PU*%
X190050000Y-74050000D03*
X211050000Y-68800000D03*
%TO.N,/Audio CODEC/AUX_VREF*%
X162575000Y-104025000D03*
X163150000Y-106450000D03*
%TO.N,/Audio CODEC/ES8388_I2C_CDATA*%
X169250000Y-101450000D03*
%TO.N,/Audio CODEC/ES8388_I2C_CCLK*%
X170175000Y-101425000D03*
%TO.N,/MCU/FTDI_RTS*%
X213350000Y-70500000D03*
X213300000Y-73350000D03*
%TO.N,WS2812B_D*%
X201500000Y-90700000D03*
%TO.N,/MCU/DTR*%
X214300000Y-73300000D03*
X214300000Y-70500000D03*
%TO.N,/MCU/SDIO_DAT2*%
X207400000Y-85600000D03*
X211500000Y-81500000D03*
%TO.N,/MCU/SDIO_DAT3*%
X211300000Y-79400000D03*
X206200000Y-84600000D03*
%TD*%
D29*
%TO.N,GND*%
X189520000Y-95900000D02*
X189510000Y-95910000D01*
X190520000Y-95900000D02*
X189520000Y-95900000D01*
D30*
%TO.N,+3.3V*%
X212200000Y-97200000D02*
X193300000Y-97200000D01*
X179525000Y-97900000D02*
X180225000Y-97200000D01*
X180225000Y-97200000D02*
X193300000Y-97200000D01*
X176300000Y-104000000D02*
X177275000Y-103025000D01*
X177275000Y-103025000D02*
X194055000Y-103025000D01*
X194055000Y-103025000D02*
X194100000Y-102980000D01*
X194100000Y-104700000D02*
X194100000Y-102980000D01*
X194100000Y-102980000D02*
X194805000Y-102275000D01*
X194805000Y-102275000D02*
X204475000Y-102275000D01*
X202500000Y-90220000D02*
X202500000Y-88800000D01*
X182600000Y-86600000D02*
X182600000Y-72900000D01*
X202500000Y-88800000D02*
X202100000Y-88400000D01*
X202100000Y-88400000D02*
X184400000Y-88400000D01*
X184400000Y-88400000D02*
X182600000Y-86600000D01*
X202875000Y-91775000D02*
X205525000Y-91775000D01*
X202500000Y-91400000D02*
X202875000Y-91775000D01*
X202500000Y-90220000D02*
X202500000Y-91400000D01*
D29*
%TO.N,GND*%
X211775000Y-76575000D02*
X211800000Y-76550000D01*
X209550000Y-76575000D02*
X211775000Y-76575000D01*
X210530000Y-67450000D02*
X210850000Y-67450000D01*
X210850000Y-67450000D02*
X211400000Y-68000000D01*
%TO.N,/MCU/CHIP_PU*%
X209570000Y-67450000D02*
X209570000Y-68805000D01*
X209570000Y-68805000D02*
X209550000Y-68825000D01*
%TO.N,GND*%
X209550000Y-86375000D02*
X207725000Y-86375000D01*
X207725000Y-86375000D02*
X207700000Y-86400000D01*
X206950000Y-81780000D02*
X206950000Y-82750000D01*
X206950000Y-82750000D02*
X205400000Y-84300000D01*
%TO.N,/MCU/STRAP_GPIO_9*%
X202550000Y-78750000D02*
X207400000Y-78750000D01*
X207400000Y-78750000D02*
X209550000Y-78750000D01*
X206950000Y-80820000D02*
X206950000Y-79200000D01*
X206950000Y-79200000D02*
X207400000Y-78750000D01*
D30*
%TO.N,+3.3VA*%
X160700000Y-101200000D02*
X162000000Y-99900000D01*
X162000000Y-99900000D02*
X162000000Y-93200000D01*
X162000000Y-93200000D02*
X163125000Y-92075000D01*
X174250000Y-82200000D02*
X174250000Y-85950000D01*
X174250000Y-85950000D02*
X172590000Y-87610000D01*
X172590000Y-87610000D02*
X167590000Y-87610000D01*
X167590000Y-87610000D02*
X163125000Y-92075000D01*
%TO.N,+3.3V*%
X211700000Y-95900000D02*
X211700000Y-96700000D01*
X211700000Y-96700000D02*
X212200000Y-97200000D01*
X212200000Y-97200000D02*
X216100000Y-97200000D01*
X216100000Y-97200000D02*
X217400000Y-95900000D01*
X217400000Y-95900000D02*
X217400000Y-93100000D01*
X217400000Y-93100000D02*
X216100000Y-91800000D01*
X216100000Y-91800000D02*
X215500000Y-91800000D01*
D29*
%TO.N,GND*%
X209320000Y-95900000D02*
X207400000Y-95900000D01*
D30*
%TO.N,+3.3V*%
X176300000Y-104000000D02*
X175600000Y-103300000D01*
X175600000Y-99450000D02*
X175625000Y-99425000D01*
X175600000Y-103300000D02*
X175600000Y-99450000D01*
D29*
%TO.N,WS2812B_D*%
X201500000Y-90700000D02*
X201500000Y-92500000D01*
X201500000Y-92500000D02*
X202400000Y-93400000D01*
X202400000Y-93400000D02*
X215700000Y-93400000D01*
X215700000Y-93400000D02*
X216100000Y-93800000D01*
X216100000Y-93800000D02*
X216100000Y-95500000D01*
X216100000Y-95500000D02*
X215700000Y-95900000D01*
X215700000Y-95900000D02*
X213000000Y-95900000D01*
%TO.N,+3.3V*%
X154500000Y-78275000D02*
X154500000Y-77962501D01*
X154500000Y-77962501D02*
X154037499Y-77500000D01*
X154037499Y-77500000D02*
X153400000Y-77500000D01*
X153100000Y-79900000D02*
X153137500Y-79937500D01*
X153400000Y-77500000D02*
X153100000Y-77800000D01*
X153100000Y-77800000D02*
X153100000Y-79900000D01*
D30*
X158600000Y-80600000D02*
X158600000Y-73600000D01*
X158600000Y-73600000D02*
X159700000Y-72500000D01*
X159700000Y-72500000D02*
X175400000Y-72500000D01*
X153000000Y-91800000D02*
X157600000Y-91800000D01*
X153100000Y-94920000D02*
X152725000Y-94545000D01*
X152725000Y-94545000D02*
X152725000Y-92075000D01*
X152725000Y-92075000D02*
X153000000Y-91800000D01*
X158600000Y-94195930D02*
X158600000Y-90600000D01*
X158600000Y-90600000D02*
X158600000Y-82900000D01*
X157600000Y-91800000D02*
X158600000Y-90800000D01*
X158600000Y-90800000D02*
X158600000Y-90600000D01*
X153520000Y-81784999D02*
X153500000Y-81804999D01*
X158600000Y-82900000D02*
X158600000Y-80600000D01*
X153500000Y-82900000D02*
X154300000Y-83700000D01*
X153520000Y-81475000D02*
X153520000Y-81784999D01*
X153500000Y-81804999D02*
X153500000Y-82900000D01*
X154300000Y-83700000D02*
X157800000Y-83700000D01*
X157800000Y-83700000D02*
X158600000Y-82900000D01*
X156380000Y-81475000D02*
X157725000Y-81475000D01*
X157725000Y-81475000D02*
X158600000Y-80600000D01*
X156700000Y-95920000D02*
X158084070Y-95920000D01*
X158084070Y-95920000D02*
X158675000Y-95329070D01*
X158675000Y-95329070D02*
X158675000Y-94270930D01*
X158675000Y-94270930D02*
X158600000Y-94195930D01*
D29*
%TO.N,I2C_SCL*%
X181350000Y-70250000D02*
X180300000Y-71300000D01*
X180300000Y-71300000D02*
X154300000Y-71300000D01*
X154300000Y-71300000D02*
X151950000Y-73650000D01*
X151950000Y-73650000D02*
X151950000Y-76500000D01*
%TO.N,I2C_SDA*%
X159500000Y-101000000D02*
X159500000Y-94800000D01*
X159500000Y-94800000D02*
X159500000Y-76500000D01*
X159525000Y-94800000D02*
X159500000Y-94800000D01*
X159500000Y-76500000D02*
X159500000Y-75000000D01*
X159425000Y-76500000D02*
X159500000Y-76500000D01*
%TO.N,I2C_SCL*%
X164590000Y-103150000D02*
X155550000Y-103150000D01*
X151875000Y-76575000D02*
X151950000Y-76500000D01*
X155550000Y-103150000D02*
X151875000Y-99475000D01*
X151875000Y-99475000D02*
X151875000Y-76575000D01*
%TO.N,I2C_SDA*%
X164590000Y-102000000D02*
X164520000Y-102070000D01*
X164520000Y-102070000D02*
X160570000Y-102070000D01*
X160570000Y-102070000D02*
X159500000Y-101000000D01*
X179200000Y-73800000D02*
X181900000Y-71100000D01*
X159500000Y-75000000D02*
X160700000Y-73800000D01*
X160700000Y-73800000D02*
X179200000Y-73800000D01*
%TO.N,Net-(U301-SDA)*%
X156300000Y-76500000D02*
X155500000Y-77300000D01*
X157775000Y-76500000D02*
X156300000Y-76500000D01*
X155500000Y-77300000D02*
X155500000Y-78275000D01*
%TO.N,Net-(U301-SCL)*%
X154300000Y-76500000D02*
X155000000Y-77200000D01*
X153600000Y-76500000D02*
X154300000Y-76500000D01*
X155000000Y-77200000D02*
X155000000Y-78275000D01*
%TO.N,Net-(U302-SCL)*%
X153525000Y-93300000D02*
X154600000Y-93300000D01*
X154600000Y-93300000D02*
X155112500Y-93812500D01*
X155112500Y-93812500D02*
X155112500Y-94637500D01*
%TO.N,Net-(U302-SDA)*%
X155625000Y-95400000D02*
X156213173Y-95400000D01*
X156213173Y-95400000D02*
X156813173Y-94800000D01*
X156813173Y-94800000D02*
X157875000Y-94800000D01*
D30*
%TO.N,VBUS*%
X154150000Y-63700000D02*
X154200000Y-63700000D01*
X216950000Y-81150000D02*
X216950000Y-81600000D01*
X154200000Y-63700000D02*
X157100000Y-60800000D01*
X176700000Y-66250000D02*
X211960661Y-66250000D01*
X216950000Y-81600000D02*
X217000000Y-81650000D01*
X157100000Y-60800000D02*
X171250000Y-60800000D01*
X211960661Y-66250000D02*
X216950000Y-71239339D01*
X171250000Y-60800000D02*
X176700000Y-66250000D01*
X216950000Y-71239339D02*
X216950000Y-81150000D01*
D29*
%TO.N,GND*%
X156162500Y-79437500D02*
X156737500Y-79437500D01*
X215380000Y-104700000D02*
X216300000Y-104700000D01*
X174200000Y-105900000D02*
X174200000Y-107200000D01*
X155112500Y-96612500D02*
X155112500Y-96162500D01*
X196580000Y-104700000D02*
X197700000Y-104700000D01*
X194200000Y-94700000D02*
X195800000Y-94700000D01*
X154080000Y-95880000D02*
X154100000Y-95900000D01*
X154500000Y-80100000D02*
X154500000Y-81455000D01*
X166650000Y-101070000D02*
X168220001Y-101070000D01*
X157162500Y-78937500D02*
X157200000Y-78975000D01*
X192800000Y-105900000D02*
X191300000Y-105900000D01*
X166650000Y-104130000D02*
X164542500Y-104130000D01*
X156737500Y-79437500D02*
X157200000Y-78975000D01*
X211700000Y-105900000D02*
X211700000Y-107000000D01*
X154500000Y-81455000D02*
X154480000Y-81475000D01*
X156162500Y-78937500D02*
X157162500Y-78937500D01*
X155000000Y-80100000D02*
X155000000Y-81055000D01*
X177980000Y-104700000D02*
X178800000Y-104700000D01*
X154100000Y-95400000D02*
X153580000Y-95400000D01*
X153580000Y-95400000D02*
X153100000Y-95880000D01*
X156700000Y-96880000D02*
X155380000Y-96880000D01*
X175600000Y-94700000D02*
X177100000Y-94700000D01*
X164542500Y-104130000D02*
X164412500Y-104000000D01*
X155000000Y-81055000D02*
X155420000Y-81475000D01*
X156162500Y-78437500D02*
X156662500Y-78437500D01*
X168220001Y-101070000D02*
X168275001Y-101125000D01*
X215200000Y-94700000D02*
X213000000Y-94700000D01*
X175280000Y-97100000D02*
X176400000Y-97100000D01*
X155380000Y-96880000D02*
X155112500Y-96612500D01*
X155900000Y-94900000D02*
X156400000Y-94400000D01*
X155625000Y-94900000D02*
X155900000Y-94900000D01*
X156662500Y-78437500D02*
X157200000Y-78975000D01*
X153100000Y-95880000D02*
X154080000Y-95880000D01*
D30*
%TO.N,+3.3V*%
X176425000Y-98625000D02*
X178800000Y-98625000D01*
X213000000Y-103000000D02*
X213000000Y-104700000D01*
D29*
X154080000Y-94880000D02*
X154100000Y-94900000D01*
D30*
X209525000Y-91800000D02*
X209500000Y-91775000D01*
X204475000Y-102275000D02*
X212275000Y-102275000D01*
D29*
X154100000Y-94900000D02*
X153120000Y-94900000D01*
X153100000Y-81055000D02*
X153520000Y-81475000D01*
X153300000Y-94200000D02*
X153100000Y-94400000D01*
X153120000Y-94900000D02*
X153100000Y-94920000D01*
D30*
X191500000Y-95920000D02*
X191480000Y-95900000D01*
X174320000Y-97100000D02*
X174320000Y-98120000D01*
D29*
X155500000Y-80275000D02*
X156380000Y-81155000D01*
D30*
X193300000Y-97200000D02*
X192900000Y-96800000D01*
X211525000Y-91800000D02*
X209525000Y-91800000D01*
X213525000Y-91800000D02*
X211525000Y-91800000D01*
D29*
X153100000Y-94400000D02*
X153100000Y-94920000D01*
X154612500Y-94412500D02*
X154400000Y-94200000D01*
X153837500Y-79937500D02*
X153137500Y-79937500D01*
X154612500Y-94637500D02*
X154612500Y-94412500D01*
D30*
X207525000Y-91775000D02*
X205525000Y-91775000D01*
X174320000Y-98120000D02*
X175625000Y-99425000D01*
D29*
X156380000Y-81155000D02*
X156380000Y-81475000D01*
D30*
X215500000Y-91800000D02*
X213525000Y-91800000D01*
X175625000Y-99425000D02*
X176425000Y-98625000D01*
D29*
X155500000Y-80100000D02*
X155500000Y-80275000D01*
D30*
X209500000Y-91775000D02*
X207525000Y-91775000D01*
D29*
X156700000Y-95920000D02*
X155645000Y-95920000D01*
D30*
X212275000Y-102275000D02*
X213000000Y-103000000D01*
D29*
X154400000Y-94200000D02*
X153300000Y-94200000D01*
X153100000Y-79975000D02*
X153100000Y-81055000D01*
X155645000Y-95920000D02*
X155625000Y-95900000D01*
D30*
X178800000Y-98625000D02*
X179525000Y-97900000D01*
X192900000Y-96800000D02*
X192900000Y-95900000D01*
D29*
X153137500Y-79937500D02*
X153100000Y-79975000D01*
%TO.N,/MCU/STRAP_GPIO_9*%
X209550000Y-78625000D02*
X209550000Y-78750000D01*
X215350000Y-78950000D02*
X215150000Y-78750000D01*
X215150000Y-78750000D02*
X209550000Y-78750000D01*
%TO.N,/MCU/CHIP_PU*%
X206100000Y-68800000D02*
X200400000Y-74500000D01*
X209550000Y-68825000D02*
X209550000Y-68800000D01*
X190500000Y-74500000D02*
X190050000Y-74050000D01*
X200400000Y-74500000D02*
X190500000Y-74500000D01*
X211050000Y-68800000D02*
X209550000Y-68800000D01*
%TO.N,/Audio CODEC/AUX_VREF*%
X162575000Y-104025000D02*
X163150000Y-104600000D01*
X163150000Y-104600000D02*
X163150000Y-106450000D01*
%TO.N,/Audio CODEC/ES8388_I2C_CDATA*%
X165640000Y-102030000D02*
X165610000Y-102000000D01*
D31*
X166620000Y-102000000D02*
X166650000Y-102030000D01*
D29*
X168670000Y-102030000D02*
X169250000Y-101450000D01*
X166650000Y-102030000D02*
X165640000Y-102030000D01*
X166650000Y-102030000D02*
X168670000Y-102030000D01*
%TO.N,/Audio CODEC/ES8388_I2C_CCLK*%
X169030000Y-103170000D02*
X170175000Y-102025000D01*
X170175000Y-102025000D02*
X170175000Y-101425000D01*
X165630000Y-103170000D02*
X165610000Y-103150000D01*
X166650000Y-103170000D02*
X165630000Y-103170000D01*
D31*
X166630000Y-103150000D02*
X166650000Y-103170000D01*
D29*
X166650000Y-103170000D02*
X169030000Y-103170000D01*
%TO.N,/MCU/FTDI_RTS*%
X213300000Y-73350000D02*
X213300000Y-70550000D01*
X213300000Y-70550000D02*
X213350000Y-70500000D01*
%TO.N,/sense_feedback/WS2812B_Chain1*%
X183600000Y-105900000D02*
X184800000Y-104700000D01*
X175500000Y-105900000D02*
X183600000Y-105900000D01*
X184800000Y-104700000D02*
X192800000Y-104700000D01*
%TO.N,/sense_feedback/WS2812B_Chain2*%
X194100000Y-105900000D02*
X202600000Y-105900000D01*
X203800000Y-104700000D02*
X211700000Y-104700000D01*
X202600000Y-105900000D02*
X203800000Y-104700000D01*
%TO.N,/sense_feedback/WS2812B_Chain3*%
X174200000Y-104700000D02*
X173300000Y-103800000D01*
X173300000Y-95200000D02*
X173300000Y-103800000D01*
X174300000Y-94700000D02*
X173800000Y-94700000D01*
X173800000Y-94700000D02*
X173300000Y-95200000D01*
%TO.N,/sense_feedback/WS2812B_Chain4*%
X203800000Y-94700000D02*
X211700000Y-94700000D01*
X202600000Y-95900000D02*
X203800000Y-94700000D01*
X194200000Y-95900000D02*
X202600000Y-95900000D01*
%TO.N,/sense_feedback/WS2812B_Chain5*%
X183100000Y-95900000D02*
X184300000Y-94700000D01*
X184300000Y-94700000D02*
X192900000Y-94700000D01*
X175600000Y-95900000D02*
X183100000Y-95900000D01*
%TO.N,/MCU/DTR*%
X214300000Y-73300000D02*
X214300000Y-70500000D01*
D32*
%TO.N,/MCU/SDIO_DAT2*%
X207400000Y-85600000D02*
X211500000Y-81500000D01*
%TO.N,/MCU/SDIO_DAT3*%
X206200000Y-84600000D02*
X211300000Y-79500000D01*
X211300000Y-79500000D02*
X211300000Y-79400000D01*
D29*
%TO.N,/MCU/CHIP_PU*%
X209550000Y-68800000D02*
X206100000Y-68800000D01*
%TD*%
%TA.AperFunction,Conductor*%
%TO.N,GND*%
G36*
X157015677Y-96519685D02*
G01*
X157036319Y-96536319D01*
X157063681Y-96563681D01*
X157097166Y-96625004D01*
X157100000Y-96651362D01*
X157100000Y-97648638D01*
X157080315Y-97715677D01*
X157063681Y-97736319D01*
X157036319Y-97763681D01*
X156974996Y-97797166D01*
X156948638Y-97800000D01*
X156451362Y-97800000D01*
X156384323Y-97780315D01*
X156363681Y-97763681D01*
X156336319Y-97736319D01*
X156302834Y-97674996D01*
X156300000Y-97648638D01*
X156300000Y-96651362D01*
X156319685Y-96584323D01*
X156336319Y-96563681D01*
X156363681Y-96536319D01*
X156425004Y-96502834D01*
X156451362Y-96500000D01*
X156948638Y-96500000D01*
X157015677Y-96519685D01*
G37*
%TD.AperFunction*%
%TD*%
%TA.AperFunction,Conductor*%
%TO.N,GND*%
G36*
X153415677Y-95519685D02*
G01*
X153436319Y-95536319D01*
X153463681Y-95563681D01*
X153497166Y-95625004D01*
X153500000Y-95651362D01*
X153500000Y-96648638D01*
X153480315Y-96715677D01*
X153463681Y-96736319D01*
X153436319Y-96763681D01*
X153374996Y-96797166D01*
X153348638Y-96800000D01*
X152851362Y-96800000D01*
X152784323Y-96780315D01*
X152763681Y-96763681D01*
X152736319Y-96736319D01*
X152702834Y-96674996D01*
X152700000Y-96648638D01*
X152700000Y-95651362D01*
X152719685Y-95584323D01*
X152736319Y-95563681D01*
X152763681Y-95536319D01*
X152825004Y-95502834D01*
X152851362Y-95500000D01*
X153348638Y-95500000D01*
X153415677Y-95519685D01*
G37*
%TD.AperFunction*%
%TD*%
%TA.AperFunction,Conductor*%
%TO.N,GND*%
G36*
X155615677Y-81094685D02*
G01*
X155636319Y-81111319D01*
X155663681Y-81138681D01*
X155697166Y-81200004D01*
X155700000Y-81226362D01*
X155700000Y-82323638D01*
X155680315Y-82390677D01*
X155663681Y-82411319D01*
X155636319Y-82438681D01*
X155574996Y-82472166D01*
X155548638Y-82475000D01*
X154351362Y-82475000D01*
X154284323Y-82455315D01*
X154263681Y-82438681D01*
X154236319Y-82411319D01*
X154202834Y-82349996D01*
X154200000Y-82323638D01*
X154200000Y-81226362D01*
X154219685Y-81159323D01*
X154236319Y-81138681D01*
X154263681Y-81111319D01*
X154325004Y-81077834D01*
X154351362Y-81075000D01*
X155548638Y-81075000D01*
X155615677Y-81094685D01*
G37*
%TD.AperFunction*%
%TD*%
%TA.AperFunction,Conductor*%
%TO.N,+3.3V*%
G36*
X177215677Y-103519685D02*
G01*
X177236319Y-103536319D01*
X177363681Y-103663681D01*
X177397166Y-103725004D01*
X177400000Y-103751362D01*
X177400000Y-104948638D01*
X177380315Y-105015677D01*
X177363681Y-105036319D01*
X177236319Y-105163681D01*
X177174996Y-105197166D01*
X177148638Y-105200000D01*
X175151362Y-105200000D01*
X175084323Y-105180315D01*
X175063681Y-105163681D01*
X174936319Y-105036319D01*
X174902834Y-104974996D01*
X174900000Y-104948638D01*
X174900000Y-103751362D01*
X174919685Y-103684323D01*
X174936319Y-103663681D01*
X175063681Y-103536319D01*
X175125004Y-103502834D01*
X175151362Y-103500000D01*
X177148638Y-103500000D01*
X177215677Y-103519685D01*
G37*
%TD.AperFunction*%
%TD*%
%TA.AperFunction,Conductor*%
%TO.N,+3.3V*%
G36*
X193215677Y-95419685D02*
G01*
X193236319Y-95436319D01*
X193363681Y-95563681D01*
X193397166Y-95625004D01*
X193400000Y-95651362D01*
X193400000Y-96148638D01*
X193380315Y-96215677D01*
X193363681Y-96236319D01*
X193236319Y-96363681D01*
X193174996Y-96397166D01*
X193148638Y-96400000D01*
X191251362Y-96400000D01*
X191184323Y-96380315D01*
X191163681Y-96363681D01*
X191036319Y-96236319D01*
X191002834Y-96174996D01*
X191000000Y-96148638D01*
X191000000Y-95651362D01*
X191019685Y-95584323D01*
X191036319Y-95563681D01*
X191163681Y-95436319D01*
X191225004Y-95402834D01*
X191251362Y-95400000D01*
X193148638Y-95400000D01*
X193215677Y-95419685D01*
G37*
%TD.AperFunction*%
%TD*%
%TA.AperFunction,Conductor*%
%TO.N,+3.3V*%
G36*
X214715677Y-104219685D02*
G01*
X214736319Y-104236319D01*
X214863681Y-104363681D01*
X214897166Y-104425004D01*
X214900000Y-104451362D01*
X214900000Y-104948638D01*
X214880315Y-105015677D01*
X214863681Y-105036319D01*
X214736319Y-105163681D01*
X214674996Y-105197166D01*
X214648638Y-105200000D01*
X212751362Y-105200000D01*
X212684323Y-105180315D01*
X212663681Y-105163681D01*
X212536319Y-105036319D01*
X212502834Y-104974996D01*
X212500000Y-104948638D01*
X212500000Y-104451362D01*
X212519685Y-104384323D01*
X212536319Y-104363681D01*
X212663681Y-104236319D01*
X212725004Y-104202834D01*
X212751362Y-104200000D01*
X214648638Y-104200000D01*
X214715677Y-104219685D01*
G37*
%TD.AperFunction*%
%TD*%
%TA.AperFunction,Conductor*%
%TO.N,+3.3V*%
G36*
X195815677Y-104219685D02*
G01*
X195836319Y-104236319D01*
X195963681Y-104363681D01*
X195997166Y-104425004D01*
X196000000Y-104451362D01*
X196000000Y-104948638D01*
X195980315Y-105015677D01*
X195963681Y-105036319D01*
X195836319Y-105163681D01*
X195774996Y-105197166D01*
X195748638Y-105200000D01*
X193851362Y-105200000D01*
X193784323Y-105180315D01*
X193763681Y-105163681D01*
X193636319Y-105036319D01*
X193602834Y-104974996D01*
X193600000Y-104948638D01*
X193600000Y-104451362D01*
X193619685Y-104384323D01*
X193636319Y-104363681D01*
X193763681Y-104236319D01*
X193825004Y-104202834D01*
X193851362Y-104200000D01*
X195748638Y-104200000D01*
X195815677Y-104219685D01*
G37*
%TD.AperFunction*%
%TD*%
%TA.AperFunction,Conductor*%
%TO.N,+3.3V*%
G36*
X212015677Y-95419685D02*
G01*
X212036319Y-95436319D01*
X212163681Y-95563681D01*
X212197166Y-95625004D01*
X212200000Y-95651362D01*
X212200000Y-96148638D01*
X212180315Y-96215677D01*
X212163681Y-96236319D01*
X212036319Y-96363681D01*
X211974996Y-96397166D01*
X211948638Y-96400000D01*
X210051362Y-96400000D01*
X209984323Y-96380315D01*
X209963681Y-96363681D01*
X209836319Y-96236319D01*
X209802834Y-96174996D01*
X209800000Y-96148638D01*
X209800000Y-95651362D01*
X209819685Y-95584323D01*
X209836319Y-95563681D01*
X209963681Y-95436319D01*
X210025004Y-95402834D01*
X210051362Y-95400000D01*
X211948638Y-95400000D01*
X212015677Y-95419685D01*
G37*
%TD.AperFunction*%
%TD*%
%TA.AperFunction,Conductor*%
%TO.N,+3.3V*%
G36*
X174615677Y-95419685D02*
G01*
X174636319Y-95436319D01*
X174763681Y-95563681D01*
X174797166Y-95625004D01*
X174800000Y-95651362D01*
X174800000Y-97248638D01*
X174780315Y-97315677D01*
X174763681Y-97336319D01*
X174636319Y-97463681D01*
X174574996Y-97497166D01*
X174548638Y-97500000D01*
X174051362Y-97500000D01*
X173984323Y-97480315D01*
X173963681Y-97463681D01*
X173836319Y-97336319D01*
X173802834Y-97274996D01*
X173800000Y-97248638D01*
X173800000Y-95651362D01*
X173819685Y-95584323D01*
X173836319Y-95563681D01*
X173963681Y-95436319D01*
X174025004Y-95402834D01*
X174051362Y-95400000D01*
X174548638Y-95400000D01*
X174615677Y-95419685D01*
G37*
%TD.AperFunction*%
%TD*%
M02*
