%TF.GenerationSoftware,KiCad,Pcbnew,8.0.8-8.0.8-0~ubuntu24.04.1*%
%TF.CreationDate,2025-05-06T14:00:39+03:00*%
%TF.ProjectId,kicad_soundcard_dev_v0,6b696361-645f-4736-9f75-6e6463617264,rev?*%
%TF.SameCoordinates,Original*%
%TF.FileFunction,Legend,Top*%
%TF.FilePolarity,Positive*%
%FSLAX46Y46*%
G04 Gerber Fmt 4.6, Leading zero omitted, Abs format (unit mm)*
G04 Created by KiCad (PCBNEW 8.0.8-8.0.8-0~ubuntu24.04.1) date 2025-05-06 14:00:39*
%MOMM*%
%LPD*%
G01*
G04 APERTURE LIST*
%ADD10C,0.240000*%
%ADD11C,0.155000*%
%ADD12C,0.160000*%
%ADD13C,0.120000*%
%ADD14C,0.100000*%
G04 APERTURE END LIST*
D10*
X183754560Y-99799520D02*
X183954560Y-99866186D01*
X183954560Y-99866186D02*
X184287894Y-99866186D01*
X184287894Y-99866186D02*
X184421227Y-99799520D01*
X184421227Y-99799520D02*
X184487894Y-99732853D01*
X184487894Y-99732853D02*
X184554560Y-99599520D01*
X184554560Y-99599520D02*
X184554560Y-99466186D01*
X184554560Y-99466186D02*
X184487894Y-99332853D01*
X184487894Y-99332853D02*
X184421227Y-99266186D01*
X184421227Y-99266186D02*
X184287894Y-99199520D01*
X184287894Y-99199520D02*
X184021227Y-99132853D01*
X184021227Y-99132853D02*
X183887894Y-99066186D01*
X183887894Y-99066186D02*
X183821227Y-98999520D01*
X183821227Y-98999520D02*
X183754560Y-98866186D01*
X183754560Y-98866186D02*
X183754560Y-98732853D01*
X183754560Y-98732853D02*
X183821227Y-98599520D01*
X183821227Y-98599520D02*
X183887894Y-98532853D01*
X183887894Y-98532853D02*
X184021227Y-98466186D01*
X184021227Y-98466186D02*
X184354560Y-98466186D01*
X184354560Y-98466186D02*
X184554560Y-98532853D01*
X185421227Y-98466186D02*
X185687893Y-98466186D01*
X185687893Y-98466186D02*
X185821227Y-98532853D01*
X185821227Y-98532853D02*
X185954560Y-98666186D01*
X185954560Y-98666186D02*
X186021227Y-98932853D01*
X186021227Y-98932853D02*
X186021227Y-99399520D01*
X186021227Y-99399520D02*
X185954560Y-99666186D01*
X185954560Y-99666186D02*
X185821227Y-99799520D01*
X185821227Y-99799520D02*
X185687893Y-99866186D01*
X185687893Y-99866186D02*
X185421227Y-99866186D01*
X185421227Y-99866186D02*
X185287893Y-99799520D01*
X185287893Y-99799520D02*
X185154560Y-99666186D01*
X185154560Y-99666186D02*
X185087893Y-99399520D01*
X185087893Y-99399520D02*
X185087893Y-98932853D01*
X185087893Y-98932853D02*
X185154560Y-98666186D01*
X185154560Y-98666186D02*
X185287893Y-98532853D01*
X185287893Y-98532853D02*
X185421227Y-98466186D01*
X186621227Y-98466186D02*
X186621227Y-99599520D01*
X186621227Y-99599520D02*
X186687894Y-99732853D01*
X186687894Y-99732853D02*
X186754560Y-99799520D01*
X186754560Y-99799520D02*
X186887894Y-99866186D01*
X186887894Y-99866186D02*
X187154560Y-99866186D01*
X187154560Y-99866186D02*
X187287894Y-99799520D01*
X187287894Y-99799520D02*
X187354560Y-99732853D01*
X187354560Y-99732853D02*
X187421227Y-99599520D01*
X187421227Y-99599520D02*
X187421227Y-98466186D01*
X188087894Y-99866186D02*
X188087894Y-98466186D01*
X188087894Y-98466186D02*
X188887894Y-99866186D01*
X188887894Y-99866186D02*
X188887894Y-98466186D01*
X190354561Y-99732853D02*
X190287894Y-99799520D01*
X190287894Y-99799520D02*
X190087894Y-99866186D01*
X190087894Y-99866186D02*
X189954561Y-99866186D01*
X189954561Y-99866186D02*
X189754561Y-99799520D01*
X189754561Y-99799520D02*
X189621228Y-99666186D01*
X189621228Y-99666186D02*
X189554561Y-99532853D01*
X189554561Y-99532853D02*
X189487894Y-99266186D01*
X189487894Y-99266186D02*
X189487894Y-99066186D01*
X189487894Y-99066186D02*
X189554561Y-98799520D01*
X189554561Y-98799520D02*
X189621228Y-98666186D01*
X189621228Y-98666186D02*
X189754561Y-98532853D01*
X189754561Y-98532853D02*
X189954561Y-98466186D01*
X189954561Y-98466186D02*
X190087894Y-98466186D01*
X190087894Y-98466186D02*
X190287894Y-98532853D01*
X190287894Y-98532853D02*
X190354561Y-98599520D01*
X190887894Y-99466186D02*
X191554561Y-99466186D01*
X190754561Y-99866186D02*
X191221228Y-98466186D01*
X191221228Y-98466186D02*
X191687894Y-99866186D01*
X192954561Y-99866186D02*
X192487894Y-99199520D01*
X192154561Y-99866186D02*
X192154561Y-98466186D01*
X192154561Y-98466186D02*
X192687894Y-98466186D01*
X192687894Y-98466186D02*
X192821228Y-98532853D01*
X192821228Y-98532853D02*
X192887894Y-98599520D01*
X192887894Y-98599520D02*
X192954561Y-98732853D01*
X192954561Y-98732853D02*
X192954561Y-98932853D01*
X192954561Y-98932853D02*
X192887894Y-99066186D01*
X192887894Y-99066186D02*
X192821228Y-99132853D01*
X192821228Y-99132853D02*
X192687894Y-99199520D01*
X192687894Y-99199520D02*
X192154561Y-99199520D01*
X193554561Y-99866186D02*
X193554561Y-98466186D01*
X193554561Y-98466186D02*
X193887894Y-98466186D01*
X193887894Y-98466186D02*
X194087894Y-98532853D01*
X194087894Y-98532853D02*
X194221228Y-98666186D01*
X194221228Y-98666186D02*
X194287894Y-98799520D01*
X194287894Y-98799520D02*
X194354561Y-99066186D01*
X194354561Y-99066186D02*
X194354561Y-99266186D01*
X194354561Y-99266186D02*
X194287894Y-99532853D01*
X194287894Y-99532853D02*
X194221228Y-99666186D01*
X194221228Y-99666186D02*
X194087894Y-99799520D01*
X194087894Y-99799520D02*
X193887894Y-99866186D01*
X193887894Y-99866186D02*
X193554561Y-99866186D01*
X196021228Y-99866186D02*
X196021228Y-98466186D01*
X196021228Y-98466186D02*
X196354561Y-98466186D01*
X196354561Y-98466186D02*
X196554561Y-98532853D01*
X196554561Y-98532853D02*
X196687895Y-98666186D01*
X196687895Y-98666186D02*
X196754561Y-98799520D01*
X196754561Y-98799520D02*
X196821228Y-99066186D01*
X196821228Y-99066186D02*
X196821228Y-99266186D01*
X196821228Y-99266186D02*
X196754561Y-99532853D01*
X196754561Y-99532853D02*
X196687895Y-99666186D01*
X196687895Y-99666186D02*
X196554561Y-99799520D01*
X196554561Y-99799520D02*
X196354561Y-99866186D01*
X196354561Y-99866186D02*
X196021228Y-99866186D01*
X197421228Y-99132853D02*
X197887895Y-99132853D01*
X198087895Y-99866186D02*
X197421228Y-99866186D01*
X197421228Y-99866186D02*
X197421228Y-98466186D01*
X197421228Y-98466186D02*
X198087895Y-98466186D01*
X198487895Y-98466186D02*
X198954562Y-99866186D01*
X198954562Y-99866186D02*
X199421228Y-98466186D01*
X199887895Y-99732853D02*
X199954562Y-99799520D01*
X199954562Y-99799520D02*
X199887895Y-99866186D01*
X199887895Y-99866186D02*
X199821228Y-99799520D01*
X199821228Y-99799520D02*
X199887895Y-99732853D01*
X199887895Y-99732853D02*
X199887895Y-99866186D01*
X201421229Y-98466186D02*
X201887896Y-99866186D01*
X201887896Y-99866186D02*
X202354562Y-98466186D01*
X203087896Y-98466186D02*
X203221229Y-98466186D01*
X203221229Y-98466186D02*
X203354562Y-98532853D01*
X203354562Y-98532853D02*
X203421229Y-98599520D01*
X203421229Y-98599520D02*
X203487896Y-98732853D01*
X203487896Y-98732853D02*
X203554562Y-98999520D01*
X203554562Y-98999520D02*
X203554562Y-99332853D01*
X203554562Y-99332853D02*
X203487896Y-99599520D01*
X203487896Y-99599520D02*
X203421229Y-99732853D01*
X203421229Y-99732853D02*
X203354562Y-99799520D01*
X203354562Y-99799520D02*
X203221229Y-99866186D01*
X203221229Y-99866186D02*
X203087896Y-99866186D01*
X203087896Y-99866186D02*
X202954562Y-99799520D01*
X202954562Y-99799520D02*
X202887896Y-99732853D01*
X202887896Y-99732853D02*
X202821229Y-99599520D01*
X202821229Y-99599520D02*
X202754562Y-99332853D01*
X202754562Y-99332853D02*
X202754562Y-98999520D01*
X202754562Y-98999520D02*
X202821229Y-98732853D01*
X202821229Y-98732853D02*
X202887896Y-98599520D01*
X202887896Y-98599520D02*
X202954562Y-98532853D01*
X202954562Y-98532853D02*
X203087896Y-98466186D01*
D11*
X181050000Y-79225000D02*
X183350000Y-79225000D01*
X146300000Y-100050000D02*
X146300000Y-96950000D01*
X154600000Y-70200000D02*
X147700000Y-70200000D01*
X160470000Y-69650000D02*
X160470000Y-66870000D01*
X180350000Y-73400000D02*
X182650000Y-73400000D01*
X221650000Y-90500000D02*
X221650000Y-89200000D01*
X204150000Y-108150000D02*
X207750000Y-108150000D01*
X180990000Y-92410000D02*
X183335000Y-92410000D01*
X197740000Y-89350000D02*
X197740000Y-86650000D01*
X195218639Y-108703940D02*
X195418639Y-108770606D01*
X195418639Y-108770606D02*
X195751973Y-108770606D01*
X195751973Y-108770606D02*
X195885306Y-108703940D01*
X195885306Y-108703940D02*
X195951973Y-108637273D01*
X195951973Y-108637273D02*
X196018639Y-108503940D01*
X196018639Y-108503940D02*
X196018639Y-108370606D01*
X196018639Y-108370606D02*
X195951973Y-108237273D01*
X195951973Y-108237273D02*
X195885306Y-108170606D01*
X195885306Y-108170606D02*
X195751973Y-108103940D01*
X195751973Y-108103940D02*
X195485306Y-108037273D01*
X195485306Y-108037273D02*
X195351973Y-107970606D01*
X195351973Y-107970606D02*
X195285306Y-107903940D01*
X195285306Y-107903940D02*
X195218639Y-107770606D01*
X195218639Y-107770606D02*
X195218639Y-107637273D01*
X195218639Y-107637273D02*
X195285306Y-107503940D01*
X195285306Y-107503940D02*
X195351973Y-107437273D01*
X195351973Y-107437273D02*
X195485306Y-107370606D01*
X195485306Y-107370606D02*
X195818639Y-107370606D01*
X195818639Y-107370606D02*
X196018639Y-107437273D01*
X196618639Y-108770606D02*
X196618639Y-107370606D01*
X196618639Y-107370606D02*
X196951972Y-107370606D01*
X196951972Y-107370606D02*
X197151972Y-107437273D01*
X197151972Y-107437273D02*
X197285306Y-107570606D01*
X197285306Y-107570606D02*
X197351972Y-107703940D01*
X197351972Y-107703940D02*
X197418639Y-107970606D01*
X197418639Y-107970606D02*
X197418639Y-108170606D01*
X197418639Y-108170606D02*
X197351972Y-108437273D01*
X197351972Y-108437273D02*
X197285306Y-108570606D01*
X197285306Y-108570606D02*
X197151972Y-108703940D01*
X197151972Y-108703940D02*
X196951972Y-108770606D01*
X196951972Y-108770606D02*
X196618639Y-108770606D01*
X199885306Y-108637273D02*
X199818639Y-108703940D01*
X199818639Y-108703940D02*
X199618639Y-108770606D01*
X199618639Y-108770606D02*
X199485306Y-108770606D01*
X199485306Y-108770606D02*
X199285306Y-108703940D01*
X199285306Y-108703940D02*
X199151973Y-108570606D01*
X199151973Y-108570606D02*
X199085306Y-108437273D01*
X199085306Y-108437273D02*
X199018639Y-108170606D01*
X199018639Y-108170606D02*
X199018639Y-107970606D01*
X199018639Y-107970606D02*
X199085306Y-107703940D01*
X199085306Y-107703940D02*
X199151973Y-107570606D01*
X199151973Y-107570606D02*
X199285306Y-107437273D01*
X199285306Y-107437273D02*
X199485306Y-107370606D01*
X199485306Y-107370606D02*
X199618639Y-107370606D01*
X199618639Y-107370606D02*
X199818639Y-107437273D01*
X199818639Y-107437273D02*
X199885306Y-107503940D01*
X200418639Y-108370606D02*
X201085306Y-108370606D01*
X200285306Y-108770606D02*
X200751973Y-107370606D01*
X200751973Y-107370606D02*
X201218639Y-108770606D01*
X202485306Y-108770606D02*
X202018639Y-108103940D01*
X201685306Y-108770606D02*
X201685306Y-107370606D01*
X201685306Y-107370606D02*
X202218639Y-107370606D01*
X202218639Y-107370606D02*
X202351973Y-107437273D01*
X202351973Y-107437273D02*
X202418639Y-107503940D01*
X202418639Y-107503940D02*
X202485306Y-107637273D01*
X202485306Y-107637273D02*
X202485306Y-107837273D01*
X202485306Y-107837273D02*
X202418639Y-107970606D01*
X202418639Y-107970606D02*
X202351973Y-108037273D01*
X202351973Y-108037273D02*
X202218639Y-108103940D01*
X202218639Y-108103940D02*
X201685306Y-108103940D01*
X203085306Y-108770606D02*
X203085306Y-107370606D01*
X203085306Y-107370606D02*
X203418639Y-107370606D01*
X203418639Y-107370606D02*
X203618639Y-107437273D01*
X203618639Y-107437273D02*
X203751973Y-107570606D01*
X203751973Y-107570606D02*
X203818639Y-107703940D01*
X203818639Y-107703940D02*
X203885306Y-107970606D01*
X203885306Y-107970606D02*
X203885306Y-108170606D01*
X203885306Y-108170606D02*
X203818639Y-108437273D01*
X203818639Y-108437273D02*
X203751973Y-108570606D01*
X203751973Y-108570606D02*
X203618639Y-108703940D01*
X203618639Y-108703940D02*
X203418639Y-108770606D01*
X203418639Y-108770606D02*
X203085306Y-108770606D01*
X141835306Y-78220606D02*
X141835306Y-76820606D01*
X141835306Y-76820606D02*
X142368639Y-76820606D01*
X142368639Y-76820606D02*
X142501973Y-76887273D01*
X142501973Y-76887273D02*
X142568639Y-76953940D01*
X142568639Y-76953940D02*
X142635306Y-77087273D01*
X142635306Y-77087273D02*
X142635306Y-77287273D01*
X142635306Y-77287273D02*
X142568639Y-77420606D01*
X142568639Y-77420606D02*
X142501973Y-77487273D01*
X142501973Y-77487273D02*
X142368639Y-77553940D01*
X142368639Y-77553940D02*
X141835306Y-77553940D01*
X143235306Y-78220606D02*
X143235306Y-76820606D01*
X143235306Y-77487273D02*
X144035306Y-77487273D01*
X144035306Y-78220606D02*
X144035306Y-76820606D01*
X144968640Y-76820606D02*
X145235306Y-76820606D01*
X145235306Y-76820606D02*
X145368640Y-76887273D01*
X145368640Y-76887273D02*
X145501973Y-77020606D01*
X145501973Y-77020606D02*
X145568640Y-77287273D01*
X145568640Y-77287273D02*
X145568640Y-77753940D01*
X145568640Y-77753940D02*
X145501973Y-78020606D01*
X145501973Y-78020606D02*
X145368640Y-78153940D01*
X145368640Y-78153940D02*
X145235306Y-78220606D01*
X145235306Y-78220606D02*
X144968640Y-78220606D01*
X144968640Y-78220606D02*
X144835306Y-78153940D01*
X144835306Y-78153940D02*
X144701973Y-78020606D01*
X144701973Y-78020606D02*
X144635306Y-77753940D01*
X144635306Y-77753940D02*
X144635306Y-77287273D01*
X144635306Y-77287273D02*
X144701973Y-77020606D01*
X144701973Y-77020606D02*
X144835306Y-76887273D01*
X144835306Y-76887273D02*
X144968640Y-76820606D01*
X146168640Y-78220606D02*
X146168640Y-76820606D01*
X146168640Y-76820606D02*
X146968640Y-78220606D01*
X146968640Y-78220606D02*
X146968640Y-76820606D01*
X147635307Y-77487273D02*
X148101974Y-77487273D01*
X148301974Y-78220606D02*
X147635307Y-78220606D01*
X147635307Y-78220606D02*
X147635307Y-76820606D01*
X147635307Y-76820606D02*
X148301974Y-76820606D01*
X148835307Y-78153940D02*
X149035307Y-78220606D01*
X149035307Y-78220606D02*
X149368641Y-78220606D01*
X149368641Y-78220606D02*
X149501974Y-78153940D01*
X149501974Y-78153940D02*
X149568641Y-78087273D01*
X149568641Y-78087273D02*
X149635307Y-77953940D01*
X149635307Y-77953940D02*
X149635307Y-77820606D01*
X149635307Y-77820606D02*
X149568641Y-77687273D01*
X149568641Y-77687273D02*
X149501974Y-77620606D01*
X149501974Y-77620606D02*
X149368641Y-77553940D01*
X149368641Y-77553940D02*
X149101974Y-77487273D01*
X149101974Y-77487273D02*
X148968641Y-77420606D01*
X148968641Y-77420606D02*
X148901974Y-77353940D01*
X148901974Y-77353940D02*
X148835307Y-77220606D01*
X148835307Y-77220606D02*
X148835307Y-77087273D01*
X148835307Y-77087273D02*
X148901974Y-76953940D01*
X148901974Y-76953940D02*
X148968641Y-76887273D01*
X148968641Y-76887273D02*
X149101974Y-76820606D01*
X149101974Y-76820606D02*
X149435307Y-76820606D01*
X149435307Y-76820606D02*
X149635307Y-76887273D01*
X151568641Y-76820606D02*
X151835307Y-76820606D01*
X151835307Y-76820606D02*
X151968641Y-76887273D01*
X151968641Y-76887273D02*
X152101974Y-77020606D01*
X152101974Y-77020606D02*
X152168641Y-77287273D01*
X152168641Y-77287273D02*
X152168641Y-77753940D01*
X152168641Y-77753940D02*
X152101974Y-78020606D01*
X152101974Y-78020606D02*
X151968641Y-78153940D01*
X151968641Y-78153940D02*
X151835307Y-78220606D01*
X151835307Y-78220606D02*
X151568641Y-78220606D01*
X151568641Y-78220606D02*
X151435307Y-78153940D01*
X151435307Y-78153940D02*
X151301974Y-78020606D01*
X151301974Y-78020606D02*
X151235307Y-77753940D01*
X151235307Y-77753940D02*
X151235307Y-77287273D01*
X151235307Y-77287273D02*
X151301974Y-77020606D01*
X151301974Y-77020606D02*
X151435307Y-76887273D01*
X151435307Y-76887273D02*
X151568641Y-76820606D01*
X152768641Y-76820606D02*
X152768641Y-77953940D01*
X152768641Y-77953940D02*
X152835308Y-78087273D01*
X152835308Y-78087273D02*
X152901974Y-78153940D01*
X152901974Y-78153940D02*
X153035308Y-78220606D01*
X153035308Y-78220606D02*
X153301974Y-78220606D01*
X153301974Y-78220606D02*
X153435308Y-78153940D01*
X153435308Y-78153940D02*
X153501974Y-78087273D01*
X153501974Y-78087273D02*
X153568641Y-77953940D01*
X153568641Y-77953940D02*
X153568641Y-76820606D01*
X154035308Y-76820606D02*
X154835308Y-76820606D01*
X154435308Y-78220606D02*
X154435308Y-76820606D01*
X177235306Y-73420606D02*
X177235306Y-72020606D01*
X177835306Y-72153940D02*
X177901973Y-72087273D01*
X177901973Y-72087273D02*
X178035306Y-72020606D01*
X178035306Y-72020606D02*
X178368640Y-72020606D01*
X178368640Y-72020606D02*
X178501973Y-72087273D01*
X178501973Y-72087273D02*
X178568640Y-72153940D01*
X178568640Y-72153940D02*
X178635306Y-72287273D01*
X178635306Y-72287273D02*
X178635306Y-72420606D01*
X178635306Y-72420606D02*
X178568640Y-72620606D01*
X178568640Y-72620606D02*
X177768640Y-73420606D01*
X177768640Y-73420606D02*
X178635306Y-73420606D01*
X180035306Y-73287273D02*
X179968639Y-73353940D01*
X179968639Y-73353940D02*
X179768639Y-73420606D01*
X179768639Y-73420606D02*
X179635306Y-73420606D01*
X179635306Y-73420606D02*
X179435306Y-73353940D01*
X179435306Y-73353940D02*
X179301973Y-73220606D01*
X179301973Y-73220606D02*
X179235306Y-73087273D01*
X179235306Y-73087273D02*
X179168639Y-72820606D01*
X179168639Y-72820606D02*
X179168639Y-72620606D01*
X179168639Y-72620606D02*
X179235306Y-72353940D01*
X179235306Y-72353940D02*
X179301973Y-72220606D01*
X179301973Y-72220606D02*
X179435306Y-72087273D01*
X179435306Y-72087273D02*
X179635306Y-72020606D01*
X179635306Y-72020606D02*
X179768639Y-72020606D01*
X179768639Y-72020606D02*
X179968639Y-72087273D01*
X179968639Y-72087273D02*
X180035306Y-72153940D01*
D12*
X218433333Y-91606013D02*
X217966666Y-91606013D01*
X217966666Y-92339346D02*
X217966666Y-90939346D01*
X217966666Y-90939346D02*
X218633333Y-90939346D01*
X218966666Y-90939346D02*
X219766666Y-90939346D01*
X219366666Y-92339346D02*
X219366666Y-90939346D01*
X220233333Y-92339346D02*
X220233333Y-90939346D01*
X220233333Y-90939346D02*
X220566666Y-90939346D01*
X220566666Y-90939346D02*
X220766666Y-91006013D01*
X220766666Y-91006013D02*
X220900000Y-91139346D01*
X220900000Y-91139346D02*
X220966666Y-91272680D01*
X220966666Y-91272680D02*
X221033333Y-91539346D01*
X221033333Y-91539346D02*
X221033333Y-91739346D01*
X221033333Y-91739346D02*
X220966666Y-92006013D01*
X220966666Y-92006013D02*
X220900000Y-92139346D01*
X220900000Y-92139346D02*
X220766666Y-92272680D01*
X220766666Y-92272680D02*
X220566666Y-92339346D01*
X220566666Y-92339346D02*
X220233333Y-92339346D01*
X221633333Y-92339346D02*
X221633333Y-90939346D01*
D11*
X143168639Y-96020606D02*
X143835306Y-96020606D01*
X143035306Y-96420606D02*
X143501973Y-95020606D01*
X143501973Y-95020606D02*
X143968639Y-96420606D01*
X144435306Y-95020606D02*
X144435306Y-96153940D01*
X144435306Y-96153940D02*
X144501973Y-96287273D01*
X144501973Y-96287273D02*
X144568639Y-96353940D01*
X144568639Y-96353940D02*
X144701973Y-96420606D01*
X144701973Y-96420606D02*
X144968639Y-96420606D01*
X144968639Y-96420606D02*
X145101973Y-96353940D01*
X145101973Y-96353940D02*
X145168639Y-96287273D01*
X145168639Y-96287273D02*
X145235306Y-96153940D01*
X145235306Y-96153940D02*
X145235306Y-95020606D01*
X145768640Y-95020606D02*
X146701973Y-96420606D01*
X146701973Y-95020606D02*
X145768640Y-96420606D01*
X148301973Y-96420606D02*
X148301973Y-95020606D01*
X148968640Y-96420606D02*
X148968640Y-95020606D01*
X148968640Y-95020606D02*
X149768640Y-96420606D01*
X149768640Y-96420606D02*
X149768640Y-95020606D01*
X178035306Y-92420606D02*
X178035306Y-91020606D01*
X178635306Y-91153940D02*
X178701973Y-91087273D01*
X178701973Y-91087273D02*
X178835306Y-91020606D01*
X178835306Y-91020606D02*
X179168640Y-91020606D01*
X179168640Y-91020606D02*
X179301973Y-91087273D01*
X179301973Y-91087273D02*
X179368640Y-91153940D01*
X179368640Y-91153940D02*
X179435306Y-91287273D01*
X179435306Y-91287273D02*
X179435306Y-91420606D01*
X179435306Y-91420606D02*
X179368640Y-91620606D01*
X179368640Y-91620606D02*
X178568640Y-92420606D01*
X178568640Y-92420606D02*
X179435306Y-92420606D01*
X179968639Y-92353940D02*
X180168639Y-92420606D01*
X180168639Y-92420606D02*
X180501973Y-92420606D01*
X180501973Y-92420606D02*
X180635306Y-92353940D01*
X180635306Y-92353940D02*
X180701973Y-92287273D01*
X180701973Y-92287273D02*
X180768639Y-92153940D01*
X180768639Y-92153940D02*
X180768639Y-92020606D01*
X180768639Y-92020606D02*
X180701973Y-91887273D01*
X180701973Y-91887273D02*
X180635306Y-91820606D01*
X180635306Y-91820606D02*
X180501973Y-91753940D01*
X180501973Y-91753940D02*
X180235306Y-91687273D01*
X180235306Y-91687273D02*
X180101973Y-91620606D01*
X180101973Y-91620606D02*
X180035306Y-91553940D01*
X180035306Y-91553940D02*
X179968639Y-91420606D01*
X179968639Y-91420606D02*
X179968639Y-91287273D01*
X179968639Y-91287273D02*
X180035306Y-91153940D01*
X180035306Y-91153940D02*
X180101973Y-91087273D01*
X180101973Y-91087273D02*
X180235306Y-91020606D01*
X180235306Y-91020606D02*
X180568639Y-91020606D01*
X180568639Y-91020606D02*
X180768639Y-91087273D01*
X183835306Y-79220606D02*
X183835306Y-77820606D01*
X183835306Y-77820606D02*
X184301973Y-78820606D01*
X184301973Y-78820606D02*
X184768639Y-77820606D01*
X184768639Y-77820606D02*
X184768639Y-79220606D01*
X185235306Y-77820606D02*
X186035306Y-77820606D01*
X185635306Y-79220606D02*
X185635306Y-77820606D01*
X186368640Y-79220606D02*
X187101973Y-78287273D01*
X186368640Y-78287273D02*
X187101973Y-79220606D01*
X189835306Y-79220606D02*
X189768640Y-79220606D01*
X189768640Y-79220606D02*
X189635306Y-79153940D01*
X189635306Y-79153940D02*
X189435306Y-78953940D01*
X189435306Y-78953940D02*
X189101973Y-78553940D01*
X189101973Y-78553940D02*
X188968640Y-78353940D01*
X188968640Y-78353940D02*
X188901973Y-78153940D01*
X188901973Y-78153940D02*
X188901973Y-78020606D01*
X188901973Y-78020606D02*
X188968640Y-77887273D01*
X188968640Y-77887273D02*
X189101973Y-77820606D01*
X189101973Y-77820606D02*
X189168640Y-77820606D01*
X189168640Y-77820606D02*
X189301973Y-77887273D01*
X189301973Y-77887273D02*
X189368640Y-78020606D01*
X189368640Y-78020606D02*
X189368640Y-78087273D01*
X189368640Y-78087273D02*
X189301973Y-78220606D01*
X189301973Y-78220606D02*
X189235306Y-78287273D01*
X189235306Y-78287273D02*
X188835306Y-78553940D01*
X188835306Y-78553940D02*
X188768640Y-78620606D01*
X188768640Y-78620606D02*
X188701973Y-78753940D01*
X188701973Y-78753940D02*
X188701973Y-78953940D01*
X188701973Y-78953940D02*
X188768640Y-79087273D01*
X188768640Y-79087273D02*
X188835306Y-79153940D01*
X188835306Y-79153940D02*
X188968640Y-79220606D01*
X188968640Y-79220606D02*
X189168640Y-79220606D01*
X189168640Y-79220606D02*
X189301973Y-79153940D01*
X189301973Y-79153940D02*
X189368640Y-79087273D01*
X189368640Y-79087273D02*
X189568640Y-78820606D01*
X189568640Y-78820606D02*
X189635306Y-78620606D01*
X189635306Y-78620606D02*
X189635306Y-78487273D01*
X191301973Y-77820606D02*
X191768640Y-79220606D01*
X191768640Y-79220606D02*
X192235306Y-77820606D01*
X192635306Y-78820606D02*
X193301973Y-78820606D01*
X192501973Y-79220606D02*
X192968640Y-77820606D01*
X192968640Y-77820606D02*
X193435306Y-79220606D01*
D12*
X205140560Y-82709523D02*
X205140560Y-82499999D01*
X205140560Y-82499999D02*
X205088180Y-82395237D01*
X205088180Y-82395237D02*
X205035799Y-82342856D01*
X205035799Y-82342856D02*
X204878656Y-82238094D01*
X204878656Y-82238094D02*
X204669132Y-82185713D01*
X204669132Y-82185713D02*
X204250084Y-82185713D01*
X204250084Y-82185713D02*
X204145322Y-82238094D01*
X204145322Y-82238094D02*
X204092941Y-82290475D01*
X204092941Y-82290475D02*
X204040560Y-82395237D01*
X204040560Y-82395237D02*
X204040560Y-82604761D01*
X204040560Y-82604761D02*
X204092941Y-82709523D01*
X204092941Y-82709523D02*
X204145322Y-82761904D01*
X204145322Y-82761904D02*
X204250084Y-82814285D01*
X204250084Y-82814285D02*
X204511989Y-82814285D01*
X204511989Y-82814285D02*
X204616751Y-82761904D01*
X204616751Y-82761904D02*
X204669132Y-82709523D01*
X204669132Y-82709523D02*
X204721513Y-82604761D01*
X204721513Y-82604761D02*
X204721513Y-82395237D01*
X204721513Y-82395237D02*
X204669132Y-82290475D01*
X204669132Y-82290475D02*
X204616751Y-82238094D01*
X204616751Y-82238094D02*
X204511989Y-82185713D01*
D11*
X155035306Y-71620606D02*
X155035306Y-70220606D01*
X155035306Y-70220606D02*
X155568639Y-70220606D01*
X155568639Y-70220606D02*
X155701973Y-70287273D01*
X155701973Y-70287273D02*
X155768639Y-70353940D01*
X155768639Y-70353940D02*
X155835306Y-70487273D01*
X155835306Y-70487273D02*
X155835306Y-70687273D01*
X155835306Y-70687273D02*
X155768639Y-70820606D01*
X155768639Y-70820606D02*
X155701973Y-70887273D01*
X155701973Y-70887273D02*
X155568639Y-70953940D01*
X155568639Y-70953940D02*
X155035306Y-70953940D01*
X156301973Y-70220606D02*
X156635306Y-71620606D01*
X156635306Y-71620606D02*
X156901973Y-70620606D01*
X156901973Y-70620606D02*
X157168639Y-71620606D01*
X157168639Y-71620606D02*
X157501973Y-70220606D01*
X158835306Y-71620606D02*
X158368639Y-70953940D01*
X158035306Y-71620606D02*
X158035306Y-70220606D01*
X158035306Y-70220606D02*
X158568639Y-70220606D01*
X158568639Y-70220606D02*
X158701973Y-70287273D01*
X158701973Y-70287273D02*
X158768639Y-70353940D01*
X158768639Y-70353940D02*
X158835306Y-70487273D01*
X158835306Y-70487273D02*
X158835306Y-70687273D01*
X158835306Y-70687273D02*
X158768639Y-70820606D01*
X158768639Y-70820606D02*
X158701973Y-70887273D01*
X158701973Y-70887273D02*
X158568639Y-70953940D01*
X158568639Y-70953940D02*
X158035306Y-70953940D01*
X160501973Y-71620606D02*
X160501973Y-70220606D01*
X161168640Y-71620606D02*
X161168640Y-70220606D01*
X161168640Y-70220606D02*
X161968640Y-71620606D01*
X161968640Y-71620606D02*
X161968640Y-70220606D01*
D12*
X197150560Y-82959523D02*
X197150560Y-83588095D01*
X197150560Y-83273809D02*
X196050560Y-83273809D01*
X196050560Y-83273809D02*
X196207703Y-83378571D01*
X196207703Y-83378571D02*
X196312465Y-83483333D01*
X196312465Y-83483333D02*
X196364846Y-83588095D01*
X196417227Y-82016666D02*
X197150560Y-82016666D01*
X195998180Y-82278571D02*
X196783894Y-82540476D01*
X196783894Y-82540476D02*
X196783894Y-81859523D01*
D11*
X194608639Y-89887273D02*
X194475306Y-89820606D01*
X194475306Y-89820606D02*
X194275306Y-89820606D01*
X194275306Y-89820606D02*
X194075306Y-89887273D01*
X194075306Y-89887273D02*
X193941973Y-90020606D01*
X193941973Y-90020606D02*
X193875306Y-90153940D01*
X193875306Y-90153940D02*
X193808639Y-90420606D01*
X193808639Y-90420606D02*
X193808639Y-90620606D01*
X193808639Y-90620606D02*
X193875306Y-90887273D01*
X193875306Y-90887273D02*
X193941973Y-91020606D01*
X193941973Y-91020606D02*
X194075306Y-91153940D01*
X194075306Y-91153940D02*
X194275306Y-91220606D01*
X194275306Y-91220606D02*
X194408639Y-91220606D01*
X194408639Y-91220606D02*
X194608639Y-91153940D01*
X194608639Y-91153940D02*
X194675306Y-91087273D01*
X194675306Y-91087273D02*
X194675306Y-90620606D01*
X194675306Y-90620606D02*
X194408639Y-90620606D01*
X195275306Y-91220606D02*
X195275306Y-89820606D01*
X195275306Y-89820606D02*
X195808639Y-89820606D01*
X195808639Y-89820606D02*
X195941973Y-89887273D01*
X195941973Y-89887273D02*
X196008639Y-89953940D01*
X196008639Y-89953940D02*
X196075306Y-90087273D01*
X196075306Y-90087273D02*
X196075306Y-90287273D01*
X196075306Y-90287273D02*
X196008639Y-90420606D01*
X196008639Y-90420606D02*
X195941973Y-90487273D01*
X195941973Y-90487273D02*
X195808639Y-90553940D01*
X195808639Y-90553940D02*
X195275306Y-90553940D01*
X196675306Y-91220606D02*
X196675306Y-89820606D01*
X197608640Y-89820606D02*
X197875306Y-89820606D01*
X197875306Y-89820606D02*
X198008640Y-89887273D01*
X198008640Y-89887273D02*
X198141973Y-90020606D01*
X198141973Y-90020606D02*
X198208640Y-90287273D01*
X198208640Y-90287273D02*
X198208640Y-90753940D01*
X198208640Y-90753940D02*
X198141973Y-91020606D01*
X198141973Y-91020606D02*
X198008640Y-91153940D01*
X198008640Y-91153940D02*
X197875306Y-91220606D01*
X197875306Y-91220606D02*
X197608640Y-91220606D01*
X197608640Y-91220606D02*
X197475306Y-91153940D01*
X197475306Y-91153940D02*
X197341973Y-91020606D01*
X197341973Y-91020606D02*
X197275306Y-90753940D01*
X197275306Y-90753940D02*
X197275306Y-90287273D01*
X197275306Y-90287273D02*
X197341973Y-90020606D01*
X197341973Y-90020606D02*
X197475306Y-89887273D01*
X197475306Y-89887273D02*
X197608640Y-89820606D01*
D13*
%TO.C,U201*%
X191700000Y-76300000D02*
X191700000Y-77100000D01*
X191700000Y-77100000D02*
X192500000Y-77100000D01*
X191900000Y-76900000D02*
X191910000Y-67110000D01*
X205100000Y-67090000D02*
X205100000Y-76900000D01*
X205100000Y-76900000D02*
X191900000Y-76900000D01*
X205300000Y-76300000D02*
X205300000Y-77100000D01*
X205300000Y-77100000D02*
X204500000Y-77100000D01*
%TO.C,R202*%
X188120000Y-71743641D02*
X188120000Y-71436359D01*
X188880000Y-71743641D02*
X188880000Y-71436359D01*
%TO.C,C416*%
X165827500Y-102522164D02*
X165827500Y-102737836D01*
X166547500Y-102522164D02*
X166547500Y-102737836D01*
%TO.C,R415*%
X161620000Y-107796359D02*
X161620000Y-108103641D01*
X162380000Y-107796359D02*
X162380000Y-108103641D01*
%TO.C,C106*%
X172120000Y-67649420D02*
X172120000Y-67930580D01*
X173140000Y-67649420D02*
X173140000Y-67930580D01*
%TO.C,R405*%
X195720000Y-80136359D02*
X195720000Y-80443641D01*
X196480000Y-80136359D02*
X196480000Y-80443641D01*
%TO.C,J203*%
X183615000Y-80520000D02*
X183615000Y-83630000D01*
X183615000Y-80520000D02*
X186275000Y-80520000D01*
X183615000Y-85150000D02*
X183615000Y-88710000D01*
X183615000Y-90230000D02*
X183615000Y-93790000D01*
X183615000Y-95310000D02*
X183615000Y-95880000D01*
X183615000Y-95880000D02*
X186275000Y-95880000D01*
X186275000Y-80520000D02*
X186275000Y-81090000D01*
X186275000Y-81090000D02*
X187795000Y-81090000D01*
X186275000Y-82610000D02*
X186275000Y-86170000D01*
X186275000Y-87690000D02*
X186275000Y-91250000D01*
X186275000Y-92770000D02*
X186275000Y-95880000D01*
%TO.C,C418*%
X165307836Y-105090000D02*
X165092164Y-105090000D01*
X165307836Y-105810000D02*
X165092164Y-105810000D01*
%TO.C,R106*%
X159200436Y-63610000D02*
X160654564Y-63610000D01*
X159200436Y-65430000D02*
X160654564Y-65430000D01*
%TO.C,C419*%
X160640000Y-105942164D02*
X160640000Y-106157836D01*
X161360000Y-105942164D02*
X161360000Y-106157836D01*
%TO.C,R422*%
X177370000Y-104496359D02*
X177370000Y-104803641D01*
X178130000Y-104496359D02*
X178130000Y-104803641D01*
%TO.C,Q402*%
X178390000Y-102287500D02*
X178390000Y-101637500D01*
X178390000Y-102287500D02*
X178390000Y-102937500D01*
X181510000Y-102287500D02*
X181510000Y-101637500D01*
X181510000Y-102287500D02*
X181510000Y-102937500D01*
X178440000Y-103450000D02*
X178110000Y-103690000D01*
X178110000Y-103210000D01*
X178440000Y-103450000D01*
G36*
X178440000Y-103450000D02*
G01*
X178110000Y-103690000D01*
X178110000Y-103210000D01*
X178440000Y-103450000D01*
G37*
%TO.C,C402*%
X171927500Y-98257836D02*
X171927500Y-98042164D01*
X172647500Y-98257836D02*
X172647500Y-98042164D01*
%TO.C,C101*%
X153715000Y-65832164D02*
X153715000Y-66047836D01*
X154435000Y-65832164D02*
X154435000Y-66047836D01*
%TO.C,R216*%
X207977500Y-89837258D02*
X207977500Y-89362742D01*
X209022500Y-89837258D02*
X209022500Y-89362742D01*
%TO.C,R221*%
X224077500Y-90237258D02*
X224077500Y-89762742D01*
X225122500Y-90237258D02*
X225122500Y-89762742D01*
%TO.C,C420*%
X165327836Y-107090000D02*
X165112164Y-107090000D01*
X165327836Y-107810000D02*
X165112164Y-107810000D01*
%TO.C,R213*%
X206846359Y-92320000D02*
X207153641Y-92320000D01*
X206846359Y-93080000D02*
X207153641Y-93080000D01*
%TO.C,R420*%
X142037258Y-91677500D02*
X141562742Y-91677500D01*
X142037258Y-92722500D02*
X141562742Y-92722500D01*
%TO.C,R206*%
X212615000Y-74636359D02*
X212615000Y-74943641D01*
X213375000Y-74636359D02*
X213375000Y-74943641D01*
%TO.C,R101*%
X143096359Y-73920000D02*
X143403641Y-73920000D01*
X143096359Y-74680000D02*
X143403641Y-74680000D01*
%TO.C,R219*%
X213977500Y-89812258D02*
X213977500Y-89337742D01*
X215022500Y-89812258D02*
X215022500Y-89337742D01*
%TO.C,C405*%
X162480000Y-95994420D02*
X162480000Y-96275580D01*
X163500000Y-95994420D02*
X163500000Y-96275580D01*
%TO.C,R423*%
X177370000Y-106703641D02*
X177370000Y-106396359D01*
X178130000Y-106703641D02*
X178130000Y-106396359D01*
%TO.C,C411*%
X163830000Y-100477836D02*
X163830000Y-100262164D01*
X164550000Y-100477836D02*
X164550000Y-100262164D01*
%TO.C,C425*%
X167140000Y-93209420D02*
X167140000Y-93490580D01*
X168160000Y-93209420D02*
X168160000Y-93490580D01*
%TO.C,C103*%
X169540580Y-76890000D02*
X169259420Y-76890000D01*
X169540580Y-77910000D02*
X169259420Y-77910000D01*
%TO.C,R217*%
X209977500Y-89837258D02*
X209977500Y-89362742D01*
X211022500Y-89837258D02*
X211022500Y-89362742D01*
%TO.C,R214*%
X205977500Y-89837258D02*
X205977500Y-89362742D01*
X207022500Y-89837258D02*
X207022500Y-89362742D01*
%TO.C,R406*%
X194220000Y-80146359D02*
X194220000Y-80453641D01*
X194980000Y-80146359D02*
X194980000Y-80453641D01*
%TO.C,R424*%
X179570000Y-99196359D02*
X179570000Y-99503641D01*
X180330000Y-99196359D02*
X180330000Y-99503641D01*
%TO.C,J401*%
X138150000Y-101450000D02*
X140150000Y-101450000D01*
X138150000Y-106650000D02*
X138150000Y-101450000D01*
X140150000Y-100850000D02*
X142000000Y-100850000D01*
X140150000Y-101450000D02*
X140150000Y-100850000D01*
X140150000Y-106650000D02*
X138150000Y-106650000D01*
X140150000Y-107250000D02*
X140150000Y-106650000D01*
X142050000Y-107250000D02*
X140150000Y-107250000D01*
X142050000Y-107250000D02*
X142050000Y-108950000D01*
X143950000Y-108950000D02*
X143950000Y-107250000D01*
X144000000Y-100850000D02*
X148450000Y-100850000D01*
X144800000Y-107250000D02*
X143950000Y-107250000D01*
X149850000Y-107250000D02*
X146650000Y-107250000D01*
X150450000Y-100850000D02*
X150800000Y-100850000D01*
X152350000Y-102750000D02*
X152350000Y-107250000D01*
X152350000Y-107250000D02*
X151750000Y-107250000D01*
%TO.C,R411*%
X161620000Y-104786359D02*
X161620000Y-105093641D01*
X162380000Y-104786359D02*
X162380000Y-105093641D01*
%TO.C,R218*%
X211977500Y-89837258D02*
X211977500Y-89362742D01*
X213022500Y-89837258D02*
X213022500Y-89362742D01*
%TO.C,R414*%
X159607500Y-102596359D02*
X159607500Y-102903641D01*
X160367500Y-102596359D02*
X160367500Y-102903641D01*
%TO.C,R412*%
X143946359Y-97320000D02*
X144253641Y-97320000D01*
X143946359Y-98080000D02*
X144253641Y-98080000D01*
%TO.C,C423*%
X162784420Y-102740000D02*
X163065580Y-102740000D01*
X162784420Y-103760000D02*
X163065580Y-103760000D01*
%TO.C,R418*%
X160337258Y-90077500D02*
X159862742Y-90077500D01*
X160337258Y-91122500D02*
X159862742Y-91122500D01*
%TO.C,C417*%
X163440000Y-104842164D02*
X163440000Y-105057836D01*
X164160000Y-104842164D02*
X164160000Y-105057836D01*
%TO.C,Q202*%
X212385000Y-77677500D02*
X212385000Y-77027500D01*
X212385000Y-77677500D02*
X212385000Y-78327500D01*
X215505000Y-77677500D02*
X215505000Y-77027500D01*
X215505000Y-77677500D02*
X215505000Y-78327500D01*
X215785000Y-76755000D02*
X215455000Y-76515000D01*
X215785000Y-76275000D01*
X215785000Y-76755000D01*
G36*
X215785000Y-76755000D02*
G01*
X215455000Y-76515000D01*
X215785000Y-76275000D01*
X215785000Y-76755000D01*
G37*
%TO.C,C206*%
X204990000Y-102759420D02*
X204990000Y-103040580D01*
X206010000Y-102759420D02*
X206010000Y-103040580D01*
%TO.C,D101*%
X148150000Y-66050000D02*
X148150000Y-64090000D01*
X149350000Y-64090000D02*
X148150000Y-64090000D01*
X149350000Y-66050000D02*
X149350000Y-64090000D01*
%TO.C,C105*%
X169540580Y-61840000D02*
X169259420Y-61840000D01*
X169540580Y-62860000D02*
X169259420Y-62860000D01*
%TO.C,R404*%
X197220000Y-80146359D02*
X197220000Y-80453641D01*
X197980000Y-80146359D02*
X197980000Y-80453641D01*
%TO.C,C207*%
X206440000Y-102792164D02*
X206440000Y-103007836D01*
X207160000Y-102792164D02*
X207160000Y-103007836D01*
%TO.C,J101*%
X138140000Y-63800000D02*
X138140000Y-73200000D01*
X140040000Y-63800000D02*
X138140000Y-63800000D01*
X140040000Y-73200000D02*
X138140000Y-73200000D01*
X143940000Y-63800000D02*
X141940000Y-63800000D01*
X143940000Y-73200000D02*
X141940000Y-73200000D01*
%TO.C,J202*%
X219025000Y-76740000D02*
X219025000Y-73630000D01*
X219025000Y-81820000D02*
X219025000Y-78260000D01*
X219025000Y-86900000D02*
X219025000Y-83340000D01*
X219025000Y-88420000D02*
X217505000Y-88420000D01*
X219025000Y-88990000D02*
X219025000Y-88420000D01*
X221685000Y-73630000D02*
X219025000Y-73630000D01*
X221685000Y-74200000D02*
X221685000Y-73630000D01*
X221685000Y-79280000D02*
X221685000Y-75720000D01*
X221685000Y-84360000D02*
X221685000Y-80800000D01*
X221685000Y-88990000D02*
X219025000Y-88990000D01*
X221685000Y-88990000D02*
X221685000Y-85880000D01*
%TO.C,C422*%
X165112164Y-106090000D02*
X165327836Y-106090000D01*
X165112164Y-106810000D02*
X165327836Y-106810000D01*
%TO.C,R416*%
X163737742Y-90077500D02*
X164212258Y-90077500D01*
X163737742Y-91122500D02*
X164212258Y-91122500D01*
%TO.C,R413*%
X161753641Y-101670000D02*
X161446359Y-101670000D01*
X161753641Y-102430000D02*
X161446359Y-102430000D01*
%TO.C,C205*%
X190790000Y-72727836D02*
X190790000Y-72512164D01*
X191510000Y-72727836D02*
X191510000Y-72512164D01*
%TO.C,D201*%
X223900000Y-85280000D02*
X223900000Y-87240000D01*
X223900000Y-87240000D02*
X225100000Y-87240000D01*
X225100000Y-85280000D02*
X225100000Y-87240000D01*
%TO.C,R403*%
X162728641Y-93795000D02*
X162421359Y-93795000D01*
X162728641Y-94555000D02*
X162421359Y-94555000D01*
%TO.C,R204*%
X201816359Y-86690000D02*
X202123641Y-86690000D01*
X201816359Y-87450000D02*
X202123641Y-87450000D01*
%TO.C,C401*%
X173977500Y-98790580D02*
X173977500Y-98509420D01*
X174997500Y-98790580D02*
X174997500Y-98509420D01*
%TO.C,R419*%
X160362258Y-88377500D02*
X159887742Y-88377500D01*
X160362258Y-89422500D02*
X159887742Y-89422500D01*
D14*
%TO.C,D103*%
X161955000Y-66320000D02*
G75*
G02*
X161855000Y-66320000I-50000J0D01*
G01*
X161855000Y-66320000D02*
G75*
G02*
X161955000Y-66320000I50000J0D01*
G01*
D13*
%TO.C,D202*%
X223900000Y-84160000D02*
X223900000Y-82200000D01*
X225100000Y-82200000D02*
X223900000Y-82200000D01*
X225100000Y-84160000D02*
X225100000Y-82200000D01*
%TO.C,R103*%
X146862742Y-74127500D02*
X147337258Y-74127500D01*
X146862742Y-75172500D02*
X147337258Y-75172500D01*
%TO.C,C412*%
X162248080Y-99810000D02*
X161966920Y-99810000D01*
X162248080Y-100830000D02*
X161966920Y-100830000D01*
%TO.C,R417*%
X163737742Y-88377500D02*
X164212258Y-88377500D01*
X163737742Y-89422500D02*
X164212258Y-89422500D01*
%TO.C,C415*%
X164827500Y-102522164D02*
X164827500Y-102737836D01*
X165547500Y-102522164D02*
X165547500Y-102737836D01*
%TO.C,U401*%
X165940000Y-96140000D02*
X165940000Y-96690000D01*
X165940000Y-100360000D02*
X165940000Y-99810000D01*
X166490000Y-96140000D02*
X165940000Y-96140000D01*
X166490000Y-100360000D02*
X165940000Y-100360000D01*
X169610000Y-96140000D02*
X170160000Y-96140000D01*
X169610000Y-100360000D02*
X169860000Y-100360000D01*
X170160000Y-96140000D02*
X170160000Y-96690000D01*
X170160000Y-99810000D02*
X170160000Y-100120000D01*
X170400000Y-100690000D02*
X169920000Y-100690000D01*
X170160000Y-100360000D01*
X170400000Y-100690000D01*
G36*
X170400000Y-100690000D02*
G01*
X169920000Y-100690000D01*
X170160000Y-100360000D01*
X170400000Y-100690000D01*
G37*
%TO.C,R203*%
X201120000Y-89353641D02*
X201120000Y-89046359D01*
X201880000Y-89353641D02*
X201880000Y-89046359D01*
%TO.C,C202*%
X190790000Y-68507836D02*
X190790000Y-68292164D01*
X191510000Y-68507836D02*
X191510000Y-68292164D01*
%TO.C,J206*%
X197640000Y-82840000D02*
X198690000Y-82840000D01*
X197640000Y-83990000D02*
X197640000Y-82840000D01*
X202690000Y-85960000D02*
X198810000Y-85960000D01*
X202810000Y-82840000D02*
X202810000Y-81850000D01*
X203860000Y-82840000D02*
X202810000Y-82840000D01*
X203860000Y-83990000D02*
X203860000Y-82840000D01*
%TO.C,C408*%
X170065580Y-92465000D02*
X169784420Y-92465000D01*
X170065580Y-93485000D02*
X169784420Y-93485000D01*
%TO.C,R205*%
X213915000Y-74943641D02*
X213915000Y-74636359D01*
X214675000Y-74943641D02*
X214675000Y-74636359D01*
%TO.C,R208*%
X214836359Y-92320000D02*
X215143641Y-92320000D01*
X214836359Y-93080000D02*
X215143641Y-93080000D01*
%TO.C,U102*%
X165470000Y-63317500D02*
X165470000Y-64577500D01*
X165470000Y-70137500D02*
X165470000Y-68877500D01*
X169230000Y-63317500D02*
X165470000Y-63317500D01*
X169230000Y-70137500D02*
X165470000Y-70137500D01*
X170750000Y-70367500D02*
X170270000Y-70367500D01*
X170510000Y-70037500D01*
X170750000Y-70367500D01*
G36*
X170750000Y-70367500D02*
G01*
X170270000Y-70367500D01*
X170510000Y-70037500D01*
X170750000Y-70367500D01*
G37*
%TO.C,R211*%
X208846359Y-92320000D02*
X209153641Y-92320000D01*
X208846359Y-93080000D02*
X209153641Y-93080000D01*
%TO.C,C102*%
X155115000Y-65812164D02*
X155115000Y-66027836D01*
X155835000Y-65812164D02*
X155835000Y-66027836D01*
%TO.C,R402*%
X172907500Y-97996359D02*
X172907500Y-98303641D01*
X173667500Y-97996359D02*
X173667500Y-98303641D01*
%TO.C,J205*%
X183290000Y-73540000D02*
X183290000Y-69660000D01*
X185260000Y-68490000D02*
X186410000Y-68490000D01*
X185260000Y-74710000D02*
X186410000Y-74710000D01*
X186410000Y-68490000D02*
X186410000Y-69540000D01*
X186410000Y-73660000D02*
X187400000Y-73660000D01*
X186410000Y-74710000D02*
X186410000Y-73660000D01*
%TO.C,J204*%
X174290000Y-77390000D02*
X175340000Y-77390000D01*
X174290000Y-78540000D02*
X174290000Y-77390000D01*
X179340000Y-80510000D02*
X175460000Y-80510000D01*
X179460000Y-77390000D02*
X179460000Y-76400000D01*
X180510000Y-77390000D02*
X179460000Y-77390000D01*
X180510000Y-78540000D02*
X180510000Y-77390000D01*
%TO.C,R210*%
X210836359Y-92320000D02*
X211143641Y-92320000D01*
X210836359Y-93080000D02*
X211143641Y-93080000D01*
%TO.C,C403*%
X163759420Y-92465000D02*
X164040580Y-92465000D01*
X163759420Y-93485000D02*
X164040580Y-93485000D01*
%TO.C,R105*%
X159012742Y-77627500D02*
X159487258Y-77627500D01*
X159012742Y-78672500D02*
X159487258Y-78672500D01*
%TO.C,R408*%
X171720000Y-92596359D02*
X171720000Y-92903641D01*
X172480000Y-92596359D02*
X172480000Y-92903641D01*
%TO.C,R207*%
X189653641Y-72720000D02*
X189346359Y-72720000D01*
X189653641Y-73480000D02*
X189346359Y-73480000D01*
%TO.C,Q201*%
X211840000Y-67862500D02*
X211840000Y-67212500D01*
X211840000Y-67862500D02*
X211840000Y-68512500D01*
X214960000Y-67862500D02*
X214960000Y-67212500D01*
X214960000Y-67862500D02*
X214960000Y-68512500D01*
X211890000Y-69025000D02*
X211560000Y-69265000D01*
X211560000Y-68785000D01*
X211890000Y-69025000D01*
G36*
X211890000Y-69025000D02*
G01*
X211560000Y-69265000D01*
X211560000Y-68785000D01*
X211890000Y-69025000D01*
G37*
%TO.C,C406*%
X163830000Y-96627164D02*
X163830000Y-96842836D01*
X164550000Y-96627164D02*
X164550000Y-96842836D01*
%TO.C,C104*%
X172040000Y-82859420D02*
X172040000Y-83140580D01*
X173060000Y-82859420D02*
X173060000Y-83140580D01*
%TO.C,D204*%
X223900000Y-78880000D02*
X223900000Y-76920000D01*
X225100000Y-76920000D02*
X223900000Y-76920000D01*
X225100000Y-78880000D02*
X225100000Y-76920000D01*
%TO.C,C409*%
X163830000Y-98657836D02*
X163830000Y-98442164D01*
X164550000Y-98657836D02*
X164550000Y-98442164D01*
%TO.C,D203*%
X223900000Y-80080000D02*
X223900000Y-82040000D01*
X223900000Y-82040000D02*
X225100000Y-82040000D01*
X225100000Y-80080000D02*
X225100000Y-82040000D01*
%TO.C,D102*%
X148150000Y-70950000D02*
X148150000Y-72910000D01*
X148150000Y-72910000D02*
X149350000Y-72910000D01*
X149350000Y-70950000D02*
X149350000Y-72910000D01*
%TO.C,R215*%
X203977500Y-89837258D02*
X203977500Y-89362742D01*
X205022500Y-89837258D02*
X205022500Y-89362742D01*
%TO.C,U101*%
X165490000Y-78390000D02*
X165490000Y-79650000D01*
X165490000Y-85210000D02*
X165490000Y-83950000D01*
X169250000Y-78390000D02*
X165490000Y-78390000D01*
X169250000Y-85210000D02*
X165490000Y-85210000D01*
X170770000Y-85440000D02*
X170290000Y-85440000D01*
X170530000Y-85110000D01*
X170770000Y-85440000D01*
G36*
X170770000Y-85440000D02*
G01*
X170290000Y-85440000D01*
X170530000Y-85110000D01*
X170770000Y-85440000D01*
G37*
%TO.C,R421*%
X182270000Y-107406359D02*
X182270000Y-107713641D01*
X183030000Y-107406359D02*
X183030000Y-107713641D01*
%TO.C,R102*%
X143096359Y-62320000D02*
X143403641Y-62320000D01*
X143096359Y-63080000D02*
X143403641Y-63080000D01*
%TO.C,R220*%
X219326359Y-109515000D02*
X219633641Y-109515000D01*
X219326359Y-110275000D02*
X219633641Y-110275000D01*
%TO.C,R407*%
X192720000Y-80146359D02*
X192720000Y-80453641D01*
X193480000Y-80146359D02*
X193480000Y-80453641D01*
%TO.C,D205*%
X223900000Y-74820000D02*
X223900000Y-76780000D01*
X223900000Y-76780000D02*
X225100000Y-76780000D01*
X225100000Y-74820000D02*
X225100000Y-76780000D01*
%TO.C,C201*%
X189290000Y-68240580D02*
X189290000Y-67959420D01*
X190310000Y-68240580D02*
X190310000Y-67959420D01*
%TO.C,R201*%
X188120000Y-69396359D02*
X188120000Y-69703641D01*
X188880000Y-69396359D02*
X188880000Y-69703641D01*
%TO.C,C421*%
X163440000Y-107842164D02*
X163440000Y-108057836D01*
X164160000Y-107842164D02*
X164160000Y-108057836D01*
%TO.C,C407*%
X169507836Y-93815000D02*
X169292164Y-93815000D01*
X169507836Y-94535000D02*
X169292164Y-94535000D01*
%TO.C,Q401*%
X180150000Y-104427500D02*
X179500000Y-104427500D01*
X180150000Y-104427500D02*
X180800000Y-104427500D01*
X180150000Y-107547500D02*
X179500000Y-107547500D01*
X180150000Y-107547500D02*
X180800000Y-107547500D01*
X181552500Y-107827500D02*
X181072500Y-107827500D01*
X181312500Y-107497500D01*
X181552500Y-107827500D01*
G36*
X181552500Y-107827500D02*
G01*
X181072500Y-107827500D01*
X181312500Y-107497500D01*
X181552500Y-107827500D01*
G37*
%TO.C,C404*%
X164317164Y-93815000D02*
X164532836Y-93815000D01*
X164317164Y-94535000D02*
X164532836Y-94535000D01*
%TO.C,C424*%
X165665000Y-93209420D02*
X165665000Y-93490580D01*
X166685000Y-93209420D02*
X166685000Y-93490580D01*
%TO.C,R104*%
X158773859Y-65940000D02*
X159081141Y-65940000D01*
X158773859Y-66700000D02*
X159081141Y-66700000D01*
%TO.C,J402*%
X138100000Y-83400000D02*
X140100000Y-83400000D01*
X138100000Y-88600000D02*
X138100000Y-83400000D01*
X140100000Y-82800000D02*
X141950000Y-82800000D01*
X140100000Y-83400000D02*
X140100000Y-82800000D01*
X140100000Y-88600000D02*
X138100000Y-88600000D01*
X140100000Y-89200000D02*
X140100000Y-88600000D01*
X142000000Y-89200000D02*
X140100000Y-89200000D01*
X142000000Y-89200000D02*
X142000000Y-90900000D01*
X143900000Y-90900000D02*
X143900000Y-89200000D01*
X143950000Y-82800000D02*
X148400000Y-82800000D01*
X144750000Y-89200000D02*
X143900000Y-89200000D01*
X149800000Y-89200000D02*
X146600000Y-89200000D01*
X150400000Y-82800000D02*
X150750000Y-82800000D01*
X152300000Y-84700000D02*
X152300000Y-89200000D01*
X152300000Y-89200000D02*
X151700000Y-89200000D01*
%TO.C,R209*%
X212846359Y-92320000D02*
X213153641Y-92320000D01*
X212846359Y-93080000D02*
X213153641Y-93080000D01*
%TO.C,R212*%
X204846359Y-92320000D02*
X205153641Y-92320000D01*
X204846359Y-93080000D02*
X205153641Y-93080000D01*
%TO.C,R401*%
X172633859Y-99170000D02*
X172941141Y-99170000D01*
X172633859Y-99930000D02*
X172941141Y-99930000D01*
%TO.C,C410*%
X161969420Y-98030000D02*
X162250580Y-98030000D01*
X161969420Y-99050000D02*
X162250580Y-99050000D01*
%TO.C,J201*%
X208290000Y-94180000D02*
X222300000Y-94180000D01*
X208290000Y-96100000D02*
X208290000Y-94180000D01*
X208290000Y-107700000D02*
X208290000Y-108150000D01*
X208290000Y-108150000D02*
X211900000Y-108150000D01*
X213600000Y-108150000D02*
X218300000Y-108150000D01*
X219600000Y-108150000D02*
X221400000Y-108150000D01*
X224210000Y-105050000D02*
X224210000Y-98680000D01*
X224210000Y-105050000D02*
X224360000Y-105050000D01*
X224360000Y-95660000D02*
X224360000Y-95400000D01*
X224560000Y-95860000D02*
X224360000Y-95660000D01*
X224560000Y-95860000D02*
X224560000Y-98170000D01*
X224560000Y-98170000D02*
X224210000Y-98680000D01*
X224560000Y-105260000D02*
X224360000Y-105050000D01*
X224560000Y-107120000D02*
X224360000Y-107320000D01*
X224560000Y-107120000D02*
X224560000Y-105260000D01*
%TD*%
M02*
