%TF.GenerationSoftware,KiCad,Pcbnew,8.0.8-8.0.8-0~ubuntu24.04.1*%
%TF.CreationDate,2025-05-06T14:00:24+03:00*%
%TF.ProjectId,kicad_soundcard_dev_v0,6b696361-645f-4736-9f75-6e6463617264,rev?*%
%TF.SameCoordinates,Original*%
%TF.FileFunction,Copper,L1,Top*%
%TF.FilePolarity,Positive*%
%FSLAX46Y46*%
G04 Gerber Fmt 4.6, Leading zero omitted, Abs format (unit mm)*
G04 Created by KiCad (PCBNEW 8.0.8-8.0.8-0~ubuntu24.04.1) date 2025-05-06 14:00:24*
%MOMM*%
%LPD*%
G01*
G04 APERTURE LIST*
G04 Aperture macros list*
%AMRoundRect*
0 Rectangle with rounded corners*
0 $1 Rounding radius*
0 $2 $3 $4 $5 $6 $7 $8 $9 X,Y pos of 4 corners*
0 Add a 4 corners polygon primitive as box body*
4,1,4,$2,$3,$4,$5,$6,$7,$8,$9,$2,$3,0*
0 Add four circle primitives for the rounded corners*
1,1,$1+$1,$2,$3*
1,1,$1+$1,$4,$5*
1,1,$1+$1,$6,$7*
1,1,$1+$1,$8,$9*
0 Add four rect primitives between the rounded corners*
20,1,$1+$1,$2,$3,$4,$5,0*
20,1,$1+$1,$4,$5,$6,$7,0*
20,1,$1+$1,$6,$7,$8,$9,0*
20,1,$1+$1,$8,$9,$2,$3,0*%
%AMFreePoly0*
4,1,6,0.725000,-0.725000,-0.725000,-0.725000,-0.725000,0.125000,-0.125000,0.725000,0.725000,0.725000,0.725000,-0.725000,0.725000,-0.725000,$1*%
G04 Aperture macros list end*
%TA.AperFunction,SMDPad,CuDef*%
%ADD10R,0.800000X0.400000*%
%TD*%
%TA.AperFunction,SMDPad,CuDef*%
%ADD11R,0.400000X0.800000*%
%TD*%
%TA.AperFunction,SMDPad,CuDef*%
%ADD12FreePoly0,0.000000*%
%TD*%
%TA.AperFunction,SMDPad,CuDef*%
%ADD13R,1.450000X1.450000*%
%TD*%
%TA.AperFunction,SMDPad,CuDef*%
%ADD14R,0.700000X0.700000*%
%TD*%
%TA.AperFunction,SMDPad,CuDef*%
%ADD15RoundRect,0.135000X0.185000X-0.135000X0.185000X0.135000X-0.185000X0.135000X-0.185000X-0.135000X0*%
%TD*%
%TA.AperFunction,SMDPad,CuDef*%
%ADD16RoundRect,0.140000X-0.170000X0.140000X-0.170000X-0.140000X0.170000X-0.140000X0.170000X0.140000X0*%
%TD*%
%TA.AperFunction,SMDPad,CuDef*%
%ADD17RoundRect,0.135000X-0.185000X0.135000X-0.185000X-0.135000X0.185000X-0.135000X0.185000X0.135000X0*%
%TD*%
%TA.AperFunction,SMDPad,CuDef*%
%ADD18RoundRect,0.225000X-0.250000X0.225000X-0.250000X-0.225000X0.250000X-0.225000X0.250000X0.225000X0*%
%TD*%
%TA.AperFunction,SMDPad,CuDef*%
%ADD19R,2.510000X1.000000*%
%TD*%
%TA.AperFunction,SMDPad,CuDef*%
%ADD20RoundRect,0.140000X0.140000X0.170000X-0.140000X0.170000X-0.140000X-0.170000X0.140000X-0.170000X0*%
%TD*%
%TA.AperFunction,SMDPad,CuDef*%
%ADD21RoundRect,0.250000X-0.312500X-0.625000X0.312500X-0.625000X0.312500X0.625000X-0.312500X0.625000X0*%
%TD*%
%TA.AperFunction,SMDPad,CuDef*%
%ADD22RoundRect,0.150000X0.150000X-0.587500X0.150000X0.587500X-0.150000X0.587500X-0.150000X-0.587500X0*%
%TD*%
%TA.AperFunction,SMDPad,CuDef*%
%ADD23RoundRect,0.140000X0.170000X-0.140000X0.170000X0.140000X-0.170000X0.140000X-0.170000X-0.140000X0*%
%TD*%
%TA.AperFunction,SMDPad,CuDef*%
%ADD24RoundRect,0.200000X0.275000X-0.200000X0.275000X0.200000X-0.275000X0.200000X-0.275000X-0.200000X0*%
%TD*%
%TA.AperFunction,SMDPad,CuDef*%
%ADD25RoundRect,0.135000X-0.135000X-0.185000X0.135000X-0.185000X0.135000X0.185000X-0.135000X0.185000X0*%
%TD*%
%TA.AperFunction,SMDPad,CuDef*%
%ADD26RoundRect,0.200000X0.200000X0.275000X-0.200000X0.275000X-0.200000X-0.275000X0.200000X-0.275000X0*%
%TD*%
%TA.AperFunction,SMDPad,CuDef*%
%ADD27RoundRect,0.225000X0.225000X0.250000X-0.225000X0.250000X-0.225000X-0.250000X0.225000X-0.250000X0*%
%TD*%
%TA.AperFunction,SMDPad,CuDef*%
%ADD28R,1.500000X2.500000*%
%TD*%
%TA.AperFunction,SMDPad,CuDef*%
%ADD29R,1.500000X3.400000*%
%TD*%
%TA.AperFunction,SMDPad,CuDef*%
%ADD30RoundRect,0.225000X-0.225000X-0.250000X0.225000X-0.250000X0.225000X0.250000X-0.225000X0.250000X0*%
%TD*%
%TA.AperFunction,SMDPad,CuDef*%
%ADD31RoundRect,0.150000X-0.150000X0.587500X-0.150000X-0.587500X0.150000X-0.587500X0.150000X0.587500X0*%
%TD*%
%TA.AperFunction,SMDPad,CuDef*%
%ADD32RoundRect,0.150000X0.200000X-0.150000X0.200000X0.150000X-0.200000X0.150000X-0.200000X-0.150000X0*%
%TD*%
%TA.AperFunction,SMDPad,CuDef*%
%ADD33R,1.450000X0.600000*%
%TD*%
%TA.AperFunction,SMDPad,CuDef*%
%ADD34R,1.450000X0.300000*%
%TD*%
%TA.AperFunction,HeatsinkPad*%
%ADD35O,2.100000X1.000000*%
%TD*%
%TA.AperFunction,HeatsinkPad*%
%ADD36O,1.600000X1.000000*%
%TD*%
%TA.AperFunction,SMDPad,CuDef*%
%ADD37RoundRect,0.140000X-0.140000X-0.170000X0.140000X-0.170000X0.140000X0.170000X-0.140000X0.170000X0*%
%TD*%
%TA.AperFunction,SMDPad,CuDef*%
%ADD38RoundRect,0.200000X-0.200000X-0.275000X0.200000X-0.275000X0.200000X0.275000X-0.200000X0.275000X0*%
%TD*%
%TA.AperFunction,SMDPad,CuDef*%
%ADD39RoundRect,0.135000X0.135000X0.185000X-0.135000X0.185000X-0.135000X-0.185000X0.135000X-0.185000X0*%
%TD*%
%TA.AperFunction,SMDPad,CuDef*%
%ADD40RoundRect,0.150000X-0.200000X0.150000X-0.200000X-0.150000X0.200000X-0.150000X0.200000X0.150000X0*%
%TD*%
%TA.AperFunction,SMDPad,CuDef*%
%ADD41RoundRect,0.225000X0.250000X-0.225000X0.250000X0.225000X-0.250000X0.225000X-0.250000X-0.225000X0*%
%TD*%
%TA.AperFunction,SMDPad,CuDef*%
%ADD42RoundRect,0.147500X0.147500X0.172500X-0.147500X0.172500X-0.147500X-0.172500X0.147500X-0.172500X0*%
%TD*%
%TA.AperFunction,SMDPad,CuDef*%
%ADD43RoundRect,0.050000X0.387500X0.050000X-0.387500X0.050000X-0.387500X-0.050000X0.387500X-0.050000X0*%
%TD*%
%TA.AperFunction,SMDPad,CuDef*%
%ADD44RoundRect,0.050000X0.050000X0.387500X-0.050000X0.387500X-0.050000X-0.387500X0.050000X-0.387500X0*%
%TD*%
%TA.AperFunction,HeatsinkPad*%
%ADD45R,2.600000X2.600000*%
%TD*%
%TA.AperFunction,SMDPad,CuDef*%
%ADD46RoundRect,0.150000X0.150000X0.625000X-0.150000X0.625000X-0.150000X-0.625000X0.150000X-0.625000X0*%
%TD*%
%TA.AperFunction,SMDPad,CuDef*%
%ADD47RoundRect,0.250000X0.350000X0.650000X-0.350000X0.650000X-0.350000X-0.650000X0.350000X-0.650000X0*%
%TD*%
%TA.AperFunction,SMDPad,CuDef*%
%ADD48RoundRect,0.375000X0.625000X0.375000X-0.625000X0.375000X-0.625000X-0.375000X0.625000X-0.375000X0*%
%TD*%
%TA.AperFunction,SMDPad,CuDef*%
%ADD49RoundRect,0.500000X0.500000X1.400000X-0.500000X1.400000X-0.500000X-1.400000X0.500000X-1.400000X0*%
%TD*%
%TA.AperFunction,SMDPad,CuDef*%
%ADD50RoundRect,0.150000X0.625000X-0.150000X0.625000X0.150000X-0.625000X0.150000X-0.625000X-0.150000X0*%
%TD*%
%TA.AperFunction,SMDPad,CuDef*%
%ADD51RoundRect,0.250000X0.650000X-0.350000X0.650000X0.350000X-0.650000X0.350000X-0.650000X-0.350000X0*%
%TD*%
%TA.AperFunction,SMDPad,CuDef*%
%ADD52RoundRect,0.150000X0.587500X0.150000X-0.587500X0.150000X-0.587500X-0.150000X0.587500X-0.150000X0*%
%TD*%
%TA.AperFunction,SMDPad,CuDef*%
%ADD53RoundRect,0.147500X-0.147500X-0.172500X0.147500X-0.172500X0.147500X0.172500X-0.147500X0.172500X0*%
%TD*%
%TA.AperFunction,SMDPad,CuDef*%
%ADD54R,1.200000X0.700000*%
%TD*%
%TA.AperFunction,SMDPad,CuDef*%
%ADD55R,0.800000X1.000000*%
%TD*%
%TA.AperFunction,SMDPad,CuDef*%
%ADD56R,1.200000X1.000000*%
%TD*%
%TA.AperFunction,SMDPad,CuDef*%
%ADD57R,2.800000X1.000000*%
%TD*%
%TA.AperFunction,SMDPad,CuDef*%
%ADD58R,1.900000X1.300000*%
%TD*%
%TA.AperFunction,ViaPad*%
%ADD59C,0.700000*%
%TD*%
%TA.AperFunction,ViaPad*%
%ADD60C,0.800000*%
%TD*%
%TA.AperFunction,ViaPad*%
%ADD61C,0.550000*%
%TD*%
%TA.AperFunction,Conductor*%
%ADD62C,0.300000*%
%TD*%
%TA.AperFunction,Conductor*%
%ADD63C,0.500000*%
%TD*%
%TA.AperFunction,Conductor*%
%ADD64C,0.200000*%
%TD*%
%TA.AperFunction,Conductor*%
%ADD65C,0.150000*%
%TD*%
%TA.AperFunction,Conductor*%
%ADD66C,0.230000*%
%TD*%
%TA.AperFunction,Conductor*%
%ADD67C,0.349300*%
%TD*%
G04 APERTURE END LIST*
D10*
%TO.P,U201,1,GND*%
%TO.N,GND*%
X192600000Y-67300000D03*
%TO.P,U201,2,GND*%
X192600000Y-68100000D03*
%TO.P,U201,3,3V3*%
%TO.N,+3.3V*%
X192600000Y-68900000D03*
%TO.P,U201,4,NC*%
%TO.N,unconnected-(U201-NC-Pad4)*%
X192600000Y-69700000D03*
%TO.P,U201,5,GPIO2/ADC1_CH2*%
%TO.N,I2C_SCL*%
X192600000Y-70500000D03*
%TO.P,U201,6,GPIO3/ADC1_CH3*%
%TO.N,I2C_SDA*%
X192600000Y-71300000D03*
%TO.P,U201,7,NC*%
%TO.N,unconnected-(U201-NC-Pad7)*%
X192600000Y-72100000D03*
%TO.P,U201,8,EN/CHIP_PU*%
%TO.N,/MCU/CHIP_PU*%
X192600000Y-72900000D03*
%TO.P,U201,9,MTMS/GPIO4/ADC1_CH4*%
%TO.N,/MCU/STRAP_MTMS*%
X192600000Y-73700000D03*
%TO.P,U201,10,MTDI/GPIO5/ADC1_CH5*%
%TO.N,/MCU/STRAP_MTDI*%
X192600000Y-74500000D03*
%TO.P,U201,11,GND*%
%TO.N,GND*%
X192600000Y-75300000D03*
D11*
%TO.P,U201,12,GPIO0/ADC1_CH0/XTAL_32K_P*%
%TO.N,I2S_DOUT*%
X193700000Y-76200000D03*
%TO.P,U201,13,GPIO1/ADC1_CH1/XTAL_32K_N*%
%TO.N,I2S_LRCK*%
X194500000Y-76200000D03*
%TO.P,U201,14,GND*%
%TO.N,GND*%
X195300000Y-76200000D03*
%TO.P,U201,15,MTCK/GPIO6/ADC1_CH6*%
%TO.N,I2S_DIN*%
X196100000Y-76200000D03*
%TO.P,U201,16,MTDO/GPIO7*%
%TO.N,I2S_BCK*%
X196900000Y-76200000D03*
%TO.P,U201,17,GPIO12/USB_D-*%
%TO.N,I2S_MCLK*%
X197700000Y-76200000D03*
%TO.P,U201,18,GPIO13/USB_D+*%
%TO.N,AUX_IN_DETECT*%
X198500000Y-76200000D03*
%TO.P,U201,19,GPIO14*%
%TO.N,/MCU/MCU_GPIO14*%
X199300000Y-76200000D03*
%TO.P,U201,20,GPIO15*%
%TO.N,/MCU/SD_DETECT*%
X200100000Y-76200000D03*
%TO.P,U201,21,NC*%
%TO.N,unconnected-(U201-NC-Pad21)*%
X200900000Y-76200000D03*
%TO.P,U201,22,GPIO8*%
%TO.N,/MCU/STRAP_GPIO8*%
X201700000Y-76200000D03*
%TO.P,U201,23,GPIO9*%
%TO.N,/MCU/STRAP_GPIO_9*%
X202500000Y-76200000D03*
%TO.P,U201,24,GPIO18*%
%TO.N,/MCU/SDIO_CMD*%
X203300000Y-76200000D03*
D10*
%TO.P,U201,25,GPIO19*%
%TO.N,/MCU/SDIO_CLK*%
X204400000Y-75300000D03*
%TO.P,U201,26,GPIO20*%
%TO.N,/MCU/SDIO_DAT0*%
X204400000Y-74500000D03*
%TO.P,U201,27,GPIO21*%
%TO.N,/MCU/SDIO_DAT1*%
X204400000Y-73700000D03*
%TO.P,U201,28,GPIO22*%
%TO.N,/MCU/SDIO_DAT2*%
X204400000Y-72900000D03*
%TO.P,U201,29,GPIO23*%
%TO.N,/MCU/SDIO_DAT3*%
X204400000Y-72100000D03*
%TO.P,U201,30,U0RXD/GPIO17*%
%TO.N,/MCU/UART0_RX*%
X204400000Y-71300000D03*
%TO.P,U201,31,U0TXD/GPIO16*%
%TO.N,/MCU/UART0_TX*%
X204400000Y-70500000D03*
%TO.P,U201,32,NC*%
%TO.N,unconnected-(U201-NC-Pad32)*%
X204400000Y-69700000D03*
%TO.P,U201,33,NC*%
%TO.N,unconnected-(U201-NC-Pad33)*%
X204400000Y-68900000D03*
%TO.P,U201,34,NC*%
%TO.N,unconnected-(U201-NC-Pad34)*%
X204400000Y-68100000D03*
%TO.P,U201,35,NC*%
%TO.N,unconnected-(U201-NC-Pad35)*%
X204400000Y-67300000D03*
D11*
%TO.P,U201,36,GND*%
%TO.N,GND*%
X203300000Y-66400000D03*
%TO.P,U201,37,GND*%
X202500000Y-66400000D03*
%TO.P,U201,38,GND*%
X201700000Y-66400000D03*
%TO.P,U201,39,GND*%
X200900000Y-66400000D03*
%TO.P,U201,40,GND*%
X200100000Y-66400000D03*
%TO.P,U201,41,GND*%
X199300000Y-66400000D03*
%TO.P,U201,42,GND*%
X198500000Y-66400000D03*
%TO.P,U201,43,GND*%
X197700000Y-66400000D03*
%TO.P,U201,44,GND*%
X196900000Y-66400000D03*
%TO.P,U201,45,GND*%
X196100000Y-66400000D03*
%TO.P,U201,46,GND*%
X195300000Y-66400000D03*
%TO.P,U201,47,GND*%
X194500000Y-66400000D03*
%TO.P,U201,48,GND*%
X193700000Y-66400000D03*
D12*
%TO.P,U201,49,GND*%
X196525000Y-69325000D03*
D13*
X196525000Y-71300000D03*
X196525000Y-73275000D03*
X198500000Y-69325000D03*
X198500000Y-71300000D03*
X198500000Y-73275000D03*
X200475000Y-69325000D03*
X200475000Y-71300000D03*
X200475000Y-73275000D03*
D14*
%TO.P,U201,50,GND*%
X204450000Y-66350000D03*
%TO.P,U201,51,GND*%
X204450000Y-76250000D03*
%TO.P,U201,52,GND*%
X192550000Y-76250000D03*
%TO.P,U201,53,GND*%
X192550000Y-66350000D03*
%TD*%
D15*
%TO.P,R202,1*%
%TO.N,+3.3V*%
X188500000Y-72100000D03*
%TO.P,R202,2*%
%TO.N,I2C_SDA*%
X188500000Y-71080000D03*
%TD*%
D16*
%TO.P,C416,1*%
%TO.N,/Audio CODEC/LIN2_GND*%
X166187500Y-102150000D03*
%TO.P,C416,2*%
%TO.N,GND*%
X166187500Y-103110000D03*
%TD*%
D17*
%TO.P,R415,1*%
%TO.N,/Audio CODEC/AUX_In_-*%
X162000000Y-107440000D03*
%TO.P,R415,2*%
%TO.N,GND*%
X162000000Y-108460000D03*
%TD*%
D18*
%TO.P,C106,1*%
%TO.N,+3.3V*%
X172630000Y-67015000D03*
%TO.P,C106,2*%
%TO.N,GND*%
X172630000Y-68565000D03*
%TD*%
D17*
%TO.P,R405,1*%
%TO.N,I2S_BCK*%
X196100000Y-79780000D03*
%TO.P,R405,2*%
%TO.N,ES8388_I2S_BCK*%
X196100000Y-80800000D03*
%TD*%
D19*
%TO.P,J203,1,Pin_1*%
%TO.N,I2S_DOUT*%
X186600000Y-81850000D03*
%TO.P,J203,2,Pin_2*%
%TO.N,ES8388_I2S_LRCK*%
X183290000Y-84390000D03*
%TO.P,J203,3,Pin_3*%
%TO.N,ES8388_I2S_DIN*%
X186600000Y-86930000D03*
%TO.P,J203,4,Pin_4*%
%TO.N,ES8388_I2S_BCK*%
X183290000Y-89470000D03*
%TO.P,J203,5,Pin_5*%
%TO.N,ES8388_I2S_MCLK*%
X186600000Y-92010000D03*
%TO.P,J203,6,Pin_6*%
%TO.N,AUX_IN_DETECT*%
X183290000Y-94550000D03*
%TD*%
D20*
%TO.P,C418,1*%
%TO.N,/Audio CODEC/ES8388_AuxIn+*%
X165680000Y-105450000D03*
%TO.P,C418,2*%
%TO.N,/Audio CODEC/AUX_In_+*%
X164720000Y-105450000D03*
%TD*%
D21*
%TO.P,R106,1*%
%TO.N,+5V*%
X158465000Y-64520000D03*
%TO.P,R106,2*%
%TO.N,/Power/5V_Filt_D*%
X161390000Y-64520000D03*
%TD*%
D16*
%TO.P,C419,1*%
%TO.N,/Audio CODEC/AUX_In_+*%
X161000000Y-105570000D03*
%TO.P,C419,2*%
%TO.N,/Audio CODEC/AUX_In_-*%
X161000000Y-106530000D03*
%TD*%
D17*
%TO.P,R422,1*%
%TO.N,/Audio CODEC/Q2_G*%
X177750000Y-104140000D03*
%TO.P,R422,2*%
%TO.N,/Audio CODEC/Q1_D*%
X177750000Y-105160000D03*
%TD*%
D22*
%TO.P,Q402,1,G*%
%TO.N,/Audio CODEC/Q2_G*%
X179000000Y-103225000D03*
%TO.P,Q402,2,S*%
%TO.N,GND*%
X180900000Y-103225000D03*
%TO.P,Q402,3,D*%
%TO.N,AUX_IN_DETECT*%
X179950000Y-101350000D03*
%TD*%
D23*
%TO.P,C402,1*%
%TO.N,/Audio CODEC/ES8388_DVDD*%
X172287500Y-98630000D03*
%TO.P,C402,2*%
%TO.N,GND*%
X172287500Y-97670000D03*
%TD*%
D16*
%TO.P,C101,1*%
%TO.N,VBUS*%
X154075000Y-65460000D03*
%TO.P,C101,2*%
%TO.N,GND*%
X154075000Y-66420000D03*
%TD*%
D24*
%TO.P,R216,1*%
%TO.N,/MCU/uSD_CMD*%
X208500000Y-90425000D03*
%TO.P,R216,2*%
%TO.N,/MCU/SDIO_CMD*%
X208500000Y-88775000D03*
%TD*%
%TO.P,R221,1*%
%TO.N,/MCU/SD_Shield_Diconnect*%
X224600000Y-90825000D03*
%TO.P,R221,2*%
%TO.N,GND*%
X224600000Y-89175000D03*
%TD*%
D20*
%TO.P,C420,1*%
%TO.N,/Audio CODEC/ES8388_AuxIn-*%
X165700000Y-107450000D03*
%TO.P,C420,2*%
%TO.N,/Audio CODEC/AUX_In_-*%
X164740000Y-107450000D03*
%TD*%
D25*
%TO.P,R213,1*%
%TO.N,/MCU/uSD_DAT2*%
X206490000Y-92700000D03*
%TO.P,R213,2*%
%TO.N,+3.3V*%
X207510000Y-92700000D03*
%TD*%
D26*
%TO.P,R420,1*%
%TO.N,GND*%
X142625000Y-92200000D03*
%TO.P,R420,2*%
%TO.N,Net-(J402-PadR2)*%
X140975000Y-92200000D03*
%TD*%
D17*
%TO.P,R206,1*%
%TO.N,/MCU/FTDI_RTS*%
X212995000Y-74280000D03*
%TO.P,R206,2*%
%TO.N,/MCU/RTS*%
X212995000Y-75300000D03*
%TD*%
D25*
%TO.P,R101,1*%
%TO.N,Net-(J101-CC2)*%
X142740000Y-74300000D03*
%TO.P,R101,2*%
%TO.N,GND*%
X143760000Y-74300000D03*
%TD*%
D24*
%TO.P,R219,1*%
%TO.N,/MCU/uSD_DAT1*%
X214500000Y-90400000D03*
%TO.P,R219,2*%
%TO.N,/MCU/SDIO_DAT1*%
X214500000Y-88750000D03*
%TD*%
D18*
%TO.P,C405,1*%
%TO.N,/Audio CODEC/ES8388_AVDD*%
X162990000Y-95360000D03*
%TO.P,C405,2*%
%TO.N,GND*%
X162990000Y-96910000D03*
%TD*%
D15*
%TO.P,R423,1*%
%TO.N,+3.3V*%
X177750000Y-107060000D03*
%TO.P,R423,2*%
%TO.N,/Audio CODEC/Q1_D*%
X177750000Y-106040000D03*
%TD*%
D23*
%TO.P,C411,1*%
%TO.N,/Audio CODEC/ES8388_VMID*%
X164190000Y-100850000D03*
%TO.P,C411,2*%
%TO.N,GND*%
X164190000Y-99890000D03*
%TD*%
D18*
%TO.P,C425,1*%
%TO.N,Net-(C425-Pad1)*%
X167650000Y-92575000D03*
%TO.P,C425,2*%
%TO.N,/Audio CODEC/ES8388_ROut*%
X167650000Y-94125000D03*
%TD*%
D27*
%TO.P,C103,1*%
%TO.N,/Power/5V_Filt_A*%
X170175000Y-77400000D03*
%TO.P,C103,2*%
%TO.N,GND*%
X168625000Y-77400000D03*
%TD*%
D24*
%TO.P,R217,1*%
%TO.N,/MCU/uSD_CLK*%
X210500000Y-90425000D03*
%TO.P,R217,2*%
%TO.N,/MCU/SDIO_CLK*%
X210500000Y-88775000D03*
%TD*%
%TO.P,R214,1*%
%TO.N,/MCU/uSD_DAT2*%
X206500000Y-90425000D03*
%TO.P,R214,2*%
%TO.N,/MCU/SDIO_DAT2*%
X206500000Y-88775000D03*
%TD*%
D17*
%TO.P,R406,1*%
%TO.N,I2S_DIN*%
X194600000Y-79790000D03*
%TO.P,R406,2*%
%TO.N,ES8388_I2S_DIN*%
X194600000Y-80810000D03*
%TD*%
%TO.P,R424,1*%
%TO.N,+3.3V*%
X179950000Y-98840000D03*
%TO.P,R424,2*%
%TO.N,AUX_IN_DETECT*%
X179950000Y-99860000D03*
%TD*%
D28*
%TO.P,J401,R1*%
%TO.N,/Audio CODEC/AUX_In_-*%
X145700000Y-107700000D03*
%TO.P,J401,R1N*%
X150800000Y-107700000D03*
D29*
%TO.P,J401,R2*%
%TO.N,GND*%
X143000000Y-101050000D03*
D28*
%TO.P,J401,S*%
X143000000Y-107700000D03*
%TO.P,J401,T*%
%TO.N,/Audio CODEC/AUX_In_+*%
X149500000Y-100400000D03*
D29*
%TO.P,J401,TN*%
%TO.N,/Audio CODEC/AUX_Det*%
X151700000Y-100850000D03*
%TD*%
D17*
%TO.P,R411,1*%
%TO.N,/Audio CODEC/AUX_VREF*%
X162000000Y-104430000D03*
%TO.P,R411,2*%
%TO.N,/Audio CODEC/AUX_In_+*%
X162000000Y-105450000D03*
%TD*%
D24*
%TO.P,R218,1*%
%TO.N,/MCU/uSD_DAT0*%
X212500000Y-90425000D03*
%TO.P,R218,2*%
%TO.N,/MCU/SDIO_DAT0*%
X212500000Y-88775000D03*
%TD*%
D17*
%TO.P,R414,1*%
%TO.N,+3.3VA*%
X159987500Y-102240000D03*
%TO.P,R414,2*%
%TO.N,/Audio CODEC/AUX_VREF*%
X159987500Y-103260000D03*
%TD*%
D25*
%TO.P,R412,1*%
%TO.N,GND*%
X143590000Y-97700000D03*
%TO.P,R412,2*%
%TO.N,/Audio CODEC/AUX_Det*%
X144610000Y-97700000D03*
%TD*%
D30*
%TO.P,C423,1*%
%TO.N,/Audio CODEC/AUX_VREF*%
X162150000Y-103250000D03*
%TO.P,C423,2*%
%TO.N,GND*%
X163700000Y-103250000D03*
%TD*%
D26*
%TO.P,R418,1*%
%TO.N,Net-(R416-Pad1)*%
X160925000Y-90600000D03*
%TO.P,R418,2*%
%TO.N,/Audio CODEC/Phones_Out_L*%
X159275000Y-90600000D03*
%TD*%
D16*
%TO.P,C417,1*%
%TO.N,GND*%
X163800000Y-104470000D03*
%TO.P,C417,2*%
%TO.N,/Audio CODEC/AUX_In_+*%
X163800000Y-105430000D03*
%TD*%
D31*
%TO.P,Q202,1,C*%
%TO.N,/MCU/STRAP_GPIO_9*%
X214895000Y-76740000D03*
%TO.P,Q202,2,B*%
%TO.N,/MCU/RTS*%
X212995000Y-76740000D03*
%TO.P,Q202,3,E*%
%TO.N,/MCU/FTDI_DTR*%
X213945000Y-78615000D03*
%TD*%
D18*
%TO.P,C206,1*%
%TO.N,+3.3V*%
X205500000Y-102125000D03*
%TO.P,C206,2*%
%TO.N,GND*%
X205500000Y-103675000D03*
%TD*%
D32*
%TO.P,D101,1,A1*%
%TO.N,GND*%
X148750000Y-64650000D03*
%TO.P,D101,2,A2*%
%TO.N,VBUS*%
X148750000Y-66050000D03*
%TD*%
D27*
%TO.P,C105,1*%
%TO.N,/Power/5V_Filt_D*%
X170175000Y-62350000D03*
%TO.P,C105,2*%
%TO.N,GND*%
X168625000Y-62350000D03*
%TD*%
D17*
%TO.P,R404,1*%
%TO.N,I2S_MCLK*%
X197600000Y-79790000D03*
%TO.P,R404,2*%
%TO.N,ES8388_I2S_MCLK*%
X197600000Y-80810000D03*
%TD*%
D16*
%TO.P,C207,1*%
%TO.N,+3.3V*%
X206800000Y-102420000D03*
%TO.P,C207,2*%
%TO.N,GND*%
X206800000Y-103380000D03*
%TD*%
D33*
%TO.P,J101,A1,GND*%
%TO.N,GND*%
X146085000Y-65250000D03*
%TO.P,J101,A4,VBUS*%
%TO.N,VBUS*%
X146085000Y-66050000D03*
D34*
%TO.P,J101,A5,CC1*%
%TO.N,Net-(J101-CC1)*%
X146085000Y-67250000D03*
%TO.P,J101,A6,D+*%
%TO.N,unconnected-(J101-D+-PadA6)*%
X146085000Y-68250000D03*
%TO.P,J101,A7,D-*%
%TO.N,unconnected-(J101-D--PadA7)*%
X146085000Y-68750000D03*
%TO.P,J101,A8,SBU1*%
%TO.N,unconnected-(J101-SBU1-PadA8)*%
X146085000Y-69750000D03*
D33*
%TO.P,J101,A9,VBUS*%
%TO.N,VBUS*%
X146085000Y-70950000D03*
%TO.P,J101,A12,GND*%
%TO.N,GND*%
X146085000Y-71750000D03*
%TO.P,J101,B1,GND*%
X146085000Y-71750000D03*
%TO.P,J101,B4,VBUS*%
%TO.N,VBUS*%
X146085000Y-70950000D03*
D34*
%TO.P,J101,B5,CC2*%
%TO.N,Net-(J101-CC2)*%
X146085000Y-70250000D03*
%TO.P,J101,B6,D+*%
%TO.N,unconnected-(J101-D+-PadB6)*%
X146085000Y-69250000D03*
%TO.P,J101,B7,D-*%
%TO.N,unconnected-(J101-D--PadB7)*%
X146085000Y-67750000D03*
%TO.P,J101,B8,SBU2*%
%TO.N,unconnected-(J101-SBU2-PadB8)*%
X146085000Y-66750000D03*
D33*
%TO.P,J101,B9,VBUS*%
%TO.N,VBUS*%
X146085000Y-66050000D03*
%TO.P,J101,B12,GND*%
%TO.N,GND*%
X146085000Y-65250000D03*
D35*
%TO.P,J101,S1,SHIELD*%
%TO.N,/Power/USB_shield_disconnect*%
X145170000Y-64180000D03*
D36*
X140990000Y-64180000D03*
D35*
X145170000Y-72820000D03*
D36*
X140990000Y-72820000D03*
%TD*%
D19*
%TO.P,J202,1,Pin_1*%
%TO.N,GND*%
X218700000Y-87660000D03*
%TO.P,J202,2,Pin_2*%
%TO.N,/MCU/FTDI_DTR*%
X222010000Y-85120000D03*
%TO.P,J202,3,Pin_3*%
%TO.N,VBUS*%
X218700000Y-82580000D03*
%TO.P,J202,4,Pin_4*%
%TO.N,/MCU/UART0_RX*%
X222010000Y-80040000D03*
%TO.P,J202,5,Pin_5*%
%TO.N,/MCU/UART0_TX*%
X218700000Y-77500000D03*
%TO.P,J202,6,Pin_6*%
%TO.N,/MCU/FTDI_RTS*%
X222010000Y-74960000D03*
%TD*%
D37*
%TO.P,C422,1*%
%TO.N,/Audio CODEC/AUX_VREF*%
X164740000Y-106450000D03*
%TO.P,C422,2*%
%TO.N,/Audio CODEC/ES8388_AuxIn-*%
X165700000Y-106450000D03*
%TD*%
D38*
%TO.P,R416,1*%
%TO.N,Net-(R416-Pad1)*%
X163150000Y-90600000D03*
%TO.P,R416,2*%
%TO.N,Net-(C424-Pad1)*%
X164800000Y-90600000D03*
%TD*%
D39*
%TO.P,R413,1*%
%TO.N,/Audio CODEC/ES8388_ADCVREF*%
X162110000Y-102050000D03*
%TO.P,R413,2*%
%TO.N,/Audio CODEC/AUX_VREF*%
X161090000Y-102050000D03*
%TD*%
D23*
%TO.P,C205,1*%
%TO.N,/MCU/CHIP_PU*%
X191150000Y-73100000D03*
%TO.P,C205,2*%
%TO.N,GND*%
X191150000Y-72140000D03*
%TD*%
D40*
%TO.P,D201,1,A1*%
%TO.N,GND*%
X224500000Y-86680000D03*
%TO.P,D201,2,A2*%
%TO.N,/MCU/FTDI_DTR*%
X224500000Y-85280000D03*
%TD*%
D39*
%TO.P,R403,1*%
%TO.N,+3.3VA*%
X163085000Y-94175000D03*
%TO.P,R403,2*%
%TO.N,/Audio CODEC/ES8388_AVDD*%
X162065000Y-94175000D03*
%TD*%
D25*
%TO.P,R204,1*%
%TO.N,/MCU/STRAP_GPIO8*%
X201460000Y-87070000D03*
%TO.P,R204,2*%
%TO.N,+3.3V*%
X202480000Y-87070000D03*
%TD*%
D41*
%TO.P,C401,1*%
%TO.N,+3.3V*%
X174487500Y-99425000D03*
%TO.P,C401,2*%
%TO.N,GND*%
X174487500Y-97875000D03*
%TD*%
D26*
%TO.P,R419,1*%
%TO.N,Net-(R417-Pad1)*%
X160950000Y-88900000D03*
%TO.P,R419,2*%
%TO.N,/Audio CODEC/Phones_Out_R*%
X159300000Y-88900000D03*
%TD*%
D42*
%TO.P,D103,1,K*%
%TO.N,GND*%
X161300000Y-66320000D03*
%TO.P,D103,2,A*%
%TO.N,Net-(D103-A)*%
X160330000Y-66320000D03*
%TD*%
D32*
%TO.P,D202,1,A1*%
%TO.N,GND*%
X224500000Y-82760000D03*
%TO.P,D202,2,A2*%
%TO.N,VBUS*%
X224500000Y-84160000D03*
%TD*%
D38*
%TO.P,R103,1*%
%TO.N,/Power/USB_shield_disconnect*%
X146275000Y-74650000D03*
%TO.P,R103,2*%
%TO.N,GND*%
X147925000Y-74650000D03*
%TD*%
D27*
%TO.P,C412,1*%
%TO.N,/Audio CODEC/ES8388_VMID*%
X162882500Y-100320000D03*
%TO.P,C412,2*%
%TO.N,GND*%
X161332500Y-100320000D03*
%TD*%
D38*
%TO.P,R417,1*%
%TO.N,Net-(R417-Pad1)*%
X163150000Y-88900000D03*
%TO.P,R417,2*%
%TO.N,Net-(C425-Pad1)*%
X164800000Y-88900000D03*
%TD*%
D16*
%TO.P,C415,1*%
%TO.N,/Audio CODEC/RIN2_GND*%
X165187500Y-102150000D03*
%TO.P,C415,2*%
%TO.N,GND*%
X165187500Y-103110000D03*
%TD*%
D43*
%TO.P,U401,1,MCLK*%
%TO.N,ES8388_I2S_MCLK*%
X169987500Y-99450000D03*
%TO.P,U401,2,DVDD*%
%TO.N,/Audio CODEC/ES8388_DVDD*%
X169987500Y-99050000D03*
%TO.P,U401,3,PVDD*%
X169987500Y-98650000D03*
%TO.P,U401,4,DGND*%
%TO.N,GND*%
X169987500Y-98250000D03*
%TO.P,U401,5,SCLK*%
%TO.N,ES8388_I2S_BCK*%
X169987500Y-97850000D03*
%TO.P,U401,6,DSDIN*%
%TO.N,ES8388_I2S_DIN*%
X169987500Y-97450000D03*
%TO.P,U401,7,LRCK*%
%TO.N,ES8388_I2S_LRCK*%
X169987500Y-97050000D03*
D44*
%TO.P,U401,8,ASDOUT*%
%TO.N,ES8388_I2S_DOUT*%
X169250000Y-96312500D03*
%TO.P,U401,9,NC*%
%TO.N,unconnected-(U401-NC-Pad9)*%
X168850000Y-96312500D03*
%TO.P,U401,10,VREF*%
%TO.N,/Audio CODEC/ES8388_VREF*%
X168450000Y-96312500D03*
%TO.P,U401,11,ROUT1*%
%TO.N,/Audio CODEC/ES8388_ROut*%
X168050000Y-96312500D03*
%TO.P,U401,12,LOUT1*%
%TO.N,/Audio CODEC/ES8388_LOut*%
X167650000Y-96312500D03*
%TO.P,U401,13,HPGND*%
%TO.N,GND*%
X167250000Y-96312500D03*
%TO.P,U401,14,ROUT2*%
%TO.N,unconnected-(U401-ROUT2-Pad14)*%
X166850000Y-96312500D03*
D43*
%TO.P,U401,15,LOUT2*%
%TO.N,unconnected-(U401-LOUT2-Pad15)*%
X166112500Y-97050000D03*
%TO.P,U401,16,HPVDD*%
%TO.N,+3.3VA*%
X166112500Y-97450000D03*
%TO.P,U401,17,AVDD*%
%TO.N,/Audio CODEC/ES8388_AVDD*%
X166112500Y-97850000D03*
%TO.P,U401,18,AGND*%
%TO.N,GND*%
X166112500Y-98250000D03*
%TO.P,U401,19,ADCVREF*%
%TO.N,/Audio CODEC/ES8388_ADCVREF*%
X166112500Y-98650000D03*
%TO.P,U401,20,VMID*%
%TO.N,/Audio CODEC/ES8388_VMID*%
X166112500Y-99050000D03*
%TO.P,U401,21,RIN2*%
%TO.N,/Audio CODEC/RIN2_GND*%
X166112500Y-99450000D03*
D44*
%TO.P,U401,22,LIN2*%
%TO.N,/Audio CODEC/LIN2_GND*%
X166850000Y-100187500D03*
%TO.P,U401,23,RIN1*%
%TO.N,/Audio CODEC/ES8388_AuxIn+*%
X167250000Y-100187500D03*
%TO.P,U401,24,LIN1*%
%TO.N,/Audio CODEC/ES8388_AuxIn-*%
X167650000Y-100187500D03*
%TO.P,U401,25,NC*%
%TO.N,unconnected-(U401-NC-Pad25)*%
X168050000Y-100187500D03*
%TO.P,U401,26,CE*%
%TO.N,GND*%
X168450000Y-100187500D03*
%TO.P,U401,27,CDATA*%
%TO.N,/Audio CODEC/ES8388_I2C_CDATA*%
X168850000Y-100187500D03*
%TO.P,U401,28,CCLK*%
%TO.N,/Audio CODEC/ES8388_I2C_CCLK*%
X169250000Y-100187500D03*
D45*
%TO.P,U401,29,PAD*%
%TO.N,unconnected-(U401-PAD-Pad29)*%
X168050000Y-98250000D03*
%TD*%
D15*
%TO.P,R203,1*%
%TO.N,WS2812B_D*%
X201500000Y-89710000D03*
%TO.P,R203,2*%
%TO.N,/MCU/STRAP_GPIO8*%
X201500000Y-88690000D03*
%TD*%
D23*
%TO.P,C202,1*%
%TO.N,+3.3V*%
X191150000Y-68880000D03*
%TO.P,C202,2*%
%TO.N,GND*%
X191150000Y-67920000D03*
%TD*%
D46*
%TO.P,J206,1,Pin_1*%
%TO.N,/MCU/STRAP_GPIO_9*%
X202250000Y-82625000D03*
%TO.P,J206,2,Pin_2*%
%TO.N,/MCU/STRAP_GPIO8*%
X201250000Y-82625000D03*
%TO.P,J206,3,Pin_3*%
%TO.N,/MCU/SD_DETECT*%
X200250000Y-82625000D03*
%TO.P,J206,4,Pin_4*%
%TO.N,/MCU/MCU_GPIO14*%
X199250000Y-82625000D03*
D47*
%TO.P,J206,MP,MountPin*%
%TO.N,unconnected-(J206-MountPin-PadMP)_1*%
X203550000Y-85150000D03*
%TO.N,unconnected-(J206-MountPin-PadMP)*%
X197950000Y-85150000D03*
%TD*%
D27*
%TO.P,C408,1*%
%TO.N,/Audio CODEC/ES8388_VREF*%
X170700000Y-92975000D03*
%TO.P,C408,2*%
%TO.N,GND*%
X169150000Y-92975000D03*
%TD*%
D15*
%TO.P,R205,1*%
%TO.N,/MCU/FTDI_DTR*%
X214295000Y-75300000D03*
%TO.P,R205,2*%
%TO.N,/MCU/DTR*%
X214295000Y-74280000D03*
%TD*%
D25*
%TO.P,R208,1*%
%TO.N,/MCU/uSD_DAT1*%
X214480000Y-92700000D03*
%TO.P,R208,2*%
%TO.N,+3.3V*%
X215500000Y-92700000D03*
%TD*%
D48*
%TO.P,U102,1,GND*%
%TO.N,GND*%
X170530000Y-69027500D03*
%TO.P,U102,2,VO*%
%TO.N,+3.3V*%
X170530000Y-66727500D03*
D49*
X164230000Y-66727500D03*
D48*
%TO.P,U102,3,VI*%
%TO.N,/Power/5V_Filt_D*%
X170530000Y-64427500D03*
%TD*%
D25*
%TO.P,R211,1*%
%TO.N,/MCU/uSD_CMD*%
X208490000Y-92700000D03*
%TO.P,R211,2*%
%TO.N,+3.3V*%
X209510000Y-92700000D03*
%TD*%
D16*
%TO.P,C102,1*%
%TO.N,+5V*%
X155475000Y-65440000D03*
%TO.P,C102,2*%
%TO.N,GND*%
X155475000Y-66400000D03*
%TD*%
D17*
%TO.P,R402,1*%
%TO.N,GND*%
X173287500Y-97640000D03*
%TO.P,R402,2*%
%TO.N,/Audio CODEC/ES8388_DVDD*%
X173287500Y-98660000D03*
%TD*%
D50*
%TO.P,J205,1,Pin_1*%
%TO.N,GND*%
X186625000Y-73100000D03*
%TO.P,J205,2,Pin_2*%
%TO.N,+3.3V*%
X186625000Y-72100000D03*
%TO.P,J205,3,Pin_3*%
%TO.N,I2C_SDA*%
X186625000Y-71100000D03*
%TO.P,J205,4,Pin_4*%
%TO.N,I2C_SCL*%
X186625000Y-70100000D03*
D51*
%TO.P,J205,MP,MountPin*%
%TO.N,unconnected-(J205-MountPin-PadMP)*%
X184100000Y-74400000D03*
%TO.N,unconnected-(J205-MountPin-PadMP)_1*%
X184100000Y-68800000D03*
%TD*%
D46*
%TO.P,J204,1,Pin_1*%
%TO.N,/MCU/STRAP_MTDI*%
X178900000Y-77175000D03*
%TO.P,J204,2,Pin_2*%
%TO.N,/MCU/STRAP_MTMS*%
X177900000Y-77175000D03*
%TO.P,J204,3,Pin_3*%
%TO.N,GND*%
X176900000Y-77175000D03*
%TO.P,J204,4,Pin_4*%
%TO.N,+3.3VA*%
X175900000Y-77175000D03*
D47*
%TO.P,J204,MP,MountPin*%
%TO.N,unconnected-(J204-MountPin-PadMP)*%
X180200000Y-79700000D03*
%TO.N,unconnected-(J204-MountPin-PadMP)_1*%
X174600000Y-79700000D03*
%TD*%
D25*
%TO.P,R210,1*%
%TO.N,/MCU/uSD_CLK*%
X210480000Y-92700000D03*
%TO.P,R210,2*%
%TO.N,+3.3V*%
X211500000Y-92700000D03*
%TD*%
D30*
%TO.P,C403,1*%
%TO.N,+3.3VA*%
X163125000Y-92975000D03*
%TO.P,C403,2*%
%TO.N,GND*%
X164675000Y-92975000D03*
%TD*%
D38*
%TO.P,R105,1*%
%TO.N,+5V*%
X158425000Y-78150000D03*
%TO.P,R105,2*%
%TO.N,/Power/5V_Filt_A*%
X160075000Y-78150000D03*
%TD*%
D17*
%TO.P,R408,1*%
%TO.N,I2S_DOUT*%
X172100000Y-92240000D03*
%TO.P,R408,2*%
%TO.N,ES8388_I2S_DOUT*%
X172100000Y-93260000D03*
%TD*%
D39*
%TO.P,R207,1*%
%TO.N,/MCU/CHIP_PU*%
X190010000Y-73100000D03*
%TO.P,R207,2*%
%TO.N,+3.3V*%
X188990000Y-73100000D03*
%TD*%
D22*
%TO.P,Q201,1,C*%
%TO.N,/MCU/CHIP_PU*%
X212450000Y-68800000D03*
%TO.P,Q201,2,B*%
%TO.N,/MCU/DTR*%
X214350000Y-68800000D03*
%TO.P,Q201,3,E*%
%TO.N,/MCU/FTDI_RTS*%
X213400000Y-66925000D03*
%TD*%
D16*
%TO.P,C406,1*%
%TO.N,/Audio CODEC/ES8388_AVDD*%
X164190000Y-96255000D03*
%TO.P,C406,2*%
%TO.N,GND*%
X164190000Y-97215000D03*
%TD*%
D18*
%TO.P,C104,1*%
%TO.N,+3.3VA*%
X172550000Y-82225000D03*
%TO.P,C104,2*%
%TO.N,GND*%
X172550000Y-83775000D03*
%TD*%
D32*
%TO.P,D204,1,A1*%
%TO.N,GND*%
X224500000Y-77480000D03*
%TO.P,D204,2,A2*%
%TO.N,/MCU/UART0_TX*%
X224500000Y-78880000D03*
%TD*%
D23*
%TO.P,C409,1*%
%TO.N,/Audio CODEC/ES8388_ADCVREF*%
X164190000Y-99030000D03*
%TO.P,C409,2*%
%TO.N,GND*%
X164190000Y-98070000D03*
%TD*%
D40*
%TO.P,D203,1,A1*%
%TO.N,GND*%
X224500000Y-81480000D03*
%TO.P,D203,2,A2*%
%TO.N,/MCU/UART0_RX*%
X224500000Y-80080000D03*
%TD*%
%TO.P,D102,1,A1*%
%TO.N,GND*%
X148750000Y-72350000D03*
%TO.P,D102,2,A2*%
%TO.N,VBUS*%
X148750000Y-70950000D03*
%TD*%
D24*
%TO.P,R215,1*%
%TO.N,/MCU/uSD_DAT3*%
X204500000Y-90425000D03*
%TO.P,R215,2*%
%TO.N,/MCU/SDIO_DAT3*%
X204500000Y-88775000D03*
%TD*%
D48*
%TO.P,U101,1,GND*%
%TO.N,GND*%
X170550000Y-84100000D03*
%TO.P,U101,2,VO*%
%TO.N,+3.3VA*%
X170550000Y-81800000D03*
D49*
X164250000Y-81800000D03*
D48*
%TO.P,U101,3,VI*%
%TO.N,/Power/5V_Filt_A*%
X170550000Y-79500000D03*
%TD*%
D17*
%TO.P,R421,1*%
%TO.N,/Audio CODEC/Q1_G*%
X182650000Y-107050000D03*
%TO.P,R421,2*%
%TO.N,/Audio CODEC/AUX_Det*%
X182650000Y-108070000D03*
%TD*%
D25*
%TO.P,R102,1*%
%TO.N,Net-(J101-CC1)*%
X142740000Y-62700000D03*
%TO.P,R102,2*%
%TO.N,GND*%
X143760000Y-62700000D03*
%TD*%
%TO.P,R220,1*%
%TO.N,/MCU/SD_DETECT*%
X218970000Y-109895000D03*
%TO.P,R220,2*%
%TO.N,GND*%
X219990000Y-109895000D03*
%TD*%
D17*
%TO.P,R407,1*%
%TO.N,I2S_LRCK*%
X193100000Y-79790000D03*
%TO.P,R407,2*%
%TO.N,ES8388_I2S_LRCK*%
X193100000Y-80810000D03*
%TD*%
D40*
%TO.P,D205,1,A1*%
%TO.N,GND*%
X224500000Y-76220000D03*
%TO.P,D205,2,A2*%
%TO.N,/MCU/FTDI_RTS*%
X224500000Y-74820000D03*
%TD*%
D41*
%TO.P,C201,1*%
%TO.N,+3.3V*%
X189800000Y-68875000D03*
%TO.P,C201,2*%
%TO.N,GND*%
X189800000Y-67325000D03*
%TD*%
D17*
%TO.P,R201,1*%
%TO.N,+3.3V*%
X188500000Y-69040000D03*
%TO.P,R201,2*%
%TO.N,I2C_SCL*%
X188500000Y-70060000D03*
%TD*%
D16*
%TO.P,C421,1*%
%TO.N,/Audio CODEC/AUX_In_-*%
X163800000Y-107470000D03*
%TO.P,C421,2*%
%TO.N,GND*%
X163800000Y-108430000D03*
%TD*%
D20*
%TO.P,C407,1*%
%TO.N,/Audio CODEC/ES8388_VREF*%
X169880000Y-94175000D03*
%TO.P,C407,2*%
%TO.N,GND*%
X168920000Y-94175000D03*
%TD*%
D52*
%TO.P,Q401,1,G*%
%TO.N,/Audio CODEC/Q1_G*%
X181087500Y-106937500D03*
%TO.P,Q401,2,S*%
%TO.N,GND*%
X181087500Y-105037500D03*
%TO.P,Q401,3,D*%
%TO.N,/Audio CODEC/Q1_D*%
X179212500Y-105987500D03*
%TD*%
D37*
%TO.P,C404,1*%
%TO.N,+3.3VA*%
X163945000Y-94175000D03*
%TO.P,C404,2*%
%TO.N,GND*%
X164905000Y-94175000D03*
%TD*%
D18*
%TO.P,C424,1*%
%TO.N,Net-(C424-Pad1)*%
X166175000Y-92575000D03*
%TO.P,C424,2*%
%TO.N,/Audio CODEC/ES8388_LOut*%
X166175000Y-94125000D03*
%TD*%
D25*
%TO.P,R104,1*%
%TO.N,+5V*%
X158417500Y-66320000D03*
%TO.P,R104,2*%
%TO.N,Net-(D103-A)*%
X159437500Y-66320000D03*
%TD*%
D28*
%TO.P,J402,R1*%
%TO.N,/Audio CODEC/Phones_Out_L*%
X145650000Y-89650000D03*
%TO.P,J402,R1N*%
%TO.N,unconnected-(J402-PadR1N)*%
X150750000Y-89650000D03*
D29*
%TO.P,J402,R2*%
%TO.N,Net-(J402-PadR2)*%
X142950000Y-83000000D03*
D28*
%TO.P,J402,S*%
%TO.N,GND*%
X142950000Y-89650000D03*
%TO.P,J402,T*%
%TO.N,/Audio CODEC/Phones_Out_R*%
X149450000Y-82350000D03*
D29*
%TO.P,J402,TN*%
%TO.N,unconnected-(J402-PadTN)*%
X151650000Y-82800000D03*
%TD*%
D25*
%TO.P,R209,1*%
%TO.N,/MCU/uSD_DAT0*%
X212490000Y-92700000D03*
%TO.P,R209,2*%
%TO.N,+3.3V*%
X213510000Y-92700000D03*
%TD*%
D53*
%TO.P,L101,1,1*%
%TO.N,VBUS*%
X154290000Y-64520000D03*
%TO.P,L101,2,2*%
%TO.N,+5V*%
X155260000Y-64520000D03*
%TD*%
D25*
%TO.P,R212,1*%
%TO.N,/MCU/uSD_DAT3*%
X204490000Y-92700000D03*
%TO.P,R212,2*%
%TO.N,+3.3V*%
X205510000Y-92700000D03*
%TD*%
%TO.P,R401,1*%
%TO.N,/Audio CODEC/ES8388_DVDD*%
X172277500Y-99550000D03*
%TO.P,R401,2*%
%TO.N,+3.3V*%
X173297500Y-99550000D03*
%TD*%
D30*
%TO.P,C410,1*%
%TO.N,/Audio CODEC/ES8388_ADCVREF*%
X161335000Y-98540000D03*
%TO.P,C410,2*%
%TO.N,GND*%
X162885000Y-98540000D03*
%TD*%
D54*
%TO.P,J201,1,DAT2*%
%TO.N,/MCU/uSD_DAT2*%
X208450000Y-98400000D03*
%TO.P,J201,2,DAT3/CD*%
%TO.N,/MCU/uSD_DAT3*%
X208450000Y-99500000D03*
%TO.P,J201,3,CMD*%
%TO.N,/MCU/uSD_CMD*%
X208450000Y-100600000D03*
%TO.P,J201,4,VDD*%
%TO.N,+3.3V*%
X208450000Y-101700000D03*
%TO.P,J201,5,CLK*%
%TO.N,/MCU/uSD_CLK*%
X208450000Y-102800000D03*
%TO.P,J201,6,VSS*%
%TO.N,GND*%
X208450000Y-103900000D03*
%TO.P,J201,7,DAT0*%
%TO.N,/MCU/uSD_DAT0*%
X208450000Y-105000000D03*
%TO.P,J201,8,DAT1*%
%TO.N,/MCU/uSD_DAT1*%
X208450000Y-106100000D03*
%TO.P,J201,9,DET_B*%
%TO.N,+3.3V*%
X208450000Y-107050000D03*
D55*
%TO.P,J201,10,DET_A*%
%TO.N,/MCU/SD_DETECT*%
X218950000Y-108000000D03*
D56*
%TO.P,J201,11,SHIELD*%
%TO.N,/MCU/SD_Shield_Diconnect*%
X212750000Y-108000000D03*
D57*
X223100000Y-108000000D03*
D56*
X208450000Y-96850000D03*
D58*
X223550000Y-94500000D03*
%TD*%
D59*
%TO.N,GND*%
X189510000Y-95910000D03*
X200800000Y-91400000D03*
X206000000Y-67200000D03*
X202400000Y-67800000D03*
X200800000Y-67800000D03*
X199200000Y-67800000D03*
X197600000Y-67800000D03*
X196000000Y-67800000D03*
X194400000Y-67800000D03*
X205150000Y-77800000D03*
X195300000Y-75300000D03*
X191150000Y-76950000D03*
X211800000Y-76550000D03*
%TO.N,+3.3V*%
X182600000Y-72900000D03*
%TO.N,GND*%
X207400000Y-95900000D03*
X176300000Y-72500000D03*
%TO.N,+3.3V*%
X175400000Y-72500000D03*
%TO.N,GND*%
X180500000Y-69600000D03*
X182600000Y-71800000D03*
%TO.N,I2C_SCL*%
X181350000Y-70250000D03*
%TO.N,I2C_SDA*%
X181900000Y-71100000D03*
%TO.N,VBUS*%
X217000000Y-81650000D03*
X154150000Y-63700000D03*
%TO.N,GND*%
X162912500Y-108900000D03*
D60*
X190750000Y-67200000D03*
D59*
X147500000Y-72600000D03*
X205400000Y-84300000D03*
X163500000Y-97750000D03*
X174200000Y-107200000D03*
X175600000Y-97900000D03*
X207525000Y-90800000D03*
X167650000Y-62350000D03*
X212100000Y-79800000D03*
X220900000Y-109900000D03*
X144650000Y-62700000D03*
X153800000Y-62900000D03*
X172350000Y-85400000D03*
X160189998Y-100519998D03*
X143000000Y-98500000D03*
X178909481Y-97313792D03*
X181750000Y-103775000D03*
X164675000Y-92075000D03*
X171950000Y-69400000D03*
X203075000Y-79525000D03*
X213525000Y-90800000D03*
X204500000Y-103500000D03*
X216300000Y-104700000D03*
X212450000Y-70500000D03*
X188950000Y-74050000D03*
X167700000Y-77400000D03*
X211700000Y-107000000D03*
D60*
X190200000Y-72000000D03*
D61*
X156400000Y-94400000D03*
D59*
X143480000Y-92280000D03*
X209475000Y-90800000D03*
X223350000Y-77000000D03*
X175100000Y-82200000D03*
X171000000Y-101150000D03*
D61*
X156700000Y-97500000D03*
X153100000Y-96500000D03*
D59*
X154750000Y-66900000D03*
D61*
X155000000Y-82075000D03*
D59*
X215400000Y-79800000D03*
X220910000Y-87640000D03*
X147550000Y-65200000D03*
X178800000Y-104700000D03*
X147500000Y-71799997D03*
X203380000Y-90720000D03*
X172750000Y-69400000D03*
X224470000Y-87870000D03*
X215200000Y-94700000D03*
X147550000Y-64300000D03*
X223350000Y-82050000D03*
X164412500Y-104000000D03*
X197700000Y-104700000D03*
X215150000Y-73650000D03*
X212200000Y-73350000D03*
X172350000Y-70100000D03*
X161300000Y-67150000D03*
X144650000Y-74300000D03*
X171950000Y-84700000D03*
X207700000Y-86400000D03*
X172750000Y-84700000D03*
X195800000Y-94700000D03*
X215150000Y-70500000D03*
X211400000Y-68000000D03*
X211525000Y-90800000D03*
X176400000Y-97100000D03*
X216100000Y-81700000D03*
D61*
X157200000Y-78975000D03*
D59*
X191300000Y-105900000D03*
X177100000Y-94700000D03*
X212163740Y-82030993D03*
X215500000Y-90800000D03*
X205500000Y-90800000D03*
X168275001Y-101125000D03*
X162250000Y-106450000D03*
%TO.N,+3.3VA*%
X163125000Y-92075000D03*
X174250000Y-82200000D03*
X160700000Y-101200000D03*
%TO.N,+3.3V*%
X207525000Y-91775000D03*
X215500000Y-91800000D03*
X209500000Y-91775000D03*
X204475000Y-102275000D03*
X211525000Y-91800000D03*
X179525000Y-97900000D03*
X213525000Y-91800000D03*
X175625000Y-99425000D03*
X202500000Y-90220000D03*
X176300000Y-104000000D03*
X205525000Y-91775000D03*
%TO.N,/MCU/STRAP_GPIO_9*%
X215350000Y-78950000D03*
X202550000Y-78750000D03*
%TO.N,/MCU/CHIP_PU*%
X190050000Y-74050000D03*
X211050000Y-68800000D03*
%TO.N,/Audio CODEC/AUX_VREF*%
X162575000Y-104025000D03*
X163150000Y-106450000D03*
%TO.N,/Audio CODEC/ES8388_I2C_CDATA*%
X169250000Y-101450000D03*
%TO.N,/Audio CODEC/ES8388_I2C_CCLK*%
X170175000Y-101425000D03*
%TO.N,/MCU/FTDI_RTS*%
X213350000Y-70500000D03*
X213300000Y-73350000D03*
%TO.N,WS2812B_D*%
X201500000Y-90700000D03*
%TO.N,/MCU/DTR*%
X214300000Y-73300000D03*
X214300000Y-70500000D03*
%TO.N,/MCU/SDIO_DAT2*%
X207400000Y-85600000D03*
X211500000Y-81500000D03*
%TO.N,/MCU/SDIO_DAT3*%
X211300000Y-79400000D03*
X206200000Y-84600000D03*
%TD*%
D62*
%TO.N,/MCU/SD_DETECT*%
X218970000Y-109895000D02*
X203995000Y-109895000D01*
X203995000Y-109895000D02*
X200100000Y-106000000D01*
X200100000Y-106000000D02*
X200100000Y-82775000D01*
X200100000Y-82775000D02*
X200250000Y-82625000D01*
%TO.N,/MCU/FTDI_RTS*%
X224500000Y-74820000D02*
X222150000Y-74820000D01*
X222150000Y-74820000D02*
X222010000Y-74960000D01*
%TO.N,/MCU/UART0_TX*%
X224500000Y-78880000D02*
X224190000Y-78570000D01*
X224190000Y-78570000D02*
X219770000Y-78570000D01*
X219770000Y-78570000D02*
X218700000Y-77500000D01*
D63*
%TO.N,VBUS*%
X148750000Y-66050000D02*
X151250000Y-66050000D01*
X151250000Y-66050000D02*
X151840000Y-65460000D01*
X151840000Y-65460000D02*
X154075000Y-65460000D01*
D62*
%TO.N,GND*%
X147500000Y-72600000D02*
X147500000Y-73450000D01*
X147500000Y-73450000D02*
X147925000Y-73875000D01*
X147925000Y-73875000D02*
X147925000Y-74650000D01*
%TO.N,VBUS*%
X224500000Y-84080000D02*
X224420000Y-84160000D01*
X224420000Y-84160000D02*
X223260000Y-84160000D01*
X223260000Y-84160000D02*
X221680000Y-82580000D01*
X221680000Y-82580000D02*
X218700000Y-82580000D01*
%TO.N,/MCU/UART0_TX*%
X224500000Y-78820000D02*
X224500000Y-78880000D01*
%TO.N,+3.3V*%
X202480000Y-87070000D02*
X202480000Y-90200000D01*
X202480000Y-90200000D02*
X202500000Y-90220000D01*
X202500000Y-90220000D02*
X202460000Y-90180000D01*
%TO.N,GND*%
X203300000Y-66400000D02*
X203300000Y-66900000D01*
X203300000Y-66900000D02*
X202400000Y-67800000D01*
X202500000Y-66400000D02*
X202500000Y-67700000D01*
X202500000Y-67700000D02*
X202400000Y-67800000D01*
X200900000Y-66400000D02*
X200900000Y-67700000D01*
X200900000Y-67700000D02*
X200800000Y-67800000D01*
X199300000Y-66400000D02*
X199300000Y-67700000D01*
X199300000Y-67700000D02*
X199200000Y-67800000D01*
X197700000Y-66400000D02*
X197700000Y-67700000D01*
X197700000Y-67700000D02*
X197600000Y-67800000D01*
X196100000Y-66400000D02*
X196100000Y-67700000D01*
X196100000Y-67700000D02*
X196000000Y-67800000D01*
X194500000Y-66400000D02*
X194500000Y-67700000D01*
X194500000Y-67700000D02*
X194400000Y-67800000D01*
X201700000Y-67100000D02*
X202400000Y-67800000D01*
X201700000Y-66400000D02*
X201700000Y-67100000D01*
X200100000Y-67100000D02*
X200800000Y-67800000D01*
X200100000Y-66400000D02*
X200100000Y-67100000D01*
X198500000Y-67100000D02*
X199200000Y-67800000D01*
X198500000Y-66400000D02*
X198500000Y-67100000D01*
X196900000Y-67100000D02*
X197600000Y-67800000D01*
X196900000Y-66400000D02*
X196900000Y-67100000D01*
X195300000Y-67100000D02*
X196000000Y-67800000D01*
X195300000Y-66400000D02*
X195300000Y-67100000D01*
X193700000Y-67100000D02*
X194400000Y-67800000D01*
X193700000Y-66400000D02*
X193700000Y-67100000D01*
X204450000Y-77100000D02*
X205150000Y-77800000D01*
X204450000Y-76250000D02*
X204450000Y-77100000D01*
X195300000Y-76200000D02*
X195300000Y-75300000D01*
X192600000Y-75300000D02*
X195300000Y-75300000D01*
X191850000Y-76250000D02*
X191150000Y-76950000D01*
X192550000Y-76250000D02*
X191850000Y-76250000D01*
D63*
%TO.N,+3.3V*%
X183000000Y-72900000D02*
X182600000Y-72900000D01*
X182600000Y-72900000D02*
X180085000Y-72900000D01*
X186625000Y-72100000D02*
X183800000Y-72100000D01*
X183800000Y-72100000D02*
X183000000Y-72900000D01*
X180085000Y-72900000D02*
X175400000Y-68215000D01*
X174200000Y-67015000D02*
X172630000Y-67015000D01*
X175400000Y-72500000D02*
X175400000Y-68215000D01*
X175400000Y-68215000D02*
X174200000Y-67015000D01*
D62*
%TO.N,GND*%
X186625000Y-73100000D02*
X187500000Y-73100000D01*
X187500000Y-73100000D02*
X188450000Y-74050000D01*
X188450000Y-74050000D02*
X188950000Y-74050000D01*
%TO.N,I2C_SCL*%
X181350000Y-70250000D02*
X181500000Y-70100000D01*
X181500000Y-70100000D02*
X186625000Y-70100000D01*
%TO.N,I2C_SDA*%
X181900000Y-71100000D02*
X186625000Y-71100000D01*
%TO.N,I2C_SCL*%
X188500000Y-70060000D02*
X186665000Y-70060000D01*
X186665000Y-70060000D02*
X186625000Y-70100000D01*
%TO.N,I2C_SDA*%
X188500000Y-71080000D02*
X186645000Y-71080000D01*
X186645000Y-71080000D02*
X186625000Y-71100000D01*
D63*
%TO.N,VBUS*%
X146085000Y-70950000D02*
X148750000Y-70950000D01*
X217000000Y-82150000D02*
X217430000Y-82580000D01*
X148750000Y-70950000D02*
X148750000Y-66050000D01*
X146085000Y-66050000D02*
X148750000Y-66050000D01*
X217430000Y-82580000D02*
X218700000Y-82580000D01*
X217000000Y-81650000D02*
X217000000Y-82150000D01*
D64*
%TO.N,GND*%
X160635000Y-98087014D02*
X160912014Y-97810000D01*
X164905000Y-94175000D02*
X164972014Y-94175000D01*
X171150000Y-98250000D02*
X171730000Y-97670000D01*
X164190000Y-98070000D02*
X164370000Y-98250000D01*
D65*
X164190000Y-99890000D02*
X164725000Y-99355000D01*
D62*
X161300000Y-66320000D02*
X161300000Y-67150000D01*
D64*
X165875000Y-95600000D02*
X164905000Y-94630000D01*
X162155000Y-97810000D02*
X162885000Y-98540000D01*
D65*
X164725000Y-99116852D02*
X165591852Y-98250000D01*
D64*
X160635000Y-99622500D02*
X160635000Y-98087014D01*
X169987500Y-98250000D02*
X171150000Y-98250000D01*
D62*
X191330000Y-68100000D02*
X191150000Y-67920000D01*
D64*
X164972014Y-94175000D02*
X165722014Y-93425000D01*
X161332500Y-100320000D02*
X160635000Y-99622500D01*
X165722014Y-93425000D02*
X168170000Y-93425000D01*
X167250000Y-95849350D02*
X167000650Y-95600000D01*
D65*
X165591852Y-98250000D02*
X166112500Y-98250000D01*
D64*
X167250000Y-96312500D02*
X167250000Y-95849350D01*
X168275001Y-101125000D02*
X168450000Y-100950001D01*
D62*
X220895000Y-109895000D02*
X220900000Y-109900000D01*
D64*
X167000650Y-95600000D02*
X165875000Y-95600000D01*
D62*
X191600000Y-66350000D02*
X192550000Y-66350000D01*
D65*
X164725000Y-99355000D02*
X164725000Y-99116852D01*
D62*
X168625000Y-77400000D02*
X167700000Y-77400000D01*
D64*
X160912014Y-97810000D02*
X162155000Y-97810000D01*
X164905000Y-94630000D02*
X164905000Y-94175000D01*
X168450000Y-100950001D02*
X168450000Y-100187500D01*
D62*
X190340000Y-72140000D02*
X191150000Y-72140000D01*
X168625000Y-62350000D02*
X167650000Y-62350000D01*
X219990000Y-109895000D02*
X220895000Y-109895000D01*
X190750000Y-67200000D02*
X190850000Y-67300000D01*
X176900000Y-77175000D02*
X176900000Y-80400000D01*
X190850000Y-67300000D02*
X192600000Y-67300000D01*
D64*
X164370000Y-98250000D02*
X166112500Y-98250000D01*
D62*
X192600000Y-68100000D02*
X191330000Y-68100000D01*
X143760000Y-74300000D02*
X144650000Y-74300000D01*
X190200000Y-72000000D02*
X190340000Y-72140000D01*
X176900000Y-80400000D02*
X175100000Y-82200000D01*
X207320000Y-103900000D02*
X206800000Y-103380000D01*
X143760000Y-62700000D02*
X144650000Y-62700000D01*
X190750000Y-67200000D02*
X191600000Y-66350000D01*
D64*
X168170000Y-93425000D02*
X168920000Y-94175000D01*
D62*
X208450000Y-103900000D02*
X207320000Y-103900000D01*
D64*
X171730000Y-97670000D02*
X172287500Y-97670000D01*
D63*
%TO.N,+5V*%
X158425000Y-78150000D02*
X158425000Y-66327500D01*
X158425000Y-66327500D02*
X158417500Y-66320000D01*
D62*
%TO.N,+3.3VA*%
X174250000Y-82130761D02*
X174250000Y-82200000D01*
D63*
X159987500Y-101912500D02*
X159987500Y-102240000D01*
X160700000Y-101200000D02*
X159987500Y-101912500D01*
D62*
X175900000Y-80480761D02*
X174250000Y-82130761D01*
D64*
X166112500Y-97450000D02*
X165550000Y-97450000D01*
D62*
X175900000Y-77175000D02*
X175900000Y-80480761D01*
D64*
X165425000Y-96000000D02*
X163945000Y-94520000D01*
X165425000Y-97325000D02*
X165425000Y-96000000D01*
X163945000Y-94520000D02*
X163945000Y-94175000D01*
D63*
X174250000Y-82200000D02*
X172575000Y-82200000D01*
D64*
X165550000Y-97450000D02*
X165425000Y-97325000D01*
D63*
X172575000Y-82200000D02*
X172550000Y-82225000D01*
D62*
%TO.N,+3.3V*%
X176300000Y-106500000D02*
X176860000Y-107060000D01*
X209510000Y-92700000D02*
X209510000Y-91785000D01*
X179950000Y-98325000D02*
X179525000Y-97900000D01*
X213510000Y-91815000D02*
X213525000Y-91800000D01*
D63*
X191170000Y-68900000D02*
X191150000Y-68880000D01*
D62*
X205510000Y-92700000D02*
X205510000Y-91790000D01*
X209510000Y-91785000D02*
X209500000Y-91775000D01*
D63*
X204650000Y-107050000D02*
X203500000Y-105900000D01*
D62*
X215500000Y-92700000D02*
X215500000Y-91800000D01*
X211500000Y-92700000D02*
X211500000Y-91825000D01*
D63*
X186475000Y-67015000D02*
X188500000Y-69040000D01*
D62*
X207520000Y-101700000D02*
X206800000Y-102420000D01*
X211500000Y-91825000D02*
X211525000Y-91800000D01*
X176300000Y-104000000D02*
X176300000Y-106500000D01*
D63*
X203500000Y-103250000D02*
X204475000Y-102275000D01*
D62*
X179950000Y-98840000D02*
X179950000Y-98325000D01*
D63*
X192600000Y-68900000D02*
X191170000Y-68900000D01*
D62*
X176860000Y-107060000D02*
X177750000Y-107060000D01*
X207510000Y-92700000D02*
X207510000Y-91790000D01*
D63*
X172630000Y-67015000D02*
X186475000Y-67015000D01*
D62*
X207510000Y-91790000D02*
X207525000Y-91775000D01*
D63*
X203500000Y-105900000D02*
X203500000Y-103250000D01*
D62*
X208450000Y-101700000D02*
X207520000Y-101700000D01*
X205510000Y-91790000D02*
X205525000Y-91775000D01*
D63*
X208450000Y-107050000D02*
X204650000Y-107050000D01*
D62*
X213510000Y-92700000D02*
X213510000Y-91815000D01*
%TO.N,/MCU/STRAP_GPIO_9*%
X202250000Y-79050000D02*
X202550000Y-78750000D01*
X214895000Y-76740000D02*
X214895000Y-78495000D01*
X202500000Y-76200000D02*
X202500000Y-78700000D01*
X202500000Y-78700000D02*
X202550000Y-78750000D01*
X202250000Y-82625000D02*
X202250000Y-79050000D01*
X214895000Y-78495000D02*
X215350000Y-78950000D01*
%TO.N,/MCU/CHIP_PU*%
X191650000Y-73100000D02*
X191850000Y-72900000D01*
X191850000Y-72900000D02*
X192600000Y-72900000D01*
X191150000Y-73100000D02*
X191650000Y-73100000D01*
X212450000Y-68800000D02*
X211050000Y-68800000D01*
D64*
%TO.N,/Audio CODEC/ES8388_VREF*%
X168450000Y-96312500D02*
X168450000Y-95849350D01*
X168450000Y-95849350D02*
X169880000Y-94419350D01*
X169880000Y-93795000D02*
X170700000Y-92975000D01*
X169880000Y-94419350D02*
X169880000Y-94175000D01*
X169880000Y-94175000D02*
X169880000Y-93795000D01*
D65*
%TO.N,/Audio CODEC/ES8388_ADCVREF*%
X166112500Y-98650000D02*
X165616116Y-98650000D01*
X163620000Y-100195000D02*
X163620000Y-99420000D01*
X164865000Y-100375000D02*
X163800000Y-100375000D01*
D64*
X162115000Y-99320000D02*
X161335000Y-98540000D01*
D65*
X165616116Y-98650000D02*
X165150000Y-99116116D01*
X163620000Y-99420000D02*
X164010000Y-99030000D01*
X165150000Y-99116116D02*
X165150000Y-100090000D01*
D64*
X163900000Y-99320000D02*
X162115000Y-99320000D01*
X162110000Y-102050000D02*
X162110000Y-99315000D01*
D65*
X164010000Y-99030000D02*
X164190000Y-99030000D01*
X163800000Y-100375000D02*
X163620000Y-100195000D01*
X165150000Y-100090000D02*
X164865000Y-100375000D01*
D64*
X164190000Y-99030000D02*
X163900000Y-99320000D01*
D65*
X164190000Y-99030000D02*
X163980000Y-99240000D01*
D64*
X162110000Y-99315000D02*
X161335000Y-98540000D01*
D65*
%TO.N,/Audio CODEC/ES8388_VMID*%
X165450000Y-100460000D02*
X165060000Y-100850000D01*
X166112500Y-99050000D02*
X165640380Y-99050000D01*
X165060000Y-100850000D02*
X164190000Y-100850000D01*
D64*
X162882500Y-100320000D02*
X163412500Y-100850000D01*
D65*
X164020000Y-101020000D02*
X164190000Y-100850000D01*
X165640380Y-99050000D02*
X165450000Y-99240380D01*
D64*
X163412500Y-100850000D02*
X164190000Y-100850000D01*
D65*
X165450000Y-99240380D02*
X165450000Y-100460000D01*
D64*
%TO.N,/Audio CODEC/AUX_In_+*%
X159581396Y-104474999D02*
X153574999Y-104474999D01*
X160676397Y-105570000D02*
X159581396Y-104474999D01*
D66*
X162000000Y-105450000D02*
X163780000Y-105450000D01*
D64*
X151900000Y-102800000D02*
X150700000Y-102800000D01*
D62*
X162020000Y-105430000D02*
X162000000Y-105450000D01*
D66*
X161000000Y-105570000D02*
X161880000Y-105570000D01*
D62*
X163820000Y-105450000D02*
X163800000Y-105430000D01*
X161030000Y-105600000D02*
X161000000Y-105570000D01*
D64*
X150700000Y-102800000D02*
X150700000Y-101600000D01*
D66*
X163780000Y-105450000D02*
X163800000Y-105430000D01*
X164700000Y-105430000D02*
X164720000Y-105450000D01*
D64*
X153574999Y-104474999D02*
X151900000Y-102800000D01*
X161000000Y-105570000D02*
X160676397Y-105570000D01*
D66*
X163800000Y-105430000D02*
X164700000Y-105430000D01*
X161880000Y-105570000D02*
X162000000Y-105450000D01*
D64*
X150700000Y-101600000D02*
X149500000Y-100400000D01*
D66*
%TO.N,/Audio CODEC/AUX_In_-*%
X150800000Y-107700000D02*
X145700000Y-107700000D01*
D64*
X161000000Y-106530000D02*
X159395001Y-104925001D01*
D66*
X163770000Y-107440000D02*
X163800000Y-107470000D01*
D64*
X153574999Y-104925001D02*
X150800000Y-107700000D01*
D66*
X161000000Y-106530000D02*
X161090000Y-106530000D01*
X163800000Y-107470000D02*
X164720000Y-107470000D01*
D62*
X150800000Y-107700000D02*
X151000000Y-107500000D01*
D66*
X162000000Y-107440000D02*
X163770000Y-107440000D01*
X161090000Y-106530000D02*
X162000000Y-107440000D01*
X164720000Y-107470000D02*
X164740000Y-107450000D01*
D64*
X159395001Y-104925001D02*
X153574999Y-104925001D01*
%TO.N,/Audio CODEC/ES8388_AuxIn+*%
X167063603Y-105450000D02*
X167224999Y-105288604D01*
X167224999Y-105288604D02*
X167224999Y-100212501D01*
X167224999Y-100212501D02*
X167250000Y-100187500D01*
X165680000Y-105450000D02*
X167063603Y-105450000D01*
%TO.N,/Audio CODEC/ES8388_AuxIn-*%
X167675001Y-105474999D02*
X167675001Y-100212501D01*
X165700000Y-107450000D02*
X167675001Y-105474999D01*
X167675001Y-100212501D02*
X167650000Y-100187500D01*
D62*
X165700000Y-106450000D02*
X165700000Y-107450000D01*
%TO.N,/Audio CODEC/AUX_VREF*%
X163150000Y-106450000D02*
X164740000Y-106450000D01*
D64*
%TO.N,/Audio CODEC/ES8388_LOut*%
X166175000Y-94125000D02*
X167650000Y-95600000D01*
X167650000Y-95600000D02*
X167650000Y-96312500D01*
%TO.N,/Audio CODEC/ES8388_ROut*%
X168050000Y-94525000D02*
X168050000Y-96312500D01*
X167650000Y-94125000D02*
X168050000Y-94525000D01*
%TO.N,/Audio CODEC/ES8388_I2C_CDATA*%
X168850000Y-100187500D02*
X168850000Y-100950000D01*
X168850000Y-100950000D02*
X169250000Y-101350000D01*
X169250000Y-101350000D02*
X169250000Y-101450000D01*
%TO.N,/Audio CODEC/ES8388_I2C_CCLK*%
X170175000Y-101425000D02*
X170200000Y-101450000D01*
X169250000Y-100550000D02*
X169450000Y-100750000D01*
X169450000Y-100750000D02*
X169500000Y-100750000D01*
X169250000Y-100187500D02*
X169250000Y-100550000D01*
X169500000Y-100750000D02*
X170175000Y-101425000D01*
D62*
%TO.N,/MCU/FTDI_DTR*%
X214295000Y-75405000D02*
X213945000Y-75755000D01*
X213945000Y-81995000D02*
X217070000Y-85120000D01*
X217070000Y-85120000D02*
X222010000Y-85120000D01*
X222170000Y-85280000D02*
X222010000Y-85120000D01*
X224500000Y-85280000D02*
X222170000Y-85280000D01*
X213945000Y-75755000D02*
X213945000Y-78615000D01*
X213945000Y-78615000D02*
X213945000Y-81995000D01*
X214295000Y-75300000D02*
X214295000Y-75405000D01*
%TO.N,/MCU/UART0_RX*%
X216500000Y-74050000D02*
X216500000Y-79250000D01*
X210000000Y-71300000D02*
X211300000Y-72600000D01*
X217300000Y-80050000D02*
X222000000Y-80050000D01*
X222000000Y-80050000D02*
X222010000Y-80040000D01*
X224500000Y-80080000D02*
X222050000Y-80080000D01*
X222050000Y-80080000D02*
X222010000Y-80040000D01*
X204400000Y-71300000D02*
X210000000Y-71300000D01*
X216500000Y-79250000D02*
X217300000Y-80050000D01*
X211300000Y-72600000D02*
X215050000Y-72600000D01*
X215050000Y-72600000D02*
X216500000Y-74050000D01*
%TO.N,/MCU/UART0_TX*%
X211850000Y-71200000D02*
X215900000Y-71200000D01*
X205950000Y-69750000D02*
X210400000Y-69750000D01*
X210400000Y-69750000D02*
X211850000Y-71200000D01*
X218700000Y-74000000D02*
X218700000Y-77500000D01*
X205200000Y-70500000D02*
X205950000Y-69750000D01*
X215900000Y-71200000D02*
X218700000Y-74000000D01*
X204400000Y-70500000D02*
X205200000Y-70500000D01*
%TO.N,/MCU/FTDI_RTS*%
X212995000Y-73655000D02*
X213300000Y-73350000D01*
X212995000Y-74280000D02*
X212995000Y-73655000D01*
X222010000Y-74260000D02*
X222010000Y-74960000D01*
X214675000Y-66925000D02*
X222010000Y-74260000D01*
X213400000Y-66925000D02*
X214675000Y-66925000D01*
X224480000Y-74800000D02*
X224500000Y-74820000D01*
X213350000Y-70500000D02*
X213400000Y-70450000D01*
X213400000Y-70450000D02*
X213400000Y-66925000D01*
%TO.N,WS2812B_D*%
X201500000Y-89710000D02*
X201500000Y-90700000D01*
%TO.N,/Power/USB_shield_disconnect*%
X146275000Y-74650000D02*
X146275000Y-73925000D01*
X146275000Y-73925000D02*
X145170000Y-72820000D01*
%TO.N,AUX_IN_DETECT*%
X179950000Y-101350000D02*
X179950000Y-99860000D01*
X185325000Y-94875000D02*
X185325000Y-96150000D01*
X185000000Y-94550000D02*
X185325000Y-94875000D01*
X181615000Y-99860000D02*
X179950000Y-99860000D01*
X190425000Y-94550000D02*
X183290000Y-94550000D01*
X198275000Y-81600000D02*
X198275000Y-83625000D01*
X185325000Y-96150000D02*
X181615000Y-99860000D01*
X198500000Y-81375000D02*
X198275000Y-81600000D01*
X198275000Y-83625000D02*
X198950000Y-84300000D01*
X198950000Y-86025000D02*
X190425000Y-94550000D01*
X198500000Y-76200000D02*
X198500000Y-81375000D01*
X183290000Y-94550000D02*
X185000000Y-94550000D01*
X198950000Y-84300000D02*
X198950000Y-86025000D01*
D67*
%TO.N,I2S_DIN*%
X196100000Y-77600000D02*
X196100000Y-76200000D01*
X194600000Y-79790000D02*
X194600000Y-79100000D01*
X194600000Y-79100000D02*
X196100000Y-77600000D01*
%TO.N,I2S_DOUT*%
X193700000Y-76200000D02*
X193700000Y-76600000D01*
X172100000Y-92110000D02*
X172100000Y-92240000D01*
X186600000Y-81850000D02*
X182360000Y-81850000D01*
X188450000Y-81850000D02*
X186600000Y-81850000D01*
X182360000Y-81850000D02*
X172100000Y-92110000D01*
X193700000Y-76600000D02*
X188450000Y-81850000D01*
%TO.N,I2S_BCK*%
X196100000Y-79200000D02*
X196900000Y-78400000D01*
X196900000Y-78400000D02*
X196900000Y-76200000D01*
X196100000Y-79780000D02*
X196100000Y-79200000D01*
%TO.N,I2S_MCLK*%
X197600000Y-79100000D02*
X197700000Y-79000000D01*
X197600000Y-79790000D02*
X197600000Y-79100000D01*
X197700000Y-79000000D02*
X197700000Y-76200000D01*
%TO.N,I2S_LRCK*%
X193100000Y-79790000D02*
X193100000Y-78900000D01*
X194500000Y-77500000D02*
X194500000Y-76200000D01*
X193100000Y-78900000D02*
X194500000Y-77500000D01*
D62*
%TO.N,I2C_SDA*%
X189550000Y-71300000D02*
X189330000Y-71080000D01*
X189330000Y-71080000D02*
X188500000Y-71080000D01*
X192600000Y-71300000D02*
X189550000Y-71300000D01*
%TO.N,/MCU/STRAP_MTMS*%
X177900000Y-76500000D02*
X177900000Y-77175000D01*
X191950000Y-73700000D02*
X190150000Y-75500000D01*
X192600000Y-73700000D02*
X191950000Y-73700000D01*
X190150000Y-75500000D02*
X178900000Y-75500000D01*
X178900000Y-75500000D02*
X177900000Y-76500000D01*
%TO.N,I2C_SCL*%
X192600000Y-70500000D02*
X191800000Y-70500000D01*
X191800000Y-70500000D02*
X191350000Y-70050000D01*
X191340000Y-70060000D02*
X188500000Y-70060000D01*
X191350000Y-70050000D02*
X191340000Y-70060000D01*
%TO.N,/MCU/STRAP_MTDI*%
X190300000Y-76100000D02*
X179450000Y-76100000D01*
X178900000Y-76650000D02*
X178900000Y-77175000D01*
X179450000Y-76100000D02*
X178900000Y-76650000D01*
X192600000Y-74500000D02*
X191900000Y-74500000D01*
X191900000Y-74500000D02*
X190300000Y-76100000D01*
%TO.N,/MCU/SD_Shield_Diconnect*%
X224600000Y-90825000D02*
X224600000Y-93450000D01*
X224600000Y-93450000D02*
X223550000Y-94500000D01*
%TO.N,/MCU/SD_DETECT*%
X200100000Y-82475000D02*
X200250000Y-82625000D01*
X218970000Y-109895000D02*
X218970000Y-108020000D01*
X200100000Y-76200000D02*
X200100000Y-82475000D01*
X218970000Y-108020000D02*
X218950000Y-108000000D01*
%TO.N,/MCU/STRAP_GPIO8*%
X201440000Y-87725000D02*
X201440000Y-88630000D01*
X201700000Y-76900000D02*
X201250000Y-77350000D01*
X201250000Y-77350000D02*
X201250000Y-82625000D01*
X201440000Y-88630000D02*
X201500000Y-88690000D01*
X201250000Y-82625000D02*
X201250000Y-84550000D01*
X201450000Y-84750000D02*
X201450000Y-87600000D01*
X201250000Y-84550000D02*
X201450000Y-84750000D01*
X201700000Y-76200000D02*
X201700000Y-76900000D01*
%TO.N,/MCU/MCU_GPIO14*%
X199300000Y-82575000D02*
X199250000Y-82625000D01*
X199300000Y-76200000D02*
X199300000Y-82575000D01*
%TO.N,/Audio CODEC/AUX_Det*%
X144475000Y-109325000D02*
X144475000Y-97835000D01*
X144475000Y-97835000D02*
X144610000Y-97700000D01*
X181125000Y-110100000D02*
X145250000Y-110100000D01*
X144610000Y-97700000D02*
X150300000Y-97700000D01*
X151700000Y-99100000D02*
X151700000Y-100850000D01*
X182650000Y-108575000D02*
X181125000Y-110100000D01*
X182650000Y-108070000D02*
X182650000Y-108575000D01*
X145250000Y-110100000D02*
X144475000Y-109325000D01*
X150300000Y-97700000D02*
X151700000Y-99100000D01*
D64*
%TO.N,/Audio CODEC/Phones_Out_R*%
X149450000Y-86850000D02*
X149450000Y-82350000D01*
X149750000Y-87150000D02*
X149450000Y-86850000D01*
X159300000Y-88900000D02*
X153450000Y-88900000D01*
X153450000Y-88900000D02*
X151700000Y-87150000D01*
X151700000Y-87150000D02*
X149750000Y-87150000D01*
%TO.N,/Audio CODEC/Phones_Out_L*%
X153500000Y-90600000D02*
X152700000Y-91400000D01*
X152700000Y-91400000D02*
X147400000Y-91400000D01*
X159275000Y-90600000D02*
X153500000Y-90600000D01*
X147400000Y-91400000D02*
X145650000Y-89650000D01*
D62*
%TO.N,/MCU/DTR*%
X214350000Y-69700000D02*
X214350000Y-68800000D01*
X214300000Y-69750000D02*
X214350000Y-69700000D01*
X214300000Y-70500000D02*
X214300000Y-69750000D01*
X214295000Y-74280000D02*
X214295000Y-73305000D01*
X214295000Y-73305000D02*
X214300000Y-73300000D01*
%TO.N,/MCU/RTS*%
X212995000Y-75300000D02*
X212995000Y-76740000D01*
D67*
%TO.N,/MCU/SDIO_DAT2*%
X209500000Y-79500000D02*
X209500000Y-75100000D01*
X211500000Y-81500000D02*
X209500000Y-79500000D01*
X206500000Y-88775000D02*
X206500000Y-86500000D01*
X206500000Y-86500000D02*
X207400000Y-85600000D01*
X209500000Y-75100000D02*
X207300000Y-72900000D01*
X207300000Y-72900000D02*
X204400000Y-72900000D01*
%TO.N,/MCU/SDIO_DAT3*%
X211000000Y-79100000D02*
X211000000Y-74700000D01*
X211000000Y-74700000D02*
X208400000Y-72100000D01*
X204500000Y-86300000D02*
X206200000Y-84600000D01*
X204500000Y-88775000D02*
X204500000Y-86300000D01*
X208400000Y-72100000D02*
X204400000Y-72100000D01*
X211300000Y-79400000D02*
X211000000Y-79100000D01*
%TO.N,/MCU/SDIO_CMD*%
X203300000Y-77400000D02*
X204900000Y-79000000D01*
X203300000Y-76200000D02*
X203300000Y-77400000D01*
X204900000Y-81800000D02*
X208500000Y-85400000D01*
X204900000Y-79000000D02*
X204900000Y-81800000D01*
X208500000Y-85400000D02*
X208500000Y-88775000D01*
%TO.N,/MCU/SDIO_CLK*%
X210500000Y-88775000D02*
X210500000Y-85700000D01*
X205100000Y-75300000D02*
X204400000Y-75300000D01*
X206100000Y-81300000D02*
X206100000Y-76300000D01*
X210500000Y-85700000D02*
X206100000Y-81300000D01*
X206100000Y-76300000D02*
X205100000Y-75300000D01*
%TO.N,/MCU/SDIO_DAT0*%
X205700000Y-74500000D02*
X207100000Y-75900000D01*
X212500000Y-86200000D02*
X212500000Y-88775000D01*
X207100000Y-75900000D02*
X207100000Y-80800000D01*
X207100000Y-80800000D02*
X212500000Y-86200000D01*
X204400000Y-74500000D02*
X205700000Y-74500000D01*
%TO.N,/MCU/SDIO_DAT1*%
X204400000Y-73700000D02*
X206400000Y-73700000D01*
X208200000Y-80100000D02*
X214500000Y-86400000D01*
X206400000Y-73700000D02*
X208200000Y-75500000D01*
X208200000Y-75500000D02*
X208200000Y-80100000D01*
X214500000Y-86400000D02*
X214500000Y-88750000D01*
D64*
%TO.N,ES8388_I2S_DOUT*%
X169250000Y-95925000D02*
X169500000Y-95675000D01*
X172100000Y-93300000D02*
X172100000Y-93260000D01*
X169250000Y-96312500D02*
X169250000Y-95925000D01*
X169725000Y-95675000D02*
X172100000Y-93300000D01*
X169500000Y-95675000D02*
X169725000Y-95675000D01*
%TO.N,ES8388_I2S_MCLK*%
X170450000Y-99450000D02*
X171600000Y-100600000D01*
D67*
X177400000Y-95600000D02*
X181000000Y-92000000D01*
D64*
X171600000Y-100600000D02*
X172100000Y-100600000D01*
D67*
X197600000Y-80810000D02*
X197600000Y-83600000D01*
X186590000Y-92000000D02*
X186600000Y-92010000D01*
X188800000Y-92000000D02*
X188790000Y-92010000D01*
X172100000Y-100600000D02*
X176100000Y-100600000D01*
X188790000Y-92010000D02*
X186600000Y-92010000D01*
X197600000Y-83600000D02*
X189200000Y-92000000D01*
X181000000Y-92000000D02*
X186590000Y-92000000D01*
X177400000Y-99300000D02*
X177400000Y-95600000D01*
X189200000Y-92000000D02*
X188800000Y-92000000D01*
X176100000Y-100600000D02*
X177400000Y-99300000D01*
D64*
X169987500Y-99450000D02*
X170450000Y-99450000D01*
D67*
%TO.N,ES8388_I2S_BCK*%
X196100000Y-82800000D02*
X189430000Y-89470000D01*
X174000000Y-96700000D02*
X172200000Y-96700000D01*
X189430000Y-89470000D02*
X183290000Y-89470000D01*
X183290000Y-89470000D02*
X181230000Y-89470000D01*
D64*
X169987500Y-97850000D02*
X170700000Y-97850000D01*
X170700000Y-97850000D02*
X171850000Y-96700000D01*
D67*
X196100000Y-80800000D02*
X196100000Y-82800000D01*
D64*
X171850000Y-96700000D02*
X172200000Y-96700000D01*
D67*
X181230000Y-89470000D02*
X174000000Y-96700000D01*
%TO.N,ES8388_I2S_DIN*%
X194600000Y-80810000D02*
X194600000Y-82000000D01*
X173000000Y-95800000D02*
X172100000Y-95800000D01*
D64*
X171850000Y-95800000D02*
X172100000Y-95800000D01*
D67*
X189670000Y-86930000D02*
X186600000Y-86930000D01*
D64*
X169987500Y-97450000D02*
X170594974Y-97450000D01*
X171250000Y-96400000D02*
X171850000Y-95800000D01*
X170594974Y-97450000D02*
X171250000Y-96794974D01*
D67*
X194600000Y-82000000D02*
X189670000Y-86930000D01*
X186600000Y-86930000D02*
X181870000Y-86930000D01*
X181870000Y-86930000D02*
X173000000Y-95800000D01*
D64*
X171250000Y-96794974D02*
X171250000Y-96400000D01*
%TO.N,ES8388_I2S_LRCK*%
X170700000Y-96850000D02*
X170500000Y-97050000D01*
D67*
X182410000Y-84390000D02*
X183290000Y-84390000D01*
D64*
X170700000Y-96100000D02*
X170700000Y-96850000D01*
X171800000Y-95000000D02*
X170700000Y-96100000D01*
D67*
X193100000Y-80810000D02*
X193100000Y-81100000D01*
X189810000Y-84390000D02*
X183290000Y-84390000D01*
X193100000Y-81100000D02*
X189810000Y-84390000D01*
D64*
X170500000Y-97050000D02*
X169987500Y-97050000D01*
D67*
X171800000Y-95000000D02*
X182410000Y-84390000D01*
D64*
%TO.N,Net-(C424-Pad1)*%
X165650000Y-90600000D02*
X164800000Y-90600000D01*
X166175000Y-92575000D02*
X166175000Y-91125000D01*
X166175000Y-91125000D02*
X165650000Y-90600000D01*
%TO.N,Net-(C425-Pad1)*%
X167650000Y-92575000D02*
X167650000Y-90275000D01*
X167650000Y-90275000D02*
X166275000Y-88900000D01*
X166275000Y-88900000D02*
X164800000Y-88900000D01*
D62*
%TO.N,Net-(J101-CC2)*%
X143800000Y-70250000D02*
X146085000Y-70250000D01*
X142740000Y-71310000D02*
X143800000Y-70250000D01*
X142740000Y-74300000D02*
X142740000Y-71310000D01*
%TO.N,Net-(J101-CC1)*%
X142740000Y-66090000D02*
X143900000Y-67250000D01*
X143900000Y-67250000D02*
X146085000Y-67250000D01*
X142740000Y-62700000D02*
X142740000Y-66090000D01*
%TO.N,Net-(J402-PadR2)*%
X140975000Y-84975000D02*
X142950000Y-83000000D01*
X140975000Y-92200000D02*
X140975000Y-84975000D01*
D64*
%TO.N,Net-(R416-Pad1)*%
X163150000Y-90600000D02*
X160925000Y-90600000D01*
%TO.N,Net-(R417-Pad1)*%
X160950000Y-88900000D02*
X163150000Y-88900000D01*
D67*
%TO.N,/MCU/uSD_DAT2*%
X206490000Y-92700000D02*
X206490000Y-90435000D01*
X206490000Y-90435000D02*
X206500000Y-90425000D01*
X206490000Y-96690000D02*
X206490000Y-92700000D01*
X208200000Y-98400000D02*
X206490000Y-96690000D01*
X208450000Y-98400000D02*
X208200000Y-98400000D01*
%TO.N,/MCU/uSD_DAT3*%
X204490000Y-92700000D02*
X204490000Y-90435000D01*
X207500700Y-99500000D02*
X204490000Y-96489300D01*
X204490000Y-96489300D02*
X204490000Y-92700000D01*
X208450000Y-99500000D02*
X207500700Y-99500000D01*
X204490000Y-90435000D02*
X204500000Y-90425000D01*
%TO.N,/MCU/uSD_DAT1*%
X208450000Y-106100000D02*
X210400000Y-106100000D01*
X214480000Y-96020000D02*
X214480000Y-92700000D01*
X214480000Y-90420000D02*
X214500000Y-90400000D01*
X213275350Y-97224650D02*
X214480000Y-96020000D01*
X213275350Y-103224650D02*
X213275350Y-97224650D01*
X214480000Y-92700000D02*
X214480000Y-90420000D01*
X210400000Y-106100000D02*
X213275350Y-103224650D01*
%TO.N,/MCU/uSD_CMD*%
X208949300Y-100600000D02*
X209374650Y-100174650D01*
X209374650Y-96074650D02*
X208490000Y-95190000D01*
X208490000Y-95190000D02*
X208490000Y-92700000D01*
X208490000Y-90435000D02*
X208500000Y-90425000D01*
X208490000Y-92700000D02*
X208490000Y-90435000D01*
X209374650Y-100174650D02*
X209374650Y-96074650D01*
X208450000Y-100600000D02*
X208949300Y-100600000D01*
%TO.N,/MCU/uSD_CLK*%
X208450000Y-102800000D02*
X209399300Y-102800000D01*
X209399300Y-102800000D02*
X210800000Y-101399300D01*
X210800000Y-101399300D02*
X210800000Y-95800000D01*
X210800000Y-95800000D02*
X210480000Y-95480000D01*
X210480000Y-90445000D02*
X210500000Y-90425000D01*
X210480000Y-92700000D02*
X210480000Y-90445000D01*
X210480000Y-95480000D02*
X210480000Y-92700000D01*
%TO.N,/MCU/uSD_DAT0*%
X212490000Y-92700000D02*
X212490000Y-90435000D01*
X212490000Y-95710000D02*
X212490000Y-92700000D01*
X209399300Y-105000000D02*
X212100000Y-102299300D01*
X212100000Y-102299300D02*
X212100000Y-96100000D01*
X212100000Y-96100000D02*
X212490000Y-95710000D01*
X212490000Y-90435000D02*
X212500000Y-90425000D01*
X208450000Y-105000000D02*
X209399300Y-105000000D01*
D64*
%TO.N,/Audio CODEC/ES8388_DVDD*%
X169987500Y-99050000D02*
X170750000Y-99050000D01*
X171250000Y-99550000D02*
X172277500Y-99550000D01*
D65*
X170007500Y-98630000D02*
X169987500Y-98650000D01*
D64*
X169987500Y-98650000D02*
X172267500Y-98650000D01*
X172267500Y-98650000D02*
X172287500Y-98630000D01*
X170750000Y-99050000D02*
X171250000Y-99550000D01*
%TO.N,/Audio CODEC/ES8388_AVDD*%
X165437175Y-97850000D02*
X164812175Y-97225000D01*
X163295000Y-95360000D02*
X164190000Y-96255000D01*
X162065000Y-94435000D02*
X162990000Y-95360000D01*
X162990000Y-95360000D02*
X163295000Y-95360000D01*
X162065000Y-94175000D02*
X162065000Y-94435000D01*
X166112500Y-97850000D02*
X165437175Y-97850000D01*
X164812175Y-97225000D02*
X164812175Y-96877175D01*
X164812175Y-96877175D02*
X164190000Y-96255000D01*
%TO.N,/Audio CODEC/RIN2_GND*%
X166112500Y-99450000D02*
X166060000Y-99502500D01*
X166060000Y-99502500D02*
X166060000Y-101277500D01*
X166060000Y-101277500D02*
X165187500Y-102150000D01*
%TO.N,/Audio CODEC/LIN2_GND*%
X166850000Y-100187500D02*
X166850000Y-101487500D01*
X166850000Y-101487500D02*
X166187500Y-102150000D01*
D62*
%TO.N,/Audio CODEC/Q1_D*%
X179212500Y-105987500D02*
X177802500Y-105987500D01*
X177750000Y-105160000D02*
X177750000Y-106040000D01*
X177802500Y-105987500D02*
X177750000Y-106040000D01*
%TO.N,/Audio CODEC/Q1_G*%
X182650000Y-107050000D02*
X181200000Y-107050000D01*
X181200000Y-107050000D02*
X181087500Y-106937500D01*
%TO.N,/Audio CODEC/Q2_G*%
X177750000Y-104140000D02*
X177750000Y-103625000D01*
X177750000Y-103625000D02*
X178150000Y-103225000D01*
X178150000Y-103225000D02*
X179000000Y-103225000D01*
%TO.N,Net-(D103-A)*%
X159437500Y-66320000D02*
X160342500Y-66320000D01*
D63*
%TO.N,/Power/5V_Filt_A*%
X160075000Y-78150000D02*
X160200000Y-78275000D01*
X169300000Y-78275000D02*
X170175000Y-77400000D01*
X160200000Y-78275000D02*
X169300000Y-78275000D01*
%TO.N,/Power/5V_Filt_D*%
X161390000Y-64520000D02*
X162685000Y-63225000D01*
X162685000Y-63225000D02*
X169300000Y-63225000D01*
X169300000Y-63225000D02*
X170175000Y-62350000D01*
D62*
%TO.N,GND*%
X206000000Y-67200000D02*
X205150000Y-66350000D01*
X205150000Y-66350000D02*
X204450000Y-66350000D01*
%TD*%
%TA.AperFunction,Conductor*%
%TO.N,GND*%
G36*
X165093039Y-91669685D02*
G01*
X165138794Y-91722489D01*
X165150000Y-91774000D01*
X165150000Y-93450000D01*
X165149999Y-93450000D01*
X165200400Y-93487800D01*
X165242221Y-93543771D01*
X165250000Y-93587000D01*
X165250000Y-94348638D01*
X165230315Y-94415677D01*
X165213681Y-94436319D01*
X165186319Y-94463681D01*
X165124996Y-94497166D01*
X165098638Y-94500000D01*
X164762544Y-94500000D01*
X164695505Y-94480315D01*
X164693761Y-94479174D01*
X164630217Y-94436811D01*
X164585356Y-94383245D01*
X164575000Y-94333637D01*
X164575000Y-93550000D01*
X164525000Y-93500000D01*
X164324000Y-93500000D01*
X164256961Y-93480315D01*
X164211206Y-93427511D01*
X164200000Y-93376000D01*
X164200000Y-91774000D01*
X164219685Y-91706961D01*
X164272489Y-91661206D01*
X164324000Y-91650000D01*
X165026000Y-91650000D01*
X165093039Y-91669685D01*
G37*
%TD.AperFunction*%
%TD*%
%TA.AperFunction,Conductor*%
%TO.N,VBUS*%
G36*
X154566316Y-63317952D02*
G01*
X154577532Y-63327532D01*
X154622468Y-63372468D01*
X154648843Y-63424231D01*
X154650000Y-63438936D01*
X154650000Y-64856000D01*
X154632048Y-64911252D01*
X154585048Y-64945399D01*
X154556000Y-64950000D01*
X154450000Y-64950000D01*
X154400000Y-65000000D01*
X154400000Y-65661064D01*
X154382048Y-65716316D01*
X154372468Y-65727532D01*
X154327532Y-65772468D01*
X154275769Y-65798843D01*
X154261064Y-65800000D01*
X153838936Y-65800000D01*
X153783684Y-65782048D01*
X153772468Y-65772468D01*
X153727532Y-65727532D01*
X153701157Y-65675769D01*
X153700000Y-65661064D01*
X153700000Y-63518991D01*
X153717952Y-63463739D01*
X153764952Y-63429592D01*
X153794000Y-63424991D01*
X153799999Y-63424991D01*
X153799999Y-63424990D01*
X153800000Y-63424991D01*
X153935878Y-63407102D01*
X154062496Y-63354656D01*
X154108410Y-63319425D01*
X154163173Y-63300032D01*
X154165634Y-63300000D01*
X154511064Y-63300000D01*
X154566316Y-63317952D01*
G37*
%TD.AperFunction*%
%TD*%
%TA.AperFunction,Conductor*%
%TO.N,/Power/5V_Filt_A*%
G36*
X170715677Y-76769685D02*
G01*
X170736319Y-76786319D01*
X170863681Y-76913681D01*
X170897166Y-76975004D01*
X170900000Y-77001362D01*
X170900000Y-78550000D01*
X171050000Y-78650000D01*
X171398638Y-78650000D01*
X171465677Y-78669685D01*
X171486319Y-78686319D01*
X171563681Y-78763681D01*
X171597166Y-78825004D01*
X171600000Y-78851362D01*
X171600000Y-80048638D01*
X171580315Y-80115677D01*
X171563681Y-80136319D01*
X171436319Y-80263681D01*
X171374996Y-80297166D01*
X171348638Y-80300000D01*
X169751362Y-80300000D01*
X169684323Y-80280315D01*
X169663681Y-80263681D01*
X169536319Y-80136319D01*
X169502834Y-80074996D01*
X169500000Y-80048638D01*
X169500000Y-77001362D01*
X169519685Y-76934323D01*
X169536319Y-76913681D01*
X169663681Y-76786319D01*
X169725004Y-76752834D01*
X169751362Y-76750000D01*
X170648638Y-76750000D01*
X170715677Y-76769685D01*
G37*
%TD.AperFunction*%
%TD*%
%TA.AperFunction,Conductor*%
%TO.N,/MCU/CHIP_PU*%
G36*
X191515677Y-72669685D02*
G01*
X191536319Y-72686319D01*
X191563681Y-72713681D01*
X191597166Y-72775004D01*
X191600000Y-72801362D01*
X191600000Y-73398638D01*
X191580315Y-73465677D01*
X191563681Y-73486319D01*
X191536319Y-73513681D01*
X191474996Y-73547166D01*
X191448638Y-73550000D01*
X190549999Y-73550000D01*
X190450000Y-73649999D01*
X190450000Y-74248638D01*
X190430315Y-74315677D01*
X190413681Y-74336319D01*
X190386319Y-74363681D01*
X190324996Y-74397166D01*
X190298638Y-74400000D01*
X189751362Y-74400000D01*
X189684323Y-74380315D01*
X189663681Y-74363681D01*
X189636319Y-74336319D01*
X189602834Y-74274996D01*
X189600000Y-74248638D01*
X189600000Y-72801362D01*
X189619685Y-72734323D01*
X189636319Y-72713681D01*
X189663681Y-72686319D01*
X189725004Y-72652834D01*
X189751362Y-72650000D01*
X191448638Y-72650000D01*
X191515677Y-72669685D01*
G37*
%TD.AperFunction*%
%TD*%
%TA.AperFunction,Conductor*%
%TO.N,/Power/5V_Filt_D*%
G36*
X170715677Y-61719685D02*
G01*
X170736319Y-61736319D01*
X170863681Y-61863681D01*
X170897166Y-61925004D01*
X170900000Y-61951362D01*
X170900000Y-63500000D01*
X171050000Y-63600000D01*
X171398638Y-63600000D01*
X171465677Y-63619685D01*
X171486319Y-63636319D01*
X171563681Y-63713681D01*
X171597166Y-63775004D01*
X171600000Y-63801362D01*
X171600000Y-64998638D01*
X171580315Y-65065677D01*
X171563681Y-65086319D01*
X171436319Y-65213681D01*
X171374996Y-65247166D01*
X171348638Y-65250000D01*
X169751362Y-65250000D01*
X169684323Y-65230315D01*
X169663681Y-65213681D01*
X169536319Y-65086319D01*
X169502834Y-65024996D01*
X169500000Y-64998638D01*
X169500000Y-61951362D01*
X169519685Y-61884323D01*
X169536319Y-61863681D01*
X169663681Y-61736319D01*
X169725004Y-61702834D01*
X169751362Y-61700000D01*
X170648638Y-61700000D01*
X170715677Y-61719685D01*
G37*
%TD.AperFunction*%
%TD*%
%TA.AperFunction,Conductor*%
%TO.N,GND*%
G36*
X166515677Y-102719685D02*
G01*
X166536319Y-102736319D01*
X166563681Y-102763681D01*
X166597166Y-102825004D01*
X166600000Y-102851362D01*
X166600000Y-103448638D01*
X166580315Y-103515677D01*
X166563681Y-103536319D01*
X166536319Y-103563681D01*
X166474996Y-103597166D01*
X166448638Y-103600000D01*
X164912499Y-103600000D01*
X164812500Y-103699999D01*
X164812500Y-104748638D01*
X164792815Y-104815677D01*
X164776181Y-104836319D01*
X164748819Y-104863681D01*
X164687496Y-104897166D01*
X164661138Y-104900000D01*
X163363862Y-104900000D01*
X163296823Y-104880315D01*
X163276181Y-104863681D01*
X163248819Y-104836319D01*
X163215334Y-104774996D01*
X163212500Y-104748638D01*
X163212500Y-102851362D01*
X163232185Y-102784323D01*
X163248819Y-102763681D01*
X163276181Y-102736319D01*
X163337504Y-102702834D01*
X163363862Y-102700000D01*
X166448638Y-102700000D01*
X166515677Y-102719685D01*
G37*
%TD.AperFunction*%
%TD*%
%TA.AperFunction,Conductor*%
%TO.N,GND*%
G36*
X191366316Y-66517952D02*
G01*
X191377532Y-66527532D01*
X191472468Y-66622468D01*
X191498843Y-66674231D01*
X191500000Y-66688936D01*
X191500000Y-68111064D01*
X191482048Y-68166316D01*
X191472468Y-68177532D01*
X191377532Y-68272468D01*
X191325769Y-68298843D01*
X191311064Y-68300000D01*
X190888936Y-68300000D01*
X190833684Y-68282048D01*
X190822468Y-68272468D01*
X190727532Y-68177532D01*
X190701157Y-68125769D01*
X190700000Y-68111064D01*
X190700000Y-68100000D01*
X190550000Y-67950000D01*
X189188936Y-67950000D01*
X189133684Y-67932048D01*
X189122468Y-67922468D01*
X189027532Y-67827532D01*
X189001157Y-67775769D01*
X189000000Y-67761064D01*
X189000000Y-66688936D01*
X189017952Y-66633684D01*
X189027532Y-66622468D01*
X189122468Y-66527532D01*
X189174231Y-66501157D01*
X189188936Y-66500000D01*
X191311064Y-66500000D01*
X191366316Y-66517952D01*
G37*
%TD.AperFunction*%
%TD*%
%TA.AperFunction,Conductor*%
%TO.N,GND*%
G36*
X225116316Y-86117952D02*
G01*
X225127532Y-86127532D01*
X225272468Y-86272468D01*
X225298843Y-86324231D01*
X225300000Y-86338936D01*
X225300000Y-89461064D01*
X225282048Y-89516316D01*
X225272468Y-89527532D01*
X225127532Y-89672468D01*
X225075769Y-89698843D01*
X225061064Y-89700000D01*
X223938936Y-89700000D01*
X223883684Y-89682048D01*
X223872468Y-89672468D01*
X223727532Y-89527532D01*
X223701157Y-89475769D01*
X223700000Y-89461064D01*
X223700000Y-88500000D01*
X223500000Y-88300000D01*
X217338936Y-88300000D01*
X217283684Y-88282048D01*
X217272468Y-88272468D01*
X217127532Y-88127532D01*
X217101157Y-88075769D01*
X217100000Y-88061064D01*
X217100000Y-87238936D01*
X217117952Y-87183684D01*
X217127532Y-87172468D01*
X217272468Y-87027532D01*
X217324231Y-87001157D01*
X217338936Y-87000000D01*
X223500000Y-87000000D01*
X223700000Y-86800000D01*
X223700000Y-86338936D01*
X223717952Y-86283684D01*
X223727532Y-86272468D01*
X223872468Y-86127532D01*
X223924231Y-86101157D01*
X223938936Y-86100000D01*
X225061064Y-86100000D01*
X225116316Y-86117952D01*
G37*
%TD.AperFunction*%
%TD*%
%TA.AperFunction,Conductor*%
%TO.N,+3.3VA*%
G36*
X165463331Y-79703808D02*
G01*
X169650000Y-80900000D01*
X171608992Y-80900000D01*
X171667183Y-80918907D01*
X171678995Y-80928996D01*
X172149999Y-81399999D01*
X172150000Y-81400000D01*
X173008992Y-81400000D01*
X173067183Y-81418907D01*
X173078996Y-81428996D01*
X173221004Y-81571004D01*
X173248781Y-81625521D01*
X173250000Y-81641008D01*
X173250000Y-82508992D01*
X173231093Y-82567183D01*
X173221004Y-82578996D01*
X173078996Y-82721004D01*
X173024479Y-82748781D01*
X173008992Y-82750000D01*
X169500000Y-82750000D01*
X166652053Y-83628996D01*
X165464266Y-83995597D01*
X165435069Y-84000000D01*
X163391008Y-84000000D01*
X163332817Y-83981093D01*
X163321004Y-83971004D01*
X162978996Y-83628996D01*
X162951219Y-83574479D01*
X162950000Y-83558992D01*
X162950000Y-80094923D01*
X162968907Y-80036732D01*
X162983808Y-80020418D01*
X163322006Y-79724495D01*
X163378250Y-79700405D01*
X163387198Y-79700000D01*
X165436135Y-79700000D01*
X165463331Y-79703808D01*
G37*
%TD.AperFunction*%
%TD*%
%TA.AperFunction,Conductor*%
%TO.N,+3.3VA*%
G36*
X163543039Y-91669685D02*
G01*
X163588794Y-91722489D01*
X163600000Y-91774000D01*
X163600000Y-92775000D01*
X163600000Y-93825000D01*
X164101000Y-93825000D01*
X164168039Y-93844685D01*
X164213794Y-93897489D01*
X164225000Y-93949000D01*
X164225000Y-94401000D01*
X164205315Y-94468039D01*
X164152511Y-94513794D01*
X164101000Y-94525000D01*
X162776362Y-94525000D01*
X162709323Y-94505315D01*
X162688681Y-94488681D01*
X162686319Y-94486319D01*
X162652834Y-94424996D01*
X162650000Y-94398638D01*
X162650000Y-91774000D01*
X162669685Y-91706961D01*
X162722489Y-91661206D01*
X162774000Y-91650000D01*
X163476000Y-91650000D01*
X163543039Y-91669685D01*
G37*
%TD.AperFunction*%
%TD*%
%TA.AperFunction,Conductor*%
%TO.N,GND*%
G36*
X169565677Y-92519685D02*
G01*
X169586319Y-92536319D01*
X169588681Y-92538681D01*
X169622166Y-92600004D01*
X169625000Y-92626362D01*
X169625000Y-93401000D01*
X169605315Y-93468039D01*
X169552511Y-93513794D01*
X169501000Y-93525000D01*
X169299999Y-93525000D01*
X169250000Y-93574999D01*
X169250000Y-94358637D01*
X169230315Y-94425676D01*
X169194783Y-94461811D01*
X169131239Y-94504174D01*
X169064540Y-94524982D01*
X169062456Y-94525000D01*
X168726362Y-94525000D01*
X168659323Y-94505315D01*
X168638681Y-94488681D01*
X168611319Y-94461319D01*
X168577834Y-94399996D01*
X168575000Y-94373638D01*
X168575000Y-93612000D01*
X168594685Y-93544961D01*
X168624600Y-93512800D01*
X168675000Y-93475000D01*
X168675000Y-92626362D01*
X168694685Y-92559323D01*
X168711319Y-92538681D01*
X168713681Y-92536319D01*
X168775004Y-92502834D01*
X168801362Y-92500000D01*
X169498638Y-92500000D01*
X169565677Y-92519685D01*
G37*
%TD.AperFunction*%
%TD*%
%TA.AperFunction,Conductor*%
%TO.N,+3.3V*%
G36*
X165463331Y-64603808D02*
G01*
X169650000Y-65800000D01*
X171608992Y-65800000D01*
X171667183Y-65818907D01*
X171678995Y-65828996D01*
X172149999Y-66299999D01*
X172150000Y-66300000D01*
X173008992Y-66300000D01*
X173067183Y-66318907D01*
X173078996Y-66328996D01*
X173221004Y-66471004D01*
X173248781Y-66525521D01*
X173250000Y-66541008D01*
X173250000Y-67408992D01*
X173231093Y-67467183D01*
X173221003Y-67478996D01*
X173085792Y-67614206D01*
X173031276Y-67641983D01*
X173014312Y-67643191D01*
X169794563Y-67595135D01*
X169786531Y-67595144D01*
X169786393Y-67595145D01*
X169779000Y-67595271D01*
X169778471Y-67595280D01*
X169698914Y-67609415D01*
X169698904Y-67609418D01*
X169632919Y-67632362D01*
X169620228Y-67638929D01*
X169574736Y-67650000D01*
X169500000Y-67650000D01*
X166652053Y-68528996D01*
X165464266Y-68895597D01*
X165435069Y-68900000D01*
X163391008Y-68900000D01*
X163332817Y-68881093D01*
X163321004Y-68871004D01*
X162978996Y-68528996D01*
X162951219Y-68474479D01*
X162950000Y-68458992D01*
X162950000Y-64994923D01*
X162968907Y-64936732D01*
X162983808Y-64920418D01*
X163322006Y-64624495D01*
X163378250Y-64600405D01*
X163387198Y-64600000D01*
X165436135Y-64600000D01*
X165463331Y-64603808D01*
G37*
%TD.AperFunction*%
%TD*%
%TA.AperFunction,Conductor*%
%TO.N,+3.3V*%
G36*
X176023919Y-98767952D02*
G01*
X176025044Y-98768783D01*
X176162400Y-98871800D01*
X176195830Y-98919313D01*
X176200000Y-98947000D01*
X176200000Y-99853000D01*
X176182048Y-99908252D01*
X176162400Y-99928200D01*
X176036710Y-100022468D01*
X176025067Y-100031200D01*
X175970094Y-100049989D01*
X175968667Y-100050000D01*
X172988936Y-100050000D01*
X172933684Y-100032048D01*
X172922468Y-100022468D01*
X172827532Y-99927532D01*
X172801157Y-99875769D01*
X172800000Y-99861064D01*
X172800000Y-99288936D01*
X172817952Y-99233684D01*
X172827532Y-99222468D01*
X172896968Y-99153032D01*
X172948731Y-99126657D01*
X172963436Y-99125500D01*
X173498636Y-99125500D01*
X173498638Y-99125500D01*
X173498646Y-99125499D01*
X173498659Y-99125499D01*
X173501526Y-99125345D01*
X173517400Y-99124494D01*
X173517419Y-99124492D01*
X173543750Y-99121661D01*
X173543751Y-99121660D01*
X173543758Y-99121660D01*
X173569089Y-99113728D01*
X173599218Y-99104295D01*
X173627306Y-99100000D01*
X173750000Y-99100000D01*
X174072468Y-98777532D01*
X174124231Y-98751157D01*
X174138936Y-98750000D01*
X175968667Y-98750000D01*
X176023919Y-98767952D01*
G37*
%TD.AperFunction*%
%TD*%
%TA.AperFunction,Conductor*%
%TO.N,GND*%
G36*
X163356669Y-96454605D02*
G01*
X163423599Y-96474649D01*
X163469070Y-96527699D01*
X163480000Y-96578603D01*
X163480000Y-96855000D01*
X163530000Y-96930000D01*
X164403638Y-96930000D01*
X164470677Y-96949685D01*
X164491319Y-96966319D01*
X164493681Y-96968681D01*
X164527166Y-97030004D01*
X164530000Y-97056362D01*
X164530000Y-98243000D01*
X164510315Y-98310039D01*
X164480396Y-98342203D01*
X164463332Y-98355000D01*
X164397889Y-98379473D01*
X164388331Y-98379796D01*
X163411468Y-98375031D01*
X163405000Y-98375000D01*
X163404999Y-98375000D01*
X163355001Y-98429998D01*
X163355000Y-98430001D01*
X163355000Y-98906000D01*
X163335315Y-98973039D01*
X163282511Y-99018794D01*
X163231000Y-99030000D01*
X162553850Y-99030000D01*
X162486811Y-99010315D01*
X162441056Y-98957511D01*
X162429850Y-98906253D01*
X162428701Y-98342203D01*
X162425104Y-96576506D01*
X162444652Y-96509430D01*
X162461418Y-96488581D01*
X162463406Y-96486593D01*
X162524727Y-96453110D01*
X162551749Y-96450278D01*
X163356669Y-96454605D01*
G37*
%TD.AperFunction*%
%TD*%
%TA.AperFunction,Conductor*%
%TO.N,GND*%
G36*
X182140677Y-102494685D02*
G01*
X182161319Y-102511319D01*
X182238681Y-102588681D01*
X182272166Y-102650004D01*
X182275000Y-102676362D01*
X182275000Y-105198638D01*
X182255315Y-105265677D01*
X182238681Y-105286319D01*
X182186319Y-105338681D01*
X182124996Y-105372166D01*
X182098638Y-105375000D01*
X180251362Y-105375000D01*
X180184323Y-105355315D01*
X180163681Y-105338681D01*
X180086319Y-105261319D01*
X180052834Y-105199996D01*
X180050000Y-105173638D01*
X180050000Y-102676362D01*
X180069685Y-102609323D01*
X180086319Y-102588681D01*
X180163681Y-102511319D01*
X180225004Y-102477834D01*
X180251362Y-102475000D01*
X182073638Y-102475000D01*
X182140677Y-102494685D01*
G37*
%TD.AperFunction*%
%TD*%
%TA.AperFunction,Conductor*%
%TO.N,GND*%
G36*
X176016316Y-97317952D02*
G01*
X176027532Y-97327532D01*
X176172468Y-97472468D01*
X176198843Y-97524231D01*
X176200000Y-97538936D01*
X176200000Y-98161064D01*
X176182048Y-98216316D01*
X176172468Y-98227532D01*
X176027532Y-98372468D01*
X175975769Y-98398843D01*
X175961064Y-98400000D01*
X174800000Y-98400000D01*
X174128462Y-98400000D01*
X174076320Y-98384213D01*
X173991858Y-98327905D01*
X173955844Y-98282319D01*
X173950000Y-98249692D01*
X173950000Y-98200001D01*
X173949999Y-98199999D01*
X173700000Y-98000000D01*
X172128462Y-98000000D01*
X172076320Y-97984213D01*
X171991858Y-97927905D01*
X171955844Y-97882319D01*
X171950000Y-97849692D01*
X171950000Y-97438936D01*
X171967952Y-97383684D01*
X171977532Y-97372468D01*
X172022468Y-97327532D01*
X172074231Y-97301157D01*
X172088936Y-97300000D01*
X175961064Y-97300000D01*
X176016316Y-97317952D01*
G37*
%TD.AperFunction*%
%TD*%
%TA.AperFunction,Conductor*%
%TO.N,GND*%
G36*
X155866316Y-66017952D02*
G01*
X155877532Y-66027532D01*
X155922468Y-66072468D01*
X155948843Y-66124231D01*
X155950000Y-66138936D01*
X155950000Y-67161064D01*
X155932048Y-67216316D01*
X155922468Y-67227532D01*
X155877532Y-67272468D01*
X155825769Y-67298843D01*
X155811064Y-67300000D01*
X153838936Y-67300000D01*
X153783684Y-67282048D01*
X153772468Y-67272468D01*
X153727532Y-67227532D01*
X153701157Y-67175769D01*
X153700000Y-67161064D01*
X153700000Y-66138936D01*
X153717952Y-66083684D01*
X153727532Y-66072468D01*
X153772468Y-66027532D01*
X153824231Y-66001157D01*
X153838936Y-66000000D01*
X155811064Y-66000000D01*
X155866316Y-66017952D01*
G37*
%TD.AperFunction*%
%TD*%
%TA.AperFunction,Conductor*%
%TO.N,/Audio CODEC/AUX_VREF*%
G36*
X161343039Y-101719685D02*
G01*
X161388794Y-101772489D01*
X161400000Y-101824000D01*
X161400000Y-102550000D01*
X161450000Y-102600000D01*
X162926000Y-102600000D01*
X162993039Y-102619685D01*
X163038794Y-102672489D01*
X163050000Y-102724000D01*
X163050000Y-102764025D01*
X163044978Y-102798957D01*
X163044110Y-102801912D01*
X163044107Y-102801924D01*
X163037000Y-102851360D01*
X163037000Y-104626000D01*
X163017315Y-104693039D01*
X162964511Y-104738794D01*
X162913000Y-104750000D01*
X161624000Y-104750000D01*
X161556961Y-104730315D01*
X161511206Y-104677511D01*
X161500000Y-104626000D01*
X161500000Y-103600000D01*
X161450000Y-103550000D01*
X159774000Y-103550000D01*
X159706961Y-103530315D01*
X159661206Y-103477511D01*
X159650000Y-103426000D01*
X159650000Y-103074000D01*
X159669685Y-103006961D01*
X159722489Y-102961206D01*
X159774000Y-102950000D01*
X160750000Y-102950000D01*
X160800000Y-102900000D01*
X160800000Y-101824000D01*
X160819685Y-101756961D01*
X160872489Y-101711206D01*
X160924000Y-101700000D01*
X161276000Y-101700000D01*
X161343039Y-101719685D01*
G37*
%TD.AperFunction*%
%TD*%
%TA.AperFunction,Conductor*%
%TO.N,+3.3V*%
G36*
X207215677Y-101219685D02*
G01*
X207236319Y-101236319D01*
X207263681Y-101263681D01*
X207297166Y-101325004D01*
X207300000Y-101351362D01*
X207300000Y-102548638D01*
X207280315Y-102615677D01*
X207263681Y-102636319D01*
X207236319Y-102663681D01*
X207174996Y-102697166D01*
X207148638Y-102700000D01*
X204251362Y-102700000D01*
X204184323Y-102680315D01*
X204163681Y-102663681D01*
X204136319Y-102636319D01*
X204102834Y-102574996D01*
X204100000Y-102548638D01*
X204100000Y-101351362D01*
X204119685Y-101284323D01*
X204136319Y-101263681D01*
X204163681Y-101236319D01*
X204225004Y-101202834D01*
X204251362Y-101200000D01*
X207148638Y-101200000D01*
X207215677Y-101219685D01*
G37*
%TD.AperFunction*%
%TD*%
%TA.AperFunction,Conductor*%
%TO.N,GND*%
G36*
X207215677Y-103119685D02*
G01*
X207236319Y-103136319D01*
X207263681Y-103163681D01*
X207297166Y-103225004D01*
X207300000Y-103251362D01*
X207300000Y-104448638D01*
X207280315Y-104515677D01*
X207263681Y-104536319D01*
X207236319Y-104563681D01*
X207174996Y-104597166D01*
X207148638Y-104600000D01*
X204251362Y-104600000D01*
X204184323Y-104580315D01*
X204163681Y-104563681D01*
X204161319Y-104561319D01*
X204127834Y-104499996D01*
X204125000Y-104473638D01*
X204125000Y-103271038D01*
X204144685Y-103203999D01*
X204161316Y-103183360D01*
X204208358Y-103136318D01*
X204269680Y-103102834D01*
X204296038Y-103100000D01*
X207148638Y-103100000D01*
X207215677Y-103119685D01*
G37*
%TD.AperFunction*%
%TD*%
%TA.AperFunction,Conductor*%
%TO.N,+3.3V*%
G36*
X188276004Y-71600325D02*
G01*
X188278417Y-71600500D01*
X188278418Y-71600500D01*
X188721583Y-71600500D01*
X188723996Y-71600325D01*
X188732964Y-71600000D01*
X188798638Y-71600000D01*
X188865677Y-71619685D01*
X188886319Y-71636319D01*
X188963681Y-71713681D01*
X188997166Y-71775004D01*
X189000000Y-71801362D01*
X189000000Y-72500000D01*
X189100000Y-72600000D01*
X189198638Y-72600000D01*
X189265677Y-72619685D01*
X189286319Y-72636319D01*
X189313681Y-72663681D01*
X189347166Y-72725004D01*
X189350000Y-72751362D01*
X189350000Y-72754239D01*
X189348738Y-72771885D01*
X189344500Y-72801360D01*
X189344500Y-73377851D01*
X189324815Y-73444890D01*
X189272011Y-73490645D01*
X189202853Y-73500589D01*
X189173048Y-73492412D01*
X189106765Y-73464957D01*
X189106760Y-73464955D01*
X188950001Y-73444318D01*
X188949999Y-73444318D01*
X188793240Y-73464955D01*
X188787792Y-73467211D01*
X188771449Y-73473981D01*
X188701982Y-73481449D01*
X188639503Y-73450173D01*
X188603851Y-73390084D01*
X188600000Y-73359419D01*
X188600000Y-72750000D01*
X188450000Y-72600000D01*
X187475033Y-72600000D01*
X187418738Y-72586485D01*
X187375301Y-72564352D01*
X187281524Y-72549500D01*
X185968476Y-72549500D01*
X185963620Y-72549883D01*
X185963474Y-72548038D01*
X185902017Y-72540083D01*
X185864256Y-72514256D01*
X185836319Y-72486319D01*
X185802834Y-72424996D01*
X185800000Y-72398638D01*
X185800000Y-71801362D01*
X185819685Y-71734323D01*
X185836312Y-71713687D01*
X185864258Y-71685741D01*
X185925577Y-71652258D01*
X185963546Y-71651181D01*
X185963630Y-71650118D01*
X185968469Y-71650498D01*
X185968481Y-71650500D01*
X187281518Y-71650499D01*
X187375304Y-71635646D01*
X187407750Y-71619113D01*
X187418739Y-71613515D01*
X187475033Y-71600000D01*
X188267036Y-71600000D01*
X188276004Y-71600325D01*
G37*
%TD.AperFunction*%
%TD*%
%TA.AperFunction,Conductor*%
%TO.N,GND*%
G36*
X164128177Y-108119685D02*
G01*
X164148819Y-108136319D01*
X164176181Y-108163681D01*
X164209666Y-108225004D01*
X164212500Y-108251362D01*
X164212500Y-109248638D01*
X164192815Y-109315677D01*
X164176181Y-109336319D01*
X164148819Y-109363681D01*
X164087496Y-109397166D01*
X164061138Y-109400000D01*
X161763862Y-109400000D01*
X161696823Y-109380315D01*
X161676181Y-109363681D01*
X161648819Y-109336319D01*
X161615334Y-109274996D01*
X161612500Y-109248638D01*
X161612500Y-108251362D01*
X161632185Y-108184323D01*
X161648819Y-108163681D01*
X161676181Y-108136319D01*
X161737504Y-108102834D01*
X161763862Y-108100000D01*
X164061138Y-108100000D01*
X164128177Y-108119685D01*
G37*
%TD.AperFunction*%
%TD*%
%TA.AperFunction,Conductor*%
%TO.N,GND*%
G36*
X224922279Y-80967952D02*
G01*
X224925737Y-80970589D01*
X225114722Y-81121777D01*
X225146651Y-81170310D01*
X225150000Y-81195178D01*
X225150000Y-82911064D01*
X225132048Y-82966316D01*
X225122468Y-82977532D01*
X224927532Y-83172468D01*
X224875769Y-83198843D01*
X224861064Y-83200000D01*
X223138936Y-83200000D01*
X223083684Y-83182048D01*
X223072468Y-83172468D01*
X222877532Y-82977532D01*
X222851157Y-82925769D01*
X222850000Y-82911064D01*
X222850000Y-81238936D01*
X222867952Y-81183684D01*
X222877532Y-81172468D01*
X223072468Y-80977532D01*
X223124231Y-80951157D01*
X223138936Y-80950000D01*
X224867027Y-80950000D01*
X224922279Y-80967952D01*
G37*
%TD.AperFunction*%
%TD*%
%TA.AperFunction,Conductor*%
%TO.N,+5V*%
G36*
X159116316Y-63317952D02*
G01*
X159127532Y-63327532D01*
X159172468Y-63372468D01*
X159198843Y-63424231D01*
X159200000Y-63438936D01*
X159200000Y-65461064D01*
X159182048Y-65516316D01*
X159172468Y-65527532D01*
X159127532Y-65572468D01*
X159075769Y-65598843D01*
X159061064Y-65600000D01*
X158850000Y-65600000D01*
X158750000Y-65700000D01*
X158750000Y-66611064D01*
X158732048Y-66666316D01*
X158722468Y-66677532D01*
X158677532Y-66722468D01*
X158625769Y-66748843D01*
X158611064Y-66750000D01*
X158238936Y-66750000D01*
X158183684Y-66732048D01*
X158172468Y-66722468D01*
X158127532Y-66677532D01*
X158101157Y-66625769D01*
X158100000Y-66611064D01*
X158100000Y-65950000D01*
X158000000Y-65850000D01*
X155932232Y-65850000D01*
X155903186Y-65845400D01*
X155865296Y-65833089D01*
X155811065Y-65824500D01*
X155811064Y-65824500D01*
X155013436Y-65824500D01*
X154958184Y-65806548D01*
X154946968Y-65796968D01*
X154927532Y-65777532D01*
X154901157Y-65725769D01*
X154900000Y-65711064D01*
X154900000Y-63438936D01*
X154917952Y-63383684D01*
X154927532Y-63372468D01*
X154972468Y-63327532D01*
X155024231Y-63301157D01*
X155038936Y-63300000D01*
X159061064Y-63300000D01*
X159116316Y-63317952D01*
G37*
%TD.AperFunction*%
%TD*%
%TA.AperFunction,Conductor*%
%TO.N,GND*%
G36*
X149216316Y-63917952D02*
G01*
X149227532Y-63927532D01*
X149272468Y-63972468D01*
X149298843Y-64024231D01*
X149300000Y-64038936D01*
X149300000Y-64961064D01*
X149282048Y-65016316D01*
X149272468Y-65027532D01*
X149227532Y-65072468D01*
X149175769Y-65098843D01*
X149161064Y-65100000D01*
X148250000Y-65100000D01*
X148150000Y-65200000D01*
X148150000Y-65461064D01*
X148132048Y-65516316D01*
X148122468Y-65527532D01*
X148077532Y-65572468D01*
X148025769Y-65598843D01*
X148011064Y-65600000D01*
X146920831Y-65600000D01*
X146884856Y-65592844D01*
X146876526Y-65589393D01*
X146876524Y-65589392D01*
X146876523Y-65589392D01*
X146826794Y-65579500D01*
X145368436Y-65579500D01*
X145313184Y-65561548D01*
X145301968Y-65551968D01*
X145277532Y-65527532D01*
X145251157Y-65475769D01*
X145250000Y-65461064D01*
X145250000Y-64988936D01*
X145267952Y-64933684D01*
X145277532Y-64922468D01*
X145321968Y-64878032D01*
X145373731Y-64851657D01*
X145388436Y-64850500D01*
X145786035Y-64850500D01*
X145786038Y-64850500D01*
X145915578Y-64824733D01*
X145958015Y-64807155D01*
X145993987Y-64800000D01*
X146850000Y-64800000D01*
X146950000Y-64700000D01*
X146950000Y-64038936D01*
X146967952Y-63983684D01*
X146977532Y-63972468D01*
X147022468Y-63927532D01*
X147074231Y-63901157D01*
X147088936Y-63900000D01*
X149161064Y-63900000D01*
X149216316Y-63917952D01*
G37*
%TD.AperFunction*%
%TD*%
%TA.AperFunction,Conductor*%
%TO.N,GND*%
G36*
X224922279Y-75757952D02*
G01*
X224925737Y-75760589D01*
X225114722Y-75911777D01*
X225146651Y-75960310D01*
X225150000Y-75985178D01*
X225150000Y-77701064D01*
X225132048Y-77756316D01*
X225122468Y-77767532D01*
X224927532Y-77962468D01*
X224875769Y-77988843D01*
X224861064Y-77990000D01*
X223138936Y-77990000D01*
X223083684Y-77972048D01*
X223072468Y-77962468D01*
X222877532Y-77767532D01*
X222851157Y-77715769D01*
X222850000Y-77701064D01*
X222850000Y-76028936D01*
X222867952Y-75973684D01*
X222877532Y-75962468D01*
X223072468Y-75767532D01*
X223124231Y-75741157D01*
X223138936Y-75740000D01*
X224867027Y-75740000D01*
X224922279Y-75757952D01*
G37*
%TD.AperFunction*%
%TD*%
%TA.AperFunction,Conductor*%
%TO.N,GND*%
G36*
X148116316Y-71417952D02*
G01*
X148127532Y-71427532D01*
X148172468Y-71472468D01*
X148198843Y-71524231D01*
X148200000Y-71538936D01*
X148200000Y-71850000D01*
X148300000Y-71950000D01*
X149111064Y-71950000D01*
X149166316Y-71967952D01*
X149177532Y-71977532D01*
X149222468Y-72022468D01*
X149248843Y-72074231D01*
X149250000Y-72088936D01*
X149250000Y-72861064D01*
X149232048Y-72916316D01*
X149222468Y-72927532D01*
X149177532Y-72972468D01*
X149125769Y-72998843D01*
X149111064Y-73000000D01*
X146988936Y-73000000D01*
X146933684Y-72982048D01*
X146922468Y-72972468D01*
X146877532Y-72927532D01*
X146851157Y-72875769D01*
X146850000Y-72861064D01*
X146850000Y-72200000D01*
X146750000Y-72100000D01*
X145394000Y-72100000D01*
X145338748Y-72082048D01*
X145304601Y-72035048D01*
X145300000Y-72006000D01*
X145300000Y-71514499D01*
X145317952Y-71459247D01*
X145364952Y-71425100D01*
X145393993Y-71420499D01*
X146826790Y-71420499D01*
X146876526Y-71410607D01*
X146876528Y-71410605D01*
X146884861Y-71407155D01*
X146920832Y-71400000D01*
X148061064Y-71400000D01*
X148116316Y-71417952D01*
G37*
%TD.AperFunction*%
%TD*%
%TA.AperFunction,Conductor*%
%TO.N,+3.3V*%
G36*
X190265677Y-68319685D02*
G01*
X190286319Y-68336319D01*
X190400000Y-68450000D01*
X190591324Y-68450000D01*
X190658363Y-68469685D01*
X190666161Y-68475129D01*
X190667750Y-68476332D01*
X190667751Y-68476333D01*
X190754732Y-68525044D01*
X190754734Y-68525044D01*
X190754735Y-68525045D01*
X190754737Y-68525046D01*
X190809976Y-68542994D01*
X190809979Y-68542994D01*
X190809984Y-68542996D01*
X190855026Y-68550129D01*
X190888932Y-68555500D01*
X190888936Y-68555500D01*
X191311052Y-68555500D01*
X191311064Y-68555500D01*
X191331105Y-68554713D01*
X191345810Y-68553556D01*
X191345817Y-68553555D01*
X191408751Y-68535805D01*
X191437905Y-68527583D01*
X191507771Y-68528331D01*
X191559246Y-68559246D01*
X191563681Y-68563681D01*
X191597166Y-68625004D01*
X191600000Y-68651362D01*
X191600000Y-69298638D01*
X191580315Y-69365677D01*
X191563681Y-69386319D01*
X191486319Y-69463681D01*
X191424996Y-69497166D01*
X191398638Y-69500000D01*
X190700000Y-69500000D01*
X190300000Y-69500000D01*
X188101362Y-69500000D01*
X188034323Y-69480315D01*
X188013681Y-69463681D01*
X187936319Y-69386319D01*
X187902834Y-69324996D01*
X187900000Y-69298638D01*
X187900000Y-68651362D01*
X187919685Y-68584323D01*
X187936319Y-68563681D01*
X188013681Y-68486319D01*
X188075004Y-68452834D01*
X188101362Y-68450000D01*
X189150000Y-68450000D01*
X189263681Y-68336319D01*
X189325004Y-68302834D01*
X189351362Y-68300000D01*
X190198638Y-68300000D01*
X190265677Y-68319685D01*
G37*
%TD.AperFunction*%
%TD*%
%TA.AperFunction,Conductor*%
%TO.N,GND*%
G36*
X143815677Y-97219685D02*
G01*
X143836319Y-97236319D01*
X143963681Y-97363681D01*
X143997166Y-97425004D01*
X144000000Y-97451362D01*
X144000000Y-108848638D01*
X143980315Y-108915677D01*
X143963681Y-108936319D01*
X143836319Y-109063681D01*
X143774996Y-109097166D01*
X143748638Y-109100000D01*
X142151362Y-109100000D01*
X142084323Y-109080315D01*
X142063681Y-109063681D01*
X141936319Y-108936319D01*
X141902834Y-108874996D01*
X141900000Y-108848638D01*
X141900000Y-97451362D01*
X141919685Y-97384323D01*
X141936319Y-97363681D01*
X142063681Y-97236319D01*
X142125004Y-97202834D01*
X142151362Y-97200000D01*
X143748638Y-97200000D01*
X143815677Y-97219685D01*
G37*
%TD.AperFunction*%
%TD*%
%TA.AperFunction,Conductor*%
%TO.N,GND*%
G36*
X143815677Y-88219685D02*
G01*
X143836319Y-88236319D01*
X143963681Y-88363681D01*
X143997166Y-88425004D01*
X144000000Y-88451362D01*
X144000000Y-92648638D01*
X143980315Y-92715677D01*
X143963681Y-92736319D01*
X143836319Y-92863681D01*
X143774996Y-92897166D01*
X143748638Y-92900000D01*
X142151362Y-92900000D01*
X142084323Y-92880315D01*
X142063681Y-92863681D01*
X141936319Y-92736319D01*
X141902834Y-92674996D01*
X141900000Y-92648638D01*
X141900000Y-88451362D01*
X141919685Y-88384323D01*
X141936319Y-88363681D01*
X142063681Y-88236319D01*
X142125004Y-88202834D01*
X142151362Y-88200000D01*
X143748638Y-88200000D01*
X143815677Y-88219685D01*
G37*
%TD.AperFunction*%
%TD*%
%TA.AperFunction,Conductor*%
%TO.N,GND*%
G36*
X173049726Y-67899249D02*
G01*
X173116462Y-67919932D01*
X173135554Y-67935554D01*
X173213681Y-68013681D01*
X173247166Y-68075004D01*
X173250000Y-68101362D01*
X173250000Y-70298638D01*
X173230315Y-70365677D01*
X173213681Y-70386319D01*
X173136319Y-70463681D01*
X173074996Y-70497166D01*
X173048638Y-70500000D01*
X169566363Y-70500000D01*
X169499324Y-70480315D01*
X169463189Y-70444783D01*
X169420826Y-70381239D01*
X169400018Y-70314540D01*
X169400000Y-70312456D01*
X169400000Y-68163813D01*
X169419685Y-68096774D01*
X169451926Y-68062910D01*
X169470000Y-68050000D01*
X169716833Y-67873690D01*
X169782826Y-67850743D01*
X169790747Y-67850608D01*
X173049726Y-67899249D01*
G37*
%TD.AperFunction*%
%TD*%
%TA.AperFunction,Conductor*%
%TO.N,GND*%
G36*
X173049726Y-83199249D02*
G01*
X173116462Y-83219932D01*
X173135554Y-83235554D01*
X173213681Y-83313681D01*
X173247166Y-83375004D01*
X173250000Y-83401362D01*
X173250000Y-85598638D01*
X173230315Y-85665677D01*
X173213681Y-85686319D01*
X173136319Y-85763681D01*
X173074996Y-85797166D01*
X173048638Y-85800000D01*
X169566363Y-85800000D01*
X169499324Y-85780315D01*
X169463189Y-85744783D01*
X169420826Y-85681239D01*
X169400018Y-85614540D01*
X169400000Y-85612456D01*
X169400000Y-83463813D01*
X169419685Y-83396774D01*
X169451926Y-83362910D01*
X169470000Y-83350000D01*
X169716833Y-83173690D01*
X169782826Y-83150743D01*
X169790747Y-83150608D01*
X173049726Y-83199249D01*
G37*
%TD.AperFunction*%
%TD*%
%TA.AperFunction,Conductor*%
%TO.N,/Audio CODEC/ES8388_DVDD*%
G36*
X173565677Y-98319685D02*
G01*
X173586319Y-98336319D01*
X173613681Y-98363681D01*
X173647166Y-98425004D01*
X173650000Y-98451362D01*
X173650000Y-98798638D01*
X173630315Y-98865677D01*
X173613681Y-98886319D01*
X173586319Y-98913681D01*
X173524996Y-98947166D01*
X173498638Y-98950000D01*
X172699999Y-98950000D01*
X172600000Y-99049999D01*
X172600000Y-99748638D01*
X172580315Y-99815677D01*
X172563681Y-99836319D01*
X172536319Y-99863681D01*
X172474996Y-99897166D01*
X172448638Y-99900000D01*
X172101362Y-99900000D01*
X172034323Y-99880315D01*
X172013681Y-99863681D01*
X171986319Y-99836319D01*
X171952834Y-99774996D01*
X171950000Y-99748638D01*
X171950000Y-98451362D01*
X171969685Y-98384323D01*
X171986319Y-98363681D01*
X172013681Y-98336319D01*
X172075004Y-98302834D01*
X172101362Y-98300000D01*
X173498638Y-98300000D01*
X173565677Y-98319685D01*
G37*
%TD.AperFunction*%
%TD*%
M02*
