%TF.GenerationSoftware,KiCad,Pcbnew,8.0.8-8.0.8-0~ubuntu24.04.1*%
%TF.CreationDate,2025-08-28T09:53:26+03:00*%
%TF.ProjectId,pocketmuseum_edu_v0,706f636b-6574-46d7-9573-65756d5f6564,rev?*%
%TF.SameCoordinates,Original*%
%TF.FileFunction,Soldermask,Top*%
%TF.FilePolarity,Negative*%
%FSLAX46Y46*%
G04 Gerber Fmt 4.6, Leading zero omitted, Abs format (unit mm)*
G04 Created by KiCad (PCBNEW 8.0.8-8.0.8-0~ubuntu24.04.1) date 2025-08-28 09:53:26*
%MOMM*%
%LPD*%
G01*
G04 APERTURE LIST*
G04 Aperture macros list*
%AMRoundRect*
0 Rectangle with rounded corners*
0 $1 Rounding radius*
0 $2 $3 $4 $5 $6 $7 $8 $9 X,Y pos of 4 corners*
0 Add a 4 corners polygon primitive as box body*
4,1,4,$2,$3,$4,$5,$6,$7,$8,$9,$2,$3,0*
0 Add four circle primitives for the rounded corners*
1,1,$1+$1,$2,$3*
1,1,$1+$1,$4,$5*
1,1,$1+$1,$6,$7*
1,1,$1+$1,$8,$9*
0 Add four rect primitives between the rounded corners*
20,1,$1+$1,$2,$3,$4,$5,0*
20,1,$1+$1,$4,$5,$6,$7,0*
20,1,$1+$1,$6,$7,$8,$9,0*
20,1,$1+$1,$8,$9,$2,$3,0*%
%AMFreePoly0*
4,1,6,0.725000,-0.725000,-0.725000,-0.725000,-0.725000,0.125000,-0.125000,0.725000,0.725000,0.725000,0.725000,-0.725000,0.725000,-0.725000,$1*%
G04 Aperture macros list end*
%ADD10R,1.600000X0.700000*%
%ADD11R,1.500000X1.200000*%
%ADD12R,2.200000X1.200000*%
%ADD13R,1.500000X1.600000*%
%ADD14RoundRect,0.135000X-0.185000X0.135000X-0.185000X-0.135000X0.185000X-0.135000X0.185000X0.135000X0*%
%ADD15RoundRect,0.150000X0.150000X-0.512500X0.150000X0.512500X-0.150000X0.512500X-0.150000X-0.512500X0*%
%ADD16RoundRect,0.135000X0.135000X0.185000X-0.135000X0.185000X-0.135000X-0.185000X0.135000X-0.185000X0*%
%ADD17RoundRect,0.135000X0.185000X-0.135000X0.185000X0.135000X-0.185000X0.135000X-0.185000X-0.135000X0*%
%ADD18RoundRect,0.225000X-0.250000X0.225000X-0.250000X-0.225000X0.250000X-0.225000X0.250000X0.225000X0*%
%ADD19RoundRect,0.225000X-0.225000X-0.250000X0.225000X-0.250000X0.225000X0.250000X-0.225000X0.250000X0*%
%ADD20RoundRect,0.140000X0.170000X-0.140000X0.170000X0.140000X-0.170000X0.140000X-0.170000X-0.140000X0*%
%ADD21RoundRect,0.147500X0.172500X-0.147500X0.172500X0.147500X-0.172500X0.147500X-0.172500X-0.147500X0*%
%ADD22RoundRect,0.135000X-0.135000X-0.185000X0.135000X-0.185000X0.135000X0.185000X-0.135000X0.185000X0*%
%ADD23RoundRect,0.140000X0.140000X0.170000X-0.140000X0.170000X-0.140000X-0.170000X0.140000X-0.170000X0*%
%ADD24C,3.200000*%
%ADD25RoundRect,0.020000X0.110000X-0.380000X0.110000X0.380000X-0.110000X0.380000X-0.110000X-0.380000X0*%
%ADD26RoundRect,0.020000X0.750000X-0.450000X0.750000X0.450000X-0.750000X0.450000X-0.750000X-0.450000X0*%
%ADD27RoundRect,0.150000X-0.200000X0.150000X-0.200000X-0.150000X0.200000X-0.150000X0.200000X0.150000X0*%
%ADD28RoundRect,0.140000X-0.170000X0.140000X-0.170000X-0.140000X0.170000X-0.140000X0.170000X0.140000X0*%
%ADD29C,0.650000*%
%ADD30R,0.300000X1.450000*%
%ADD31R,0.600000X1.450000*%
%ADD32O,1.000000X2.100000*%
%ADD33O,1.000000X1.600000*%
%ADD34RoundRect,0.150000X-0.150000X0.587500X-0.150000X-0.587500X0.150000X-0.587500X0.150000X0.587500X0*%
%ADD35RoundRect,0.200000X0.200000X0.275000X-0.200000X0.275000X-0.200000X-0.275000X0.200000X-0.275000X0*%
%ADD36RoundRect,0.150000X-0.150000X-0.200000X0.150000X-0.200000X0.150000X0.200000X-0.150000X0.200000X0*%
%ADD37C,2.000000*%
%ADD38R,0.800000X0.400000*%
%ADD39R,0.400000X0.800000*%
%ADD40FreePoly0,0.000000*%
%ADD41R,1.450000X1.450000*%
%ADD42R,0.700000X0.700000*%
%ADD43RoundRect,0.250000X-0.250000X-1.500000X0.250000X-1.500000X0.250000X1.500000X-0.250000X1.500000X0*%
%ADD44RoundRect,0.250001X-0.499999X-1.449999X0.499999X-1.449999X0.499999X1.449999X-0.499999X1.449999X0*%
%ADD45RoundRect,0.200000X-0.275000X0.200000X-0.275000X-0.200000X0.275000X-0.200000X0.275000X0.200000X0*%
%ADD46RoundRect,0.150000X0.587500X0.150000X-0.587500X0.150000X-0.587500X-0.150000X0.587500X-0.150000X0*%
%ADD47RoundRect,0.150000X0.625000X-0.150000X0.625000X0.150000X-0.625000X0.150000X-0.625000X-0.150000X0*%
%ADD48RoundRect,0.250000X0.650000X-0.350000X0.650000X0.350000X-0.650000X0.350000X-0.650000X-0.350000X0*%
%ADD49RoundRect,0.150000X-0.625000X0.150000X-0.625000X-0.150000X0.625000X-0.150000X0.625000X0.150000X0*%
%ADD50RoundRect,0.250000X-0.650000X0.350000X-0.650000X-0.350000X0.650000X-0.350000X0.650000X0.350000X0*%
%ADD51RoundRect,0.225000X0.250000X-0.225000X0.250000X0.225000X-0.250000X0.225000X-0.250000X-0.225000X0*%
%ADD52RoundRect,0.147500X0.147500X0.172500X-0.147500X0.172500X-0.147500X-0.172500X0.147500X-0.172500X0*%
%ADD53C,0.500000*%
G04 APERTURE END LIST*
D10*
%TO.C,J201*%
X177410000Y-96970000D03*
X177410000Y-98070000D03*
X177410000Y-99170000D03*
X177410000Y-100270000D03*
X177410000Y-101370000D03*
X177410000Y-102470000D03*
X177410000Y-103570000D03*
X177410000Y-104670000D03*
X177410000Y-105770000D03*
D11*
X178410000Y-106970000D03*
D12*
X188010000Y-106970000D03*
D13*
X178410000Y-92370000D03*
D12*
X188010000Y-91470000D03*
%TD*%
D14*
%TO.C,R202*%
X156425000Y-74840000D03*
X156425000Y-75860000D03*
%TD*%
D15*
%TO.C,U103*%
X155920000Y-96485000D03*
X156870000Y-96485000D03*
X157820000Y-96485000D03*
X157820000Y-94210000D03*
X155920000Y-94210000D03*
%TD*%
D16*
%TO.C,R113*%
X160630000Y-89300000D03*
X159610000Y-89300000D03*
%TD*%
D17*
%TO.C,R106*%
X159750000Y-101460000D03*
X159750000Y-100440000D03*
%TD*%
D18*
%TO.C,C104*%
X155100000Y-100070000D03*
X155100000Y-101620000D03*
%TD*%
D19*
%TO.C,C107*%
X155325000Y-98240000D03*
X156875000Y-98240000D03*
%TD*%
D20*
%TO.C,C101*%
X157340000Y-111290000D03*
X157340000Y-110330000D03*
%TD*%
D21*
%TO.C,D208*%
X168000000Y-87180000D03*
X168000000Y-86210000D03*
%TD*%
D14*
%TO.C,R110*%
X157267500Y-80910000D03*
X157267500Y-81930000D03*
%TD*%
D22*
%TO.C,R303*%
X158140000Y-82980000D03*
X159160000Y-82980000D03*
%TD*%
%TO.C,R109*%
X153070000Y-96570000D03*
X154090000Y-96570000D03*
%TD*%
D17*
%TO.C,R101*%
X169350000Y-105470000D03*
X169350000Y-104450000D03*
%TD*%
D23*
%TO.C,C105*%
X154070000Y-95570000D03*
X153110000Y-95570000D03*
%TD*%
D24*
%TO.C,H3*%
X101230000Y-69240000D03*
%TD*%
D19*
%TO.C,C110*%
X155302500Y-85057500D03*
X156852500Y-85057500D03*
%TD*%
D25*
%TO.C,U101*%
X156730000Y-104000000D03*
X157130000Y-104000000D03*
X157530000Y-104000000D03*
X157930000Y-104000000D03*
X158330000Y-104000000D03*
X158330000Y-102030000D03*
X157930000Y-102030000D03*
X157530000Y-102030000D03*
X157130000Y-102030000D03*
X156730000Y-102030000D03*
D26*
X157530000Y-103015000D03*
%TD*%
D18*
%TO.C,C206*%
X172550000Y-100685350D03*
X172550000Y-102235350D03*
%TD*%
D27*
%TO.C,D101*%
X158810000Y-112230000D03*
X158810000Y-110830000D03*
%TD*%
D28*
%TO.C,C106*%
X157260000Y-82840000D03*
X157260000Y-83800000D03*
%TD*%
D17*
%TO.C,R105*%
X156900000Y-100535000D03*
X156900000Y-99515000D03*
%TD*%
D28*
%TO.C,C207*%
X173850000Y-100980350D03*
X173850000Y-101940350D03*
%TD*%
D29*
%TO.C,J101*%
X163220000Y-110075000D03*
X169000000Y-110075000D03*
D30*
X164860000Y-108630000D03*
X165860000Y-108630000D03*
X166360000Y-108630000D03*
X167360000Y-108630000D03*
D31*
X169360000Y-108630000D03*
X168560000Y-108630000D03*
D30*
X167860000Y-108630000D03*
X166860000Y-108630000D03*
X165360000Y-108630000D03*
X164360000Y-108630000D03*
D31*
X163660000Y-108630000D03*
X162860000Y-108630000D03*
D32*
X161790000Y-109545000D03*
D33*
X161790000Y-113725000D03*
D32*
X170430000Y-109545000D03*
D33*
X170430000Y-113725000D03*
%TD*%
D34*
%TO.C,D104*%
X161510000Y-94410000D03*
X159610000Y-94410000D03*
X160560000Y-96285000D03*
%TD*%
D17*
%TO.C,R104*%
X158160000Y-106677500D03*
X158160000Y-105657500D03*
%TD*%
D22*
%TO.C,R204*%
X169380000Y-86030000D03*
X170400000Y-86030000D03*
%TD*%
D35*
%TO.C,R114*%
X159825000Y-114500000D03*
X158175000Y-114500000D03*
%TD*%
D36*
%TO.C,D103*%
X168247500Y-104430000D03*
X166847500Y-104430000D03*
%TD*%
D17*
%TO.C,R103*%
X156910000Y-106667500D03*
X156910000Y-105647500D03*
%TD*%
D37*
%TO.C,TP105*%
X112250000Y-100100000D03*
%TD*%
D38*
%TO.C,U201*%
X160500000Y-73100350D03*
X160500000Y-73900350D03*
X160500000Y-74700350D03*
X160500000Y-75500350D03*
X160500000Y-76300350D03*
X160500000Y-77100350D03*
X160500000Y-77900350D03*
X160500000Y-78700350D03*
X160500000Y-79500350D03*
X160500000Y-80300350D03*
X160500000Y-81100350D03*
D39*
X161600000Y-82000350D03*
X162400000Y-82000350D03*
X163200000Y-82000350D03*
X164000000Y-82000350D03*
X164800000Y-82000350D03*
X165600000Y-82000350D03*
X166400000Y-82000350D03*
X167200000Y-82000350D03*
X168000000Y-82000350D03*
X168800000Y-82000350D03*
X169600000Y-82000350D03*
X170400000Y-82000350D03*
X171200000Y-82000350D03*
D38*
X172300000Y-81100350D03*
X172300000Y-80300350D03*
X172300000Y-79500350D03*
X172300000Y-78700350D03*
X172300000Y-77900350D03*
X172300000Y-77100350D03*
X172300000Y-76300350D03*
X172300000Y-75500350D03*
X172300000Y-74700350D03*
X172300000Y-73900350D03*
X172300000Y-73100350D03*
D39*
X171200000Y-72200350D03*
X170400000Y-72200350D03*
X169600000Y-72200350D03*
X168800000Y-72200350D03*
X168000000Y-72200350D03*
X167200000Y-72200350D03*
X166400000Y-72200350D03*
X165600000Y-72200350D03*
X164800000Y-72200350D03*
X164000000Y-72200350D03*
X163200000Y-72200350D03*
X162400000Y-72200350D03*
X161600000Y-72200350D03*
D40*
X164425000Y-75125350D03*
D41*
X164425000Y-77100350D03*
X164425000Y-79075350D03*
X166400000Y-75125350D03*
X166400000Y-77100350D03*
X166400000Y-79075350D03*
X168375000Y-75125350D03*
X168375000Y-77100350D03*
X168375000Y-79075350D03*
D42*
X172350000Y-72150350D03*
X172350000Y-82050350D03*
X160450000Y-82050350D03*
X160450000Y-72150350D03*
%TD*%
D43*
%TO.C,J102*%
X136400000Y-80950000D03*
X138400000Y-80950000D03*
D44*
X134050000Y-86700000D03*
X140750000Y-86700000D03*
%TD*%
D19*
%TO.C,C108*%
X155305000Y-92470000D03*
X156855000Y-92470000D03*
%TD*%
D37*
%TO.C,TP101*%
X161750000Y-98800000D03*
%TD*%
D17*
%TO.C,R203*%
X169370000Y-88020000D03*
X169370000Y-87000000D03*
%TD*%
D20*
%TO.C,C202*%
X159050000Y-74680350D03*
X159050000Y-73720350D03*
%TD*%
D14*
%TO.C,R213*%
X173950000Y-98090000D03*
X173950000Y-99110000D03*
%TD*%
%TO.C,R107*%
X159750000Y-102890000D03*
X159750000Y-103910000D03*
%TD*%
D45*
%TO.C,R208*%
X178450000Y-108475000D03*
X178450000Y-110125000D03*
%TD*%
D46*
%TO.C,U102*%
X155745000Y-83130000D03*
X155745000Y-81230000D03*
X153870000Y-82180000D03*
%TD*%
D22*
%TO.C,R211*%
X182080000Y-90590000D03*
X183100000Y-90590000D03*
%TD*%
D15*
%TO.C,U104*%
X155907500Y-89072500D03*
X156857500Y-89072500D03*
X157807500Y-89072500D03*
X157807500Y-86797500D03*
X155907500Y-86797500D03*
%TD*%
D20*
%TO.C,C102*%
X155940000Y-111310000D03*
X155940000Y-110350000D03*
%TD*%
D47*
%TO.C,J206*%
X178925000Y-78550000D03*
X178925000Y-77550000D03*
X178925000Y-76550000D03*
X178925000Y-75550000D03*
D48*
X182800000Y-79850000D03*
X182800000Y-74250000D03*
%TD*%
D49*
%TO.C,J205*%
X151555000Y-75300000D03*
X151555000Y-76300000D03*
X151555000Y-77300000D03*
X151555000Y-78300000D03*
D50*
X147680000Y-74000000D03*
X147680000Y-79600000D03*
%TD*%
D37*
%TO.C,TP104*%
X162200000Y-91000000D03*
%TD*%
D22*
%TO.C,R210*%
X184720000Y-90640000D03*
X185740000Y-90640000D03*
%TD*%
D24*
%TO.C,H1*%
X191140000Y-74950000D03*
%TD*%
D51*
%TO.C,C103*%
X155100000Y-104650000D03*
X155100000Y-103100000D03*
%TD*%
D16*
%TO.C,R206*%
X156497500Y-78950350D03*
X155477500Y-78950350D03*
%TD*%
D14*
%TO.C,R215*%
X168000000Y-84265000D03*
X168000000Y-85285000D03*
%TD*%
D23*
%TO.C,C204*%
X156497500Y-79950000D03*
X155537500Y-79950000D03*
%TD*%
D17*
%TO.C,R205*%
X170400000Y-85050000D03*
X170400000Y-84030000D03*
%TD*%
D36*
%TO.C,D102*%
X165150000Y-104432500D03*
X163750000Y-104432500D03*
%TD*%
D17*
%TO.C,R102*%
X162642500Y-105452500D03*
X162642500Y-104432500D03*
%TD*%
D22*
%TO.C,R207*%
X189890000Y-90600000D03*
X190910000Y-90600000D03*
%TD*%
D24*
%TO.C,H4*%
X191160000Y-113350000D03*
%TD*%
D51*
%TO.C,C201*%
X157700000Y-74675350D03*
X157700000Y-73125350D03*
%TD*%
D17*
%TO.C,R201*%
X156425000Y-77810000D03*
X156425000Y-76790000D03*
%TD*%
D16*
%TO.C,R108*%
X154110000Y-94560000D03*
X153090000Y-94560000D03*
%TD*%
D24*
%TO.C,H2*%
X101220000Y-113360000D03*
%TD*%
D37*
%TO.C,TP102*%
X134500000Y-76750000D03*
%TD*%
D19*
%TO.C,C109*%
X155302500Y-90817500D03*
X156852500Y-90817500D03*
%TD*%
D37*
%TO.C,TP103*%
X162400000Y-87350000D03*
%TD*%
D16*
%TO.C,R209*%
X174210000Y-104160000D03*
X173190000Y-104160000D03*
%TD*%
D52*
%TO.C,L101*%
X157125000Y-112230000D03*
X156155000Y-112230000D03*
%TD*%
D22*
%TO.C,R212*%
X179580000Y-90620000D03*
X180600000Y-90620000D03*
%TD*%
D16*
%TO.C,R214*%
X175940000Y-96990000D03*
X174920000Y-96990000D03*
%TD*%
D53*
%TO.C,U304*%
X183982500Y-109102000D03*
%TD*%
M02*
