%TF.GenerationSoftware,KiCad,Pcbnew,8.0.8-8.0.8-0~ubuntu24.04.1*%
%TF.CreationDate,2025-08-28T09:53:26+03:00*%
%TF.ProjectId,pocketmuseum_edu_v0,706f636b-6574-46d7-9573-65756d5f6564,rev?*%
%TF.SameCoordinates,Original*%
%TF.FileFunction,Copper,L1,Top*%
%TF.FilePolarity,Positive*%
%FSLAX46Y46*%
G04 Gerber Fmt 4.6, Leading zero omitted, Abs format (unit mm)*
G04 Created by KiCad (PCBNEW 8.0.8-8.0.8-0~ubuntu24.04.1) date 2025-08-28 09:53:26*
%MOMM*%
%LPD*%
G01*
G04 APERTURE LIST*
G04 Aperture macros list*
%AMRoundRect*
0 Rectangle with rounded corners*
0 $1 Rounding radius*
0 $2 $3 $4 $5 $6 $7 $8 $9 X,Y pos of 4 corners*
0 Add a 4 corners polygon primitive as box body*
4,1,4,$2,$3,$4,$5,$6,$7,$8,$9,$2,$3,0*
0 Add four circle primitives for the rounded corners*
1,1,$1+$1,$2,$3*
1,1,$1+$1,$4,$5*
1,1,$1+$1,$6,$7*
1,1,$1+$1,$8,$9*
0 Add four rect primitives between the rounded corners*
20,1,$1+$1,$2,$3,$4,$5,0*
20,1,$1+$1,$4,$5,$6,$7,0*
20,1,$1+$1,$6,$7,$8,$9,0*
20,1,$1+$1,$8,$9,$2,$3,0*%
%AMFreePoly0*
4,1,6,0.725000,-0.725000,-0.725000,-0.725000,-0.725000,0.125000,-0.125000,0.725000,0.725000,0.725000,0.725000,-0.725000,0.725000,-0.725000,$1*%
G04 Aperture macros list end*
%TA.AperFunction,SMDPad,CuDef*%
%ADD10R,1.600000X0.700000*%
%TD*%
%TA.AperFunction,SMDPad,CuDef*%
%ADD11R,1.500000X1.200000*%
%TD*%
%TA.AperFunction,SMDPad,CuDef*%
%ADD12R,2.200000X1.200000*%
%TD*%
%TA.AperFunction,SMDPad,CuDef*%
%ADD13R,1.500000X1.600000*%
%TD*%
%TA.AperFunction,SMDPad,CuDef*%
%ADD14RoundRect,0.135000X-0.185000X0.135000X-0.185000X-0.135000X0.185000X-0.135000X0.185000X0.135000X0*%
%TD*%
%TA.AperFunction,SMDPad,CuDef*%
%ADD15RoundRect,0.150000X0.150000X-0.512500X0.150000X0.512500X-0.150000X0.512500X-0.150000X-0.512500X0*%
%TD*%
%TA.AperFunction,SMDPad,CuDef*%
%ADD16RoundRect,0.135000X0.135000X0.185000X-0.135000X0.185000X-0.135000X-0.185000X0.135000X-0.185000X0*%
%TD*%
%TA.AperFunction,SMDPad,CuDef*%
%ADD17RoundRect,0.135000X0.185000X-0.135000X0.185000X0.135000X-0.185000X0.135000X-0.185000X-0.135000X0*%
%TD*%
%TA.AperFunction,SMDPad,CuDef*%
%ADD18RoundRect,0.225000X-0.250000X0.225000X-0.250000X-0.225000X0.250000X-0.225000X0.250000X0.225000X0*%
%TD*%
%TA.AperFunction,SMDPad,CuDef*%
%ADD19RoundRect,0.225000X-0.225000X-0.250000X0.225000X-0.250000X0.225000X0.250000X-0.225000X0.250000X0*%
%TD*%
%TA.AperFunction,SMDPad,CuDef*%
%ADD20RoundRect,0.140000X0.170000X-0.140000X0.170000X0.140000X-0.170000X0.140000X-0.170000X-0.140000X0*%
%TD*%
%TA.AperFunction,SMDPad,CuDef*%
%ADD21RoundRect,0.147500X0.172500X-0.147500X0.172500X0.147500X-0.172500X0.147500X-0.172500X-0.147500X0*%
%TD*%
%TA.AperFunction,SMDPad,CuDef*%
%ADD22RoundRect,0.135000X-0.135000X-0.185000X0.135000X-0.185000X0.135000X0.185000X-0.135000X0.185000X0*%
%TD*%
%TA.AperFunction,SMDPad,CuDef*%
%ADD23RoundRect,0.140000X0.140000X0.170000X-0.140000X0.170000X-0.140000X-0.170000X0.140000X-0.170000X0*%
%TD*%
%TA.AperFunction,SMDPad,CuDef*%
%ADD24R,0.220000X0.760000*%
%TD*%
%TA.AperFunction,SMDPad,CuDef*%
%ADD25R,1.500000X0.900000*%
%TD*%
%TA.AperFunction,SMDPad,CuDef*%
%ADD26RoundRect,0.150000X-0.200000X0.150000X-0.200000X-0.150000X0.200000X-0.150000X0.200000X0.150000X0*%
%TD*%
%TA.AperFunction,SMDPad,CuDef*%
%ADD27RoundRect,0.140000X-0.170000X0.140000X-0.170000X-0.140000X0.170000X-0.140000X0.170000X0.140000X0*%
%TD*%
%TA.AperFunction,SMDPad,CuDef*%
%ADD28R,0.300000X1.450000*%
%TD*%
%TA.AperFunction,SMDPad,CuDef*%
%ADD29R,0.600000X1.450000*%
%TD*%
%TA.AperFunction,HeatsinkPad*%
%ADD30O,1.000000X2.100000*%
%TD*%
%TA.AperFunction,HeatsinkPad*%
%ADD31O,1.000000X1.600000*%
%TD*%
%TA.AperFunction,SMDPad,CuDef*%
%ADD32RoundRect,0.150000X-0.150000X0.587500X-0.150000X-0.587500X0.150000X-0.587500X0.150000X0.587500X0*%
%TD*%
%TA.AperFunction,SMDPad,CuDef*%
%ADD33RoundRect,0.200000X0.200000X0.275000X-0.200000X0.275000X-0.200000X-0.275000X0.200000X-0.275000X0*%
%TD*%
%TA.AperFunction,SMDPad,CuDef*%
%ADD34RoundRect,0.150000X-0.150000X-0.200000X0.150000X-0.200000X0.150000X0.200000X-0.150000X0.200000X0*%
%TD*%
%TA.AperFunction,SMDPad,CuDef*%
%ADD35C,2.000000*%
%TD*%
%TA.AperFunction,SMDPad,CuDef*%
%ADD36R,0.800000X0.400000*%
%TD*%
%TA.AperFunction,SMDPad,CuDef*%
%ADD37R,0.400000X0.800000*%
%TD*%
%TA.AperFunction,SMDPad,CuDef*%
%ADD38FreePoly0,0.000000*%
%TD*%
%TA.AperFunction,SMDPad,CuDef*%
%ADD39R,1.450000X1.450000*%
%TD*%
%TA.AperFunction,SMDPad,CuDef*%
%ADD40R,0.700000X0.700000*%
%TD*%
%TA.AperFunction,SMDPad,CuDef*%
%ADD41RoundRect,0.250000X-0.250000X-1.500000X0.250000X-1.500000X0.250000X1.500000X-0.250000X1.500000X0*%
%TD*%
%TA.AperFunction,SMDPad,CuDef*%
%ADD42RoundRect,0.250001X-0.499999X-1.449999X0.499999X-1.449999X0.499999X1.449999X-0.499999X1.449999X0*%
%TD*%
%TA.AperFunction,SMDPad,CuDef*%
%ADD43RoundRect,0.200000X-0.275000X0.200000X-0.275000X-0.200000X0.275000X-0.200000X0.275000X0.200000X0*%
%TD*%
%TA.AperFunction,SMDPad,CuDef*%
%ADD44RoundRect,0.150000X0.587500X0.150000X-0.587500X0.150000X-0.587500X-0.150000X0.587500X-0.150000X0*%
%TD*%
%TA.AperFunction,SMDPad,CuDef*%
%ADD45RoundRect,0.150000X0.625000X-0.150000X0.625000X0.150000X-0.625000X0.150000X-0.625000X-0.150000X0*%
%TD*%
%TA.AperFunction,SMDPad,CuDef*%
%ADD46RoundRect,0.250000X0.650000X-0.350000X0.650000X0.350000X-0.650000X0.350000X-0.650000X-0.350000X0*%
%TD*%
%TA.AperFunction,SMDPad,CuDef*%
%ADD47RoundRect,0.150000X-0.625000X0.150000X-0.625000X-0.150000X0.625000X-0.150000X0.625000X0.150000X0*%
%TD*%
%TA.AperFunction,SMDPad,CuDef*%
%ADD48RoundRect,0.250000X-0.650000X0.350000X-0.650000X-0.350000X0.650000X-0.350000X0.650000X0.350000X0*%
%TD*%
%TA.AperFunction,SMDPad,CuDef*%
%ADD49RoundRect,0.225000X0.250000X-0.225000X0.250000X0.225000X-0.250000X0.225000X-0.250000X-0.225000X0*%
%TD*%
%TA.AperFunction,SMDPad,CuDef*%
%ADD50RoundRect,0.147500X0.147500X0.172500X-0.147500X0.172500X-0.147500X-0.172500X0.147500X-0.172500X0*%
%TD*%
%TA.AperFunction,ViaPad*%
%ADD51C,0.800000*%
%TD*%
%TA.AperFunction,ViaPad*%
%ADD52C,0.700000*%
%TD*%
%TA.AperFunction,Conductor*%
%ADD53C,0.300000*%
%TD*%
%TA.AperFunction,Conductor*%
%ADD54C,0.500000*%
%TD*%
%TA.AperFunction,Conductor*%
%ADD55C,0.170000*%
%TD*%
%TA.AperFunction,Conductor*%
%ADD56C,0.200000*%
%TD*%
%TA.AperFunction,Conductor*%
%ADD57C,0.450000*%
%TD*%
%TA.AperFunction,Conductor*%
%ADD58C,0.261112*%
%TD*%
%TA.AperFunction,Conductor*%
%ADD59C,0.240000*%
%TD*%
G04 APERTURE END LIST*
D10*
%TO.P,J201,1,DAT2*%
%TO.N,/MCU/SD_DAT2*%
X177410000Y-96970000D03*
%TO.P,J201,2,DAT3/CD*%
%TO.N,/MCU/SPI_CS*%
X177410000Y-98070000D03*
%TO.P,J201,3,CMD*%
%TO.N,/MCU/SPI_MOSI*%
X177410000Y-99170000D03*
%TO.P,J201,4,VDD*%
%TO.N,+3V3*%
X177410000Y-100270000D03*
%TO.P,J201,5,CLK*%
%TO.N,/MCU/SPI_SCK*%
X177410000Y-101370000D03*
%TO.P,J201,6,VSS*%
%TO.N,GND*%
X177410000Y-102470000D03*
%TO.P,J201,7,DAT0*%
%TO.N,/MCU/SPI_MISO*%
X177410000Y-103570000D03*
%TO.P,J201,8,DAT1*%
%TO.N,/MCU/SD_DAT1*%
X177410000Y-104670000D03*
%TO.P,J201,9,DET*%
%TO.N,/MCU/SD_DETECT*%
X177410000Y-105770000D03*
D11*
%TO.P,J201,10,SHIELD*%
%TO.N,/MCU/SD_Shield_Diconnect*%
X178410000Y-106970000D03*
D12*
X188010000Y-106970000D03*
D13*
X178410000Y-92370000D03*
D12*
X188010000Y-91470000D03*
%TD*%
D14*
%TO.P,R202,1*%
%TO.N,+3V3*%
X156425000Y-74840000D03*
%TO.P,R202,2*%
%TO.N,I2C_SDA*%
X156425000Y-75860000D03*
%TD*%
D15*
%TO.P,U103,1,VIN*%
%TO.N,VBAT_ALW_ON*%
X155920000Y-96485000D03*
%TO.P,U103,2,GND*%
%TO.N,GND*%
X156870000Y-96485000D03*
%TO.P,U103,3,EN*%
%TO.N,/Power/3V3_LDO_EN*%
X157820000Y-96485000D03*
%TO.P,U103,4,NC*%
%TO.N,unconnected-(U103-NC-Pad4)*%
X157820000Y-94210000D03*
%TO.P,U103,5,VOUT*%
%TO.N,+3V3*%
X155920000Y-94210000D03*
%TD*%
D16*
%TO.P,R113,1*%
%TO.N,GND*%
X160630000Y-89300000D03*
%TO.P,R113,2*%
%TO.N,BATT_ATTCH_CMD*%
X159610000Y-89300000D03*
%TD*%
D17*
%TO.P,R106,1*%
%TO.N,+3V3*%
X159750000Y-101460000D03*
%TO.P,R106,2*%
%TO.N,BATT_CHRG_FDBCK*%
X159750000Y-100440000D03*
%TD*%
D18*
%TO.P,C104,1*%
%TO.N,VBAT_ALW_ON*%
X155100000Y-100070000D03*
%TO.P,C104,2*%
%TO.N,GND*%
X155100000Y-101620000D03*
%TD*%
D19*
%TO.P,C107,1*%
%TO.N,VBAT_ALW_ON*%
X155325000Y-98240000D03*
%TO.P,C107,2*%
%TO.N,GND*%
X156875000Y-98240000D03*
%TD*%
D20*
%TO.P,C101,1*%
%TO.N,VUSB*%
X157340000Y-111290000D03*
%TO.P,C101,2*%
%TO.N,GND*%
X157340000Y-110330000D03*
%TD*%
D21*
%TO.P,D208,1,K*%
%TO.N,GND*%
X168000000Y-87180000D03*
%TO.P,D208,2,A*%
%TO.N,Net-(D208-A)*%
X168000000Y-86210000D03*
%TD*%
D14*
%TO.P,R110,1*%
%TO.N,CHIP_PU*%
X157267500Y-80910000D03*
%TO.P,R110,2*%
%TO.N,+3V3*%
X157267500Y-81930000D03*
%TD*%
D22*
%TO.P,R303,1*%
%TO.N,+3V3*%
X158140000Y-82980000D03*
%TO.P,R303,2*%
%TO.N,MEMS_INT*%
X159160000Y-82980000D03*
%TD*%
%TO.P,R109,1*%
%TO.N,VBAT_ALW_ON*%
X153070000Y-96570000D03*
%TO.P,R109,2*%
%TO.N,BATT_VOLT_FDBCK*%
X154090000Y-96570000D03*
%TD*%
D17*
%TO.P,R101,1*%
%TO.N,/Power/USB_CC2*%
X169350000Y-105470000D03*
%TO.P,R101,2*%
%TO.N,GND*%
X169350000Y-104450000D03*
%TD*%
D23*
%TO.P,C105,1*%
%TO.N,BATT_VOLT_FDBCK*%
X154070000Y-95570000D03*
%TO.P,C105,2*%
%TO.N,GND*%
X153110000Y-95570000D03*
%TD*%
D19*
%TO.P,C110,1*%
%TO.N,+1V8*%
X155302500Y-85057500D03*
%TO.P,C110,2*%
%TO.N,GND*%
X156852500Y-85057500D03*
%TD*%
D24*
%TO.P,U101,1,IN*%
%TO.N,+5V*%
X156730000Y-104000000D03*
%TO.P,U101,2,ISET*%
%TO.N,/Power/BQ2404_ISET*%
X157130000Y-104000000D03*
%TO.P,U101,3,VSS*%
%TO.N,GND*%
X157530000Y-104000000D03*
%TO.P,U101,4,PRE-TERM*%
%TO.N,/Power/BQ2404_PRE_TERM*%
X157930000Y-104000000D03*
%TO.P,U101,5,PG*%
%TO.N,BATT_POWOK_FDBCK*%
X158330000Y-104000000D03*
%TO.P,U101,6,NC*%
%TO.N,unconnected-(U101-NC-Pad6)*%
X158330000Y-102030000D03*
%TO.P,U101,7,ISET2*%
%TO.N,GND*%
X157930000Y-102030000D03*
%TO.P,U101,8,CHG*%
%TO.N,BATT_CHRG_FDBCK*%
X157530000Y-102030000D03*
%TO.P,U101,9,TS*%
%TO.N,/Power/BQ2404_TS*%
X157130000Y-102030000D03*
%TO.P,U101,10,OUT*%
%TO.N,VBAT_ALW_ON*%
X156730000Y-102030000D03*
D25*
%TO.P,U101,11,PAD*%
%TO.N,GND*%
X157530000Y-103015000D03*
%TD*%
D18*
%TO.P,C206,1*%
%TO.N,+3V3*%
X172550000Y-100685350D03*
%TO.P,C206,2*%
%TO.N,GND*%
X172550000Y-102235350D03*
%TD*%
D26*
%TO.P,D101,1,A1*%
%TO.N,VUSB*%
X158810000Y-112230000D03*
%TO.P,D101,2,A2*%
%TO.N,GND*%
X158810000Y-110830000D03*
%TD*%
D27*
%TO.P,C106,1*%
%TO.N,+3V3*%
X157260000Y-82840000D03*
%TO.P,C106,2*%
%TO.N,GND*%
X157260000Y-83800000D03*
%TD*%
D17*
%TO.P,R105,1*%
%TO.N,/Power/BQ2404_TS*%
X156900000Y-100535000D03*
%TO.P,R105,2*%
%TO.N,GND*%
X156900000Y-99515000D03*
%TD*%
D27*
%TO.P,C207,1*%
%TO.N,+3V3*%
X173850000Y-100980350D03*
%TO.P,C207,2*%
%TO.N,GND*%
X173850000Y-101940350D03*
%TD*%
D28*
%TO.P,J101,A5,CC1*%
%TO.N,/Power/USB_CC1*%
X164860000Y-108630000D03*
%TO.P,J101,A6,D+*%
%TO.N,USB_D+*%
X165860000Y-108630000D03*
%TO.P,J101,A7,D-*%
%TO.N,USB_D-*%
X166360000Y-108630000D03*
%TO.P,J101,A8,SBU1*%
%TO.N,unconnected-(J101-SBU1-PadA8)*%
X167360000Y-108630000D03*
D29*
%TO.P,J101,B1,GND*%
%TO.N,GND*%
X169360000Y-108630000D03*
%TO.P,J101,B4,VBUS*%
%TO.N,VUSB*%
X168560000Y-108630000D03*
D28*
%TO.P,J101,B5,CC2*%
%TO.N,/Power/USB_CC2*%
X167860000Y-108630000D03*
%TO.P,J101,B6,D+*%
%TO.N,USB_D+*%
X166860000Y-108630000D03*
%TO.P,J101,B7,D-*%
%TO.N,USB_D-*%
X165360000Y-108630000D03*
%TO.P,J101,B8,SBU2*%
%TO.N,unconnected-(J101-SBU2-PadB8)*%
X164360000Y-108630000D03*
D29*
%TO.P,J101,B9,VBUS*%
%TO.N,VUSB*%
X163660000Y-108630000D03*
%TO.P,J101,B12,GND*%
%TO.N,GND*%
X162860000Y-108630000D03*
D30*
%TO.P,J101,S1,SHIELD*%
%TO.N,Net-(J101-SHIELD)*%
X161790000Y-109545000D03*
D31*
X161790000Y-113725000D03*
D30*
X170430000Y-109545000D03*
D31*
X170430000Y-113725000D03*
%TD*%
D32*
%TO.P,D104,1,A*%
%TO.N,/Power/BATT_SW_CMD*%
X161510000Y-94410000D03*
%TO.P,D104,2,A*%
%TO.N,BATT_ATTCH_CMD*%
X159610000Y-94410000D03*
%TO.P,D104,3,K*%
%TO.N,/Power/3V3_LDO_EN*%
X160560000Y-96285000D03*
%TD*%
D17*
%TO.P,R104,1*%
%TO.N,GND*%
X158160000Y-106677500D03*
%TO.P,R104,2*%
%TO.N,/Power/BQ2404_PRE_TERM*%
X158160000Y-105657500D03*
%TD*%
D22*
%TO.P,R204,1*%
%TO.N,/MCU/STRAP_GPIO8*%
X169380000Y-86030000D03*
%TO.P,R204,2*%
%TO.N,+3V3*%
X170400000Y-86030000D03*
%TD*%
D33*
%TO.P,R114,1*%
%TO.N,Net-(J101-SHIELD)*%
X159825000Y-114500000D03*
%TO.P,R114,2*%
%TO.N,GND*%
X158175000Y-114500000D03*
%TD*%
D34*
%TO.P,D103,1,A1*%
%TO.N,GND*%
X168247500Y-104430000D03*
%TO.P,D103,2,A2*%
%TO.N,USB_D+*%
X166847500Y-104430000D03*
%TD*%
D17*
%TO.P,R103,1*%
%TO.N,GND*%
X156910000Y-106667500D03*
%TO.P,R103,2*%
%TO.N,/Power/BQ2404_ISET*%
X156910000Y-105647500D03*
%TD*%
D35*
%TO.P,TP105,1,1*%
%TO.N,+1V8*%
X112250000Y-100100000D03*
%TD*%
D36*
%TO.P,U201,1,GND*%
%TO.N,GND*%
X160500000Y-73100350D03*
%TO.P,U201,2,GND*%
X160500000Y-73900350D03*
%TO.P,U201,3,3V3*%
%TO.N,+3V3*%
X160500000Y-74700350D03*
%TO.P,U201,4,NC*%
%TO.N,unconnected-(U201-NC-Pad4)*%
X160500000Y-75500350D03*
%TO.P,U201,5,GPIO2/ADC1_CH2*%
%TO.N,I2C_SDA*%
X160500000Y-76300350D03*
%TO.P,U201,6,GPIO3/ADC1_CH3*%
%TO.N,I2C_SCL*%
X160500000Y-77100350D03*
%TO.P,U201,7,NC*%
%TO.N,unconnected-(U201-NC-Pad7)*%
X160500000Y-77900350D03*
%TO.P,U201,8,EN/CHIP_PU*%
%TO.N,CHIP_PU*%
X160500000Y-78700350D03*
%TO.P,U201,9,MTMS/GPIO4/ADC1_CH4*%
%TO.N,BATT_SW_FDBCK*%
X160500000Y-79500350D03*
%TO.P,U201,10,MTDI/GPIO5/ADC1_CH5*%
%TO.N,MEMS_INT*%
X160500000Y-80300350D03*
%TO.P,U201,11,GND*%
%TO.N,GND*%
X160500000Y-81100350D03*
D37*
%TO.P,U201,12,GPIO0/ADC1_CH0/XTAL_32K_P*%
%TO.N,BATT_VOLT_FDBCK*%
X161600000Y-82000350D03*
%TO.P,U201,13,GPIO1/ADC1_CH1/XTAL_32K_N*%
%TO.N,BATT_ATTCH_CMD*%
X162400000Y-82000350D03*
%TO.P,U201,14,GND*%
%TO.N,GND*%
X163200000Y-82000350D03*
%TO.P,U201,15,MTCK/GPIO6/ADC1_CH6*%
%TO.N,BATT_CHRG_FDBCK*%
X164000000Y-82000350D03*
%TO.P,U201,16,MTDO/GPIO7*%
%TO.N,BATT_POWOK_FDBCK*%
X164800000Y-82000350D03*
%TO.P,U201,17,GPIO12/USB_D-*%
%TO.N,USB_D-*%
X165600000Y-82000350D03*
%TO.P,U201,18,GPIO13/USB_D+*%
%TO.N,USB_D+*%
X166400000Y-82000350D03*
%TO.P,U201,19,GPIO14*%
%TO.N,I2S_CLK*%
X167200000Y-82000350D03*
%TO.P,U201,20,GPIO15*%
%TO.N,/MCU/DBG_LED*%
X168000000Y-82000350D03*
%TO.P,U201,21,NC*%
%TO.N,unconnected-(U201-NC-Pad21)*%
X168800000Y-82000350D03*
%TO.P,U201,22,GPIO8*%
%TO.N,/MCU/STRAP_GPIO8*%
X169600000Y-82000350D03*
%TO.P,U201,23,GPIO9*%
%TO.N,/MCU/STRAP_GPIO_9*%
X170400000Y-82000350D03*
%TO.P,U201,24,GPIO18*%
%TO.N,I2S_DAT*%
X171200000Y-82000350D03*
D36*
%TO.P,U201,25,GPIO19*%
%TO.N,/MCU/SPI_CS*%
X172300000Y-81100350D03*
%TO.P,U201,26,GPIO20*%
%TO.N,/MCU/SPI_MOSI*%
X172300000Y-80300350D03*
%TO.P,U201,27,GPIO21*%
%TO.N,/MCU/SPI_SCK*%
X172300000Y-79500350D03*
%TO.P,U201,28,GPIO22*%
%TO.N,/MCU/SPI_MISO*%
X172300000Y-78700350D03*
%TO.P,U201,29,GPIO23*%
%TO.N,/MCU/SD_DETECT*%
X172300000Y-77900350D03*
%TO.P,U201,30,U0RXD/GPIO17*%
%TO.N,/MCU/UART0_RX*%
X172300000Y-77100350D03*
%TO.P,U201,31,U0TXD/GPIO16*%
%TO.N,/MCU/UART0_TX*%
X172300000Y-76300350D03*
%TO.P,U201,32,NC*%
%TO.N,unconnected-(U201-NC-Pad32)*%
X172300000Y-75500350D03*
%TO.P,U201,33,NC*%
%TO.N,unconnected-(U201-NC-Pad33)*%
X172300000Y-74700350D03*
%TO.P,U201,34,NC*%
%TO.N,unconnected-(U201-NC-Pad34)*%
X172300000Y-73900350D03*
%TO.P,U201,35,NC*%
%TO.N,unconnected-(U201-NC-Pad35)*%
X172300000Y-73100350D03*
D37*
%TO.P,U201,36,GND*%
%TO.N,GND*%
X171200000Y-72200350D03*
%TO.P,U201,37,GND*%
X170400000Y-72200350D03*
%TO.P,U201,38,GND*%
X169600000Y-72200350D03*
%TO.P,U201,39,GND*%
X168800000Y-72200350D03*
%TO.P,U201,40,GND*%
X168000000Y-72200350D03*
%TO.P,U201,41,GND*%
X167200000Y-72200350D03*
%TO.P,U201,42,GND*%
X166400000Y-72200350D03*
%TO.P,U201,43,GND*%
X165600000Y-72200350D03*
%TO.P,U201,44,GND*%
X164800000Y-72200350D03*
%TO.P,U201,45,GND*%
X164000000Y-72200350D03*
%TO.P,U201,46,GND*%
X163200000Y-72200350D03*
%TO.P,U201,47,GND*%
X162400000Y-72200350D03*
%TO.P,U201,48,GND*%
X161600000Y-72200350D03*
D38*
%TO.P,U201,49,GND*%
X164425000Y-75125350D03*
D39*
X164425000Y-77100350D03*
X164425000Y-79075350D03*
X166400000Y-75125350D03*
X166400000Y-77100350D03*
X166400000Y-79075350D03*
X168375000Y-75125350D03*
X168375000Y-77100350D03*
X168375000Y-79075350D03*
D40*
%TO.P,U201,50,GND*%
X172350000Y-72150350D03*
%TO.P,U201,51,GND*%
X172350000Y-82050350D03*
%TO.P,U201,52,GND*%
X160450000Y-82050350D03*
%TO.P,U201,53,GND*%
X160450000Y-72150350D03*
%TD*%
D41*
%TO.P,J102,1,Pin_1*%
%TO.N,VBAT_ALW_ON*%
X136400000Y-80950000D03*
%TO.P,J102,2,Pin_2*%
%TO.N,GND*%
X138400000Y-80950000D03*
D42*
%TO.P,J102,MP*%
%TO.N,N/C*%
X134050000Y-86700000D03*
X140750000Y-86700000D03*
%TD*%
D19*
%TO.P,C108,1*%
%TO.N,+3V3*%
X155305000Y-92470000D03*
%TO.P,C108,2*%
%TO.N,GND*%
X156855000Y-92470000D03*
%TD*%
D35*
%TO.P,TP101,1,1*%
%TO.N,/Power/3V3_LDO_EN*%
X161750000Y-98800000D03*
%TD*%
D17*
%TO.P,R203,1*%
%TO.N,WS2812B_D*%
X169370000Y-88020000D03*
%TO.P,R203,2*%
%TO.N,/MCU/STRAP_GPIO8*%
X169370000Y-87000000D03*
%TD*%
D20*
%TO.P,C202,1*%
%TO.N,+3V3*%
X159050000Y-74680350D03*
%TO.P,C202,2*%
%TO.N,GND*%
X159050000Y-73720350D03*
%TD*%
D14*
%TO.P,R213,1*%
%TO.N,/MCU/SPI_CS*%
X173950000Y-98090000D03*
%TO.P,R213,2*%
%TO.N,+3V3*%
X173950000Y-99110000D03*
%TD*%
%TO.P,R107,1*%
%TO.N,+3V3*%
X159750000Y-102890000D03*
%TO.P,R107,2*%
%TO.N,BATT_POWOK_FDBCK*%
X159750000Y-103910000D03*
%TD*%
D43*
%TO.P,R208,1*%
%TO.N,/MCU/SD_Shield_Diconnect*%
X178450000Y-108475000D03*
%TO.P,R208,2*%
%TO.N,GND*%
X178450000Y-110125000D03*
%TD*%
D44*
%TO.P,U102,1,GND*%
%TO.N,GND*%
X155745000Y-83130000D03*
%TO.P,U102,2,RESET*%
%TO.N,CHIP_PU*%
X155745000Y-81230000D03*
%TO.P,U102,3,V_{DD}*%
%TO.N,+3V3*%
X153870000Y-82180000D03*
%TD*%
D22*
%TO.P,R211,1*%
%TO.N,/MCU/SPI_SCK*%
X182080000Y-90590000D03*
%TO.P,R211,2*%
%TO.N,+3V3*%
X183100000Y-90590000D03*
%TD*%
D15*
%TO.P,U104,1,VIN*%
%TO.N,+3V3*%
X155907500Y-89072500D03*
%TO.P,U104,2,GND*%
%TO.N,GND*%
X156857500Y-89072500D03*
%TO.P,U104,3,EN*%
%TO.N,+3V3*%
X157807500Y-89072500D03*
%TO.P,U104,4,NC*%
%TO.N,unconnected-(U104-NC-Pad4)*%
X157807500Y-86797500D03*
%TO.P,U104,5,VOUT*%
%TO.N,+1V8*%
X155907500Y-86797500D03*
%TD*%
D20*
%TO.P,C102,1*%
%TO.N,+5V*%
X155940000Y-111310000D03*
%TO.P,C102,2*%
%TO.N,GND*%
X155940000Y-110350000D03*
%TD*%
D45*
%TO.P,J206,1,Pin_1*%
%TO.N,/MCU/STRAP_GPIO_9*%
X178925000Y-78550000D03*
%TO.P,J206,2,Pin_2*%
%TO.N,CHIP_PU*%
X178925000Y-77550000D03*
%TO.P,J206,3,Pin_3*%
%TO.N,/MCU/UART0_RX*%
X178925000Y-76550000D03*
%TO.P,J206,4,Pin_4*%
%TO.N,/MCU/UART0_TX*%
X178925000Y-75550000D03*
D46*
%TO.P,J206,MP,MountPin*%
%TO.N,unconnected-(J206-MountPin-PadMP)*%
X182800000Y-79850000D03*
%TO.N,unconnected-(J206-MountPin-PadMP)_1*%
X182800000Y-74250000D03*
%TD*%
D47*
%TO.P,J205,1,Pin_1*%
%TO.N,GND*%
X151555000Y-75300000D03*
%TO.P,J205,2,Pin_2*%
%TO.N,+3V3*%
X151555000Y-76300000D03*
%TO.P,J205,3,Pin_3*%
%TO.N,I2C_SDA*%
X151555000Y-77300000D03*
%TO.P,J205,4,Pin_4*%
%TO.N,I2C_SCL*%
X151555000Y-78300000D03*
D48*
%TO.P,J205,MP,MountPin*%
%TO.N,unconnected-(J205-MountPin-PadMP)_1*%
X147680000Y-74000000D03*
%TO.N,unconnected-(J205-MountPin-PadMP)*%
X147680000Y-79600000D03*
%TD*%
D35*
%TO.P,TP104,1,1*%
%TO.N,/Power/BATT_SW_CMD*%
X162200000Y-91000000D03*
%TD*%
D22*
%TO.P,R210,1*%
%TO.N,/MCU/SPI_MISO*%
X184720000Y-90640000D03*
%TO.P,R210,2*%
%TO.N,+3V3*%
X185740000Y-90640000D03*
%TD*%
D49*
%TO.P,C103,1*%
%TO.N,+5V*%
X155100000Y-104650000D03*
%TO.P,C103,2*%
%TO.N,GND*%
X155100000Y-103100000D03*
%TD*%
D16*
%TO.P,R206,1*%
%TO.N,CHIP_PU*%
X156497500Y-78950350D03*
%TO.P,R206,2*%
%TO.N,+3V3*%
X155477500Y-78950350D03*
%TD*%
D14*
%TO.P,R215,1*%
%TO.N,/MCU/DBG_LED*%
X168000000Y-84265000D03*
%TO.P,R215,2*%
%TO.N,Net-(D208-A)*%
X168000000Y-85285000D03*
%TD*%
D23*
%TO.P,C204,1*%
%TO.N,CHIP_PU*%
X156497500Y-79950000D03*
%TO.P,C204,2*%
%TO.N,GND*%
X155537500Y-79950000D03*
%TD*%
D17*
%TO.P,R205,1*%
%TO.N,+3V3*%
X170400000Y-85050000D03*
%TO.P,R205,2*%
%TO.N,/MCU/STRAP_GPIO_9*%
X170400000Y-84030000D03*
%TD*%
D34*
%TO.P,D102,1,A1*%
%TO.N,USB_D-*%
X165150000Y-104432500D03*
%TO.P,D102,2,A2*%
%TO.N,GND*%
X163750000Y-104432500D03*
%TD*%
D17*
%TO.P,R102,1*%
%TO.N,/Power/USB_CC1*%
X162642500Y-105452500D03*
%TO.P,R102,2*%
%TO.N,GND*%
X162642500Y-104432500D03*
%TD*%
D22*
%TO.P,R207,1*%
%TO.N,/MCU/SD_DETECT*%
X189890000Y-90600000D03*
%TO.P,R207,2*%
%TO.N,+3V3*%
X190910000Y-90600000D03*
%TD*%
D49*
%TO.P,C201,1*%
%TO.N,+3V3*%
X157700000Y-74675350D03*
%TO.P,C201,2*%
%TO.N,GND*%
X157700000Y-73125350D03*
%TD*%
D17*
%TO.P,R201,1*%
%TO.N,+3V3*%
X156425000Y-77810000D03*
%TO.P,R201,2*%
%TO.N,I2C_SCL*%
X156425000Y-76790000D03*
%TD*%
D16*
%TO.P,R108,1*%
%TO.N,BATT_VOLT_FDBCK*%
X154110000Y-94560000D03*
%TO.P,R108,2*%
%TO.N,GND*%
X153090000Y-94560000D03*
%TD*%
D35*
%TO.P,TP102,1,1*%
%TO.N,VBAT_ALW_ON*%
X134500000Y-76750000D03*
%TD*%
D19*
%TO.P,C109,1*%
%TO.N,+3V3*%
X155302500Y-90817500D03*
%TO.P,C109,2*%
%TO.N,GND*%
X156852500Y-90817500D03*
%TD*%
D35*
%TO.P,TP103,1,1*%
%TO.N,BATT_ATTCH_CMD*%
X162400000Y-87350000D03*
%TD*%
D16*
%TO.P,R209,1*%
%TO.N,/MCU/SD_DAT1*%
X174210000Y-104160000D03*
%TO.P,R209,2*%
%TO.N,+3V3*%
X173190000Y-104160000D03*
%TD*%
D50*
%TO.P,L101,1,1*%
%TO.N,VUSB*%
X157125000Y-112230000D03*
%TO.P,L101,2,2*%
%TO.N,+5V*%
X156155000Y-112230000D03*
%TD*%
D22*
%TO.P,R212,1*%
%TO.N,/MCU/SPI_MOSI*%
X179580000Y-90620000D03*
%TO.P,R212,2*%
%TO.N,+3V3*%
X180600000Y-90620000D03*
%TD*%
D16*
%TO.P,R214,1*%
%TO.N,/MCU/SD_DAT2*%
X175940000Y-96990000D03*
%TO.P,R214,2*%
%TO.N,+3V3*%
X174920000Y-96990000D03*
%TD*%
D51*
%TO.N,GND*%
X125000000Y-110000000D03*
X110000000Y-70000000D03*
X173100000Y-83500000D03*
D52*
X170150000Y-107400000D03*
X120900000Y-82100000D03*
X146317422Y-77346917D03*
X118950000Y-90500000D03*
D51*
X125000000Y-115000000D03*
D52*
X130200000Y-86849997D03*
X126200000Y-90400000D03*
D51*
X169800000Y-90500000D03*
X100000000Y-110000000D03*
X170000000Y-95000000D03*
X120000000Y-100000000D03*
D52*
X114900003Y-104250000D03*
D51*
X138420000Y-78420000D03*
D52*
X160700000Y-101150000D03*
X111620000Y-107080000D03*
X157650000Y-98400000D03*
D51*
X145000000Y-75000000D03*
X105000000Y-115000000D03*
X160410000Y-88200000D03*
X120000000Y-110000000D03*
X125000000Y-95000000D03*
X168400000Y-73400000D03*
X150000000Y-88400000D03*
X135000000Y-105000000D03*
X130000000Y-110000000D03*
X150000000Y-75000000D03*
X125000000Y-105000000D03*
D52*
X181250000Y-79250000D03*
D51*
X115000000Y-70000000D03*
D52*
X171510000Y-87950000D03*
D51*
X130000000Y-115000000D03*
X180000000Y-115000000D03*
X115000000Y-85000000D03*
X165200000Y-73400000D03*
D52*
X169350000Y-107400000D03*
X162050000Y-107400000D03*
D51*
X186500000Y-77000000D03*
X125000000Y-100000000D03*
D52*
X152150000Y-95090000D03*
D51*
X178660000Y-90543629D03*
X163600000Y-73400000D03*
X136300000Y-71000000D03*
D52*
X157850000Y-85000000D03*
D51*
X156300000Y-72900000D03*
X151000000Y-88400000D03*
X100000000Y-95000000D03*
X100000000Y-85000000D03*
D52*
X181350000Y-87764997D03*
D51*
X175000000Y-115000000D03*
X120000000Y-105000000D03*
X162000000Y-73350000D03*
X157920000Y-90430000D03*
X100000000Y-100000000D03*
X110000000Y-85000000D03*
D52*
X140909915Y-73852837D03*
D51*
X140000000Y-115000000D03*
X120000000Y-75000000D03*
D52*
X130920280Y-74623163D03*
D51*
X185000000Y-115000000D03*
X175000000Y-110000000D03*
X155000000Y-115000000D03*
X155250000Y-72900000D03*
D52*
X162762500Y-103692500D03*
D51*
X190000000Y-110000000D03*
D52*
X168000000Y-88550000D03*
D51*
X153450000Y-74300000D03*
X155800000Y-73700000D03*
X115000000Y-80000000D03*
X104903338Y-95099468D03*
D52*
X158420000Y-82074444D03*
X162850000Y-107400000D03*
D51*
X178500000Y-111400000D03*
X110000000Y-75000000D03*
X139570000Y-81310000D03*
X163200000Y-81050000D03*
X100000000Y-75000000D03*
X156500000Y-114500000D03*
X105000000Y-70000000D03*
D52*
X177250000Y-78459164D03*
X107300000Y-89000000D03*
X145225000Y-77350000D03*
D51*
X150000000Y-115000000D03*
X125000000Y-75000000D03*
X140000000Y-95000000D03*
D52*
X121250000Y-84100000D03*
X183800000Y-87699997D03*
D51*
X154150000Y-101900000D03*
X100000000Y-80000000D03*
X165000000Y-115000000D03*
D52*
X186450000Y-87749997D03*
D51*
X190000000Y-105000000D03*
D52*
X112713907Y-106760603D03*
X129149997Y-108400000D03*
X145000000Y-84049997D03*
X156620000Y-109880000D03*
D51*
X174750000Y-102950000D03*
X115000000Y-95000000D03*
D52*
X175801049Y-95120287D03*
D51*
X140000000Y-105000000D03*
X135000000Y-115000000D03*
X105000000Y-75000000D03*
X145000000Y-115000000D03*
X105000000Y-110000000D03*
X120000000Y-115000000D03*
X190000000Y-80000000D03*
X115000000Y-75000000D03*
D52*
X107300000Y-112050000D03*
D51*
X100000000Y-90000000D03*
X110000000Y-80000000D03*
X140000000Y-70000000D03*
X154150000Y-102800000D03*
D52*
X102721829Y-100267510D03*
X190651176Y-87750063D03*
D51*
X110000000Y-95000000D03*
D52*
X130940109Y-95054516D03*
D51*
X140000000Y-110000000D03*
D52*
X168240000Y-103410000D03*
D51*
X115000000Y-100000000D03*
D52*
X174703450Y-106089713D03*
D51*
X166800000Y-73400000D03*
X144400000Y-90525000D03*
X174000000Y-72700000D03*
X120000000Y-95000000D03*
X170400000Y-73400000D03*
X100000000Y-105000000D03*
X160450000Y-83950000D03*
D52*
X159000000Y-106630000D03*
X181900000Y-109000000D03*
D51*
X131600000Y-107000000D03*
X173800000Y-102950000D03*
X110000000Y-100000000D03*
D52*
X154170660Y-80340000D03*
X162900000Y-96200000D03*
X147400000Y-81000000D03*
X158150000Y-77850000D03*
X171395007Y-83900000D03*
X185580331Y-105930331D03*
D51*
X125000000Y-70000000D03*
X172513603Y-98263603D03*
D52*
X137323685Y-75125000D03*
%TO.N,/MCU/STRAP_GPIO_9*%
X171452333Y-85427894D03*
X180250000Y-79500000D03*
%TO.N,WS2812B_D*%
X170450000Y-88000000D03*
%TO.N,I2C_SDA*%
X147325000Y-77300000D03*
%TO.N,I2C_SCL*%
X145175000Y-78300000D03*
%TO.N,I2S_DAT*%
X174680000Y-105140000D03*
%TO.N,VBAT_ALW_ON*%
X136375000Y-75075000D03*
%TO.N,+3V3*%
X190640000Y-88700000D03*
D51*
X150000000Y-89500000D03*
D52*
X181350000Y-88715000D03*
X186450000Y-88700000D03*
X130100000Y-108400000D03*
D51*
X151000000Y-89500000D03*
D52*
X174901054Y-95116656D03*
X183800000Y-88650000D03*
D51*
X172550000Y-99500000D03*
X148400000Y-81090000D03*
X160700000Y-102150000D03*
D52*
X171520000Y-87010000D03*
X127200000Y-90400000D03*
%TO.N,I2S_CLK*%
X181870000Y-107840000D03*
D51*
%TO.N,+1V8*%
X102700000Y-101350000D03*
X113900000Y-104250000D03*
X145000000Y-85000000D03*
X121250000Y-85050000D03*
D52*
%TO.N,CHIP_PU*%
X159100000Y-77840000D03*
X176680000Y-77510000D03*
%TO.N,BATT_SW_FDBCK*%
X139960000Y-73840000D03*
X140780000Y-81120000D03*
X158179596Y-81155362D03*
%TO.N,MEMS_INT*%
X159000000Y-85000000D03*
X130200000Y-87750000D03*
X112680000Y-107710000D03*
%TO.N,/Power/BATT_SW_CMD*%
X131870000Y-74600000D03*
X131890000Y-95040000D03*
X162900000Y-95100000D03*
%TD*%
D53*
%TO.N,GND*%
X165600000Y-72200350D02*
X165600000Y-73000000D01*
X160099650Y-72150350D02*
X159050000Y-73200000D01*
X165600000Y-73000000D02*
X165200000Y-73400000D01*
X160630000Y-89300000D02*
X160630000Y-88420000D01*
X166400000Y-73000000D02*
X166800000Y-73400000D01*
X164800000Y-72200350D02*
X164800000Y-73000000D01*
X163200000Y-72200350D02*
X163200000Y-73000000D01*
X160500000Y-73900350D02*
X159800350Y-73900350D01*
X160550350Y-81050000D02*
X160500000Y-81100350D01*
X168800000Y-73000000D02*
X168400000Y-73400000D01*
X159050000Y-73200000D02*
X159050000Y-73720350D01*
X164800000Y-73000000D02*
X165200000Y-73400000D01*
X157520000Y-103012500D02*
X155187500Y-103012500D01*
X171200000Y-72600000D02*
X171200000Y-72200350D01*
X159450000Y-73720350D02*
X159050000Y-73720350D01*
X173100000Y-83500000D02*
X173100000Y-82800350D01*
X173450350Y-72150350D02*
X174000000Y-72700000D01*
X160070000Y-73100350D02*
X159450000Y-73720350D01*
X161600000Y-72200350D02*
X161600000Y-72950000D01*
X168000000Y-73000000D02*
X168400000Y-73400000D01*
X173100000Y-82800350D02*
X172350000Y-82050350D01*
D54*
X178450000Y-110125000D02*
X178450000Y-111350000D01*
D53*
X160500000Y-73100350D02*
X160070000Y-73100350D01*
X166400000Y-72200350D02*
X166400000Y-73000000D01*
D55*
X157960000Y-102572500D02*
X157960000Y-102027500D01*
D53*
X170400000Y-73400000D02*
X169600000Y-72600000D01*
D54*
X178450000Y-111350000D02*
X178500000Y-111400000D01*
X157725000Y-73100350D02*
X157700000Y-73125350D01*
D53*
X160630000Y-88420000D02*
X160410000Y-88200000D01*
X162400000Y-72200350D02*
X162400000Y-72950000D01*
X155537500Y-79950000D02*
X154560660Y-79950000D01*
X158175000Y-114500000D02*
X156500000Y-114500000D01*
X168800000Y-72200350D02*
X168800000Y-73000000D01*
X172350000Y-72150350D02*
X173450350Y-72150350D01*
D54*
X169360000Y-108630000D02*
X169360000Y-108390000D01*
D53*
X157082765Y-98447765D02*
X156875000Y-98240000D01*
X163200000Y-81050000D02*
X163200000Y-82000350D01*
X154560660Y-79950000D02*
X154170660Y-80340000D01*
X167200000Y-72200350D02*
X167200000Y-73000000D01*
X162400000Y-72950000D02*
X162000000Y-73350000D01*
D55*
X157520000Y-103012500D02*
X157520000Y-103783530D01*
D53*
X164000000Y-73000000D02*
X163600000Y-73400000D01*
D54*
X177410000Y-102470000D02*
X175230000Y-102470000D01*
D56*
X157920000Y-102612500D02*
X157520000Y-103012500D01*
D53*
X164000000Y-72200350D02*
X164000000Y-73000000D01*
X168000000Y-72200350D02*
X168000000Y-73000000D01*
X161600000Y-72950000D02*
X162000000Y-73350000D01*
X152450000Y-75300000D02*
X153450000Y-74300000D01*
D55*
X157520000Y-103012500D02*
X157960000Y-102572500D01*
D53*
X167200000Y-73000000D02*
X166800000Y-73400000D01*
X160450000Y-72150350D02*
X160099650Y-72150350D01*
X151555000Y-75300000D02*
X152450000Y-75300000D01*
X168000000Y-87180000D02*
X168000000Y-88550000D01*
X169600000Y-72600000D02*
X169600000Y-72200350D01*
D54*
X175230000Y-102470000D02*
X174750000Y-102950000D01*
D53*
X163200000Y-73000000D02*
X163600000Y-73400000D01*
X155187500Y-103012500D02*
X155100000Y-103100000D01*
X159620350Y-73720350D02*
X159450000Y-73720350D01*
X160450000Y-82050350D02*
X160450000Y-83950000D01*
X170400000Y-73400000D02*
X171200000Y-72600000D01*
X163200000Y-81050000D02*
X160550350Y-81050000D01*
X159800350Y-73900350D02*
X159620350Y-73720350D01*
X170400000Y-73400000D02*
X170400000Y-72200350D01*
D54*
%TO.N,+5V*%
X155681024Y-111310000D02*
X155940000Y-111310000D01*
D53*
X155790000Y-104650000D02*
X156442500Y-103997500D01*
X156442500Y-103997500D02*
X156635000Y-103997500D01*
D54*
X155100000Y-104650000D02*
X155100000Y-110728976D01*
D53*
X155100000Y-104650000D02*
X155790000Y-104650000D01*
D54*
X155100000Y-110728976D02*
X155681024Y-111310000D01*
D53*
%TO.N,/MCU/STRAP_GPIO_9*%
X179300000Y-78550000D02*
X178925000Y-78550000D01*
X170460346Y-84030000D02*
X170400000Y-84030000D01*
X170400000Y-82000350D02*
X170400000Y-84030000D01*
X180250000Y-79500000D02*
X179300000Y-78550000D01*
X171452333Y-85427894D02*
X171452333Y-85021987D01*
X171452333Y-85021987D02*
X170460346Y-84030000D01*
D57*
%TO.N,VUSB*%
X169008273Y-106575000D02*
X171525000Y-106575000D01*
X159670000Y-112230000D02*
X158810000Y-112230000D01*
X168525000Y-107058273D02*
X169008273Y-106575000D01*
X171300000Y-112250000D02*
X159690000Y-112250000D01*
X163800000Y-108490000D02*
X163800000Y-107183273D01*
X171950000Y-111600000D02*
X171300000Y-112250000D01*
X159690000Y-112250000D02*
X159670000Y-112230000D01*
X163800000Y-107183273D02*
X163166727Y-106550000D01*
X171950000Y-107000000D02*
X171950000Y-111600000D01*
X160900000Y-106550000D02*
X160100000Y-107350000D01*
X160100000Y-107350000D02*
X160100000Y-111800000D01*
X163660000Y-108630000D02*
X163800000Y-108490000D01*
X168560000Y-108630000D02*
X168525000Y-108595000D01*
X171525000Y-106575000D02*
X171950000Y-107000000D01*
X163166727Y-106550000D02*
X160900000Y-106550000D01*
X160100000Y-111800000D02*
X159670000Y-112230000D01*
X168525000Y-108595000D02*
X168525000Y-107058273D01*
D53*
%TO.N,/MCU/UART0_RX*%
X173599650Y-77100350D02*
X174150000Y-76550000D01*
X174150000Y-76550000D02*
X178925000Y-76550000D01*
X172300000Y-77100350D02*
X173599650Y-77100350D01*
%TO.N,/MCU/UART0_TX*%
X178925000Y-75550000D02*
X173650350Y-75550000D01*
X172900000Y-76300350D02*
X172300000Y-76300350D01*
X173650350Y-75550000D02*
X172900000Y-76300350D01*
%TO.N,WS2812B_D*%
X170430000Y-88020000D02*
X170450000Y-88000000D01*
X169370000Y-88020000D02*
X170430000Y-88020000D01*
%TO.N,I2C_SDA*%
X160500000Y-76300350D02*
X158125350Y-76300350D01*
X155315000Y-75860000D02*
X153875000Y-77300000D01*
X156425000Y-75860000D02*
X155315000Y-75860000D01*
X153875000Y-77300000D02*
X151555000Y-77300000D01*
X157685000Y-75860000D02*
X156425000Y-75860000D01*
X158125350Y-76300350D02*
X157685000Y-75860000D01*
X151555000Y-77300000D02*
X147325000Y-77300000D01*
%TO.N,I2C_SCL*%
X155635000Y-76790000D02*
X154125000Y-78300000D01*
X160500000Y-77100350D02*
X160349650Y-76950000D01*
X156585000Y-76950000D02*
X156425000Y-76790000D01*
X156425000Y-76790000D02*
X155635000Y-76790000D01*
X154125000Y-78300000D02*
X151555000Y-78300000D01*
X160349650Y-76950000D02*
X156585000Y-76950000D01*
X151555000Y-78300000D02*
X145175000Y-78300000D01*
D54*
%TO.N,/MCU/SD_Shield_Diconnect*%
X178450000Y-107010000D02*
X178410000Y-106970000D01*
X178450000Y-108475000D02*
X178450000Y-107010000D01*
D53*
%TO.N,/MCU/SD_DETECT*%
X189950000Y-90660000D02*
X189890000Y-90600000D01*
X177410000Y-105770000D02*
X184680000Y-105770000D01*
X184680000Y-105770000D02*
X189950000Y-100500000D01*
X189890000Y-82690000D02*
X189890000Y-90600000D01*
X178050000Y-80850000D02*
X188050000Y-80850000D01*
X188050000Y-80850000D02*
X189890000Y-82690000D01*
X175100350Y-77900350D02*
X178050000Y-80850000D01*
X172300000Y-77900350D02*
X175100350Y-77900350D01*
X189950000Y-100500000D02*
X189950000Y-90660000D01*
%TO.N,/MCU/STRAP_GPIO8*%
X169380000Y-83320000D02*
X169380000Y-86030000D01*
X169380000Y-86990000D02*
X169370000Y-87000000D01*
X169600000Y-82000350D02*
X169600000Y-83100000D01*
X169380000Y-86030000D02*
X169380000Y-86990000D01*
X169600000Y-83100000D02*
X169380000Y-83320000D01*
%TO.N,I2S_DAT*%
X172250000Y-88400000D02*
X172250000Y-83450350D01*
X171125000Y-103782818D02*
X171125000Y-89525000D01*
X171125000Y-89525000D02*
X172250000Y-88400000D01*
X174680000Y-105140000D02*
X172482182Y-105140000D01*
X171200000Y-82400350D02*
X171200000Y-82000350D01*
X172250000Y-83450350D02*
X171200000Y-82400350D01*
X172482182Y-105140000D02*
X171125000Y-103782818D01*
D58*
%TO.N,USB_D-*%
X165700000Y-105350000D02*
X165700000Y-107117106D01*
X165150000Y-104432500D02*
X165150000Y-104800000D01*
D59*
X165400000Y-109635000D02*
X166165000Y-109635000D01*
D58*
X165767843Y-82168193D02*
X165767843Y-103814657D01*
X165767843Y-103814657D02*
X165150000Y-104432500D01*
D59*
X166360000Y-109440000D02*
X166360000Y-108630000D01*
D58*
X165359444Y-107457662D02*
X165359444Y-108630000D01*
D59*
X165360000Y-108630000D02*
X165360000Y-109595000D01*
X165360000Y-109595000D02*
X165400000Y-109635000D01*
X166165000Y-109635000D02*
X166360000Y-109440000D01*
D58*
X165150000Y-104800000D02*
X165700000Y-105350000D01*
D56*
X165600000Y-82000350D02*
X165600000Y-82163953D01*
D58*
X165600000Y-82000350D02*
X165767843Y-82168193D01*
X165359444Y-108630000D02*
X165350000Y-108620556D01*
X165700000Y-107117106D02*
X165359444Y-107457662D01*
D59*
X165200000Y-104450000D02*
X165217500Y-104432500D01*
D58*
%TO.N,USB_D+*%
X166250000Y-107200000D02*
X166675000Y-107625000D01*
D59*
X165860000Y-107665000D02*
X165900000Y-107625000D01*
D58*
X166232157Y-103814657D02*
X166847500Y-104430000D01*
X166400000Y-82000350D02*
X166232157Y-82168193D01*
X166847500Y-104430000D02*
X166848056Y-104430556D01*
D59*
X165860000Y-108630000D02*
X165860000Y-107665000D01*
X166887500Y-108602500D02*
X166860000Y-108630000D01*
X166675000Y-107625000D02*
X166860000Y-107810000D01*
X165900000Y-107625000D02*
X166675000Y-107625000D01*
D58*
X166250000Y-105400000D02*
X166250000Y-107200000D01*
X166232157Y-82168193D02*
X166232157Y-103814657D01*
D59*
X166860000Y-107810000D02*
X166860000Y-108630000D01*
D58*
X166847500Y-104802500D02*
X166250000Y-105400000D01*
X166847500Y-104430000D02*
X166847500Y-104802500D01*
D53*
%TO.N,VBAT_ALW_ON*%
X136400000Y-75100000D02*
X136400000Y-76750000D01*
X154420001Y-98240000D02*
X155325000Y-98240000D01*
X156130000Y-101800000D02*
X156360000Y-102030000D01*
X136400000Y-76750000D02*
X136400000Y-80950000D01*
D54*
X138870000Y-100070000D02*
X151650000Y-100070000D01*
D53*
X156360000Y-102030000D02*
X156362500Y-102027500D01*
D54*
X151650000Y-100070000D02*
X155100000Y-100070000D01*
D53*
X153070000Y-96889999D02*
X154420001Y-98240000D01*
X136375000Y-75075000D02*
X136400000Y-75100000D01*
X155100000Y-100070000D02*
X156130000Y-101100000D01*
X156130000Y-101100000D02*
X156130000Y-101800000D01*
X153070000Y-96570000D02*
X153070000Y-96889999D01*
X134500000Y-76750000D02*
X136400000Y-76750000D01*
D54*
X136400000Y-80950000D02*
X136400000Y-97600000D01*
X136400000Y-97600000D02*
X138870000Y-100070000D01*
D53*
X156362500Y-102027500D02*
X156635000Y-102027500D01*
%TO.N,+3V3*%
X155477500Y-78950350D02*
X154499650Y-78950350D01*
D54*
X142675000Y-76800000D02*
X143175000Y-76300000D01*
D53*
X155907500Y-89072500D02*
X155907500Y-88410001D01*
X172280000Y-104160000D02*
X171675000Y-103555000D01*
X156400000Y-77900350D02*
X155477500Y-78822850D01*
X157260000Y-82840000D02*
X157210000Y-82840000D01*
X183100000Y-90590000D02*
X183100000Y-89350000D01*
X130100000Y-93300000D02*
X127200000Y-90400000D01*
X156307501Y-88010000D02*
X157407499Y-88010000D01*
D54*
X142675000Y-92000000D02*
X142675000Y-82175000D01*
X177410000Y-100270000D02*
X174560350Y-100270000D01*
D53*
X152800000Y-80650000D02*
X152800000Y-81100000D01*
X174920000Y-95135602D02*
X174920000Y-96990000D01*
D54*
X142675000Y-82175000D02*
X142675000Y-76800000D01*
D53*
X148400000Y-81090000D02*
X148410000Y-81100000D01*
X155477500Y-78822850D02*
X155477500Y-78950350D01*
X190910000Y-88970000D02*
X190910000Y-90600000D01*
D54*
X160500000Y-74700350D02*
X159070000Y-74700350D01*
D53*
X183100000Y-89350000D02*
X183800000Y-88650000D01*
X153870000Y-82180000D02*
X142680000Y-82180000D01*
X148410000Y-81100000D02*
X152800000Y-81100000D01*
X156550000Y-82180000D02*
X153870000Y-82180000D01*
X156800000Y-81930000D02*
X156550000Y-82180000D01*
X174901054Y-95116656D02*
X174920000Y-95135602D01*
D54*
X155305000Y-92470000D02*
X143145000Y-92470000D01*
D53*
X142680000Y-82180000D02*
X142675000Y-82175000D01*
X171380000Y-87010000D02*
X170400000Y-86030000D01*
X181350000Y-88715000D02*
X180600000Y-89465000D01*
X154499650Y-78950350D02*
X152800000Y-80650000D01*
X171520000Y-87010000D02*
X171380000Y-87010000D01*
X152800000Y-81100000D02*
X152800000Y-82180000D01*
X185740000Y-89410000D02*
X185740000Y-90640000D01*
D54*
X143145000Y-92470000D02*
X142675000Y-92000000D01*
D53*
X180600000Y-89465000D02*
X180600000Y-90620000D01*
D54*
X174560350Y-100270000D02*
X173850000Y-100980350D01*
X143175000Y-76300000D02*
X151555000Y-76300000D01*
D53*
X171675000Y-101560350D02*
X172550000Y-100685350D01*
X190640000Y-88700000D02*
X190910000Y-88970000D01*
X186450000Y-88700000D02*
X185740000Y-89410000D01*
X155907500Y-88410001D02*
X156307501Y-88010000D01*
D54*
X159070000Y-74700350D02*
X159050000Y-74680350D01*
D53*
X157267500Y-81930000D02*
X156800000Y-81930000D01*
X157807500Y-88410001D02*
X157807500Y-89072500D01*
X173190000Y-104160000D02*
X172280000Y-104160000D01*
X157407499Y-88010000D02*
X157807500Y-88410001D01*
X171675000Y-103555000D02*
X171675000Y-101560350D01*
D54*
X156400000Y-74840350D02*
X154809650Y-74840350D01*
D53*
X130100000Y-108400000D02*
X130100000Y-93300000D01*
X153870000Y-82180000D02*
X152800000Y-82180000D01*
D54*
X154809650Y-74840350D02*
X153350000Y-76300000D01*
X153350000Y-76300000D02*
X151555000Y-76300000D01*
D53*
%TO.N,/MCU/SPI_MOSI*%
X173950350Y-80300350D02*
X177200000Y-83550000D01*
X178510000Y-99170000D02*
X177410000Y-99170000D01*
X179560000Y-98120000D02*
X178510000Y-99170000D01*
X178600000Y-83550000D02*
X179560000Y-84510000D01*
X177200000Y-83550000D02*
X178600000Y-83550000D01*
X179560000Y-84510000D02*
X179560000Y-98120000D01*
X172300000Y-80300350D02*
X173950350Y-80300350D01*
%TO.N,/MCU/SPI_MISO*%
X183350000Y-81600000D02*
X184740000Y-82990000D01*
X177600000Y-81600000D02*
X183350000Y-81600000D01*
X184732500Y-90620000D02*
X184732500Y-101717500D01*
X172300000Y-78700350D02*
X174700350Y-78700350D01*
X184740000Y-88700000D02*
X184740000Y-90612500D01*
X184740000Y-90612500D02*
X184732500Y-90620000D01*
X184732500Y-101717500D02*
X182880000Y-103570000D01*
X174700350Y-78700350D02*
X177600000Y-81600000D01*
X184740000Y-82990000D02*
X184740000Y-88700000D01*
X182880000Y-103570000D02*
X177410000Y-103570000D01*
%TO.N,/MCU/SPI_SCK*%
X172300000Y-79500350D02*
X174400350Y-79500350D01*
X182100000Y-90590000D02*
X182110000Y-90600000D01*
X174400350Y-79500350D02*
X177350000Y-82450000D01*
X177350000Y-82450000D02*
X181050000Y-82450000D01*
X180230000Y-101370000D02*
X177410000Y-101370000D01*
X182110000Y-90600000D02*
X182110000Y-99490000D01*
X182100000Y-83500000D02*
X182100000Y-88650000D01*
X181050000Y-82450000D02*
X182100000Y-83500000D01*
X182100000Y-88650000D02*
X182100000Y-90590000D01*
X182110000Y-99490000D02*
X180230000Y-101370000D01*
%TO.N,/MCU/DBG_LED*%
X168000000Y-82000350D02*
X168000000Y-84265000D01*
%TO.N,I2S_CLK*%
X167200000Y-82000350D02*
X167200000Y-100635636D01*
X180375000Y-109325000D02*
X181860000Y-107840000D01*
X167200000Y-100635636D02*
X175889364Y-109325000D01*
X181860000Y-107840000D02*
X181870000Y-107840000D01*
X175889364Y-109325000D02*
X180375000Y-109325000D01*
%TO.N,/MCU/SD_DAT1*%
X174210000Y-104160000D02*
X175450000Y-104160000D01*
X175450000Y-104160000D02*
X175960000Y-104670000D01*
X175960000Y-104670000D02*
X177410000Y-104670000D01*
%TO.N,/MCU/SD_DAT2*%
X175940000Y-96990000D02*
X177390000Y-96990000D01*
X177300000Y-96860000D02*
X177410000Y-96970000D01*
X177390000Y-96990000D02*
X177410000Y-96970000D01*
%TO.N,Net-(J101-SHIELD)*%
X161015000Y-114500000D02*
X161790000Y-113725000D01*
X159825000Y-114500000D02*
X161015000Y-114500000D01*
D54*
X170455000Y-113700000D02*
X170430000Y-113725000D01*
D53*
%TO.N,+1V8*%
X113900000Y-98400000D02*
X105650000Y-98400000D01*
X114950000Y-88300000D02*
X113900000Y-89350000D01*
X113900000Y-89350000D02*
X113900000Y-98400000D01*
X121250000Y-85050000D02*
X118200000Y-85050000D01*
X113900000Y-98400000D02*
X113900000Y-104250000D01*
X105650000Y-98400000D02*
X102700000Y-101350000D01*
X145057500Y-85057500D02*
X155302500Y-85057500D01*
X118200000Y-85050000D02*
X114950000Y-88300000D01*
X145000000Y-85000000D02*
X145057500Y-85057500D01*
X113900000Y-98450000D02*
X113900000Y-98400000D01*
X112250000Y-100100000D02*
X113900000Y-98450000D01*
%TO.N,CHIP_PU*%
X156497500Y-79950000D02*
X156497500Y-78950350D01*
X160500000Y-78700350D02*
X158800000Y-78700350D01*
X159100000Y-78700350D02*
X160500000Y-78700350D01*
X156497500Y-80477500D02*
X155745000Y-81230000D01*
X158800000Y-78700350D02*
X157747150Y-78700350D01*
X157267500Y-80910000D02*
X156065000Y-80910000D01*
X157747150Y-78700350D02*
X156497500Y-79950000D01*
X156497500Y-79950000D02*
X156497500Y-80477500D01*
X156065000Y-80910000D02*
X155745000Y-81230000D01*
X176680000Y-77510000D02*
X178885000Y-77510000D01*
X159100000Y-77840000D02*
X159100000Y-78700350D01*
X178885000Y-77510000D02*
X178925000Y-77550000D01*
%TO.N,Net-(D208-A)*%
X168000000Y-85285000D02*
X168000000Y-86210000D01*
%TO.N,/Power/USB_CC1*%
X164819444Y-106919444D02*
X164819444Y-108630000D01*
X163352500Y-105452500D02*
X164819444Y-106919444D01*
X162642500Y-105452500D02*
X163352500Y-105452500D01*
%TO.N,/Power/USB_CC2*%
X168850000Y-105450000D02*
X167860000Y-106440000D01*
X169400000Y-105450000D02*
X168850000Y-105450000D01*
X167860000Y-106440000D02*
X167860000Y-108630000D01*
D55*
%TO.N,BATT_CHRG_FDBCK*%
X158150000Y-100525000D02*
X157540000Y-101135000D01*
D53*
X164000000Y-99250000D02*
X162850000Y-100400000D01*
X164000000Y-82000350D02*
X164000000Y-99250000D01*
X162850000Y-100400000D02*
X158275000Y-100400000D01*
D55*
X157540000Y-101135000D02*
X157540000Y-102007500D01*
D53*
X158275000Y-100400000D02*
X158150000Y-100525000D01*
%TO.N,BATT_VOLT_FDBCK*%
X154070000Y-94600000D02*
X154110000Y-94560000D01*
X154090000Y-96570000D02*
X154090000Y-95590000D01*
X154090000Y-95590000D02*
X154070000Y-95570000D01*
X158900000Y-94574474D02*
X158051974Y-95422500D01*
X154217500Y-95422500D02*
X154070000Y-95570000D01*
X161600000Y-82000350D02*
X161600000Y-84870000D01*
X158900000Y-87570000D02*
X158900000Y-94574474D01*
X154090000Y-94540000D02*
X154110000Y-94560000D01*
X154070000Y-95570000D02*
X154070000Y-94600000D01*
X158051974Y-95422500D02*
X154217500Y-95422500D01*
X161600000Y-84870000D02*
X158900000Y-87570000D01*
%TO.N,BATT_SW_FDBCK*%
X158179596Y-81155362D02*
X158179596Y-80220404D01*
X158179596Y-80220404D02*
X158899650Y-79500350D01*
X140780000Y-81120000D02*
X139960000Y-80300000D01*
X158899650Y-79500350D02*
X160500000Y-79500350D01*
X139960000Y-80300000D02*
X139960000Y-73840000D01*
%TO.N,/Power/3V3_LDO_EN*%
X160560000Y-97290000D02*
X160560000Y-96285000D01*
X158200000Y-97750000D02*
X160100000Y-97750000D01*
X161750000Y-98800000D02*
X160560000Y-97610000D01*
X157820000Y-97370000D02*
X158200000Y-97750000D01*
X157820000Y-96485000D02*
X157820000Y-97370000D01*
X160560000Y-97610000D02*
X160560000Y-96285000D01*
X160100000Y-97750000D02*
X160560000Y-97290000D01*
%TO.N,BATT_POWOK_FDBCK*%
X160652500Y-103867500D02*
X159740000Y-103867500D01*
X164800000Y-99720000D02*
X160652500Y-103867500D01*
D55*
X158320000Y-103997500D02*
X159610000Y-103997500D01*
X159610000Y-103997500D02*
X159740000Y-103867500D01*
D53*
X164800000Y-82000350D02*
X164800000Y-99720000D01*
%TO.N,MEMS_INT*%
X119000000Y-87750000D02*
X116900000Y-89850000D01*
X115390000Y-107710000D02*
X112680000Y-107710000D01*
X159000000Y-85000000D02*
X159170000Y-84830000D01*
X159800000Y-80300350D02*
X160500000Y-80300350D01*
X116900000Y-89850000D02*
X116900000Y-106200000D01*
X159170000Y-80930350D02*
X159800000Y-80300350D01*
X116900000Y-106200000D02*
X115390000Y-107710000D01*
X130200000Y-87750000D02*
X119000000Y-87750000D01*
X159170000Y-84830000D02*
X159170000Y-80930350D01*
D55*
%TO.N,/Power/BQ2404_ISET*%
X157120000Y-104890000D02*
X157120000Y-103997500D01*
X156910000Y-105100000D02*
X157120000Y-104890000D01*
X156910000Y-105647500D02*
X156910000Y-105100000D01*
%TO.N,/Power/BQ2404_PRE_TERM*%
X158160000Y-105657500D02*
X158140000Y-105637500D01*
X158140000Y-105100000D02*
X157900000Y-104860000D01*
X157900000Y-104860000D02*
X157900000Y-103997500D01*
X158140000Y-105637500D02*
X158140000Y-105100000D01*
%TO.N,/Power/BQ2404_TS*%
X157120000Y-101250000D02*
X157120000Y-102027500D01*
X156900000Y-101030000D02*
X157120000Y-101250000D01*
X156900000Y-100535000D02*
X156900000Y-101030000D01*
D53*
%TO.N,/MCU/SPI_CS*%
X177380000Y-98100000D02*
X173960000Y-98100000D01*
X173960000Y-98100000D02*
X173950000Y-98090000D01*
X173000000Y-81100350D02*
X173000350Y-81100000D01*
X177410000Y-98070000D02*
X177380000Y-98100000D01*
X173450000Y-81100000D02*
X173950000Y-81600000D01*
X172300000Y-81100350D02*
X173000000Y-81100350D01*
X173000350Y-81100000D02*
X173450000Y-81100000D01*
X173950000Y-81600000D02*
X173950000Y-98090000D01*
%TO.N,/Power/BATT_SW_CMD*%
X162250000Y-91000000D02*
X162250000Y-94060000D01*
X161900000Y-94410000D02*
X162210000Y-94410000D01*
X162210000Y-94410000D02*
X162900000Y-95100000D01*
X161510000Y-94410000D02*
X161900000Y-94410000D01*
X162250000Y-94060000D02*
X161900000Y-94410000D01*
X131890000Y-74620000D02*
X131870000Y-74600000D01*
X131890000Y-95040000D02*
X131890000Y-74620000D01*
%TO.N,BATT_ATTCH_CMD*%
X159610000Y-94410000D02*
X159610000Y-87830000D01*
X162400000Y-85040000D02*
X162400000Y-82000350D01*
X162400000Y-87350000D02*
X161900000Y-87350000D01*
X161900000Y-87350000D02*
X161145000Y-86595000D01*
X161145000Y-86595000D02*
X160845000Y-86595000D01*
X160845000Y-86595000D02*
X162400000Y-85040000D01*
X159610000Y-87830000D02*
X160845000Y-86595000D01*
%TD*%
%TA.AperFunction,Conductor*%
%TO.N,GND*%
G36*
X170415677Y-107069685D02*
G01*
X170436319Y-107086319D01*
X170463681Y-107113681D01*
X170497166Y-107175004D01*
X170500000Y-107201362D01*
X170500000Y-107598638D01*
X170480315Y-107665677D01*
X170463681Y-107686319D01*
X170436319Y-107713681D01*
X170374996Y-107747166D01*
X170348638Y-107750000D01*
X169799999Y-107750000D01*
X169700000Y-107849999D01*
X169700000Y-109248638D01*
X169680315Y-109315677D01*
X169663681Y-109336319D01*
X169636319Y-109363681D01*
X169574996Y-109397166D01*
X169548638Y-109400000D01*
X169151362Y-109400000D01*
X169084323Y-109380315D01*
X169063681Y-109363681D01*
X169036319Y-109336319D01*
X169002834Y-109274996D01*
X169000000Y-109248638D01*
X169000000Y-107236382D01*
X169019685Y-107169343D01*
X169036319Y-107148701D01*
X169098701Y-107086319D01*
X169160024Y-107052834D01*
X169186382Y-107050000D01*
X170348638Y-107050000D01*
X170415677Y-107069685D01*
G37*
%TD.AperFunction*%
%TD*%
%TA.AperFunction,Conductor*%
%TO.N,+3V3*%
G36*
X170693039Y-84769685D02*
G01*
X170738794Y-84822489D01*
X170750000Y-84874000D01*
X170750000Y-86276000D01*
X170730315Y-86343039D01*
X170677511Y-86388794D01*
X170626000Y-86400000D01*
X170174000Y-86400000D01*
X170106961Y-86380315D01*
X170061206Y-86327511D01*
X170050000Y-86276000D01*
X170050000Y-84874000D01*
X170069685Y-84806961D01*
X170122489Y-84761206D01*
X170174000Y-84750000D01*
X170626000Y-84750000D01*
X170693039Y-84769685D01*
G37*
%TD.AperFunction*%
%TD*%
%TA.AperFunction,Conductor*%
%TO.N,+3V3*%
G36*
X157515677Y-81669685D02*
G01*
X157536319Y-81686319D01*
X157563681Y-81713681D01*
X157597166Y-81775004D01*
X157600000Y-81801362D01*
X157600000Y-82550000D01*
X157700000Y-82650000D01*
X158298638Y-82650000D01*
X158365677Y-82669685D01*
X158386319Y-82686319D01*
X158413681Y-82713681D01*
X158447166Y-82775004D01*
X158450000Y-82801362D01*
X158450000Y-83133637D01*
X158430315Y-83200676D01*
X158394783Y-83236811D01*
X158331239Y-83279174D01*
X158264540Y-83299982D01*
X158262456Y-83300000D01*
X157655789Y-83300000D01*
X157638142Y-83298738D01*
X157624025Y-83296708D01*
X157608667Y-83294500D01*
X157608666Y-83294500D01*
X157095862Y-83294500D01*
X157028823Y-83274815D01*
X157008181Y-83258181D01*
X156986319Y-83236319D01*
X156952834Y-83174996D01*
X156950000Y-83148638D01*
X156950000Y-81801362D01*
X156969685Y-81734323D01*
X156986319Y-81713681D01*
X157013681Y-81686319D01*
X157075004Y-81652834D01*
X157101362Y-81650000D01*
X157448638Y-81650000D01*
X157515677Y-81669685D01*
G37*
%TD.AperFunction*%
%TD*%
%TA.AperFunction,Conductor*%
%TO.N,+3V3*%
G36*
X156104423Y-88369638D02*
G01*
X156137695Y-88400260D01*
X156225200Y-88516933D01*
X156249676Y-88582375D01*
X156250000Y-88591333D01*
X156250000Y-89637999D01*
X156230315Y-89705038D01*
X156200400Y-89737199D01*
X156050000Y-89849999D01*
X156050000Y-93300000D01*
X156313681Y-93563681D01*
X156347166Y-93625004D01*
X156350000Y-93651362D01*
X156350000Y-94698638D01*
X156330315Y-94765677D01*
X156313681Y-94786319D01*
X156186319Y-94913681D01*
X156124996Y-94947166D01*
X156098638Y-94950000D01*
X155259598Y-94950000D01*
X155192559Y-94930315D01*
X155162770Y-94903462D01*
X155027172Y-94733965D01*
X155000664Y-94669319D01*
X155000000Y-94656503D01*
X155000000Y-93249999D01*
X154624222Y-92835641D01*
X154593767Y-92772757D01*
X154592076Y-92751883D01*
X154600000Y-90600000D01*
X153705505Y-90600000D01*
X153638466Y-90580315D01*
X153605742Y-90549644D01*
X153200000Y-90000000D01*
X149851362Y-90000000D01*
X149784323Y-89980315D01*
X149763681Y-89963681D01*
X149636319Y-89836319D01*
X149602834Y-89774996D01*
X149600000Y-89748638D01*
X149600000Y-89251362D01*
X149619685Y-89184323D01*
X149636319Y-89163681D01*
X149763681Y-89036319D01*
X149825004Y-89002834D01*
X149851362Y-89000000D01*
X149948715Y-89000000D01*
X149964898Y-89001060D01*
X150000000Y-89005682D01*
X150035101Y-89001060D01*
X150051285Y-89000000D01*
X150948715Y-89000000D01*
X150964898Y-89001060D01*
X151000000Y-89005682D01*
X151035101Y-89001060D01*
X151051285Y-89000000D01*
X153200000Y-89000000D01*
X153763932Y-88412037D01*
X153824541Y-88377282D01*
X153852099Y-88373879D01*
X156037179Y-88350667D01*
X156104423Y-88369638D01*
G37*
%TD.AperFunction*%
%TD*%
%TA.AperFunction,Conductor*%
%TO.N,+5V*%
G36*
X156415677Y-110969685D02*
G01*
X156436319Y-110986319D01*
X156513681Y-111063681D01*
X156547166Y-111125004D01*
X156550000Y-111151362D01*
X156550000Y-112448638D01*
X156530315Y-112515677D01*
X156513681Y-112536319D01*
X156436319Y-112613681D01*
X156374996Y-112647166D01*
X156348638Y-112650000D01*
X155801362Y-112650000D01*
X155734323Y-112630315D01*
X155713681Y-112613681D01*
X155636319Y-112536319D01*
X155602834Y-112474996D01*
X155600000Y-112448638D01*
X155600000Y-111137544D01*
X155619685Y-111070505D01*
X155620826Y-111068761D01*
X155663189Y-111005217D01*
X155716755Y-110960356D01*
X155766363Y-110950000D01*
X156348638Y-110950000D01*
X156415677Y-110969685D01*
G37*
%TD.AperFunction*%
%TD*%
%TA.AperFunction,Conductor*%
%TO.N,+3V3*%
G36*
X174165677Y-98769685D02*
G01*
X174186319Y-98786319D01*
X174263681Y-98863681D01*
X174297166Y-98925004D01*
X174300000Y-98951362D01*
X174300000Y-99298638D01*
X174280315Y-99365677D01*
X174263681Y-99386319D01*
X174236319Y-99413681D01*
X174174996Y-99447166D01*
X174148638Y-99450000D01*
X173449999Y-99450000D01*
X173350000Y-99549999D01*
X173350000Y-99550000D01*
X173350000Y-100350000D01*
X173450000Y-100450000D01*
X174162456Y-100450000D01*
X174229495Y-100469685D01*
X174231211Y-100470807D01*
X174294783Y-100513189D01*
X174339644Y-100566752D01*
X174350000Y-100616362D01*
X174350000Y-101083637D01*
X174330315Y-101150676D01*
X174294783Y-101186811D01*
X174231239Y-101229174D01*
X174164540Y-101249982D01*
X174162456Y-101250000D01*
X172201362Y-101250000D01*
X172134323Y-101230315D01*
X172113681Y-101213681D01*
X172086319Y-101186319D01*
X172052834Y-101124996D01*
X172050000Y-101098638D01*
X172050000Y-98907128D01*
X172069685Y-98840089D01*
X172122489Y-98794334D01*
X172191647Y-98784390D01*
X172221450Y-98792566D01*
X172356841Y-98848647D01*
X172435222Y-98858966D01*
X172513602Y-98869285D01*
X172513603Y-98869285D01*
X172513604Y-98869285D01*
X172565857Y-98862405D01*
X172670365Y-98848647D01*
X172816444Y-98788139D01*
X172832753Y-98775625D01*
X172897922Y-98750430D01*
X172908240Y-98750000D01*
X174098638Y-98750000D01*
X174165677Y-98769685D01*
G37*
%TD.AperFunction*%
%TD*%
%TA.AperFunction,Conductor*%
%TO.N,GND*%
G36*
X159100676Y-109519685D02*
G01*
X159136811Y-109555217D01*
X159179174Y-109618761D01*
X159199982Y-109685460D01*
X159200000Y-109687544D01*
X159200000Y-111048638D01*
X159180315Y-111115677D01*
X159163681Y-111136319D01*
X159136319Y-111163681D01*
X159074996Y-111197166D01*
X159048638Y-111200000D01*
X158551362Y-111200000D01*
X158484323Y-111180315D01*
X158463681Y-111163681D01*
X158436319Y-111136319D01*
X158402834Y-111074996D01*
X158400000Y-111048638D01*
X158400000Y-110750000D01*
X158300000Y-110650000D01*
X155766363Y-110650000D01*
X155699324Y-110630315D01*
X155663189Y-110594783D01*
X155620826Y-110531239D01*
X155600018Y-110464540D01*
X155600000Y-110462456D01*
X155600000Y-109687544D01*
X155619685Y-109620505D01*
X155620826Y-109618761D01*
X155663189Y-109555217D01*
X155716755Y-109510356D01*
X155766363Y-109500000D01*
X159033637Y-109500000D01*
X159100676Y-109519685D01*
G37*
%TD.AperFunction*%
%TD*%
%TA.AperFunction,Conductor*%
%TO.N,GND*%
G36*
X158365677Y-72519685D02*
G01*
X158386319Y-72536319D01*
X158463681Y-72613681D01*
X158497166Y-72675004D01*
X158500000Y-72701362D01*
X158500000Y-73200000D01*
X158700000Y-73400000D01*
X159176000Y-73400000D01*
X159243039Y-73419685D01*
X159288794Y-73472489D01*
X159300000Y-73524000D01*
X159300000Y-73876000D01*
X159280315Y-73943039D01*
X159227511Y-73988794D01*
X159176000Y-74000000D01*
X158751362Y-74000000D01*
X158684323Y-73980315D01*
X158663681Y-73963681D01*
X158500000Y-73800000D01*
X156650000Y-73800000D01*
X156649999Y-73800000D01*
X156386319Y-74063681D01*
X156324996Y-74097166D01*
X156298638Y-74100000D01*
X155051362Y-74100000D01*
X154984323Y-74080315D01*
X154963681Y-74063681D01*
X154886319Y-73986319D01*
X154852834Y-73924996D01*
X154850000Y-73898638D01*
X154850000Y-72701362D01*
X154869685Y-72634323D01*
X154886319Y-72613681D01*
X154963681Y-72536319D01*
X155025004Y-72502834D01*
X155051362Y-72500000D01*
X158298638Y-72500000D01*
X158365677Y-72519685D01*
G37*
%TD.AperFunction*%
%TD*%
%TA.AperFunction,Conductor*%
%TO.N,GND*%
G36*
X156465677Y-82819685D02*
G01*
X156486319Y-82836319D01*
X156513681Y-82863681D01*
X156547166Y-82925004D01*
X156550000Y-82951362D01*
X156550000Y-83400000D01*
X156650000Y-83500000D01*
X157608667Y-83500000D01*
X157675706Y-83519685D01*
X157683067Y-83524800D01*
X158200400Y-83912800D01*
X158242221Y-83968771D01*
X158250000Y-84012000D01*
X158250000Y-85398638D01*
X158230315Y-85465677D01*
X158213681Y-85486319D01*
X158136319Y-85563681D01*
X158074996Y-85597166D01*
X158048638Y-85600000D01*
X156491333Y-85600000D01*
X156424294Y-85580315D01*
X156416933Y-85575200D01*
X156401574Y-85563681D01*
X156299600Y-85487200D01*
X156257779Y-85431229D01*
X156250000Y-85388000D01*
X156250000Y-83550000D01*
X156150000Y-83450000D01*
X155151362Y-83450000D01*
X155084323Y-83430315D01*
X155063681Y-83413681D01*
X155036319Y-83386319D01*
X155002834Y-83324996D01*
X155000000Y-83298638D01*
X155000000Y-82951362D01*
X155019685Y-82884323D01*
X155036319Y-82863681D01*
X155063681Y-82836319D01*
X155125004Y-82802834D01*
X155151362Y-82800000D01*
X156398638Y-82800000D01*
X156465677Y-82819685D01*
G37*
%TD.AperFunction*%
%TD*%
%TA.AperFunction,Conductor*%
%TO.N,VBAT_ALW_ON*%
G36*
X156158466Y-95819685D02*
G01*
X156204221Y-95872489D01*
X156213038Y-95927790D01*
X156215000Y-95927790D01*
X156215000Y-97006879D01*
X156213705Y-97024755D01*
X156207941Y-97064313D01*
X156206389Y-97078562D01*
X156206334Y-97079075D01*
X156205906Y-97084966D01*
X156181428Y-97150405D01*
X156125454Y-97192223D01*
X156082232Y-97200000D01*
X155900000Y-97200000D01*
X155800000Y-97349999D01*
X155800000Y-100298638D01*
X155780315Y-100365677D01*
X155763681Y-100386319D01*
X155586319Y-100563681D01*
X155524996Y-100597166D01*
X155498638Y-100600000D01*
X154801362Y-100600000D01*
X154734323Y-100580315D01*
X154713681Y-100563681D01*
X154586319Y-100436319D01*
X154552834Y-100374996D01*
X154550000Y-100348638D01*
X154550000Y-97562000D01*
X154569685Y-97494961D01*
X154599600Y-97462800D01*
X154716933Y-97374800D01*
X154782375Y-97350324D01*
X154791333Y-97350000D01*
X155400000Y-97350000D01*
X155500000Y-97250000D01*
X155500000Y-95951362D01*
X155519685Y-95884323D01*
X155536319Y-95863681D01*
X155563681Y-95836319D01*
X155625004Y-95802834D01*
X155651362Y-95800000D01*
X156091427Y-95800000D01*
X156158466Y-95819685D01*
G37*
%TD.AperFunction*%
%TD*%
%TA.AperFunction,Conductor*%
%TO.N,GND*%
G36*
X155540771Y-101169685D02*
G01*
X155567051Y-101192344D01*
X155567629Y-101193004D01*
X155569320Y-101194937D01*
X155598651Y-101258352D01*
X155600000Y-101276592D01*
X155600000Y-103426503D01*
X155580315Y-103493542D01*
X155572827Y-103503966D01*
X155557229Y-103523463D01*
X155499978Y-103563515D01*
X155460402Y-103570000D01*
X153861362Y-103570000D01*
X153794323Y-103550315D01*
X153773681Y-103533681D01*
X153756319Y-103516319D01*
X153722834Y-103454996D01*
X153720000Y-103428638D01*
X153720000Y-101285684D01*
X153739685Y-101218645D01*
X153761621Y-101193004D01*
X153774766Y-101181320D01*
X153837950Y-101151495D01*
X153857145Y-101150000D01*
X155473732Y-101150000D01*
X155540771Y-101169685D01*
G37*
%TD.AperFunction*%
%TD*%
%TA.AperFunction,Conductor*%
%TO.N,GND*%
G36*
X157209452Y-95827671D02*
G01*
X157219797Y-95833878D01*
X157267156Y-95885249D01*
X157280000Y-95940207D01*
X157280000Y-97770000D01*
X157344783Y-97813189D01*
X157389644Y-97866753D01*
X157400000Y-97916362D01*
X157400000Y-98050000D01*
X157876000Y-98050000D01*
X157943039Y-98069685D01*
X157988794Y-98122489D01*
X158000000Y-98174000D01*
X158000000Y-98676000D01*
X157980315Y-98743039D01*
X157927511Y-98788794D01*
X157876000Y-98800000D01*
X157280000Y-98800000D01*
X157280000Y-99646503D01*
X157260315Y-99713542D01*
X157252827Y-99723966D01*
X157237229Y-99743463D01*
X157179978Y-99783515D01*
X157140402Y-99790000D01*
X156558761Y-99790000D01*
X156491722Y-99770315D01*
X156462790Y-99744521D01*
X156438029Y-99714257D01*
X156410812Y-99649906D01*
X156410000Y-99635736D01*
X156410000Y-97111811D01*
X156411296Y-97093933D01*
X156420500Y-97030760D01*
X156420500Y-95934753D01*
X156422562Y-95934753D01*
X156435523Y-95874738D01*
X156484854Y-95825258D01*
X156544445Y-95810000D01*
X157145655Y-95810000D01*
X157209452Y-95827671D01*
G37*
%TD.AperFunction*%
%TD*%
%TA.AperFunction,Conductor*%
%TO.N,GND*%
G36*
X138755039Y-78019685D02*
G01*
X138787200Y-78049600D01*
X138875200Y-78166933D01*
X138899676Y-78232375D01*
X138900000Y-78241333D01*
X138900000Y-80700000D01*
X139150000Y-80900000D01*
X139846116Y-80900000D01*
X139913155Y-80919685D01*
X139936767Y-80939393D01*
X140006329Y-81013924D01*
X140037681Y-81076364D01*
X140039675Y-81099347D01*
X140030317Y-82521777D01*
X140010192Y-82588685D01*
X139997187Y-82605336D01*
X139937059Y-82670090D01*
X139877017Y-82705822D01*
X139845539Y-82709713D01*
X138054157Y-82700285D01*
X137987222Y-82680248D01*
X137963406Y-82660079D01*
X137922701Y-82615674D01*
X137891913Y-82552955D01*
X137890110Y-82531603D01*
X137899906Y-78241171D01*
X137919743Y-78174181D01*
X137924689Y-78167080D01*
X138012801Y-78049599D01*
X138068772Y-78007779D01*
X138112000Y-78000000D01*
X138688000Y-78000000D01*
X138755039Y-78019685D01*
G37*
%TD.AperFunction*%
%TD*%
%TA.AperFunction,Conductor*%
%TO.N,GND*%
G36*
X168543039Y-103059685D02*
G01*
X168588794Y-103112489D01*
X168600000Y-103164000D01*
X168600000Y-103850000D01*
X168690000Y-103950000D01*
X169511307Y-103950000D01*
X169578346Y-103969685D01*
X169595683Y-103983134D01*
X169660376Y-104043206D01*
X169696108Y-104103247D01*
X169700000Y-104134072D01*
X169700000Y-104743637D01*
X169680315Y-104810676D01*
X169644790Y-104846806D01*
X169641244Y-104849170D01*
X169574548Y-104869982D01*
X169572456Y-104870000D01*
X168003630Y-104870000D01*
X167936591Y-104850315D01*
X167890836Y-104797511D01*
X167879632Y-104746721D01*
X167875542Y-104043206D01*
X167870434Y-103164719D01*
X167889729Y-103097568D01*
X167942266Y-103051507D01*
X167994432Y-103040000D01*
X168476000Y-103040000D01*
X168543039Y-103059685D01*
G37*
%TD.AperFunction*%
%TD*%
%TA.AperFunction,Conductor*%
%TO.N,GND*%
G36*
X175215677Y-101669685D02*
G01*
X175236319Y-101686319D01*
X175263681Y-101713681D01*
X175297166Y-101775004D01*
X175300000Y-101801362D01*
X175300000Y-103298638D01*
X175280315Y-103365677D01*
X175263681Y-103386319D01*
X175236319Y-103413681D01*
X175174996Y-103447166D01*
X175148638Y-103450000D01*
X172201362Y-103450000D01*
X172134323Y-103430315D01*
X172113681Y-103413681D01*
X172086319Y-103386319D01*
X172052834Y-103324996D01*
X172050000Y-103298638D01*
X172050000Y-101801362D01*
X172069685Y-101734323D01*
X172086319Y-101713681D01*
X172113681Y-101686319D01*
X172175004Y-101652834D01*
X172201362Y-101650000D01*
X175148638Y-101650000D01*
X175215677Y-101669685D01*
G37*
%TD.AperFunction*%
%TD*%
%TA.AperFunction,Conductor*%
%TO.N,GND*%
G36*
X159332645Y-106289636D02*
G01*
X159378599Y-106342267D01*
X159390000Y-106394204D01*
X159390000Y-106856000D01*
X159370315Y-106923039D01*
X159317511Y-106968794D01*
X159266000Y-106980000D01*
X156731362Y-106980000D01*
X156664323Y-106960315D01*
X156643681Y-106943681D01*
X156617329Y-106917329D01*
X156583844Y-106856006D01*
X156581034Y-106827225D01*
X156589103Y-106415746D01*
X156610097Y-106349109D01*
X156620394Y-106335806D01*
X156633194Y-106321405D01*
X156692444Y-106284380D01*
X156725396Y-106279790D01*
X159265533Y-106270205D01*
X159332645Y-106289636D01*
G37*
%TD.AperFunction*%
%TD*%
%TA.AperFunction,Conductor*%
%TO.N,GND*%
G36*
X163928177Y-103362185D02*
G01*
X163948819Y-103378819D01*
X164026181Y-103456181D01*
X164059666Y-103517504D01*
X164062500Y-103543862D01*
X164062500Y-104641138D01*
X164042815Y-104708177D01*
X164026181Y-104728819D01*
X163948819Y-104806181D01*
X163887496Y-104839666D01*
X163861138Y-104842500D01*
X162513862Y-104842500D01*
X162446823Y-104822815D01*
X162426181Y-104806181D01*
X162348819Y-104728819D01*
X162315334Y-104667496D01*
X162312500Y-104641138D01*
X162312500Y-103543862D01*
X162332185Y-103476823D01*
X162348819Y-103456181D01*
X162426181Y-103378819D01*
X162487504Y-103345334D01*
X162513862Y-103342500D01*
X163861138Y-103342500D01*
X163928177Y-103362185D01*
G37*
%TD.AperFunction*%
%TD*%
%TA.AperFunction,Conductor*%
%TO.N,+3V3*%
G36*
X160065677Y-101119685D02*
G01*
X160086319Y-101136319D01*
X160113681Y-101163681D01*
X160147166Y-101225004D01*
X160150000Y-101251362D01*
X160150000Y-101650000D01*
X160200000Y-101700000D01*
X160651996Y-101700000D01*
X160668182Y-101701061D01*
X160699999Y-101705250D01*
X160700000Y-101705250D01*
X160700001Y-101705250D01*
X160731818Y-101701061D01*
X160748004Y-101700000D01*
X160948638Y-101700000D01*
X161015677Y-101719685D01*
X161036319Y-101736319D01*
X161063681Y-101763681D01*
X161097166Y-101825004D01*
X161100000Y-101851362D01*
X161100000Y-102448638D01*
X161080315Y-102515677D01*
X161063681Y-102536319D01*
X161036319Y-102563681D01*
X160974996Y-102597166D01*
X160948638Y-102600000D01*
X160199999Y-102600000D01*
X160150000Y-102649999D01*
X160150000Y-102998638D01*
X160130315Y-103065677D01*
X160113681Y-103086319D01*
X160086319Y-103113681D01*
X160024996Y-103147166D01*
X159998638Y-103150000D01*
X159551362Y-103150000D01*
X159484323Y-103130315D01*
X159463681Y-103113681D01*
X159436319Y-103086319D01*
X159402834Y-103024996D01*
X159400000Y-102998638D01*
X159400000Y-101266362D01*
X159419685Y-101199323D01*
X159455215Y-101163189D01*
X159518762Y-101120824D01*
X159585461Y-101100017D01*
X159587544Y-101100000D01*
X159998638Y-101100000D01*
X160065677Y-101119685D01*
G37*
%TD.AperFunction*%
%TD*%
%TA.AperFunction,Conductor*%
%TO.N,GND*%
G36*
X153286771Y-94229685D02*
G01*
X153317235Y-94257390D01*
X153363503Y-94316276D01*
X153389444Y-94381151D01*
X153390000Y-94392886D01*
X153390000Y-95772060D01*
X153370315Y-95839099D01*
X153357753Y-95855471D01*
X153326899Y-95889411D01*
X153267239Y-95925775D01*
X153235146Y-95930000D01*
X151856363Y-95930000D01*
X151789324Y-95910315D01*
X151753189Y-95874784D01*
X151730825Y-95841238D01*
X151710018Y-95774540D01*
X151710000Y-95772456D01*
X151710000Y-94334000D01*
X151729685Y-94266961D01*
X151782489Y-94221206D01*
X151834000Y-94210000D01*
X153219732Y-94210000D01*
X153286771Y-94229685D01*
G37*
%TD.AperFunction*%
%TD*%
%TA.AperFunction,Conductor*%
%TO.N,GND*%
G36*
X163080655Y-107069685D02*
G01*
X163101297Y-107086318D01*
X163163681Y-107148702D01*
X163197166Y-107210024D01*
X163200000Y-107236383D01*
X163200000Y-109248638D01*
X163180315Y-109315677D01*
X163163681Y-109336319D01*
X163136319Y-109363681D01*
X163074996Y-109397166D01*
X163048638Y-109400000D01*
X162651362Y-109400000D01*
X162584323Y-109380315D01*
X162563681Y-109363681D01*
X162536319Y-109336319D01*
X162502834Y-109274996D01*
X162500000Y-109248638D01*
X162500000Y-107850000D01*
X162400000Y-107750000D01*
X161801362Y-107750000D01*
X161734323Y-107730315D01*
X161713681Y-107713681D01*
X161686319Y-107686319D01*
X161652834Y-107624996D01*
X161650000Y-107598638D01*
X161650000Y-107201362D01*
X161669685Y-107134323D01*
X161686319Y-107113681D01*
X161713681Y-107086319D01*
X161775004Y-107052834D01*
X161801362Y-107050000D01*
X163013616Y-107050000D01*
X163080655Y-107069685D01*
G37*
%TD.AperFunction*%
%TD*%
%TA.AperFunction,Conductor*%
%TO.N,VUSB*%
G36*
X157665677Y-110969685D02*
G01*
X157686319Y-110986319D01*
X157713681Y-111013681D01*
X157747166Y-111075004D01*
X157750000Y-111101362D01*
X157750000Y-111750000D01*
X157900000Y-111850000D01*
X159051681Y-111897986D01*
X159117841Y-111920445D01*
X159134198Y-111934198D01*
X159163681Y-111963681D01*
X159197166Y-112025004D01*
X159200000Y-112051362D01*
X159200000Y-112448638D01*
X159180315Y-112515677D01*
X159163681Y-112536319D01*
X159136319Y-112563681D01*
X159074996Y-112597166D01*
X159048638Y-112600000D01*
X156951362Y-112600000D01*
X156884323Y-112580315D01*
X156863681Y-112563681D01*
X156836319Y-112536319D01*
X156802834Y-112474996D01*
X156800000Y-112448638D01*
X156800000Y-111101362D01*
X156819685Y-111034323D01*
X156836319Y-111013681D01*
X156863681Y-110986319D01*
X156925004Y-110952834D01*
X156951362Y-110950000D01*
X157598638Y-110950000D01*
X157665677Y-110969685D01*
G37*
%TD.AperFunction*%
%TD*%
%TA.AperFunction,Conductor*%
%TO.N,GND*%
G36*
X157126177Y-88380185D02*
G01*
X157146819Y-88396819D01*
X157163681Y-88413681D01*
X157197166Y-88475004D01*
X157200000Y-88501362D01*
X157200000Y-89720001D01*
X157540000Y-90030000D01*
X158201517Y-90030000D01*
X158268556Y-90049685D01*
X158285623Y-90062884D01*
X158340106Y-90113175D01*
X158376016Y-90173110D01*
X158380000Y-90204291D01*
X158380000Y-90675736D01*
X158360315Y-90742775D01*
X158351971Y-90754257D01*
X158327210Y-90784521D01*
X158269524Y-90823942D01*
X158231239Y-90830000D01*
X157529999Y-90830000D01*
X157340000Y-90960000D01*
X157340000Y-92852416D01*
X157320315Y-92919455D01*
X157308170Y-92935366D01*
X157286945Y-92958950D01*
X157227467Y-92995613D01*
X157194775Y-93000000D01*
X156501362Y-93000000D01*
X156434323Y-92980315D01*
X156413681Y-92963681D01*
X156386319Y-92936319D01*
X156352834Y-92874996D01*
X156350000Y-92848638D01*
X156350000Y-90443884D01*
X156369685Y-90376845D01*
X156389393Y-90353233D01*
X156500000Y-90250000D01*
X156500000Y-88501362D01*
X156519685Y-88434323D01*
X156536319Y-88413681D01*
X156553181Y-88396819D01*
X156614504Y-88363334D01*
X156640862Y-88360500D01*
X157059138Y-88360500D01*
X157126177Y-88380185D01*
G37*
%TD.AperFunction*%
%TD*%
%TA.AperFunction,Conductor*%
%TO.N,+1V8*%
G36*
X155665677Y-84569685D02*
G01*
X155686319Y-84586319D01*
X155763681Y-84663681D01*
X155797166Y-84725004D01*
X155800000Y-84751362D01*
X155800000Y-85550000D01*
X156172828Y-86016035D01*
X156199336Y-86080681D01*
X156200000Y-86093497D01*
X156200000Y-87298638D01*
X156180315Y-87365677D01*
X156163681Y-87386319D01*
X156136319Y-87413681D01*
X156074996Y-87447166D01*
X156048638Y-87450000D01*
X155751362Y-87450000D01*
X155684323Y-87430315D01*
X155663681Y-87413681D01*
X155636319Y-87386319D01*
X155602834Y-87324996D01*
X155600000Y-87298638D01*
X155600000Y-86050000D01*
X155500000Y-85950000D01*
X155001362Y-85950000D01*
X154934323Y-85930315D01*
X154913681Y-85913681D01*
X154886319Y-85886319D01*
X154852834Y-85824996D01*
X154850000Y-85798638D01*
X154850000Y-84751362D01*
X154869685Y-84684323D01*
X154886319Y-84663681D01*
X154963681Y-84586319D01*
X155025004Y-84552834D01*
X155051362Y-84550000D01*
X155598638Y-84550000D01*
X155665677Y-84569685D01*
G37*
%TD.AperFunction*%
%TD*%
%TA.AperFunction,Conductor*%
%TO.N,+3V3*%
G36*
X158215677Y-74219685D02*
G01*
X158236319Y-74236319D01*
X158350000Y-74350000D01*
X159298638Y-74350000D01*
X159365677Y-74369685D01*
X159386319Y-74386319D01*
X159413681Y-74413681D01*
X159447166Y-74475004D01*
X159450000Y-74501362D01*
X159450000Y-74898638D01*
X159430315Y-74965677D01*
X159413681Y-74986319D01*
X159386319Y-75013681D01*
X159324996Y-75047166D01*
X159298638Y-75050000D01*
X158349999Y-75050000D01*
X158236319Y-75163681D01*
X158174996Y-75197166D01*
X158148638Y-75200000D01*
X156951362Y-75200000D01*
X156884323Y-75180315D01*
X156863681Y-75163681D01*
X156800000Y-75100000D01*
X156101362Y-75100000D01*
X156034323Y-75080315D01*
X156013681Y-75063681D01*
X155986319Y-75036319D01*
X155952834Y-74974996D01*
X155950000Y-74948638D01*
X155950000Y-74701362D01*
X155969685Y-74634323D01*
X155986319Y-74613681D01*
X156013681Y-74586319D01*
X156075004Y-74552834D01*
X156101362Y-74550000D01*
X156800000Y-74550000D01*
X157113681Y-74236319D01*
X157175004Y-74202834D01*
X157201362Y-74200000D01*
X158148638Y-74200000D01*
X158215677Y-74219685D01*
G37*
%TD.AperFunction*%
%TD*%
M02*
