%TF.GenerationSoftware,KiCad,Pcbnew,8.0.8-8.0.8-0~ubuntu24.04.1*%
%TF.CreationDate,2025-08-27T21:16:11+03:00*%
%TF.ProjectId,pocketmuseum_edu_v0,706f636b-6574-46d7-9573-65756d5f6564,rev?*%
%TF.SameCoordinates,Original*%
%TF.FileFunction,Copper,L4,Bot*%
%TF.FilePolarity,Positive*%
%FSLAX46Y46*%
G04 Gerber Fmt 4.6, Leading zero omitted, Abs format (unit mm)*
G04 Created by KiCad (PCBNEW 8.0.8-8.0.8-0~ubuntu24.04.1) date 2025-08-27 21:16:11*
%MOMM*%
%LPD*%
G01*
G04 APERTURE LIST*
G04 Aperture macros list*
%AMRoundRect*
0 Rectangle with rounded corners*
0 $1 Rounding radius*
0 $2 $3 $4 $5 $6 $7 $8 $9 X,Y pos of 4 corners*
0 Add a 4 corners polygon primitive as box body*
4,1,4,$2,$3,$4,$5,$6,$7,$8,$9,$2,$3,0*
0 Add four circle primitives for the rounded corners*
1,1,$1+$1,$2,$3*
1,1,$1+$1,$4,$5*
1,1,$1+$1,$6,$7*
1,1,$1+$1,$8,$9*
0 Add four rect primitives between the rounded corners*
20,1,$1+$1,$2,$3,$4,$5,0*
20,1,$1+$1,$4,$5,$6,$7,0*
20,1,$1+$1,$6,$7,$8,$9,0*
20,1,$1+$1,$8,$9,$2,$3,0*%
%AMFreePoly0*
4,1,102,-0.508464,0.666036,-0.507003,0.662685,-0.505014,0.609006,-0.496114,0.556591,-0.482239,0.506049,-0.463414,0.456509,-0.439652,0.408984,-0.410940,0.364431,-0.377284,0.322856,-0.339644,0.285216,-0.298068,0.251559,-0.253516,0.222848,-0.205990,0.199085,-0.156450,0.180260,-0.105908,0.166385,-0.053493,0.157485,0.000000,0.155503,0.053493,0.157485,0.105908,0.166385,0.156450,0.180260,
0.205990,0.199085,0.253516,0.222848,0.298068,0.251559,0.339644,0.285216,0.377284,0.322856,0.410940,0.364431,0.439652,0.408984,0.463414,0.456509,0.482239,0.506049,0.496114,0.556591,0.505014,0.609006,0.507003,0.662685,0.508598,0.666164,0.512000,0.667500,0.813000,0.667500,0.816536,0.666036,0.818000,0.662500,0.817991,0.662206,0.812991,0.577206,0.812941,0.576735,
0.799941,0.492735,0.799829,0.492204,0.777829,0.410204,0.777654,0.409674,0.746654,0.330674,0.746472,0.330264,0.708472,0.254264,0.708187,0.253767,0.661187,0.181767,0.660899,0.181369,0.607899,0.115369,0.607536,0.114964,0.547536,0.054964,0.547131,0.054601,0.481131,0.001601,0.480733,0.001313,0.408733,-0.045687,0.408236,-0.045972,0.332236,-0.083972,0.331826,-0.084154,
0.252826,-0.115154,0.252296,-0.115329,0.170296,-0.137329,0.169765,-0.137441,0.085765,-0.150441,0.085294,-0.150491,0.000294,-0.155491,-0.000294,-0.155491,-0.085294,-0.150491,-0.085765,-0.150441,-0.169765,-0.137441,-0.170296,-0.137329,-0.252296,-0.115329,-0.252826,-0.115154,-0.331826,-0.084154,-0.332236,-0.083972,-0.408236,-0.045972,-0.408733,-0.045687,-0.480733,0.001313,-0.481131,0.001601,
-0.547131,0.054601,-0.547536,0.054964,-0.607536,0.114964,-0.607899,0.115369,-0.660899,0.181369,-0.661187,0.181767,-0.708187,0.253767,-0.708472,0.254264,-0.746472,0.330264,-0.746654,0.330674,-0.777654,0.409674,-0.777829,0.410204,-0.799829,0.492204,-0.799941,0.492735,-0.812941,0.576735,-0.812991,0.577206,-0.817991,0.662206,-0.816737,0.665822,-0.813294,0.667491,-0.813000,0.667500,
-0.512000,0.667500,-0.508464,0.666036,-0.508464,0.666036,$1*%
%AMFreePoly1*
4,1,102,0.085235,0.150494,0.085765,0.150441,0.169765,0.137441,0.170296,0.137329,0.252296,0.115329,0.252826,0.115154,0.331826,0.084154,0.332236,0.083972,0.408236,0.045972,0.408733,0.045687,0.480733,-0.001313,0.481131,-0.001601,0.547131,-0.054601,0.547536,-0.054964,0.607536,-0.114964,0.607899,-0.115369,0.660899,-0.181369,0.661187,-0.181767,0.708187,-0.253767,0.708472,-0.254264,
0.746472,-0.330264,0.746654,-0.330674,0.777654,-0.409674,0.777829,-0.410204,0.799829,-0.492204,0.799941,-0.492735,0.812941,-0.576735,0.812991,-0.577206,0.817991,-0.662206,0.816737,-0.665822,0.813294,-0.667491,0.813000,-0.667500,0.512000,-0.667500,0.508464,-0.666036,0.507003,-0.662685,0.505014,-0.609006,0.496114,-0.556591,0.482239,-0.506049,0.463414,-0.456509,0.439652,-0.408984,
0.410940,-0.364431,0.377284,-0.322856,0.339644,-0.285216,0.298068,-0.251559,0.253516,-0.222848,0.205990,-0.199085,0.156450,-0.180260,0.105908,-0.166385,0.053493,-0.157485,0.000000,-0.155503,-0.053493,-0.157485,-0.105908,-0.166385,-0.156450,-0.180260,-0.205990,-0.199085,-0.253516,-0.222848,-0.298068,-0.251559,-0.339644,-0.285216,-0.377284,-0.322856,-0.410940,-0.364431,-0.439652,-0.408984,
-0.463414,-0.456509,-0.482239,-0.506049,-0.496114,-0.556591,-0.505014,-0.609006,-0.507003,-0.662685,-0.508598,-0.666164,-0.512000,-0.667500,-0.813000,-0.667500,-0.816536,-0.666036,-0.818000,-0.662500,-0.817991,-0.662206,-0.812991,-0.577206,-0.812941,-0.576735,-0.799941,-0.492735,-0.799829,-0.492204,-0.777829,-0.410204,-0.777654,-0.409674,-0.746654,-0.330674,-0.746472,-0.330264,-0.708472,-0.254264,
-0.708187,-0.253767,-0.661187,-0.181767,-0.660899,-0.181369,-0.607899,-0.115369,-0.607536,-0.114964,-0.547536,-0.054964,-0.547131,-0.054601,-0.481131,-0.001601,-0.480733,-0.001313,-0.408733,0.045687,-0.408236,0.045972,-0.332236,0.083972,-0.331826,0.084154,-0.252826,0.115154,-0.252296,0.115329,-0.170296,0.137329,-0.169765,0.137441,-0.085765,0.150441,-0.085235,0.150494,-0.000235,0.154494,
0.000235,0.154494,0.085235,0.150494,0.085235,0.150494,$1*%
G04 Aperture macros list end*
%TA.AperFunction,SMDPad,CuDef*%
%ADD10R,0.725000X0.522000*%
%TD*%
%TA.AperFunction,SMDPad,CuDef*%
%ADD11FreePoly0,180.000000*%
%TD*%
%TA.AperFunction,SMDPad,CuDef*%
%ADD12FreePoly1,180.000000*%
%TD*%
%TA.AperFunction,HeatsinkPad*%
%ADD13O,1.000000X2.100000*%
%TD*%
%TA.AperFunction,HeatsinkPad*%
%ADD14O,1.000000X1.600000*%
%TD*%
%TA.AperFunction,SMDPad,CuDef*%
%ADD15R,1.050000X0.650000*%
%TD*%
%TA.AperFunction,SMDPad,CuDef*%
%ADD16RoundRect,0.140000X0.140000X0.170000X-0.140000X0.170000X-0.140000X-0.170000X0.140000X-0.170000X0*%
%TD*%
%TA.AperFunction,SMDPad,CuDef*%
%ADD17RoundRect,0.135000X-0.185000X0.135000X-0.185000X-0.135000X0.185000X-0.135000X0.185000X0.135000X0*%
%TD*%
%TA.AperFunction,SMDPad,CuDef*%
%ADD18RoundRect,0.140000X-0.140000X-0.170000X0.140000X-0.170000X0.140000X0.170000X-0.140000X0.170000X0*%
%TD*%
%TA.AperFunction,SMDPad,CuDef*%
%ADD19RoundRect,0.050000X0.350000X0.300000X-0.350000X0.300000X-0.350000X-0.300000X0.350000X-0.300000X0*%
%TD*%
%TA.AperFunction,SMDPad,CuDef*%
%ADD20RoundRect,0.050000X-0.350000X-0.300000X0.350000X-0.300000X0.350000X0.300000X-0.350000X0.300000X0*%
%TD*%
%TA.AperFunction,SMDPad,CuDef*%
%ADD21RoundRect,0.135000X-0.135000X-0.185000X0.135000X-0.185000X0.135000X0.185000X-0.135000X0.185000X0*%
%TD*%
%TA.AperFunction,SMDPad,CuDef*%
%ADD22RoundRect,0.140000X-0.170000X0.140000X-0.170000X-0.140000X0.170000X-0.140000X0.170000X0.140000X0*%
%TD*%
%TA.AperFunction,SMDPad,CuDef*%
%ADD23RoundRect,0.150000X0.150000X-0.587500X0.150000X0.587500X-0.150000X0.587500X-0.150000X-0.587500X0*%
%TD*%
%TA.AperFunction,SMDPad,CuDef*%
%ADD24RoundRect,0.140000X0.170000X-0.140000X0.170000X0.140000X-0.170000X0.140000X-0.170000X-0.140000X0*%
%TD*%
%TA.AperFunction,SMDPad,CuDef*%
%ADD25RoundRect,0.135000X0.135000X0.185000X-0.135000X0.185000X-0.135000X-0.185000X0.135000X-0.185000X0*%
%TD*%
%TA.AperFunction,SMDPad,CuDef*%
%ADD26RoundRect,0.150000X-0.150000X0.587500X-0.150000X-0.587500X0.150000X-0.587500X0.150000X0.587500X0*%
%TD*%
%TA.AperFunction,SMDPad,CuDef*%
%ADD27R,0.650000X1.050000*%
%TD*%
%TA.AperFunction,SMDPad,CuDef*%
%ADD28RoundRect,0.087500X0.087500X-0.125000X0.087500X0.125000X-0.087500X0.125000X-0.087500X-0.125000X0*%
%TD*%
%TA.AperFunction,SMDPad,CuDef*%
%ADD29RoundRect,0.087500X0.125000X-0.087500X0.125000X0.087500X-0.125000X0.087500X-0.125000X-0.087500X0*%
%TD*%
%TA.AperFunction,SMDPad,CuDef*%
%ADD30R,0.550000X0.250000*%
%TD*%
%TA.AperFunction,SMDPad,CuDef*%
%ADD31RoundRect,0.150000X0.587500X0.150000X-0.587500X0.150000X-0.587500X-0.150000X0.587500X-0.150000X0*%
%TD*%
%TA.AperFunction,SMDPad,CuDef*%
%ADD32RoundRect,0.050000X-0.050000X0.225000X-0.050000X-0.225000X0.050000X-0.225000X0.050000X0.225000X0*%
%TD*%
%TA.AperFunction,SMDPad,CuDef*%
%ADD33RoundRect,0.050000X0.225000X0.050000X-0.225000X0.050000X-0.225000X-0.050000X0.225000X-0.050000X0*%
%TD*%
%TA.AperFunction,ViaPad*%
%ADD34C,0.800000*%
%TD*%
%TA.AperFunction,ViaPad*%
%ADD35C,0.700000*%
%TD*%
%TA.AperFunction,Conductor*%
%ADD36C,0.500000*%
%TD*%
%TA.AperFunction,Conductor*%
%ADD37C,0.300000*%
%TD*%
%TA.AperFunction,Conductor*%
%ADD38C,0.220000*%
%TD*%
%TA.AperFunction,Conductor*%
%ADD39C,0.170000*%
%TD*%
G04 APERTURE END LIST*
D10*
%TO.P,U304,1,DATA*%
%TO.N,I2S_DAT*%
X184820000Y-107028000D03*
%TO.P,U304,2,SELECT*%
%TO.N,GND*%
X184820000Y-107850000D03*
D11*
%TO.P,U304,3,GND*%
X183982500Y-108439500D03*
D12*
%TO.P,U304,3_1*%
%TO.N,N/C*%
X183982500Y-109764500D03*
D10*
%TO.P,U304,4,CLK*%
%TO.N,I2S_CLK*%
X183145000Y-107850000D03*
%TO.P,U304,5,VDD*%
%TO.N,+3V3*%
X183145000Y-107028000D03*
%TD*%
D13*
%TO.P,J101,S1,SHIELD*%
%TO.N,Net-(J101-SHIELD)*%
X161790000Y-109545000D03*
D14*
X161790000Y-113725000D03*
D13*
X170430000Y-109545000D03*
D14*
X170430000Y-113725000D03*
%TD*%
D15*
%TO.P,SW201,1,1*%
%TO.N,GND*%
X186485000Y-78345000D03*
X182335000Y-78345000D03*
%TO.P,SW201,2,2*%
%TO.N,/MCU/STRAP_GPIO_9*%
X186485000Y-80495000D03*
X182335000Y-80495000D03*
%TD*%
D16*
%TO.P,C401,1*%
%TO.N,GND*%
X169220000Y-80050000D03*
%TO.P,C401,2*%
%TO.N,+3V3*%
X168260000Y-80050000D03*
%TD*%
D17*
%TO.P,R302,1*%
%TO.N,+1V8*%
X110170000Y-103750000D03*
%TO.P,R302,2*%
%TO.N,/Sensors/ICM20x_SDA*%
X110170000Y-104770000D03*
%TD*%
D18*
%TO.P,C408,1*%
%TO.N,GND*%
X170820000Y-90500000D03*
%TO.P,C408,2*%
%TO.N,+3V3*%
X171780000Y-90500000D03*
%TD*%
D19*
%TO.P,D401,1,VDD*%
%TO.N,+3V3*%
X170560000Y-80040000D03*
%TO.P,D401,2,DOUT*%
%TO.N,/Feedback/WS2812B_Chain1*%
X170560000Y-78840000D03*
%TO.P,D401,3,GND*%
%TO.N,GND*%
X171860000Y-78840000D03*
%TO.P,D401,4,DIN*%
%TO.N,WS2812B_D*%
X171860000Y-80040000D03*
%TD*%
D18*
%TO.P,C302,1*%
%TO.N,GND*%
X107290000Y-110600000D03*
%TO.P,C302,2*%
%TO.N,+1V8*%
X108250000Y-110600000D03*
%TD*%
D20*
%TO.P,D409,1,VDD*%
%TO.N,+3V3*%
X184600000Y-91575000D03*
%TO.P,D409,2,DOUT*%
%TO.N,unconnected-(D409-DOUT-Pad2)*%
X184600000Y-92775000D03*
%TO.P,D409,3,GND*%
%TO.N,GND*%
X183300000Y-92775000D03*
%TO.P,D409,4,DIN*%
%TO.N,/Feedback/WS2812B_Chain8*%
X183300000Y-91575000D03*
%TD*%
D21*
%TO.P,R112,1*%
%TO.N,GND*%
X136300000Y-72030000D03*
%TO.P,R112,2*%
%TO.N,BATT_SW_FDBCK*%
X137320000Y-72030000D03*
%TD*%
%TO.P,R308,1*%
%TO.N,+3V3*%
X133562500Y-110130000D03*
%TO.P,R308,2*%
%TO.N,Net-(U303-DVI)*%
X134582500Y-110130000D03*
%TD*%
D22*
%TO.P,C301,1*%
%TO.N,+1V8*%
X110690000Y-106120000D03*
%TO.P,C301,2*%
%TO.N,GND*%
X110690000Y-107080000D03*
%TD*%
D20*
%TO.P,D408,1,VDD*%
%TO.N,+3V3*%
X171925000Y-91550000D03*
%TO.P,D408,2,DOUT*%
%TO.N,/Feedback/WS2812B_Chain8*%
X171925000Y-92750000D03*
%TO.P,D408,3,GND*%
%TO.N,GND*%
X170625000Y-92750000D03*
%TO.P,D408,4,DIN*%
%TO.N,/Feedback/WS2812B_Chain7*%
X170625000Y-91550000D03*
%TD*%
D18*
%TO.P,C404,1*%
%TO.N,GND*%
X107295000Y-90375000D03*
%TO.P,C404,2*%
%TO.N,+3V3*%
X108255000Y-90375000D03*
%TD*%
D23*
%TO.P,Q303,1,G*%
%TO.N,+1V8*%
X112872500Y-111447500D03*
%TO.P,Q303,2,S*%
%TO.N,/Sensors/ICM20x_INT*%
X110972500Y-111447500D03*
%TO.P,Q303,3,D*%
%TO.N,MEMS_INT*%
X111922500Y-109572500D03*
%TD*%
D20*
%TO.P,D406,1,VDD*%
%TO.N,+3V3*%
X146525000Y-91550000D03*
%TO.P,D406,2,DOUT*%
%TO.N,/Feedback/WS2812B_Chain6*%
X146525000Y-92750000D03*
%TO.P,D406,3,GND*%
%TO.N,GND*%
X145225000Y-92750000D03*
%TO.P,D406,4,DIN*%
%TO.N,/Feedback/WS2812B_Chain5*%
X145225000Y-91550000D03*
%TD*%
D24*
%TO.P,C203,1*%
%TO.N,/MCU/STRAP_GPIO_9*%
X187760000Y-79850000D03*
%TO.P,C203,2*%
%TO.N,GND*%
X187760000Y-78890000D03*
%TD*%
D19*
%TO.P,D402,1,VDD*%
%TO.N,+3V3*%
X157860000Y-80040000D03*
%TO.P,D402,2,DOUT*%
%TO.N,/Feedback/WS2812B_Chain2*%
X157860000Y-78840000D03*
%TO.P,D402,3,GND*%
%TO.N,GND*%
X159160000Y-78840000D03*
%TO.P,D402,4,DIN*%
%TO.N,/Feedback/WS2812B_Chain1*%
X159160000Y-80040000D03*
%TD*%
D25*
%TO.P,R111,1*%
%TO.N,BATT_SW_FDBCK*%
X137320000Y-73050000D03*
%TO.P,R111,2*%
%TO.N,/Power/BATT_SW_CMD*%
X136300000Y-73050000D03*
%TD*%
D18*
%TO.P,C409,1*%
%TO.N,GND*%
X183495000Y-90525000D03*
%TO.P,C409,2*%
%TO.N,+3V3*%
X184455000Y-90525000D03*
%TD*%
D26*
%TO.P,Q302,1,G*%
%TO.N,+1V8*%
X103060000Y-106162500D03*
%TO.P,Q302,2,S*%
%TO.N,/Sensors/ICM20x_SCL*%
X104960000Y-106162500D03*
%TO.P,Q302,3,D*%
%TO.N,I2C_SCL*%
X104010000Y-108037500D03*
%TD*%
D21*
%TO.P,R304,1*%
%TO.N,+1V8*%
X108780000Y-111640000D03*
%TO.P,R304,2*%
%TO.N,/Sensors/ICM20x_INT*%
X109800000Y-111640000D03*
%TD*%
D16*
%TO.P,C403,1*%
%TO.N,GND*%
X120890000Y-81140000D03*
%TO.P,C403,2*%
%TO.N,+3V3*%
X119930000Y-81140000D03*
%TD*%
D18*
%TO.P,C402,1*%
%TO.N,GND*%
X155530000Y-80070000D03*
%TO.P,C402,2*%
%TO.N,+3V3*%
X156490000Y-80070000D03*
%TD*%
D27*
%TO.P,SW101,1,1*%
%TO.N,VBAT_ALW_ON*%
X132805000Y-68905000D03*
X132805000Y-73055000D03*
%TO.P,SW101,2,2*%
%TO.N,/Power/BATT_SW_CMD*%
X134955000Y-68905000D03*
X134955000Y-73055000D03*
%TD*%
D20*
%TO.P,D407,1,VDD*%
%TO.N,+3V3*%
X159175000Y-91525000D03*
%TO.P,D407,2,DOUT*%
%TO.N,/Feedback/WS2812B_Chain7*%
X159175000Y-92725000D03*
%TO.P,D407,3,GND*%
%TO.N,GND*%
X157875000Y-92725000D03*
%TO.P,D407,4,DIN*%
%TO.N,/Feedback/WS2812B_Chain6*%
X157875000Y-91525000D03*
%TD*%
D18*
%TO.P,C308,1*%
%TO.N,+3V3*%
X183467500Y-105868000D03*
%TO.P,C308,2*%
%TO.N,GND*%
X184427500Y-105868000D03*
%TD*%
D16*
%TO.P,C303,1*%
%TO.N,GND*%
X111620000Y-108030000D03*
%TO.P,C303,2*%
%TO.N,Net-(U301-REGOUT)*%
X110660000Y-108030000D03*
%TD*%
D28*
%TO.P,U302,1,CSB*%
%TO.N,+3V3*%
X158730000Y-109647500D03*
%TO.P,U302,2,SCL*%
%TO.N,I2C_SCL*%
X158230000Y-109647500D03*
D29*
%TO.P,U302,3,VSS*%
%TO.N,GND*%
X157717500Y-109385000D03*
%TO.P,U302,4,SDA*%
%TO.N,I2C_SDA*%
X157717500Y-108885000D03*
%TO.P,U302,5,VDD*%
%TO.N,+3V3*%
X157717500Y-108385000D03*
D28*
%TO.P,U302,6,SD0*%
%TO.N,GND*%
X158230000Y-108122500D03*
%TO.P,U302,7,INT*%
%TO.N,unconnected-(U302-INT-Pad7)*%
X158730000Y-108122500D03*
D29*
%TO.P,U302,8,RESV*%
%TO.N,GND*%
X159242500Y-108385000D03*
%TO.P,U302,9,RESV*%
X159242500Y-108885000D03*
%TO.P,U302,10,VDDIO*%
%TO.N,+3V3*%
X159242500Y-109385000D03*
%TD*%
D21*
%TO.P,R301,1*%
%TO.N,+1V8*%
X103540000Y-103460000D03*
%TO.P,R301,2*%
%TO.N,/Sensors/ICM20x_SCL*%
X104560000Y-103460000D03*
%TD*%
D18*
%TO.P,C407,1*%
%TO.N,GND*%
X159070000Y-90350000D03*
%TO.P,C407,2*%
%TO.N,+3V3*%
X160030000Y-90350000D03*
%TD*%
D19*
%TO.P,D403,1,VDD*%
%TO.N,+3V3*%
X119760000Y-80040000D03*
%TO.P,D403,2,DOUT*%
%TO.N,/Feedback/WS2812B_Chain3*%
X119760000Y-78840000D03*
%TO.P,D403,3,GND*%
%TO.N,GND*%
X121060000Y-78840000D03*
%TO.P,D403,4,DIN*%
%TO.N,/Feedback/WS2812B_Chain2*%
X121060000Y-80040000D03*
%TD*%
D18*
%TO.P,C406,1*%
%TO.N,GND*%
X145420000Y-90525000D03*
%TO.P,C406,2*%
%TO.N,+3V3*%
X146380000Y-90525000D03*
%TD*%
D30*
%TO.P,U303,1,VCC*%
%TO.N,+3V3*%
X133142500Y-109050000D03*
%TO.P,U303,2,ADDR*%
%TO.N,GND*%
X133142500Y-108550000D03*
%TO.P,U303,3,GND*%
X133142500Y-108050000D03*
%TO.P,U303,4,SDA*%
%TO.N,I2C_SDA*%
X135892500Y-108050000D03*
%TO.P,U303,5,DVI*%
%TO.N,Net-(U303-DVI)*%
X135892500Y-108550000D03*
%TO.P,U303,6,SCL*%
%TO.N,I2C_SCL*%
X135892500Y-109050000D03*
%TD*%
D16*
%TO.P,C307,1*%
%TO.N,Net-(U303-DVI)*%
X134555000Y-106975000D03*
%TO.P,C307,2*%
%TO.N,GND*%
X133595000Y-106975000D03*
%TD*%
D20*
%TO.P,D404,1,VDD*%
%TO.N,+3V3*%
X108425000Y-91550000D03*
%TO.P,D404,2,DOUT*%
%TO.N,/Feedback/WS2812B_Chain4*%
X108425000Y-92750000D03*
%TO.P,D404,3,GND*%
%TO.N,GND*%
X107125000Y-92750000D03*
%TO.P,D404,4,DIN*%
%TO.N,/Feedback/WS2812B_Chain3*%
X107125000Y-91550000D03*
%TD*%
D18*
%TO.P,C405,1*%
%TO.N,GND*%
X120020000Y-90500000D03*
%TO.P,C405,2*%
%TO.N,+3V3*%
X120980000Y-90500000D03*
%TD*%
D31*
%TO.P,Q301,1,G*%
%TO.N,+1V8*%
X108627500Y-103280000D03*
%TO.P,Q301,2,S*%
%TO.N,/Sensors/ICM20x_SDA*%
X108627500Y-105180000D03*
%TO.P,Q301,3,D*%
%TO.N,I2C_SDA*%
X106752500Y-104230000D03*
%TD*%
D32*
%TO.P,U301,1,NC*%
%TO.N,unconnected-(U301-NC-Pad1)*%
X106790000Y-106530000D03*
%TO.P,U301,2,NC*%
%TO.N,unconnected-(U301-NC-Pad2)*%
X107190000Y-106530000D03*
%TO.P,U301,3,NC*%
%TO.N,unconnected-(U301-NC-Pad3)*%
X107590000Y-106530000D03*
%TO.P,U301,4,NC*%
%TO.N,unconnected-(U301-NC-Pad4)*%
X107990000Y-106530000D03*
%TO.P,U301,5,NC*%
%TO.N,unconnected-(U301-NC-Pad5)*%
X108390000Y-106530000D03*
%TO.P,U301,6,NC*%
%TO.N,unconnected-(U301-NC-Pad6)*%
X108790000Y-106530000D03*
D33*
%TO.P,U301,7,AUX_CL*%
%TO.N,unconnected-(U301-AUX_CL-Pad7)*%
X109290000Y-107030000D03*
%TO.P,U301,8,VDDIO*%
%TO.N,+1V8*%
X109290000Y-107430000D03*
%TO.P,U301,9,SDO/AD0*%
%TO.N,GND*%
X109290000Y-107830000D03*
%TO.P,U301,10,REGOUT*%
%TO.N,Net-(U301-REGOUT)*%
X109290000Y-108230000D03*
%TO.P,U301,11,FSYNC*%
%TO.N,unconnected-(U301-FSYNC-Pad11)*%
X109290000Y-108630000D03*
%TO.P,U301,12,INT1*%
%TO.N,/Sensors/ICM20x_INT*%
X109290000Y-109030000D03*
D32*
%TO.P,U301,13,VDD*%
%TO.N,+1V8*%
X108790000Y-109530000D03*
%TO.P,U301,14,NC*%
%TO.N,unconnected-(U301-NC-Pad14)*%
X108390000Y-109530000D03*
%TO.P,U301,15,NC*%
%TO.N,unconnected-(U301-NC-Pad15)*%
X107990000Y-109530000D03*
%TO.P,U301,16,NC*%
%TO.N,unconnected-(U301-NC-Pad16)*%
X107590000Y-109530000D03*
%TO.P,U301,17,NC*%
%TO.N,unconnected-(U301-NC-Pad17)*%
X107190000Y-109530000D03*
%TO.P,U301,18,GND*%
%TO.N,GND*%
X106790000Y-109530000D03*
D33*
%TO.P,U301,19,RESV*%
%TO.N,unconnected-(U301-RESV-Pad19)*%
X106290000Y-109030000D03*
%TO.P,U301,20,GND*%
%TO.N,GND*%
X106290000Y-108630000D03*
%TO.P,U301,21,AUX_DA*%
%TO.N,unconnected-(U301-AUX_DA-Pad21)*%
X106290000Y-108230000D03*
%TO.P,U301,22,~{CS}*%
%TO.N,/Sensors/ICM20x_CS*%
X106290000Y-107830000D03*
%TO.P,U301,23,SCL/SCLK*%
%TO.N,/Sensors/ICM20x_SCL*%
X106290000Y-107430000D03*
%TO.P,U301,24,SDA/SDI*%
%TO.N,/Sensors/ICM20x_SDA*%
X106290000Y-107030000D03*
%TD*%
D24*
%TO.P,C304,1*%
%TO.N,+3V3*%
X160220000Y-109347500D03*
%TO.P,C304,2*%
%TO.N,GND*%
X160220000Y-108387500D03*
%TD*%
D22*
%TO.P,C305,1*%
%TO.N,GND*%
X156760000Y-107387500D03*
%TO.P,C305,2*%
%TO.N,+3V3*%
X156760000Y-108347500D03*
%TD*%
D24*
%TO.P,C306,1*%
%TO.N,+3V3*%
X131622500Y-109010000D03*
%TO.P,C306,2*%
%TO.N,GND*%
X131622500Y-108050000D03*
%TD*%
D21*
%TO.P,R305,1*%
%TO.N,+1V8*%
X103550000Y-104660000D03*
%TO.P,R305,2*%
%TO.N,/Sensors/ICM20x_CS*%
X104570000Y-104660000D03*
%TD*%
D20*
%TO.P,D405,1,VDD*%
%TO.N,+3V3*%
X121125000Y-91575000D03*
%TO.P,D405,2,DOUT*%
%TO.N,/Feedback/WS2812B_Chain5*%
X121125000Y-92775000D03*
%TO.P,D405,3,GND*%
%TO.N,GND*%
X119825000Y-92775000D03*
%TO.P,D405,4,DIN*%
%TO.N,/Feedback/WS2812B_Chain4*%
X119825000Y-91575000D03*
%TD*%
D34*
%TO.N,GND*%
X125000000Y-110000000D03*
X110000000Y-70000000D03*
X173100000Y-83500000D03*
D35*
X170150000Y-107400000D03*
X120900000Y-82100000D03*
X146317422Y-77346917D03*
X118950000Y-90500000D03*
D34*
X125000000Y-115000000D03*
D35*
X130200000Y-86849997D03*
X126200000Y-90400000D03*
D34*
X169800000Y-90500000D03*
X100000000Y-110000000D03*
X170000000Y-95000000D03*
X120000000Y-100000000D03*
D35*
X114900003Y-104250000D03*
D34*
X138420000Y-78420000D03*
D35*
X160700000Y-101150000D03*
X111620000Y-107080000D03*
X157650000Y-98400000D03*
D34*
X145000000Y-75000000D03*
X105000000Y-115000000D03*
X160410000Y-88200000D03*
X120000000Y-110000000D03*
X125000000Y-95000000D03*
X168400000Y-73400000D03*
X150000000Y-88400000D03*
X135000000Y-105000000D03*
X130000000Y-110000000D03*
X150000000Y-75000000D03*
X125000000Y-105000000D03*
D35*
X181250000Y-79250000D03*
D34*
X115000000Y-70000000D03*
D35*
X171510000Y-87950000D03*
D34*
X130000000Y-115000000D03*
X180000000Y-115000000D03*
X115000000Y-85000000D03*
X165200000Y-73400000D03*
D35*
X169350000Y-107400000D03*
X162050000Y-107400000D03*
D34*
X186500000Y-77000000D03*
X125000000Y-100000000D03*
D35*
X152150000Y-95090000D03*
D34*
X178660000Y-90543629D03*
X163600000Y-73400000D03*
X136300000Y-71000000D03*
D35*
X157850000Y-85000000D03*
D34*
X156300000Y-72900000D03*
X151000000Y-88400000D03*
X100000000Y-95000000D03*
X100000000Y-85000000D03*
D35*
X181350000Y-87764997D03*
D34*
X175000000Y-115000000D03*
X120000000Y-105000000D03*
X162000000Y-73350000D03*
X157920000Y-90430000D03*
X100000000Y-100000000D03*
X110000000Y-85000000D03*
D35*
X140909915Y-73852837D03*
D34*
X140000000Y-115000000D03*
X120000000Y-75000000D03*
D35*
X130920280Y-74623163D03*
D34*
X185000000Y-115000000D03*
X175000000Y-110000000D03*
X155000000Y-115000000D03*
X155250000Y-72900000D03*
D35*
X162762500Y-103692500D03*
D34*
X190000000Y-110000000D03*
D35*
X168000000Y-88550000D03*
D34*
X153450000Y-74300000D03*
X155800000Y-73700000D03*
X115000000Y-80000000D03*
X104903338Y-95099468D03*
D35*
X158420000Y-82074444D03*
X162850000Y-107400000D03*
D34*
X178500000Y-111400000D03*
X110000000Y-75000000D03*
X139570000Y-81310000D03*
X163200000Y-81050000D03*
X100000000Y-75000000D03*
X156500000Y-114500000D03*
X105000000Y-70000000D03*
D35*
X177250000Y-78459164D03*
X107300000Y-89000000D03*
X145225000Y-77350000D03*
D34*
X150000000Y-115000000D03*
X125000000Y-75000000D03*
X140000000Y-95000000D03*
D35*
X121250000Y-84100000D03*
X183800000Y-87699997D03*
D34*
X154150000Y-101900000D03*
X100000000Y-80000000D03*
X165000000Y-115000000D03*
D35*
X186450000Y-87749997D03*
D34*
X190000000Y-105000000D03*
D35*
X112713907Y-106760603D03*
X129149997Y-108400000D03*
X145000000Y-84049997D03*
X156620000Y-109880000D03*
D34*
X174750000Y-102950000D03*
X115000000Y-95000000D03*
D35*
X175801049Y-95120287D03*
D34*
X140000000Y-105000000D03*
X135000000Y-115000000D03*
X105000000Y-75000000D03*
X145000000Y-115000000D03*
X105000000Y-110000000D03*
X120000000Y-115000000D03*
X190000000Y-80000000D03*
X115000000Y-75000000D03*
D35*
X107300000Y-112050000D03*
D34*
X100000000Y-90000000D03*
X110000000Y-80000000D03*
X140000000Y-70000000D03*
X154150000Y-102800000D03*
D35*
X102721829Y-100267510D03*
X190651176Y-87750063D03*
D34*
X110000000Y-95000000D03*
D35*
X130940109Y-95054516D03*
D34*
X140000000Y-110000000D03*
D35*
X168240000Y-103410000D03*
D34*
X115000000Y-100000000D03*
D35*
X174703450Y-106089713D03*
D34*
X166800000Y-73400000D03*
X144400000Y-90525000D03*
X174000000Y-72700000D03*
X120000000Y-95000000D03*
X170400000Y-73400000D03*
X100000000Y-105000000D03*
X160450000Y-83950000D03*
D35*
X159000000Y-106630000D03*
X181900000Y-109000000D03*
D34*
X131600000Y-107000000D03*
X173800000Y-102950000D03*
X110000000Y-100000000D03*
D35*
X154170660Y-80340000D03*
X162900000Y-96200000D03*
X147400000Y-81000000D03*
X158150000Y-77850000D03*
X171395007Y-83900000D03*
X185580331Y-105930331D03*
D34*
X125000000Y-70000000D03*
X172513603Y-98263603D03*
D35*
X137323685Y-75125000D03*
%TO.N,/MCU/STRAP_GPIO_9*%
X171452333Y-85427894D03*
X180250000Y-79500000D03*
%TO.N,WS2812B_D*%
X170450000Y-88000000D03*
%TO.N,I2C_SDA*%
X147325000Y-77300000D03*
%TO.N,I2C_SCL*%
X145175000Y-78300000D03*
%TO.N,I2S_DAT*%
X174680000Y-105140000D03*
%TO.N,VBAT_ALW_ON*%
X136375000Y-75075000D03*
%TO.N,+3V3*%
X190640000Y-88700000D03*
D34*
X150000000Y-89500000D03*
D35*
X181350000Y-88715000D03*
X186450000Y-88700000D03*
X130100000Y-108400000D03*
D34*
X151000000Y-89500000D03*
D35*
X174901054Y-95116656D03*
X183800000Y-88650000D03*
D34*
X172550000Y-99500000D03*
X148400000Y-81090000D03*
X160700000Y-102150000D03*
D35*
X171520000Y-87010000D03*
X127200000Y-90400000D03*
%TO.N,I2S_CLK*%
X181870000Y-107840000D03*
D34*
%TO.N,+1V8*%
X102700000Y-101350000D03*
X113900000Y-104250000D03*
X145000000Y-85000000D03*
X121250000Y-85050000D03*
D35*
%TO.N,CHIP_PU*%
X159100000Y-77840000D03*
X176680000Y-77510000D03*
%TO.N,BATT_SW_FDBCK*%
X139960000Y-73840000D03*
X140780000Y-81120000D03*
X158179596Y-81155362D03*
%TO.N,MEMS_INT*%
X159000000Y-85000000D03*
X130200000Y-87750000D03*
X112680000Y-107710000D03*
%TO.N,/Power/BATT_SW_CMD*%
X131870000Y-74600000D03*
X131890000Y-95040000D03*
X162900000Y-95100000D03*
%TD*%
D36*
%TO.N,+3V3*%
X172550000Y-99500000D02*
X173950000Y-98100000D01*
X173950000Y-98100000D02*
X184320000Y-98100000D01*
X184320000Y-98100000D02*
X187360000Y-95060000D01*
X187360000Y-95060000D02*
X187360000Y-89570000D01*
X187360000Y-89570000D02*
X187400000Y-89530000D01*
D37*
%TO.N,GND*%
X155260000Y-80340000D02*
X155530000Y-80070000D01*
D38*
X157875000Y-92725000D02*
X158525000Y-92075000D01*
D37*
X185580331Y-105930331D02*
X184489831Y-105930331D01*
X107300000Y-112050000D02*
X107300000Y-110610000D01*
D38*
X107295000Y-90375000D02*
X107295000Y-90644350D01*
X183495000Y-90525000D02*
X183495000Y-90595000D01*
X170820000Y-90500000D02*
X170820000Y-90669350D01*
D39*
X109729264Y-107850000D02*
X109381324Y-107850000D01*
D38*
X145875000Y-91124350D02*
X145875000Y-92100000D01*
X177250000Y-78459164D02*
X176869164Y-78840000D01*
X120475000Y-92125000D02*
X119825000Y-92775000D01*
X145420000Y-90669350D02*
X145875000Y-91124350D01*
X158115000Y-90625000D02*
X157920000Y-90430000D01*
D37*
X111620000Y-107080000D02*
X111620000Y-108030000D01*
D38*
X158525000Y-92075000D02*
X158525000Y-90895000D01*
D37*
X184489831Y-105930331D02*
X184427500Y-105868000D01*
D38*
X170820000Y-90669350D02*
X171275000Y-91124350D01*
X120410000Y-79490000D02*
X120410000Y-80490000D01*
X107775000Y-91124350D02*
X107775000Y-92100000D01*
X107295000Y-90644350D02*
X107775000Y-91124350D01*
D39*
X106290000Y-108630000D02*
X106565000Y-108630000D01*
D38*
X171240000Y-79460000D02*
X169810000Y-79460000D01*
X120475000Y-91149350D02*
X120475000Y-92125000D01*
D37*
X157837500Y-107387500D02*
X158230000Y-107780000D01*
D38*
X131622500Y-107022500D02*
X131600000Y-107000000D01*
D37*
X111620000Y-107080000D02*
X110690000Y-107080000D01*
D38*
X156620000Y-109880000D02*
X157232500Y-109880000D01*
X157920000Y-90430000D02*
X158000000Y-90350000D01*
X158560000Y-79440000D02*
X159160000Y-78840000D01*
X133142500Y-108050000D02*
X131622500Y-108050000D01*
X133142500Y-108550000D02*
X133142500Y-108050000D01*
X158000000Y-90350000D02*
X159070000Y-90350000D01*
X183950000Y-91050000D02*
X183950000Y-92125000D01*
D37*
X187760000Y-78760000D02*
X187345000Y-78345000D01*
D38*
X158525000Y-90895000D02*
X159070000Y-90350000D01*
D37*
X159000000Y-106630000D02*
X159280000Y-106630000D01*
D38*
X120020000Y-90500000D02*
X120020000Y-90694350D01*
X183950000Y-92125000D02*
X183300000Y-92775000D01*
X156160000Y-79440000D02*
X158560000Y-79440000D01*
X171860000Y-78840000D02*
X171240000Y-79460000D01*
X155530000Y-80070000D02*
X156160000Y-79440000D01*
X144400000Y-90525000D02*
X145420000Y-90525000D01*
D39*
X107290000Y-110600000D02*
X106790000Y-110100000D01*
D37*
X107300000Y-90370000D02*
X107295000Y-90375000D01*
D38*
X120900000Y-82100000D02*
X120900000Y-81150000D01*
X170820000Y-90500000D02*
X169800000Y-90500000D01*
X171275000Y-92100000D02*
X170625000Y-92750000D01*
D37*
X187345000Y-78345000D02*
X186485000Y-78345000D01*
X184810000Y-107872000D02*
X184258000Y-108424000D01*
D38*
X183495000Y-90595000D02*
X183950000Y-91050000D01*
D39*
X106565000Y-108630000D02*
X106790000Y-108855000D01*
D38*
X120890000Y-80970000D02*
X120890000Y-81140000D01*
D39*
X106790000Y-110100000D02*
X106790000Y-109530000D01*
D38*
X178678629Y-90525000D02*
X178660000Y-90543629D01*
D37*
X156760000Y-107387500D02*
X157837500Y-107387500D01*
X136300000Y-72030000D02*
X136300000Y-71000000D01*
X159242500Y-108885000D02*
X159740000Y-108387500D01*
D38*
X120900000Y-81150000D02*
X120890000Y-81140000D01*
D37*
X154170660Y-80340000D02*
X155260000Y-80340000D01*
D38*
X176869164Y-78840000D02*
X171860000Y-78840000D01*
D37*
X156760000Y-107387500D02*
X156760000Y-107040000D01*
D38*
X169810000Y-79460000D02*
X169220000Y-80050000D01*
D39*
X110499264Y-107080000D02*
X109729264Y-107850000D01*
D37*
X158980000Y-106650000D02*
X159000000Y-106630000D01*
D38*
X171275000Y-91124350D02*
X171275000Y-92100000D01*
X107775000Y-92100000D02*
X107125000Y-92750000D01*
D37*
X107300000Y-110610000D02*
X107290000Y-110600000D01*
X107300000Y-89000000D02*
X107300000Y-90370000D01*
D39*
X106790000Y-108855000D02*
X106790000Y-109530000D01*
D37*
X184258000Y-108424000D02*
X184010000Y-108424000D01*
X184047500Y-108386500D02*
X184047500Y-106602500D01*
D38*
X131600000Y-108027500D02*
X131622500Y-108050000D01*
X120410000Y-80490000D02*
X120890000Y-80970000D01*
D37*
X159740000Y-108387500D02*
X160220000Y-108387500D01*
X157150000Y-106650000D02*
X158980000Y-106650000D01*
X187760000Y-78890000D02*
X187760000Y-78760000D01*
X184010000Y-108424000D02*
X184047500Y-108386500D01*
X158230000Y-107780000D02*
X158230000Y-108122500D01*
X118950000Y-90500000D02*
X120020000Y-90500000D01*
X184390000Y-105905500D02*
X184427500Y-105868000D01*
D38*
X183495000Y-90525000D02*
X178678629Y-90525000D01*
D37*
X184427500Y-106222500D02*
X184427500Y-105868000D01*
D39*
X110690000Y-107080000D02*
X110499264Y-107080000D01*
D37*
X159242500Y-108385000D02*
X160217500Y-108385000D01*
D38*
X157232500Y-109880000D02*
X157717500Y-109395000D01*
D37*
X186500000Y-77000000D02*
X186500000Y-78330000D01*
X186500000Y-78330000D02*
X186485000Y-78345000D01*
D38*
X120020000Y-90694350D02*
X120475000Y-91149350D01*
X121060000Y-78840000D02*
X120410000Y-79490000D01*
D37*
X160217500Y-108385000D02*
X160220000Y-108387500D01*
D38*
X145420000Y-90525000D02*
X145420000Y-90669350D01*
X145875000Y-92100000D02*
X145225000Y-92750000D01*
D37*
X160220000Y-107570000D02*
X160220000Y-108387500D01*
X159280000Y-106630000D02*
X160220000Y-107570000D01*
X156760000Y-107040000D02*
X157150000Y-106650000D01*
X184047500Y-106602500D02*
X184427500Y-106222500D01*
%TO.N,Net-(U303-DVI)*%
X134582500Y-107070000D02*
X134502500Y-106990000D01*
D38*
X134555000Y-108550000D02*
X135892500Y-108550000D01*
X134555000Y-106975000D02*
X134555000Y-108550000D01*
X134555000Y-108550000D02*
X134555000Y-110102500D01*
X134555000Y-110102500D02*
X134582500Y-110130000D01*
D37*
%TO.N,/MCU/STRAP_GPIO_9*%
X186490000Y-80500000D02*
X186485000Y-80495000D01*
X187760000Y-79990000D02*
X187250000Y-80500000D01*
X178900000Y-84700000D02*
X178900000Y-82165000D01*
X180250000Y-79500000D02*
X180250000Y-80815000D01*
X187760000Y-79850000D02*
X187760000Y-79990000D01*
X187250000Y-80500000D02*
X186490000Y-80500000D01*
X178172106Y-85427894D02*
X178900000Y-84700000D01*
X181255000Y-80495000D02*
X180935000Y-80815000D01*
X182335000Y-80495000D02*
X181255000Y-80495000D01*
X180250000Y-80815000D02*
X178920000Y-82145000D01*
X178900000Y-82165000D02*
X178920000Y-82145000D01*
X171452333Y-85427894D02*
X178172106Y-85427894D01*
X180935000Y-80815000D02*
X180250000Y-80815000D01*
%TO.N,WS2812B_D*%
X170450000Y-88000000D02*
X170450000Y-85150000D01*
X173650000Y-84650000D02*
X174200000Y-84100000D01*
X173740000Y-80040000D02*
X171860000Y-80040000D01*
X174200000Y-80500000D02*
X173740000Y-80040000D01*
X174200000Y-84100000D02*
X174200000Y-80500000D01*
X170450000Y-85150000D02*
X170950000Y-84650000D01*
X170950000Y-84650000D02*
X173650000Y-84650000D01*
%TO.N,I2C_SDA*%
X157300056Y-108885000D02*
X157717500Y-108885000D01*
D38*
X135892500Y-108050000D02*
X135892500Y-105957500D01*
D37*
X145650000Y-79075000D02*
X143125000Y-79075000D01*
X143125000Y-79075000D02*
X141375000Y-77325000D01*
X135900000Y-105950000D02*
X148725000Y-105950000D01*
X147325000Y-77300000D02*
X147325000Y-77400000D01*
X119375000Y-102200000D02*
X123125000Y-105950000D01*
X105300000Y-77325000D02*
X103775000Y-78850000D01*
X147325000Y-77400000D02*
X145650000Y-79075000D01*
X106752500Y-104230000D02*
X106752500Y-102202500D01*
X106752500Y-102202500D02*
X106750000Y-102200000D01*
X141375000Y-77325000D02*
X105300000Y-77325000D01*
X103775000Y-100950000D02*
X105025000Y-102200000D01*
X151802500Y-109027500D02*
X157157556Y-109027500D01*
X103775000Y-78850000D02*
X103775000Y-100950000D01*
X106750000Y-102200000D02*
X119375000Y-102200000D01*
X157157556Y-109027500D02*
X157300056Y-108885000D01*
X123125000Y-105950000D02*
X135900000Y-105950000D01*
X105025000Y-102200000D02*
X106750000Y-102200000D01*
X135892500Y-105957500D02*
X135900000Y-105950000D01*
X148725000Y-105950000D02*
X151802500Y-109027500D01*
D38*
%TO.N,I2C_SCL*%
X135892500Y-111192500D02*
X135900000Y-111200000D01*
D37*
X145175000Y-78300000D02*
X143800000Y-78300000D01*
X104010000Y-108037500D02*
X104010000Y-108910000D01*
X104010000Y-108910000D02*
X103230000Y-109690000D01*
X151945000Y-110630000D02*
X157770000Y-110630000D01*
X151375000Y-111200000D02*
X151945000Y-110630000D01*
X121300000Y-111200000D02*
X135900000Y-111200000D01*
X101660000Y-108120000D02*
X103230000Y-109690000D01*
X135900000Y-111200000D02*
X151375000Y-111200000D01*
X108090000Y-114550000D02*
X117950000Y-114550000D01*
X103230000Y-109690000D02*
X108090000Y-114550000D01*
X141375000Y-75875000D02*
X103600000Y-75875000D01*
D38*
X135892500Y-109050000D02*
X135892500Y-111192500D01*
D37*
X157770000Y-110630000D02*
X158230000Y-110170000D01*
X101610000Y-108070000D02*
X101660000Y-108120000D01*
X143800000Y-78300000D02*
X141375000Y-75875000D01*
X103600000Y-75875000D02*
X101610000Y-77865000D01*
X101610000Y-77865000D02*
X101610000Y-108070000D01*
X117950000Y-114550000D02*
X121300000Y-111200000D01*
X158230000Y-110170000D02*
X158230000Y-109647500D01*
%TO.N,I2S_DAT*%
X174700000Y-105120000D02*
X185830661Y-105120000D01*
X174680000Y-105140000D02*
X174700000Y-105120000D01*
X186330331Y-105619670D02*
X186330331Y-106619669D01*
X186330331Y-106619669D02*
X185900000Y-107050000D01*
X185900000Y-107050000D02*
X184810000Y-107050000D01*
X185830661Y-105120000D02*
X186330331Y-105619670D01*
D39*
%TO.N,Net-(U301-REGOUT)*%
X110660000Y-108030000D02*
X110420000Y-108270000D01*
X110420000Y-108270000D02*
X109290000Y-108270000D01*
D37*
%TO.N,/Feedback/WS2812B_Chain1*%
X166250000Y-78840000D02*
X165050000Y-80040000D01*
X165050000Y-80040000D02*
X159160000Y-80040000D01*
X170560000Y-78840000D02*
X166250000Y-78840000D01*
%TO.N,/Feedback/WS2812B_Chain2*%
X157860000Y-78840000D02*
X154610000Y-78840000D01*
X154610000Y-78840000D02*
X153410000Y-80040000D01*
X153410000Y-80040000D02*
X121060000Y-80040000D01*
%TO.N,/Feedback/WS2812B_Chain3*%
X105650000Y-79625000D02*
X105650000Y-91075000D01*
X105650000Y-91075000D02*
X106125000Y-91550000D01*
X106435000Y-78840000D02*
X105650000Y-79625000D01*
X119760000Y-78840000D02*
X106435000Y-78840000D01*
X106125000Y-91550000D02*
X107125000Y-91550000D01*
%TO.N,/Feedback/WS2812B_Chain4*%
X108425000Y-92750000D02*
X112875000Y-92750000D01*
X114050000Y-91575000D02*
X119825000Y-91575000D01*
X112875000Y-92750000D02*
X114050000Y-91575000D01*
%TO.N,/Feedback/WS2812B_Chain5*%
X132425000Y-92775000D02*
X133650000Y-91550000D01*
X133650000Y-91550000D02*
X145225000Y-91550000D01*
X121125000Y-92775000D02*
X132425000Y-92775000D01*
%TO.N,/Feedback/WS2812B_Chain6*%
X152875000Y-91525000D02*
X157875000Y-91525000D01*
X146525000Y-92750000D02*
X151650000Y-92750000D01*
X151650000Y-92750000D02*
X152875000Y-91525000D01*
%TO.N,/Feedback/WS2812B_Chain7*%
X165200000Y-91550000D02*
X170625000Y-91550000D01*
X164025000Y-92725000D02*
X165200000Y-91550000D01*
X159175000Y-92725000D02*
X164025000Y-92725000D01*
%TO.N,/Feedback/WS2812B_Chain8*%
X177875000Y-91575000D02*
X183300000Y-91575000D01*
X171925000Y-92750000D02*
X176700000Y-92750000D01*
X176700000Y-92750000D02*
X177875000Y-91575000D01*
%TO.N,VBAT_ALW_ON*%
X136275000Y-74975000D02*
X136375000Y-75075000D01*
X132805000Y-73055000D02*
X132805000Y-74780000D01*
X133000000Y-74975000D02*
X136275000Y-74975000D01*
X132805000Y-74780000D02*
X133000000Y-74975000D01*
%TO.N,+3V3*%
X119760000Y-80040000D02*
X119760000Y-80970000D01*
X162100000Y-102150000D02*
X168350000Y-102150000D01*
X160529999Y-109347500D02*
X160930000Y-108947499D01*
X119760000Y-80970000D02*
X119930000Y-81140000D01*
D36*
X182250000Y-89530000D02*
X183730000Y-89530000D01*
D37*
X186570000Y-88700000D02*
X187400000Y-89530000D01*
D38*
X159575000Y-91525000D02*
X160030000Y-91070000D01*
D36*
X183730000Y-89530000D02*
X183950000Y-89750000D01*
D37*
X156772500Y-108335000D02*
X157527874Y-108335000D01*
D38*
X160030000Y-91070000D02*
X160030000Y-90625000D01*
D37*
X159517500Y-110050000D02*
X159132500Y-110050000D01*
X171925000Y-91550000D02*
X171925000Y-90645000D01*
X171780000Y-89550000D02*
X171800000Y-89530000D01*
X119930000Y-81140000D02*
X119930000Y-89330000D01*
X156760000Y-108347500D02*
X155947500Y-108347500D01*
X108425000Y-91550000D02*
X108425000Y-90545000D01*
X120980000Y-89520000D02*
X121000000Y-89500000D01*
D38*
X133142500Y-109050000D02*
X131662500Y-109050000D01*
D37*
X171000000Y-99500000D02*
X172550000Y-99500000D01*
X182532000Y-105868000D02*
X183467500Y-105868000D01*
X168350000Y-102150000D02*
X171000000Y-99500000D01*
D38*
X133562500Y-110130000D02*
X133455000Y-110130000D01*
D37*
X128100000Y-89500000D02*
X130150000Y-89500000D01*
X181560287Y-106839713D02*
X182532000Y-105868000D01*
X183467500Y-105868000D02*
X183467500Y-106717500D01*
X156760000Y-108347500D02*
X156772500Y-108335000D01*
X155650000Y-108050000D02*
X155650000Y-105700000D01*
X183467500Y-106717500D02*
X183135000Y-107050000D01*
X146380000Y-89620000D02*
X146500000Y-89500000D01*
X160220000Y-109347500D02*
X159517500Y-110050000D01*
D38*
X159175000Y-91525000D02*
X159575000Y-91525000D01*
D37*
X120980000Y-90500000D02*
X120980000Y-89520000D01*
X184600000Y-90670000D02*
X184455000Y-90525000D01*
D38*
X133455000Y-110130000D02*
X133142500Y-109817500D01*
D36*
X184455000Y-90255000D02*
X184455000Y-90525000D01*
D38*
X133142500Y-109817500D02*
X133142500Y-109050000D01*
D36*
X173100000Y-89530000D02*
X182250000Y-89530000D01*
D37*
X169450000Y-89480000D02*
X169450000Y-81130000D01*
D38*
X160030000Y-89550000D02*
X160050000Y-89530000D01*
D37*
X146525000Y-90670000D02*
X146380000Y-90525000D01*
X127200000Y-90400000D02*
X128100000Y-89500000D01*
X172550000Y-99500000D02*
X172550000Y-106100000D01*
X121125000Y-91575000D02*
X121125000Y-90645000D01*
X158780000Y-109697500D02*
X158780000Y-109647500D01*
X155650000Y-105700000D02*
X156800000Y-104550000D01*
X160700000Y-102150000D02*
X162100000Y-102150000D01*
D36*
X129650000Y-89500000D02*
X121000000Y-89500000D01*
D37*
X169500000Y-89530000D02*
X169450000Y-89480000D01*
X184425000Y-89275000D02*
X183950000Y-89750000D01*
X157860000Y-80040000D02*
X156520000Y-80040000D01*
X169450000Y-81130000D02*
X169470000Y-81130000D01*
X181435000Y-88715000D02*
X182250000Y-89530000D01*
D36*
X109130000Y-89500000D02*
X108255000Y-90375000D01*
D37*
X160930000Y-108947499D02*
X160930000Y-103320000D01*
D38*
X131662500Y-109050000D02*
X131622500Y-109010000D01*
D37*
X172800000Y-87250000D02*
X172800000Y-89530000D01*
X181350000Y-88715000D02*
X181435000Y-88715000D01*
D36*
X151030000Y-89530000D02*
X160050000Y-89530000D01*
D37*
X190640000Y-88700000D02*
X188230000Y-88700000D01*
X186450000Y-88700000D02*
X186570000Y-88700000D01*
D36*
X169500000Y-89530000D02*
X171800000Y-89530000D01*
D37*
X119930000Y-89330000D02*
X120100000Y-89500000D01*
X172550000Y-106100000D02*
X173289713Y-106839713D01*
D36*
X183950000Y-89750000D02*
X184455000Y-90255000D01*
D37*
X159700000Y-104550000D02*
X160930000Y-103320000D01*
X169470000Y-81130000D02*
X169030001Y-81130000D01*
X155947500Y-108347500D02*
X155650000Y-108050000D01*
X146525000Y-91550000D02*
X146525000Y-90670000D01*
X160220000Y-109347500D02*
X160529999Y-109347500D01*
X108425000Y-90545000D02*
X108255000Y-90375000D01*
X174960000Y-95175602D02*
X174960000Y-98100000D01*
X169470000Y-81130000D02*
X170560000Y-80040000D01*
D36*
X120100000Y-89500000D02*
X109130000Y-89500000D01*
D37*
X156800000Y-104550000D02*
X159700000Y-104550000D01*
D36*
X150000000Y-89500000D02*
X146500000Y-89500000D01*
D37*
X171780000Y-90500000D02*
X171780000Y-89550000D01*
X171925000Y-90645000D02*
X171780000Y-90500000D01*
D36*
X151000000Y-89500000D02*
X151030000Y-89530000D01*
D37*
X172560000Y-87010000D02*
X172800000Y-87250000D01*
X184600000Y-91575000D02*
X184600000Y-90670000D01*
X173289713Y-106839713D02*
X181560287Y-106839713D01*
D36*
X160050000Y-89530000D02*
X169500000Y-89530000D01*
D37*
X156520000Y-80040000D02*
X156490000Y-80070000D01*
X130100000Y-108400000D02*
X130710000Y-109010000D01*
X156490000Y-80510000D02*
X156490000Y-80070000D01*
D36*
X172800000Y-89530000D02*
X173100000Y-89530000D01*
D37*
X155910000Y-81090000D02*
X156490000Y-80510000D01*
D36*
X183730000Y-89530000D02*
X187400000Y-89530000D01*
D37*
X169030001Y-81130000D02*
X168260000Y-80359999D01*
X183800000Y-88650000D02*
X184425000Y-89275000D01*
X160930000Y-103320000D02*
X162100000Y-102150000D01*
X160132500Y-109435000D02*
X159242500Y-109435000D01*
X148400000Y-81090000D02*
X155910000Y-81090000D01*
D36*
X130150000Y-89500000D02*
X129650000Y-89500000D01*
D37*
X146380000Y-90525000D02*
X146380000Y-89620000D01*
X130710000Y-109010000D02*
X131622500Y-109010000D01*
X188230000Y-88700000D02*
X187400000Y-89530000D01*
D36*
X171800000Y-89530000D02*
X172800000Y-89530000D01*
D37*
X171520000Y-87010000D02*
X172560000Y-87010000D01*
D36*
X146500000Y-89500000D02*
X130150000Y-89500000D01*
D37*
X174901054Y-95116656D02*
X174960000Y-95175602D01*
D36*
X121000000Y-89500000D02*
X120100000Y-89500000D01*
D38*
X160030000Y-90625000D02*
X160030000Y-89550000D01*
D37*
X168260000Y-80359999D02*
X168260000Y-80050000D01*
X159132500Y-110050000D02*
X158780000Y-109697500D01*
X121125000Y-90645000D02*
X120980000Y-90500000D01*
X160220000Y-109347500D02*
X160132500Y-109435000D01*
D39*
%TO.N,/Sensors/ICM20x_SDA*%
X106030000Y-106770000D02*
X106030000Y-105650000D01*
X106500000Y-105180000D02*
X108627500Y-105180000D01*
X106030000Y-105650000D02*
X106500000Y-105180000D01*
X109760000Y-105180000D02*
X110170000Y-104770000D01*
X108627500Y-105180000D02*
X109760000Y-105180000D01*
X106290000Y-107030000D02*
X106030000Y-106770000D01*
%TO.N,/Sensors/ICM20x_SCL*%
X104960000Y-106162500D02*
X104960000Y-107110000D01*
X105260000Y-105862500D02*
X105260000Y-104160000D01*
X105300000Y-107450000D02*
X106290000Y-107450000D01*
X104960000Y-107110000D02*
X105300000Y-107450000D01*
X104960000Y-106162500D02*
X105260000Y-105862500D01*
X105260000Y-104160000D02*
X104560000Y-103460000D01*
%TO.N,/Sensors/ICM20x_INT*%
X110230000Y-109030000D02*
X110972500Y-109772500D01*
X110972500Y-109772500D02*
X110972500Y-111447500D01*
X109290000Y-109030000D02*
X110230000Y-109030000D01*
D37*
X109800000Y-111640000D02*
X110780000Y-111640000D01*
X110780000Y-111640000D02*
X110972500Y-111447500D01*
D39*
%TO.N,/Sensors/ICM20x_CS*%
X104570000Y-104660000D02*
X104320000Y-104910000D01*
X104320000Y-107033086D02*
X104540000Y-107253086D01*
X104540000Y-107283970D02*
X105126030Y-107870000D01*
X104540000Y-107253086D02*
X104540000Y-107283970D01*
X104320000Y-104910000D02*
X104320000Y-107033086D01*
X105126030Y-107870000D02*
X106290000Y-107870000D01*
D37*
%TO.N,I2S_CLK*%
X181870000Y-107840000D02*
X183103000Y-107840000D01*
X183103000Y-107840000D02*
X183135000Y-107872000D01*
D39*
%TO.N,+1V8*%
X108790000Y-109530000D02*
X108790000Y-110060000D01*
D37*
X113300000Y-114000000D02*
X109800000Y-114000000D01*
X102700000Y-102620000D02*
X103540000Y-103460000D01*
X108780000Y-111640000D02*
X108270000Y-111640000D01*
D39*
X108790000Y-110060000D02*
X108250000Y-110600000D01*
D37*
X109800000Y-114000000D02*
X108250000Y-112450000D01*
X103540000Y-104650000D02*
X103550000Y-104660000D01*
X113400000Y-103750000D02*
X110170000Y-103750000D01*
D39*
X109700000Y-103280000D02*
X108627500Y-103280000D01*
X109790000Y-107195294D02*
X109790000Y-106470000D01*
D37*
X113900000Y-110420000D02*
X112872500Y-111447500D01*
X108270000Y-111640000D02*
X108250000Y-111620000D01*
D39*
X110170000Y-103750000D02*
X109700000Y-103280000D01*
D37*
X144950000Y-85050000D02*
X121250000Y-85050000D01*
D39*
X110140000Y-106120000D02*
X110690000Y-106120000D01*
D37*
X113900000Y-113400000D02*
X113300000Y-114000000D01*
X103540000Y-103460000D02*
X103540000Y-104650000D01*
D39*
X109790000Y-106470000D02*
X110140000Y-106120000D01*
D37*
X113900000Y-104250000D02*
X113900000Y-113400000D01*
X113900000Y-104250000D02*
X112030000Y-106120000D01*
X108250000Y-111620000D02*
X108250000Y-110600000D01*
X145000000Y-85000000D02*
X144950000Y-85050000D01*
X103550000Y-104660000D02*
X103550000Y-105672500D01*
X113900000Y-104250000D02*
X113400000Y-103750000D01*
D39*
X109290000Y-107430000D02*
X109555294Y-107430000D01*
D37*
X108250000Y-112450000D02*
X108250000Y-111620000D01*
D39*
X109555294Y-107430000D02*
X109790000Y-107195294D01*
D37*
X103550000Y-105672500D02*
X103060000Y-106162500D01*
X112850000Y-111470000D02*
X112872500Y-111447500D01*
X102700000Y-101350000D02*
X102700000Y-102620000D01*
X113900000Y-104250000D02*
X113900000Y-110420000D01*
X112030000Y-106120000D02*
X110690000Y-106120000D01*
%TO.N,CHIP_PU*%
X159100000Y-77840000D02*
X161140000Y-77840000D01*
X161140000Y-77840000D02*
X161470000Y-77510000D01*
X161470000Y-77510000D02*
X176680000Y-77510000D01*
%TO.N,BATT_SW_FDBCK*%
X157444958Y-81890000D02*
X141550000Y-81890000D01*
X137320000Y-72030000D02*
X137320000Y-73050000D01*
X141550000Y-81890000D02*
X140780000Y-81120000D01*
X138970000Y-73050000D02*
X137320000Y-73050000D01*
X139960000Y-73840000D02*
X139170000Y-73050000D01*
X158179596Y-81155362D02*
X157444958Y-81890000D01*
X139170000Y-73050000D02*
X138970000Y-73050000D01*
%TO.N,MEMS_INT*%
X157600000Y-86400000D02*
X159000000Y-85000000D01*
X112680000Y-108815000D02*
X111922500Y-109572500D01*
X130289947Y-87750000D02*
X131639947Y-86400000D01*
X130200000Y-87750000D02*
X130289947Y-87750000D01*
X112680000Y-107710000D02*
X112680000Y-108815000D01*
X131639947Y-86400000D02*
X157600000Y-86400000D01*
%TO.N,/Power/BATT_SW_CMD*%
X132340000Y-71370000D02*
X134550000Y-71370000D01*
X132690000Y-95840000D02*
X131890000Y-95040000D01*
X131870000Y-74600000D02*
X131870000Y-71840000D01*
X131870000Y-71840000D02*
X132340000Y-71370000D01*
X134955000Y-71775000D02*
X134955000Y-73055000D01*
X160830000Y-95810000D02*
X160800000Y-95840000D01*
X162900000Y-95100000D02*
X162190000Y-95810000D01*
X162190000Y-95810000D02*
X160830000Y-95810000D01*
X134955000Y-73055000D02*
X136295000Y-73055000D01*
X134550000Y-71370000D02*
X134955000Y-71775000D01*
X136295000Y-73055000D02*
X136300000Y-73050000D01*
X160800000Y-95840000D02*
X132690000Y-95840000D01*
%TD*%
%TA.AperFunction,Conductor*%
%TO.N,GND*%
G36*
X133865677Y-106619685D02*
G01*
X133886319Y-106636319D01*
X133913681Y-106663681D01*
X133947166Y-106725004D01*
X133950000Y-106751362D01*
X133950000Y-107183637D01*
X133930315Y-107250676D01*
X133894783Y-107286811D01*
X133831239Y-107329174D01*
X133764540Y-107349982D01*
X133762456Y-107350000D01*
X132299999Y-107350000D01*
X132150000Y-107499999D01*
X132150000Y-108148638D01*
X132130315Y-108215677D01*
X132113681Y-108236319D01*
X132086319Y-108263681D01*
X132024996Y-108297166D01*
X131998638Y-108300000D01*
X131351362Y-108300000D01*
X131284323Y-108280315D01*
X131263681Y-108263681D01*
X131236319Y-108236319D01*
X131202834Y-108174996D01*
X131200000Y-108148638D01*
X131200000Y-106766362D01*
X131219685Y-106699323D01*
X131255215Y-106663189D01*
X131318762Y-106620824D01*
X131385461Y-106600017D01*
X131387544Y-106600000D01*
X133798638Y-106600000D01*
X133865677Y-106619685D01*
G37*
%TD.AperFunction*%
%TD*%
M02*
