%TF.GenerationSoftware,KiCad,Pcbnew,8.0.8-8.0.8-0~ubuntu24.04.1*%
%TF.CreationDate,2025-08-26T22:36:19+03:00*%
%TF.ProjectId,pocketmuseum_edu_v0,706f636b-6574-46d7-9573-65756d5f6564,rev?*%
%TF.SameCoordinates,Original*%
%TF.FileFunction,Copper,L3,Inr*%
%TF.FilePolarity,Positive*%
%FSLAX46Y46*%
G04 Gerber Fmt 4.6, Leading zero omitted, Abs format (unit mm)*
G04 Created by KiCad (PCBNEW 8.0.8-8.0.8-0~ubuntu24.04.1) date 2025-08-26 22:36:19*
%MOMM*%
%LPD*%
G01*
G04 APERTURE LIST*
%TA.AperFunction,HeatsinkPad*%
%ADD10O,1.000000X2.100000*%
%TD*%
%TA.AperFunction,HeatsinkPad*%
%ADD11O,1.000000X1.600000*%
%TD*%
%TA.AperFunction,ViaPad*%
%ADD12C,0.800000*%
%TD*%
%TA.AperFunction,ViaPad*%
%ADD13C,0.700000*%
%TD*%
G04 APERTURE END LIST*
D10*
%TO.N,Net-(J101-SHIELD)*%
%TO.C,J101*%
X161790000Y-109545000D03*
D11*
X161790000Y-113725000D03*
D10*
X170430000Y-109545000D03*
D11*
X170430000Y-113725000D03*
%TD*%
D12*
%TO.N,GND*%
X150000000Y-75000000D03*
X165000000Y-115000000D03*
X170000000Y-95000000D03*
X190000000Y-80000000D03*
X190000000Y-110000000D03*
X190000000Y-105000000D03*
X175000000Y-110000000D03*
X185000000Y-115000000D03*
X180000000Y-115000000D03*
X175000000Y-115000000D03*
X145000000Y-115000000D03*
X150000000Y-115000000D03*
X155000000Y-115000000D03*
X140000000Y-70000000D03*
X145000000Y-75000000D03*
X140000000Y-95000000D03*
X105000000Y-115000000D03*
X120000000Y-115000000D03*
X125000000Y-115000000D03*
X130000000Y-115000000D03*
X135000000Y-115000000D03*
X140000000Y-115000000D03*
X140000000Y-110000000D03*
X140000000Y-105000000D03*
X135000000Y-105000000D03*
X130000000Y-110000000D03*
X120000000Y-105000000D03*
X125000000Y-105000000D03*
X125000000Y-110000000D03*
X120000000Y-110000000D03*
X105000000Y-110000000D03*
X100000000Y-110000000D03*
X100000000Y-105000000D03*
X100000000Y-100000000D03*
X110000000Y-100000000D03*
X115000000Y-100000000D03*
X120000000Y-100000000D03*
X125000000Y-100000000D03*
X125000000Y-95000000D03*
X120000000Y-95000000D03*
X115000000Y-95000000D03*
X110000000Y-95000000D03*
X100000000Y-95000000D03*
X104903338Y-95099468D03*
X100000000Y-90000000D03*
X115000000Y-85000000D03*
X110000000Y-85000000D03*
X100000000Y-85000000D03*
X100000000Y-80000000D03*
X110000000Y-80000000D03*
X115000000Y-80000000D03*
X125000000Y-70000000D03*
X125000000Y-75000000D03*
X115000000Y-70000000D03*
X110000000Y-70000000D03*
X105000000Y-70000000D03*
X120000000Y-75000000D03*
X115000000Y-75000000D03*
X110000000Y-75000000D03*
X105000000Y-75000000D03*
X173100000Y-83500000D03*
D13*
X170150000Y-107400000D03*
X120900000Y-82100000D03*
X146317422Y-77346917D03*
X118950000Y-90500000D03*
X130200000Y-86849997D03*
X126200000Y-90400000D03*
D12*
X169800000Y-90500000D03*
D13*
X114900003Y-104250000D03*
D12*
X138420000Y-78420000D03*
D13*
X160700000Y-101150000D03*
X111620000Y-107080000D03*
X157650000Y-98400000D03*
D12*
X160410000Y-88200000D03*
X168400000Y-73400000D03*
X150000000Y-88400000D03*
D13*
X181250000Y-79250000D03*
X171510000Y-87950000D03*
D12*
X165200000Y-73400000D03*
D13*
X169350000Y-107400000D03*
X162050000Y-107400000D03*
D12*
X186500000Y-77000000D03*
D13*
X152150000Y-95090000D03*
D12*
X178660000Y-90543629D03*
X163600000Y-73400000D03*
X136300000Y-71000000D03*
D13*
X157850000Y-85000000D03*
D12*
X156300000Y-72900000D03*
X151000000Y-88400000D03*
D13*
X181350000Y-87764997D03*
D12*
X162000000Y-73350000D03*
X157920000Y-90430000D03*
D13*
X140909915Y-73852837D03*
X130920280Y-74623163D03*
D12*
X155250000Y-72900000D03*
D13*
X162762500Y-103692500D03*
X168000000Y-88550000D03*
D12*
X153450000Y-74300000D03*
X155800000Y-73700000D03*
D13*
X158420000Y-82074444D03*
X162850000Y-107400000D03*
D12*
X178500000Y-111400000D03*
X139570000Y-81310000D03*
X163200000Y-81050000D03*
X100000000Y-75000000D03*
X156500000Y-114500000D03*
D13*
X177250000Y-78459164D03*
X107300000Y-89000000D03*
X145225000Y-77350000D03*
X121250000Y-84100000D03*
X183800000Y-87699997D03*
D12*
X154150000Y-101900000D03*
D13*
X186450000Y-87749997D03*
X112713907Y-106760603D03*
X129149997Y-108400000D03*
X145000000Y-84049997D03*
X156620000Y-109880000D03*
D12*
X174750000Y-102950000D03*
D13*
X175801049Y-95120287D03*
X107300000Y-112050000D03*
D12*
X154150000Y-102800000D03*
D13*
X102721829Y-100267510D03*
X190651176Y-87750063D03*
X130940109Y-95054516D03*
X168240000Y-103410000D03*
X174703450Y-106089713D03*
D12*
X166800000Y-73400000D03*
X144400000Y-90525000D03*
X174000000Y-72700000D03*
X170400000Y-73400000D03*
X160450000Y-83950000D03*
D13*
X159000000Y-106630000D03*
X181900000Y-109000000D03*
D12*
X131600000Y-107000000D03*
X173800000Y-102950000D03*
D13*
X154170660Y-80340000D03*
X162900000Y-96200000D03*
X147400000Y-81000000D03*
X158150000Y-77850000D03*
X171395007Y-83900000D03*
X185580331Y-105930331D03*
D12*
X172513603Y-98263603D03*
D13*
X137323685Y-75125000D03*
%TO.N,/MCU/STRAP_GPIO_9*%
X171452333Y-85427894D03*
X180250000Y-79500000D03*
%TO.N,WS2812B_D*%
X170450000Y-88000000D03*
%TO.N,I2C_SDA*%
X147325000Y-77300000D03*
%TO.N,I2C_SCL*%
X145175000Y-78300000D03*
%TO.N,I2S_DAT*%
X174680000Y-105140000D03*
%TO.N,VBAT_ALW_ON*%
X136375000Y-75075000D03*
%TO.N,+3V3*%
X190640000Y-88700000D03*
D12*
X150000000Y-89500000D03*
D13*
X181350000Y-88715000D03*
X186450000Y-88700000D03*
X130100000Y-108400000D03*
D12*
X151000000Y-89500000D03*
D13*
X174901054Y-95116656D03*
X183800000Y-88650000D03*
D12*
X172550000Y-99500000D03*
X148400000Y-81090000D03*
X160700000Y-102150000D03*
D13*
X171520000Y-87010000D03*
X127200000Y-90400000D03*
%TO.N,I2S_CLK*%
X181870000Y-107840000D03*
D12*
%TO.N,+1V8*%
X102700000Y-101350000D03*
X113900000Y-104250000D03*
X145000000Y-85000000D03*
X121250000Y-85050000D03*
D13*
%TO.N,CHIP_PU*%
X159100000Y-77840000D03*
X176680000Y-77510000D03*
%TO.N,BATT_SW_FDBCK*%
X139960000Y-73840000D03*
X140780000Y-81120000D03*
X158179596Y-81155362D03*
%TO.N,MEMS_INT*%
X159000000Y-85000000D03*
X130200000Y-87750000D03*
X112680000Y-107710000D03*
%TO.N,/Power/BATT_SW_CMD*%
X131870000Y-74600000D03*
X131890000Y-95040000D03*
X162900000Y-95100000D03*
%TD*%
%TA.AperFunction,Conductor*%
%TO.N,GND*%
G36*
X143104854Y-66051232D02*
G01*
X143285744Y-66065467D01*
X143304954Y-66068510D01*
X143476641Y-66109728D01*
X143495139Y-66115739D01*
X143658257Y-66183303D01*
X143675593Y-66192136D01*
X143826131Y-66284383D01*
X143841873Y-66295820D01*
X143976131Y-66410484D01*
X143989890Y-66424242D01*
X144104554Y-66558492D01*
X144115985Y-66574224D01*
X144208250Y-66724777D01*
X144217079Y-66742106D01*
X144284647Y-66905219D01*
X144290659Y-66923722D01*
X144291517Y-66927294D01*
X144331882Y-67095403D01*
X144334926Y-67114621D01*
X144349117Y-67294857D01*
X144349500Y-67304590D01*
X144349500Y-69946188D01*
X144349499Y-69946202D01*
X144349499Y-69948946D01*
X144349448Y-69949119D01*
X144349453Y-70125557D01*
X144349454Y-70125566D01*
X144385093Y-70373394D01*
X144385098Y-70373414D01*
X144455649Y-70613663D01*
X144559667Y-70841416D01*
X144559675Y-70841431D01*
X144695054Y-71052075D01*
X144728351Y-71090500D01*
X144859033Y-71241309D01*
X145048274Y-71405282D01*
X145258924Y-71540655D01*
X145486695Y-71644672D01*
X145486697Y-71644672D01*
X145486698Y-71644673D01*
X145486704Y-71644675D01*
X145606823Y-71679944D01*
X145726951Y-71715216D01*
X145974801Y-71750851D01*
X146100000Y-71750850D01*
X146144170Y-71750850D01*
X193055830Y-71750850D01*
X193095126Y-71750850D01*
X193104854Y-71751232D01*
X193285744Y-71765467D01*
X193304954Y-71768510D01*
X193476641Y-71809728D01*
X193495139Y-71815739D01*
X193658257Y-71883303D01*
X193675593Y-71892136D01*
X193826131Y-71984383D01*
X193841873Y-71995820D01*
X193976131Y-72110484D01*
X193989890Y-72124242D01*
X194104554Y-72258492D01*
X194115985Y-72274224D01*
X194208250Y-72424777D01*
X194217079Y-72442106D01*
X194284647Y-72605219D01*
X194290660Y-72623723D01*
X194331882Y-72795403D01*
X194334926Y-72814621D01*
X194349117Y-72994857D01*
X194349500Y-73004590D01*
X194349500Y-115295473D01*
X194349117Y-115305206D01*
X194334877Y-115486070D01*
X194331833Y-115505288D01*
X194290613Y-115676957D01*
X194284600Y-115695462D01*
X194217032Y-115858573D01*
X194208198Y-115875909D01*
X194115950Y-116026437D01*
X194104513Y-116042178D01*
X193989854Y-116176422D01*
X193976095Y-116190180D01*
X193841841Y-116304841D01*
X193826099Y-116316278D01*
X193675570Y-116408519D01*
X193658234Y-116417352D01*
X193495126Y-116484912D01*
X193476621Y-116490925D01*
X193304953Y-116532138D01*
X193285735Y-116535182D01*
X193159821Y-116545091D01*
X193104215Y-116549468D01*
X193094492Y-116549850D01*
X99294874Y-116549850D01*
X99285146Y-116549468D01*
X99260415Y-116547521D01*
X99104258Y-116535232D01*
X99085040Y-116532188D01*
X98913365Y-116490973D01*
X98894860Y-116484960D01*
X98731742Y-116417396D01*
X98714406Y-116408563D01*
X98563868Y-116316316D01*
X98548126Y-116304879D01*
X98413868Y-116190215D01*
X98400109Y-116176457D01*
X98395842Y-116171462D01*
X98285442Y-116042203D01*
X98274015Y-116026477D01*
X98181747Y-115875917D01*
X98172924Y-115858601D01*
X98105349Y-115695471D01*
X98099342Y-115676985D01*
X98058115Y-115505287D01*
X98055074Y-115486085D01*
X98040883Y-115305840D01*
X98040500Y-115296108D01*
X98040500Y-113238711D01*
X99369500Y-113238711D01*
X99369500Y-113481288D01*
X99401161Y-113721785D01*
X99463947Y-113956104D01*
X99517799Y-114086114D01*
X99556776Y-114180212D01*
X99678064Y-114390289D01*
X99678066Y-114390292D01*
X99678067Y-114390293D01*
X99825733Y-114582736D01*
X99825739Y-114582743D01*
X99997256Y-114754260D01*
X99997262Y-114754265D01*
X100189711Y-114901936D01*
X100399788Y-115023224D01*
X100623900Y-115116054D01*
X100858211Y-115178838D01*
X101022753Y-115200500D01*
X101098711Y-115210500D01*
X101098712Y-115210500D01*
X101341289Y-115210500D01*
X101389388Y-115204167D01*
X101581789Y-115178838D01*
X101816100Y-115116054D01*
X102040212Y-115023224D01*
X102250289Y-114901936D01*
X102442738Y-114754265D01*
X102614265Y-114582738D01*
X102761936Y-114390289D01*
X102883224Y-114180212D01*
X102922200Y-114086116D01*
X161169499Y-114086116D01*
X161193344Y-114205986D01*
X161193346Y-114205994D01*
X161240120Y-114318917D01*
X161240121Y-114318920D01*
X161308025Y-114420544D01*
X161308028Y-114420548D01*
X161394451Y-114506971D01*
X161394455Y-114506974D01*
X161496079Y-114574878D01*
X161496081Y-114574878D01*
X161496083Y-114574880D01*
X161609007Y-114621654D01*
X161638364Y-114627493D01*
X161728883Y-114645500D01*
X161728886Y-114645500D01*
X161851116Y-114645500D01*
X161911461Y-114633495D01*
X161970993Y-114621654D01*
X162083917Y-114574880D01*
X162185545Y-114506974D01*
X162271974Y-114420545D01*
X162339880Y-114318917D01*
X162386654Y-114205993D01*
X162410500Y-114086116D01*
X169809499Y-114086116D01*
X169833344Y-114205986D01*
X169833346Y-114205994D01*
X169880120Y-114318917D01*
X169880121Y-114318920D01*
X169948025Y-114420544D01*
X169948028Y-114420548D01*
X170034451Y-114506971D01*
X170034455Y-114506974D01*
X170136079Y-114574878D01*
X170136081Y-114574878D01*
X170136083Y-114574880D01*
X170249007Y-114621654D01*
X170278364Y-114627493D01*
X170368883Y-114645500D01*
X170368886Y-114645500D01*
X170491116Y-114645500D01*
X170551461Y-114633495D01*
X170610993Y-114621654D01*
X170723917Y-114574880D01*
X170825545Y-114506974D01*
X170911974Y-114420545D01*
X170979880Y-114318917D01*
X171026654Y-114205993D01*
X171050500Y-114086114D01*
X171050500Y-113363886D01*
X171050500Y-113363883D01*
X171026655Y-113244013D01*
X171026654Y-113244007D01*
X171020318Y-113228711D01*
X189309500Y-113228711D01*
X189309500Y-113471288D01*
X189310816Y-113481288D01*
X189341162Y-113711789D01*
X189343842Y-113721789D01*
X189403947Y-113946104D01*
X189496773Y-114170205D01*
X189496777Y-114170214D01*
X189502551Y-114180214D01*
X189618064Y-114380289D01*
X189618066Y-114380292D01*
X189618067Y-114380293D01*
X189765733Y-114572736D01*
X189765739Y-114572743D01*
X189937256Y-114744260D01*
X189937263Y-114744266D01*
X190050321Y-114831018D01*
X190129711Y-114891936D01*
X190339788Y-115013224D01*
X190563900Y-115106054D01*
X190798211Y-115168838D01*
X190978586Y-115192584D01*
X191038711Y-115200500D01*
X191038712Y-115200500D01*
X191281289Y-115200500D01*
X191329388Y-115194167D01*
X191521789Y-115168838D01*
X191756100Y-115106054D01*
X191980212Y-115013224D01*
X192190289Y-114891936D01*
X192382738Y-114744265D01*
X192554265Y-114572738D01*
X192701936Y-114380289D01*
X192823224Y-114170212D01*
X192916054Y-113946100D01*
X192978838Y-113711789D01*
X193010500Y-113471288D01*
X193010500Y-113228712D01*
X192978838Y-112988211D01*
X192916054Y-112753900D01*
X192823224Y-112529788D01*
X192701936Y-112319711D01*
X192554265Y-112127262D01*
X192554260Y-112127256D01*
X192382743Y-111955739D01*
X192382736Y-111955733D01*
X192190293Y-111808067D01*
X192190292Y-111808066D01*
X192190289Y-111808064D01*
X191980212Y-111686776D01*
X191980205Y-111686773D01*
X191756104Y-111593947D01*
X191521785Y-111531161D01*
X191281289Y-111499500D01*
X191281288Y-111499500D01*
X191038712Y-111499500D01*
X191038711Y-111499500D01*
X190798214Y-111531161D01*
X190563895Y-111593947D01*
X190339794Y-111686773D01*
X190339785Y-111686777D01*
X190129706Y-111808067D01*
X189937263Y-111955733D01*
X189937256Y-111955739D01*
X189765739Y-112127256D01*
X189765733Y-112127263D01*
X189618067Y-112319706D01*
X189618064Y-112319710D01*
X189618064Y-112319711D01*
X189601817Y-112347851D01*
X189496777Y-112529785D01*
X189496773Y-112529794D01*
X189403947Y-112753895D01*
X189341161Y-112988214D01*
X189309500Y-113228711D01*
X171020318Y-113228711D01*
X170979880Y-113131083D01*
X170979878Y-113131081D01*
X170979878Y-113131079D01*
X170911974Y-113029455D01*
X170911971Y-113029451D01*
X170825548Y-112943028D01*
X170825544Y-112943025D01*
X170723920Y-112875121D01*
X170723917Y-112875120D01*
X170610994Y-112828346D01*
X170610986Y-112828344D01*
X170491116Y-112804500D01*
X170491114Y-112804500D01*
X170368886Y-112804500D01*
X170368884Y-112804500D01*
X170249013Y-112828344D01*
X170249005Y-112828346D01*
X170136082Y-112875120D01*
X170136079Y-112875121D01*
X170034455Y-112943025D01*
X170034451Y-112943028D01*
X169948028Y-113029451D01*
X169948025Y-113029455D01*
X169880121Y-113131079D01*
X169880120Y-113131082D01*
X169833346Y-113244005D01*
X169833344Y-113244013D01*
X169809500Y-113363883D01*
X169809500Y-113363886D01*
X169809500Y-114086114D01*
X169809500Y-114086116D01*
X169809499Y-114086116D01*
X162410500Y-114086116D01*
X162410500Y-114086114D01*
X162410500Y-113363886D01*
X162410500Y-113363883D01*
X162386655Y-113244013D01*
X162386654Y-113244007D01*
X162339880Y-113131083D01*
X162339878Y-113131081D01*
X162339878Y-113131079D01*
X162271974Y-113029455D01*
X162271971Y-113029451D01*
X162185548Y-112943028D01*
X162185544Y-112943025D01*
X162083920Y-112875121D01*
X162083917Y-112875120D01*
X161970994Y-112828346D01*
X161970986Y-112828344D01*
X161851116Y-112804500D01*
X161851114Y-112804500D01*
X161728886Y-112804500D01*
X161728884Y-112804500D01*
X161609013Y-112828344D01*
X161609005Y-112828346D01*
X161496082Y-112875120D01*
X161496079Y-112875121D01*
X161394455Y-112943025D01*
X161394451Y-112943028D01*
X161308028Y-113029451D01*
X161308025Y-113029455D01*
X161240121Y-113131079D01*
X161240120Y-113131082D01*
X161193346Y-113244005D01*
X161193344Y-113244013D01*
X161169500Y-113363883D01*
X161169500Y-113363886D01*
X161169500Y-114086114D01*
X161169500Y-114086116D01*
X161169499Y-114086116D01*
X102922200Y-114086116D01*
X102976054Y-113956100D01*
X103038838Y-113721789D01*
X103070500Y-113481288D01*
X103070500Y-113238712D01*
X103069183Y-113228712D01*
X103042951Y-113029455D01*
X103038838Y-112998211D01*
X102976054Y-112763900D01*
X102883224Y-112539788D01*
X102761936Y-112329711D01*
X102614265Y-112137262D01*
X102614260Y-112137256D01*
X102442743Y-111965739D01*
X102442736Y-111965733D01*
X102250293Y-111818067D01*
X102250292Y-111818066D01*
X102250289Y-111818064D01*
X102040212Y-111696776D01*
X102040205Y-111696773D01*
X101816104Y-111603947D01*
X101581785Y-111541161D01*
X101341289Y-111509500D01*
X101341288Y-111509500D01*
X101098712Y-111509500D01*
X101098711Y-111509500D01*
X100858214Y-111541161D01*
X100623895Y-111603947D01*
X100399794Y-111696773D01*
X100399785Y-111696777D01*
X100189706Y-111818067D01*
X99997263Y-111965733D01*
X99997256Y-111965739D01*
X99825739Y-112137256D01*
X99825733Y-112137263D01*
X99678067Y-112329706D01*
X99556777Y-112539785D01*
X99556773Y-112539794D01*
X99463947Y-112763895D01*
X99401161Y-112998214D01*
X99369500Y-113238711D01*
X98040500Y-113238711D01*
X98040500Y-110156116D01*
X161169499Y-110156116D01*
X161193344Y-110275986D01*
X161193346Y-110275994D01*
X161240120Y-110388917D01*
X161240121Y-110388920D01*
X161308025Y-110490544D01*
X161308028Y-110490548D01*
X161394451Y-110576971D01*
X161394455Y-110576974D01*
X161496079Y-110644878D01*
X161496081Y-110644878D01*
X161496083Y-110644880D01*
X161609007Y-110691654D01*
X161638364Y-110697493D01*
X161728883Y-110715500D01*
X161728886Y-110715500D01*
X161851116Y-110715500D01*
X161911461Y-110703495D01*
X161970993Y-110691654D01*
X162083917Y-110644880D01*
X162185545Y-110576974D01*
X162271974Y-110490545D01*
X162339880Y-110388917D01*
X162386654Y-110275993D01*
X162386654Y-110275988D01*
X162386656Y-110275985D01*
X162407059Y-110173413D01*
X162439444Y-110111502D01*
X162500159Y-110076928D01*
X162569929Y-110080667D01*
X162626601Y-110121534D01*
X162648451Y-110165511D01*
X162683719Y-110297136D01*
X162721602Y-110362750D01*
X162759485Y-110428365D01*
X162866635Y-110535515D01*
X162997865Y-110611281D01*
X163144234Y-110650500D01*
X163144236Y-110650500D01*
X163295764Y-110650500D01*
X163295766Y-110650500D01*
X163442135Y-110611281D01*
X163573365Y-110535515D01*
X163680515Y-110428365D01*
X163756281Y-110297135D01*
X163795500Y-110150766D01*
X163795500Y-109999234D01*
X168424500Y-109999234D01*
X168424500Y-110150765D01*
X168463719Y-110297136D01*
X168501602Y-110362750D01*
X168539485Y-110428365D01*
X168646635Y-110535515D01*
X168777865Y-110611281D01*
X168924234Y-110650500D01*
X168924236Y-110650500D01*
X169075764Y-110650500D01*
X169075766Y-110650500D01*
X169222135Y-110611281D01*
X169353365Y-110535515D01*
X169460515Y-110428365D01*
X169536281Y-110297135D01*
X169571550Y-110165507D01*
X169607912Y-110105851D01*
X169670759Y-110075321D01*
X169740135Y-110083615D01*
X169794013Y-110128100D01*
X169812940Y-110173412D01*
X169833344Y-110275986D01*
X169833346Y-110275994D01*
X169880120Y-110388917D01*
X169880121Y-110388920D01*
X169948025Y-110490544D01*
X169948028Y-110490548D01*
X170034451Y-110576971D01*
X170034455Y-110576974D01*
X170136079Y-110644878D01*
X170136081Y-110644878D01*
X170136083Y-110644880D01*
X170249007Y-110691654D01*
X170278364Y-110697493D01*
X170368883Y-110715500D01*
X170368886Y-110715500D01*
X170491116Y-110715500D01*
X170551461Y-110703495D01*
X170610993Y-110691654D01*
X170723917Y-110644880D01*
X170825545Y-110576974D01*
X170911974Y-110490545D01*
X170979880Y-110388917D01*
X171026654Y-110275993D01*
X171050500Y-110156114D01*
X171050500Y-109036108D01*
X183482000Y-109036108D01*
X183482000Y-109167891D01*
X183516108Y-109295187D01*
X183549054Y-109352250D01*
X183582000Y-109409314D01*
X183675186Y-109502500D01*
X183789314Y-109568392D01*
X183916608Y-109602500D01*
X183916610Y-109602500D01*
X184048390Y-109602500D01*
X184048392Y-109602500D01*
X184175686Y-109568392D01*
X184289814Y-109502500D01*
X184383000Y-109409314D01*
X184448892Y-109295186D01*
X184483000Y-109167892D01*
X184483000Y-109036108D01*
X184448892Y-108908814D01*
X184383000Y-108794686D01*
X184289814Y-108701500D01*
X184232750Y-108668554D01*
X184175687Y-108635608D01*
X184112039Y-108618554D01*
X184048392Y-108601500D01*
X183916608Y-108601500D01*
X183789312Y-108635608D01*
X183675186Y-108701500D01*
X183675183Y-108701502D01*
X183582002Y-108794683D01*
X183582000Y-108794686D01*
X183516108Y-108908812D01*
X183482000Y-109036108D01*
X171050500Y-109036108D01*
X171050500Y-108933886D01*
X171050500Y-108933883D01*
X171026655Y-108814013D01*
X171026654Y-108814007D01*
X170979880Y-108701083D01*
X170979878Y-108701081D01*
X170979878Y-108701079D01*
X170911974Y-108599455D01*
X170911971Y-108599451D01*
X170825548Y-108513028D01*
X170825544Y-108513025D01*
X170723920Y-108445121D01*
X170723917Y-108445120D01*
X170610994Y-108398346D01*
X170610986Y-108398344D01*
X170491116Y-108374500D01*
X170491114Y-108374500D01*
X170368886Y-108374500D01*
X170368884Y-108374500D01*
X170249013Y-108398344D01*
X170249005Y-108398346D01*
X170136082Y-108445120D01*
X170136079Y-108445121D01*
X170034455Y-108513025D01*
X170034451Y-108513028D01*
X169948028Y-108599451D01*
X169948025Y-108599455D01*
X169880121Y-108701079D01*
X169880120Y-108701082D01*
X169833346Y-108814005D01*
X169833344Y-108814013D01*
X169809500Y-108933883D01*
X169809500Y-109930661D01*
X169789815Y-109997700D01*
X169737011Y-110043455D01*
X169667853Y-110053399D01*
X169604297Y-110024374D01*
X169566523Y-109965596D01*
X169565725Y-109962754D01*
X169536281Y-109852865D01*
X169460515Y-109721635D01*
X169353365Y-109614485D01*
X169273528Y-109568391D01*
X169222136Y-109538719D01*
X169148950Y-109519109D01*
X169075766Y-109499500D01*
X168924234Y-109499500D01*
X168777863Y-109538719D01*
X168646635Y-109614485D01*
X168646632Y-109614487D01*
X168539487Y-109721632D01*
X168539485Y-109721635D01*
X168463719Y-109852863D01*
X168424500Y-109999234D01*
X163795500Y-109999234D01*
X163756281Y-109852865D01*
X163680515Y-109721635D01*
X163573365Y-109614485D01*
X163493528Y-109568391D01*
X163442136Y-109538719D01*
X163368950Y-109519109D01*
X163295766Y-109499500D01*
X163144234Y-109499500D01*
X162997863Y-109538719D01*
X162866635Y-109614485D01*
X162866632Y-109614487D01*
X162759487Y-109721632D01*
X162759485Y-109721635D01*
X162683719Y-109852863D01*
X162654275Y-109962754D01*
X162617910Y-110022415D01*
X162555063Y-110052944D01*
X162485688Y-110044649D01*
X162431810Y-110000164D01*
X162410535Y-109933612D01*
X162410500Y-109930661D01*
X162410500Y-108933883D01*
X162386655Y-108814013D01*
X162386654Y-108814007D01*
X162339880Y-108701083D01*
X162339878Y-108701081D01*
X162339878Y-108701079D01*
X162271974Y-108599455D01*
X162271971Y-108599451D01*
X162185548Y-108513028D01*
X162185544Y-108513025D01*
X162083920Y-108445121D01*
X162083917Y-108445120D01*
X161970994Y-108398346D01*
X161970986Y-108398344D01*
X161851116Y-108374500D01*
X161851114Y-108374500D01*
X161728886Y-108374500D01*
X161728884Y-108374500D01*
X161609013Y-108398344D01*
X161609005Y-108398346D01*
X161496082Y-108445120D01*
X161496079Y-108445121D01*
X161394455Y-108513025D01*
X161394451Y-108513028D01*
X161308028Y-108599451D01*
X161308025Y-108599455D01*
X161240121Y-108701079D01*
X161240120Y-108701082D01*
X161193346Y-108814005D01*
X161193344Y-108814013D01*
X161169500Y-108933883D01*
X161169500Y-108933886D01*
X161169500Y-110156114D01*
X161169500Y-110156116D01*
X161169499Y-110156116D01*
X98040500Y-110156116D01*
X98040500Y-108400000D01*
X129544750Y-108400000D01*
X129559630Y-108513026D01*
X129563670Y-108543708D01*
X129563671Y-108543712D01*
X129619137Y-108677622D01*
X129619138Y-108677624D01*
X129619139Y-108677625D01*
X129707379Y-108792621D01*
X129822375Y-108880861D01*
X129956291Y-108936330D01*
X130083280Y-108953048D01*
X130099999Y-108955250D01*
X130100000Y-108955250D01*
X130100001Y-108955250D01*
X130114977Y-108953278D01*
X130243709Y-108936330D01*
X130377625Y-108880861D01*
X130492621Y-108792621D01*
X130580861Y-108677625D01*
X130636330Y-108543709D01*
X130655250Y-108400000D01*
X130636330Y-108256291D01*
X130580861Y-108122375D01*
X130492621Y-108007379D01*
X130377625Y-107919139D01*
X130377624Y-107919138D01*
X130377622Y-107919137D01*
X130243712Y-107863671D01*
X130243710Y-107863670D01*
X130243709Y-107863670D01*
X130168042Y-107853708D01*
X130100001Y-107844750D01*
X130099999Y-107844750D01*
X129956291Y-107863670D01*
X129956287Y-107863671D01*
X129822377Y-107919137D01*
X129707379Y-108007379D01*
X129619137Y-108122377D01*
X129563671Y-108256287D01*
X129563670Y-108256291D01*
X129547867Y-108376328D01*
X129544750Y-108400000D01*
X98040500Y-108400000D01*
X98040500Y-107709999D01*
X112124750Y-107709999D01*
X112124750Y-107710000D01*
X112143670Y-107853708D01*
X112143671Y-107853712D01*
X112199137Y-107987622D01*
X112199138Y-107987624D01*
X112199139Y-107987625D01*
X112287379Y-108102621D01*
X112402375Y-108190861D01*
X112536291Y-108246330D01*
X112663280Y-108263048D01*
X112679999Y-108265250D01*
X112680000Y-108265250D01*
X112680001Y-108265250D01*
X112694977Y-108263278D01*
X112823709Y-108246330D01*
X112957625Y-108190861D01*
X113072621Y-108102621D01*
X113160861Y-107987625D01*
X113216330Y-107853709D01*
X113218135Y-107839999D01*
X181314750Y-107839999D01*
X181314750Y-107840000D01*
X181333670Y-107983708D01*
X181333671Y-107983712D01*
X181389137Y-108117622D01*
X181389138Y-108117624D01*
X181389139Y-108117625D01*
X181477379Y-108232621D01*
X181592375Y-108320861D01*
X181726291Y-108376330D01*
X181853280Y-108393048D01*
X181869999Y-108395250D01*
X181870000Y-108395250D01*
X181870001Y-108395250D01*
X181884977Y-108393278D01*
X182013709Y-108376330D01*
X182147625Y-108320861D01*
X182262621Y-108232621D01*
X182350861Y-108117625D01*
X182406330Y-107983709D01*
X182425250Y-107840000D01*
X182406330Y-107696291D01*
X182352483Y-107566291D01*
X182350862Y-107562377D01*
X182350861Y-107562376D01*
X182350861Y-107562375D01*
X182262621Y-107447379D01*
X182147625Y-107359139D01*
X182147624Y-107359138D01*
X182147622Y-107359137D01*
X182013712Y-107303671D01*
X182013710Y-107303670D01*
X182013709Y-107303670D01*
X181941854Y-107294210D01*
X181870001Y-107284750D01*
X181869999Y-107284750D01*
X181726291Y-107303670D01*
X181726287Y-107303671D01*
X181592377Y-107359137D01*
X181477379Y-107447379D01*
X181389137Y-107562377D01*
X181333671Y-107696287D01*
X181333670Y-107696291D01*
X181314750Y-107839999D01*
X113218135Y-107839999D01*
X113235250Y-107710000D01*
X113216330Y-107566291D01*
X113160861Y-107432375D01*
X113072621Y-107317379D01*
X112957625Y-107229139D01*
X112957624Y-107229138D01*
X112957622Y-107229137D01*
X112823712Y-107173671D01*
X112823710Y-107173670D01*
X112823709Y-107173670D01*
X112751854Y-107164210D01*
X112680001Y-107154750D01*
X112679999Y-107154750D01*
X112536291Y-107173670D01*
X112536287Y-107173671D01*
X112402377Y-107229137D01*
X112287379Y-107317379D01*
X112199137Y-107432377D01*
X112143671Y-107566287D01*
X112143670Y-107566291D01*
X112124750Y-107709999D01*
X98040500Y-107709999D01*
X98040500Y-105139999D01*
X174124750Y-105139999D01*
X174124750Y-105140000D01*
X174143670Y-105283708D01*
X174143671Y-105283712D01*
X174199137Y-105417622D01*
X174199138Y-105417624D01*
X174199139Y-105417625D01*
X174287379Y-105532621D01*
X174402375Y-105620861D01*
X174536291Y-105676330D01*
X174663280Y-105693048D01*
X174679999Y-105695250D01*
X174680000Y-105695250D01*
X174680001Y-105695250D01*
X174694977Y-105693278D01*
X174823709Y-105676330D01*
X174957625Y-105620861D01*
X175072621Y-105532621D01*
X175160861Y-105417625D01*
X175216330Y-105283709D01*
X175235250Y-105140000D01*
X175216330Y-104996291D01*
X175160861Y-104862375D01*
X175072621Y-104747379D01*
X174957625Y-104659139D01*
X174957624Y-104659138D01*
X174957622Y-104659137D01*
X174823712Y-104603671D01*
X174823710Y-104603670D01*
X174823709Y-104603670D01*
X174751854Y-104594210D01*
X174680001Y-104584750D01*
X174679999Y-104584750D01*
X174536291Y-104603670D01*
X174536287Y-104603671D01*
X174402377Y-104659137D01*
X174287379Y-104747379D01*
X174199137Y-104862377D01*
X174143671Y-104996287D01*
X174143670Y-104996291D01*
X174124750Y-105139999D01*
X98040500Y-105139999D01*
X98040500Y-104249998D01*
X113294318Y-104249998D01*
X113294318Y-104250001D01*
X113314955Y-104406760D01*
X113314956Y-104406762D01*
X113375464Y-104552841D01*
X113471718Y-104678282D01*
X113597159Y-104774536D01*
X113743238Y-104835044D01*
X113821619Y-104845363D01*
X113899999Y-104855682D01*
X113900000Y-104855682D01*
X113900001Y-104855682D01*
X113952254Y-104848802D01*
X114056762Y-104835044D01*
X114202841Y-104774536D01*
X114328282Y-104678282D01*
X114424536Y-104552841D01*
X114485044Y-104406762D01*
X114505682Y-104250000D01*
X114485044Y-104093238D01*
X114424536Y-103947159D01*
X114328282Y-103821718D01*
X114202841Y-103725464D01*
X114056762Y-103664956D01*
X114056760Y-103664955D01*
X113900001Y-103644318D01*
X113899999Y-103644318D01*
X113743239Y-103664955D01*
X113743237Y-103664956D01*
X113597160Y-103725463D01*
X113471718Y-103821718D01*
X113375463Y-103947160D01*
X113314956Y-104093237D01*
X113314955Y-104093239D01*
X113294318Y-104249998D01*
X98040500Y-104249998D01*
X98040500Y-102149998D01*
X160094318Y-102149998D01*
X160094318Y-102150001D01*
X160114955Y-102306760D01*
X160114956Y-102306762D01*
X160175464Y-102452841D01*
X160271718Y-102578282D01*
X160397159Y-102674536D01*
X160543238Y-102735044D01*
X160621619Y-102745363D01*
X160699999Y-102755682D01*
X160700000Y-102755682D01*
X160700001Y-102755682D01*
X160752254Y-102748802D01*
X160856762Y-102735044D01*
X161002841Y-102674536D01*
X161128282Y-102578282D01*
X161224536Y-102452841D01*
X161285044Y-102306762D01*
X161305682Y-102150000D01*
X161285044Y-101993238D01*
X161224536Y-101847159D01*
X161128282Y-101721718D01*
X161002841Y-101625464D01*
X160856762Y-101564956D01*
X160856760Y-101564955D01*
X160700001Y-101544318D01*
X160699999Y-101544318D01*
X160543239Y-101564955D01*
X160543237Y-101564956D01*
X160397160Y-101625463D01*
X160271718Y-101721718D01*
X160175463Y-101847160D01*
X160114956Y-101993237D01*
X160114955Y-101993239D01*
X160094318Y-102149998D01*
X98040500Y-102149998D01*
X98040500Y-101349998D01*
X102094318Y-101349998D01*
X102094318Y-101350001D01*
X102114955Y-101506760D01*
X102114956Y-101506762D01*
X102175464Y-101652841D01*
X102271718Y-101778282D01*
X102397159Y-101874536D01*
X102543238Y-101935044D01*
X102621619Y-101945363D01*
X102699999Y-101955682D01*
X102700000Y-101955682D01*
X102700001Y-101955682D01*
X102752254Y-101948802D01*
X102856762Y-101935044D01*
X103002841Y-101874536D01*
X103128282Y-101778282D01*
X103224536Y-101652841D01*
X103285044Y-101506762D01*
X103305682Y-101350000D01*
X103285044Y-101193238D01*
X103224536Y-101047159D01*
X103128282Y-100921718D01*
X103002841Y-100825464D01*
X102856762Y-100764956D01*
X102856760Y-100764955D01*
X102700001Y-100744318D01*
X102699999Y-100744318D01*
X102543239Y-100764955D01*
X102543237Y-100764956D01*
X102397160Y-100825463D01*
X102271718Y-100921718D01*
X102175463Y-101047160D01*
X102114956Y-101193237D01*
X102114955Y-101193239D01*
X102094318Y-101349998D01*
X98040500Y-101349998D01*
X98040500Y-99499998D01*
X171944318Y-99499998D01*
X171944318Y-99500001D01*
X171964955Y-99656760D01*
X171964956Y-99656762D01*
X172025464Y-99802841D01*
X172121718Y-99928282D01*
X172247159Y-100024536D01*
X172393238Y-100085044D01*
X172471619Y-100095363D01*
X172549999Y-100105682D01*
X172550000Y-100105682D01*
X172550001Y-100105682D01*
X172602254Y-100098802D01*
X172706762Y-100085044D01*
X172852841Y-100024536D01*
X172978282Y-99928282D01*
X173074536Y-99802841D01*
X173135044Y-99656762D01*
X173155682Y-99500000D01*
X173135044Y-99343238D01*
X173074536Y-99197159D01*
X172978282Y-99071718D01*
X172852841Y-98975464D01*
X172706762Y-98914956D01*
X172706760Y-98914955D01*
X172550001Y-98894318D01*
X172549999Y-98894318D01*
X172393239Y-98914955D01*
X172393237Y-98914956D01*
X172247160Y-98975463D01*
X172121718Y-99071718D01*
X172025463Y-99197160D01*
X171964956Y-99343237D01*
X171964955Y-99343239D01*
X171944318Y-99499998D01*
X98040500Y-99499998D01*
X98040500Y-95039999D01*
X131334750Y-95039999D01*
X131334750Y-95040000D01*
X131353670Y-95183708D01*
X131353671Y-95183712D01*
X131409137Y-95317622D01*
X131409138Y-95317624D01*
X131409139Y-95317625D01*
X131497379Y-95432621D01*
X131612375Y-95520861D01*
X131746291Y-95576330D01*
X131873280Y-95593048D01*
X131889999Y-95595250D01*
X131890000Y-95595250D01*
X131890001Y-95595250D01*
X131904977Y-95593278D01*
X132033709Y-95576330D01*
X132167625Y-95520861D01*
X132282621Y-95432621D01*
X132370861Y-95317625D01*
X132426330Y-95183709D01*
X132437351Y-95099999D01*
X162344750Y-95099999D01*
X162344750Y-95100000D01*
X162363670Y-95243708D01*
X162363671Y-95243712D01*
X162419137Y-95377622D01*
X162419138Y-95377624D01*
X162419139Y-95377625D01*
X162507379Y-95492621D01*
X162622375Y-95580861D01*
X162756291Y-95636330D01*
X162882788Y-95652984D01*
X162899999Y-95655250D01*
X162900000Y-95655250D01*
X162900001Y-95655250D01*
X162917212Y-95652984D01*
X163043709Y-95636330D01*
X163177625Y-95580861D01*
X163292621Y-95492621D01*
X163380861Y-95377625D01*
X163436330Y-95243709D01*
X163453057Y-95116655D01*
X174345804Y-95116655D01*
X174345804Y-95116656D01*
X174364724Y-95260364D01*
X174364725Y-95260368D01*
X174420191Y-95394278D01*
X174420192Y-95394280D01*
X174420193Y-95394281D01*
X174508433Y-95509277D01*
X174623429Y-95597517D01*
X174757345Y-95652986D01*
X174884334Y-95669704D01*
X174901053Y-95671906D01*
X174901054Y-95671906D01*
X174901055Y-95671906D01*
X174916031Y-95669934D01*
X175044763Y-95652986D01*
X175178679Y-95597517D01*
X175293675Y-95509277D01*
X175381915Y-95394281D01*
X175437384Y-95260365D01*
X175456304Y-95116656D01*
X175437384Y-94972947D01*
X175381915Y-94839031D01*
X175293675Y-94724035D01*
X175178679Y-94635795D01*
X175178678Y-94635794D01*
X175178676Y-94635793D01*
X175044766Y-94580327D01*
X175044764Y-94580326D01*
X175044763Y-94580326D01*
X174972908Y-94570866D01*
X174901055Y-94561406D01*
X174901053Y-94561406D01*
X174757345Y-94580326D01*
X174757341Y-94580327D01*
X174623431Y-94635793D01*
X174508433Y-94724035D01*
X174420191Y-94839033D01*
X174364725Y-94972943D01*
X174364724Y-94972947D01*
X174345804Y-95116655D01*
X163453057Y-95116655D01*
X163455250Y-95100000D01*
X163436330Y-94956291D01*
X163380861Y-94822375D01*
X163292621Y-94707379D01*
X163177625Y-94619139D01*
X163177624Y-94619138D01*
X163177622Y-94619137D01*
X163043712Y-94563671D01*
X163043710Y-94563670D01*
X163043709Y-94563670D01*
X162971854Y-94554210D01*
X162900001Y-94544750D01*
X162899999Y-94544750D01*
X162756291Y-94563670D01*
X162756287Y-94563671D01*
X162622377Y-94619137D01*
X162507379Y-94707379D01*
X162419137Y-94822377D01*
X162363671Y-94956287D01*
X162363670Y-94956291D01*
X162344750Y-95099999D01*
X132437351Y-95099999D01*
X132445250Y-95040000D01*
X132426330Y-94896291D01*
X132370861Y-94762375D01*
X132282621Y-94647379D01*
X132167625Y-94559139D01*
X132167624Y-94559138D01*
X132167622Y-94559137D01*
X132033712Y-94503671D01*
X132033710Y-94503670D01*
X132033709Y-94503670D01*
X131961854Y-94494210D01*
X131890001Y-94484750D01*
X131889999Y-94484750D01*
X131746291Y-94503670D01*
X131746287Y-94503671D01*
X131612377Y-94559137D01*
X131497379Y-94647379D01*
X131409137Y-94762377D01*
X131353671Y-94896287D01*
X131353670Y-94896291D01*
X131334750Y-95039999D01*
X98040500Y-95039999D01*
X98040500Y-90399999D01*
X126644750Y-90399999D01*
X126644750Y-90400000D01*
X126663670Y-90543708D01*
X126663671Y-90543712D01*
X126719137Y-90677622D01*
X126719138Y-90677624D01*
X126719139Y-90677625D01*
X126807379Y-90792621D01*
X126922375Y-90880861D01*
X127056291Y-90936330D01*
X127183280Y-90953048D01*
X127199999Y-90955250D01*
X127200000Y-90955250D01*
X127200001Y-90955250D01*
X127214977Y-90953278D01*
X127343709Y-90936330D01*
X127477625Y-90880861D01*
X127592621Y-90792621D01*
X127680861Y-90677625D01*
X127736330Y-90543709D01*
X127755250Y-90400000D01*
X127736330Y-90256291D01*
X127680861Y-90122375D01*
X127592621Y-90007379D01*
X127477625Y-89919139D01*
X127477624Y-89919138D01*
X127477622Y-89919137D01*
X127343712Y-89863671D01*
X127343710Y-89863670D01*
X127343709Y-89863670D01*
X127271854Y-89854210D01*
X127200001Y-89844750D01*
X127199999Y-89844750D01*
X127056291Y-89863670D01*
X127056287Y-89863671D01*
X126922377Y-89919137D01*
X126807379Y-90007379D01*
X126719137Y-90122377D01*
X126663671Y-90256287D01*
X126663670Y-90256291D01*
X126644750Y-90399999D01*
X98040500Y-90399999D01*
X98040500Y-89499998D01*
X149394318Y-89499998D01*
X149394318Y-89500001D01*
X149414955Y-89656760D01*
X149414956Y-89656762D01*
X149475464Y-89802841D01*
X149571718Y-89928282D01*
X149697159Y-90024536D01*
X149843238Y-90085044D01*
X149921619Y-90095363D01*
X149999999Y-90105682D01*
X150000000Y-90105682D01*
X150000001Y-90105682D01*
X150052254Y-90098802D01*
X150156762Y-90085044D01*
X150302841Y-90024536D01*
X150424515Y-89931171D01*
X150489683Y-89905979D01*
X150558127Y-89920017D01*
X150575478Y-89931167D01*
X150697159Y-90024536D01*
X150843238Y-90085044D01*
X150921619Y-90095363D01*
X150999999Y-90105682D01*
X151000000Y-90105682D01*
X151000001Y-90105682D01*
X151052254Y-90098802D01*
X151156762Y-90085044D01*
X151302841Y-90024536D01*
X151428282Y-89928282D01*
X151524536Y-89802841D01*
X151585044Y-89656762D01*
X151605682Y-89500000D01*
X151585044Y-89343238D01*
X151524536Y-89197159D01*
X151428282Y-89071718D01*
X151302841Y-88975464D01*
X151156762Y-88914956D01*
X151156760Y-88914955D01*
X151000001Y-88894318D01*
X150999999Y-88894318D01*
X150843239Y-88914955D01*
X150843237Y-88914956D01*
X150697157Y-88975464D01*
X150575486Y-89068826D01*
X150510317Y-89094020D01*
X150441872Y-89079981D01*
X150424514Y-89068826D01*
X150302842Y-88975464D01*
X150156762Y-88914956D01*
X150156760Y-88914955D01*
X150000001Y-88894318D01*
X149999999Y-88894318D01*
X149843239Y-88914955D01*
X149843237Y-88914956D01*
X149697160Y-88975463D01*
X149571718Y-89071718D01*
X149475463Y-89197160D01*
X149414956Y-89343237D01*
X149414955Y-89343239D01*
X149394318Y-89499998D01*
X98040500Y-89499998D01*
X98040500Y-88715000D01*
X180794750Y-88715000D01*
X180805112Y-88793709D01*
X180813670Y-88858708D01*
X180813671Y-88858712D01*
X180869137Y-88992622D01*
X180869138Y-88992624D01*
X180869139Y-88992625D01*
X180957379Y-89107621D01*
X181072375Y-89195861D01*
X181072376Y-89195861D01*
X181072377Y-89195862D01*
X181075511Y-89197160D01*
X181206291Y-89251330D01*
X181333280Y-89268048D01*
X181349999Y-89270250D01*
X181350000Y-89270250D01*
X181350001Y-89270250D01*
X181364977Y-89268278D01*
X181493709Y-89251330D01*
X181627625Y-89195861D01*
X181742621Y-89107621D01*
X181830861Y-88992625D01*
X181886330Y-88858709D01*
X181905250Y-88715000D01*
X181896692Y-88649999D01*
X183244750Y-88649999D01*
X183244750Y-88650000D01*
X183263670Y-88793708D01*
X183263671Y-88793712D01*
X183319137Y-88927622D01*
X183319138Y-88927624D01*
X183319139Y-88927625D01*
X183407379Y-89042621D01*
X183522375Y-89130861D01*
X183656291Y-89186330D01*
X183783280Y-89203048D01*
X183799999Y-89205250D01*
X183800000Y-89205250D01*
X183800001Y-89205250D01*
X183814977Y-89203278D01*
X183943709Y-89186330D01*
X184077625Y-89130861D01*
X184192621Y-89042621D01*
X184280861Y-88927625D01*
X184336330Y-88793709D01*
X184348667Y-88699999D01*
X185894750Y-88699999D01*
X185894750Y-88700000D01*
X185913670Y-88843708D01*
X185913671Y-88843712D01*
X185969137Y-88977622D01*
X185969138Y-88977624D01*
X185969139Y-88977625D01*
X186057379Y-89092621D01*
X186172375Y-89180861D01*
X186172376Y-89180861D01*
X186172377Y-89180862D01*
X186208589Y-89195861D01*
X186306291Y-89236330D01*
X186433280Y-89253048D01*
X186449999Y-89255250D01*
X186450000Y-89255250D01*
X186450001Y-89255250D01*
X186464977Y-89253278D01*
X186593709Y-89236330D01*
X186727625Y-89180861D01*
X186842621Y-89092621D01*
X186930861Y-88977625D01*
X186986330Y-88843709D01*
X187005250Y-88700000D01*
X187005250Y-88699999D01*
X190084750Y-88699999D01*
X190084750Y-88700000D01*
X190103670Y-88843708D01*
X190103671Y-88843712D01*
X190159137Y-88977622D01*
X190159138Y-88977624D01*
X190159139Y-88977625D01*
X190247379Y-89092621D01*
X190362375Y-89180861D01*
X190362376Y-89180861D01*
X190362377Y-89180862D01*
X190398589Y-89195861D01*
X190496291Y-89236330D01*
X190623280Y-89253048D01*
X190639999Y-89255250D01*
X190640000Y-89255250D01*
X190640001Y-89255250D01*
X190654977Y-89253278D01*
X190783709Y-89236330D01*
X190917625Y-89180861D01*
X191032621Y-89092621D01*
X191120861Y-88977625D01*
X191176330Y-88843709D01*
X191195250Y-88700000D01*
X191176330Y-88556291D01*
X191120861Y-88422375D01*
X191032621Y-88307379D01*
X190917625Y-88219139D01*
X190917624Y-88219138D01*
X190917622Y-88219137D01*
X190783712Y-88163671D01*
X190783710Y-88163670D01*
X190783709Y-88163670D01*
X190711854Y-88154210D01*
X190640001Y-88144750D01*
X190639999Y-88144750D01*
X190496291Y-88163670D01*
X190496287Y-88163671D01*
X190362377Y-88219137D01*
X190247379Y-88307379D01*
X190159137Y-88422377D01*
X190103671Y-88556287D01*
X190103670Y-88556291D01*
X190084750Y-88699999D01*
X187005250Y-88699999D01*
X186986330Y-88556291D01*
X186930861Y-88422375D01*
X186842621Y-88307379D01*
X186727625Y-88219139D01*
X186727624Y-88219138D01*
X186727622Y-88219137D01*
X186593712Y-88163671D01*
X186593710Y-88163670D01*
X186593709Y-88163670D01*
X186521854Y-88154210D01*
X186450001Y-88144750D01*
X186449999Y-88144750D01*
X186306291Y-88163670D01*
X186306287Y-88163671D01*
X186172377Y-88219137D01*
X186057379Y-88307379D01*
X185969137Y-88422377D01*
X185913671Y-88556287D01*
X185913670Y-88556291D01*
X185894750Y-88699999D01*
X184348667Y-88699999D01*
X184355250Y-88650000D01*
X184336330Y-88506291D01*
X184280861Y-88372375D01*
X184192621Y-88257379D01*
X184077625Y-88169139D01*
X184077624Y-88169138D01*
X184077622Y-88169137D01*
X183943712Y-88113671D01*
X183943710Y-88113670D01*
X183943709Y-88113670D01*
X183871854Y-88104210D01*
X183800001Y-88094750D01*
X183799999Y-88094750D01*
X183656291Y-88113670D01*
X183656287Y-88113671D01*
X183522377Y-88169137D01*
X183407379Y-88257379D01*
X183319137Y-88372377D01*
X183263671Y-88506287D01*
X183263670Y-88506291D01*
X183244750Y-88649999D01*
X181896692Y-88649999D01*
X181886330Y-88571291D01*
X181830861Y-88437375D01*
X181742621Y-88322379D01*
X181627625Y-88234139D01*
X181627624Y-88234138D01*
X181627622Y-88234137D01*
X181493712Y-88178671D01*
X181493710Y-88178670D01*
X181493709Y-88178670D01*
X181421300Y-88169137D01*
X181350001Y-88159750D01*
X181349999Y-88159750D01*
X181206291Y-88178670D01*
X181206287Y-88178671D01*
X181072377Y-88234137D01*
X180957379Y-88322379D01*
X180869137Y-88437377D01*
X180813671Y-88571287D01*
X180813670Y-88571291D01*
X180803308Y-88650000D01*
X180794750Y-88715000D01*
X98040500Y-88715000D01*
X98040500Y-87749999D01*
X129644750Y-87749999D01*
X129644750Y-87750000D01*
X129663670Y-87893708D01*
X129663671Y-87893712D01*
X129719137Y-88027622D01*
X129719138Y-88027624D01*
X129719139Y-88027625D01*
X129807379Y-88142621D01*
X129922375Y-88230861D01*
X130056291Y-88286330D01*
X130183280Y-88303048D01*
X130199999Y-88305250D01*
X130200000Y-88305250D01*
X130200001Y-88305250D01*
X130214977Y-88303278D01*
X130343709Y-88286330D01*
X130477625Y-88230861D01*
X130592621Y-88142621D01*
X130680861Y-88027625D01*
X130692304Y-87999999D01*
X169894750Y-87999999D01*
X169894750Y-88000000D01*
X169913670Y-88143708D01*
X169913671Y-88143712D01*
X169969137Y-88277622D01*
X169969138Y-88277624D01*
X169969139Y-88277625D01*
X170057379Y-88392621D01*
X170172375Y-88480861D01*
X170306291Y-88536330D01*
X170433280Y-88553048D01*
X170449999Y-88555250D01*
X170450000Y-88555250D01*
X170450001Y-88555250D01*
X170464977Y-88553278D01*
X170593709Y-88536330D01*
X170727625Y-88480861D01*
X170842621Y-88392621D01*
X170930861Y-88277625D01*
X170986330Y-88143709D01*
X171005250Y-88000000D01*
X170986330Y-87856291D01*
X170949350Y-87767013D01*
X170930862Y-87722377D01*
X170930861Y-87722376D01*
X170930861Y-87722375D01*
X170842621Y-87607379D01*
X170727625Y-87519139D01*
X170727624Y-87519138D01*
X170727622Y-87519137D01*
X170593712Y-87463671D01*
X170593710Y-87463670D01*
X170593709Y-87463670D01*
X170521854Y-87454210D01*
X170450001Y-87444750D01*
X170449999Y-87444750D01*
X170306291Y-87463670D01*
X170306287Y-87463671D01*
X170172377Y-87519137D01*
X170057379Y-87607379D01*
X169969137Y-87722377D01*
X169913671Y-87856287D01*
X169913670Y-87856291D01*
X169894750Y-87999999D01*
X130692304Y-87999999D01*
X130736330Y-87893709D01*
X130755250Y-87750000D01*
X130736330Y-87606291D01*
X130699350Y-87517013D01*
X130680862Y-87472377D01*
X130680861Y-87472376D01*
X130680861Y-87472375D01*
X130592621Y-87357379D01*
X130477625Y-87269139D01*
X130477624Y-87269138D01*
X130477622Y-87269137D01*
X130343712Y-87213671D01*
X130343710Y-87213670D01*
X130343709Y-87213670D01*
X130271854Y-87204210D01*
X130200001Y-87194750D01*
X130199999Y-87194750D01*
X130056291Y-87213670D01*
X130056287Y-87213671D01*
X129922377Y-87269137D01*
X129807379Y-87357379D01*
X129719137Y-87472377D01*
X129663671Y-87606287D01*
X129663670Y-87606291D01*
X129644750Y-87749999D01*
X98040500Y-87749999D01*
X98040500Y-87009999D01*
X170964750Y-87009999D01*
X170964750Y-87010000D01*
X170983670Y-87153708D01*
X170983671Y-87153712D01*
X171039137Y-87287622D01*
X171039138Y-87287624D01*
X171039139Y-87287625D01*
X171127379Y-87402621D01*
X171242375Y-87490861D01*
X171376291Y-87546330D01*
X171503280Y-87563048D01*
X171519999Y-87565250D01*
X171520000Y-87565250D01*
X171520001Y-87565250D01*
X171534977Y-87563278D01*
X171663709Y-87546330D01*
X171797625Y-87490861D01*
X171912621Y-87402621D01*
X172000861Y-87287625D01*
X172056330Y-87153709D01*
X172075250Y-87010000D01*
X172056330Y-86866291D01*
X172000861Y-86732375D01*
X171912621Y-86617379D01*
X171797625Y-86529139D01*
X171797624Y-86529138D01*
X171797622Y-86529137D01*
X171663712Y-86473671D01*
X171663710Y-86473670D01*
X171663709Y-86473670D01*
X171591854Y-86464210D01*
X171520001Y-86454750D01*
X171519999Y-86454750D01*
X171376291Y-86473670D01*
X171376287Y-86473671D01*
X171242377Y-86529137D01*
X171127379Y-86617379D01*
X171039137Y-86732377D01*
X170983671Y-86866287D01*
X170983670Y-86866291D01*
X170964750Y-87009999D01*
X98040500Y-87009999D01*
X98040500Y-85049998D01*
X120644318Y-85049998D01*
X120644318Y-85050001D01*
X120664955Y-85206760D01*
X120664956Y-85206762D01*
X120725464Y-85352841D01*
X120821718Y-85478282D01*
X120947159Y-85574536D01*
X121093238Y-85635044D01*
X121171619Y-85645363D01*
X121249999Y-85655682D01*
X121250000Y-85655682D01*
X121250001Y-85655682D01*
X121302254Y-85648802D01*
X121406762Y-85635044D01*
X121552841Y-85574536D01*
X121678282Y-85478282D01*
X121774536Y-85352841D01*
X121835044Y-85206762D01*
X121855682Y-85050000D01*
X121849099Y-85000000D01*
X121849099Y-84999998D01*
X144394318Y-84999998D01*
X144394318Y-85000001D01*
X144414955Y-85156760D01*
X144414956Y-85156762D01*
X144475464Y-85302841D01*
X144571718Y-85428282D01*
X144697159Y-85524536D01*
X144843238Y-85585044D01*
X144921619Y-85595363D01*
X144999999Y-85605682D01*
X145000000Y-85605682D01*
X145000001Y-85605682D01*
X145052254Y-85598802D01*
X145156762Y-85585044D01*
X145302841Y-85524536D01*
X145428282Y-85428282D01*
X145524536Y-85302841D01*
X145585044Y-85156762D01*
X145605682Y-85000000D01*
X158444750Y-85000000D01*
X158451332Y-85049998D01*
X158463670Y-85143708D01*
X158463671Y-85143712D01*
X158519137Y-85277622D01*
X158519138Y-85277624D01*
X158519139Y-85277625D01*
X158607379Y-85392621D01*
X158722375Y-85480861D01*
X158856291Y-85536330D01*
X158983280Y-85553048D01*
X158999999Y-85555250D01*
X159000000Y-85555250D01*
X159000001Y-85555250D01*
X159014977Y-85553278D01*
X159143709Y-85536330D01*
X159277625Y-85480861D01*
X159346653Y-85427894D01*
X170897083Y-85427894D01*
X170904056Y-85480862D01*
X170916003Y-85571602D01*
X170916004Y-85571606D01*
X170971470Y-85705516D01*
X170971471Y-85705518D01*
X170971472Y-85705519D01*
X171059712Y-85820515D01*
X171174708Y-85908755D01*
X171308624Y-85964224D01*
X171435613Y-85980942D01*
X171452332Y-85983144D01*
X171452333Y-85983144D01*
X171452334Y-85983144D01*
X171467310Y-85981172D01*
X171596042Y-85964224D01*
X171729958Y-85908755D01*
X171844954Y-85820515D01*
X171933194Y-85705519D01*
X171988663Y-85571603D01*
X172007583Y-85427894D01*
X171988663Y-85284185D01*
X171951683Y-85194907D01*
X171933195Y-85150271D01*
X171933194Y-85150270D01*
X171933194Y-85150269D01*
X171844954Y-85035273D01*
X171729958Y-84947033D01*
X171729957Y-84947032D01*
X171729955Y-84947031D01*
X171596045Y-84891565D01*
X171596043Y-84891564D01*
X171596042Y-84891564D01*
X171524187Y-84882104D01*
X171452334Y-84872644D01*
X171452332Y-84872644D01*
X171308624Y-84891564D01*
X171308620Y-84891565D01*
X171174710Y-84947031D01*
X171059712Y-85035273D01*
X170971470Y-85150271D01*
X170916004Y-85284181D01*
X170916003Y-85284185D01*
X170897083Y-85427894D01*
X159346653Y-85427894D01*
X159392621Y-85392621D01*
X159480861Y-85277625D01*
X159536330Y-85143709D01*
X159555250Y-85000000D01*
X159536330Y-84856291D01*
X159480861Y-84722375D01*
X159392621Y-84607379D01*
X159277625Y-84519139D01*
X159277624Y-84519138D01*
X159277622Y-84519137D01*
X159143712Y-84463671D01*
X159143710Y-84463670D01*
X159143709Y-84463670D01*
X159071854Y-84454210D01*
X159000001Y-84444750D01*
X158999999Y-84444750D01*
X158856291Y-84463670D01*
X158856287Y-84463671D01*
X158722377Y-84519137D01*
X158607379Y-84607379D01*
X158519137Y-84722377D01*
X158463671Y-84856287D01*
X158463670Y-84856291D01*
X158444750Y-85000000D01*
X145605682Y-85000000D01*
X145585044Y-84843238D01*
X145524536Y-84697159D01*
X145428282Y-84571718D01*
X145302841Y-84475464D01*
X145277472Y-84464956D01*
X145156762Y-84414956D01*
X145156760Y-84414955D01*
X145000001Y-84394318D01*
X144999999Y-84394318D01*
X144843239Y-84414955D01*
X144843237Y-84414956D01*
X144697160Y-84475463D01*
X144571718Y-84571718D01*
X144475463Y-84697160D01*
X144414956Y-84843237D01*
X144414955Y-84843239D01*
X144394318Y-84999998D01*
X121849099Y-84999998D01*
X121835044Y-84893239D01*
X121835044Y-84893238D01*
X121774536Y-84747159D01*
X121678282Y-84621718D01*
X121552841Y-84525464D01*
X121537566Y-84519137D01*
X121406762Y-84464956D01*
X121406760Y-84464955D01*
X121250001Y-84444318D01*
X121249999Y-84444318D01*
X121093239Y-84464955D01*
X121093237Y-84464956D01*
X120947160Y-84525463D01*
X120821718Y-84621718D01*
X120725463Y-84747160D01*
X120664956Y-84893237D01*
X120664955Y-84893239D01*
X120644318Y-85049998D01*
X98040500Y-85049998D01*
X98040500Y-81119999D01*
X140224750Y-81119999D01*
X140224750Y-81120000D01*
X140243670Y-81263708D01*
X140243671Y-81263712D01*
X140299137Y-81397622D01*
X140299138Y-81397624D01*
X140299139Y-81397625D01*
X140387379Y-81512621D01*
X140502375Y-81600861D01*
X140636291Y-81656330D01*
X140763280Y-81673048D01*
X140779999Y-81675250D01*
X140780000Y-81675250D01*
X140780001Y-81675250D01*
X140794977Y-81673278D01*
X140923709Y-81656330D01*
X141057625Y-81600861D01*
X141172621Y-81512621D01*
X141260861Y-81397625D01*
X141316330Y-81263709D01*
X141335250Y-81120000D01*
X141331300Y-81089998D01*
X147794318Y-81089998D01*
X147794318Y-81090001D01*
X147814955Y-81246760D01*
X147814956Y-81246762D01*
X147875464Y-81392841D01*
X147971718Y-81518282D01*
X148097159Y-81614536D01*
X148243238Y-81675044D01*
X148321619Y-81685363D01*
X148399999Y-81695682D01*
X148400000Y-81695682D01*
X148400001Y-81695682D01*
X148452254Y-81688802D01*
X148556762Y-81675044D01*
X148702841Y-81614536D01*
X148828282Y-81518282D01*
X148924536Y-81392841D01*
X148985044Y-81246762D01*
X148997076Y-81155362D01*
X157624346Y-81155362D01*
X157638610Y-81263709D01*
X157643266Y-81299070D01*
X157643267Y-81299074D01*
X157698733Y-81432984D01*
X157698734Y-81432986D01*
X157698735Y-81432987D01*
X157786975Y-81547983D01*
X157901971Y-81636223D01*
X158035887Y-81691692D01*
X158162876Y-81708410D01*
X158179595Y-81710612D01*
X158179596Y-81710612D01*
X158179597Y-81710612D01*
X158194573Y-81708640D01*
X158323305Y-81691692D01*
X158457221Y-81636223D01*
X158572217Y-81547983D01*
X158660457Y-81432987D01*
X158715926Y-81299071D01*
X158734846Y-81155362D01*
X158715926Y-81011653D01*
X158660457Y-80877737D01*
X158572217Y-80762741D01*
X158457221Y-80674501D01*
X158457220Y-80674500D01*
X158457218Y-80674499D01*
X158323308Y-80619033D01*
X158323306Y-80619032D01*
X158323305Y-80619032D01*
X158251450Y-80609572D01*
X158179597Y-80600112D01*
X158179595Y-80600112D01*
X158035887Y-80619032D01*
X158035883Y-80619033D01*
X157901973Y-80674499D01*
X157786975Y-80762741D01*
X157698733Y-80877739D01*
X157643267Y-81011649D01*
X157643266Y-81011653D01*
X157629002Y-81120000D01*
X157624346Y-81155362D01*
X148997076Y-81155362D01*
X148998802Y-81142254D01*
X149005682Y-81090001D01*
X149005682Y-81089998D01*
X148985044Y-80933239D01*
X148985044Y-80933238D01*
X148924536Y-80787159D01*
X148828282Y-80661718D01*
X148702841Y-80565464D01*
X148701117Y-80564750D01*
X148556762Y-80504956D01*
X148556760Y-80504955D01*
X148400001Y-80484318D01*
X148399999Y-80484318D01*
X148243239Y-80504955D01*
X148243237Y-80504956D01*
X148097160Y-80565463D01*
X147971718Y-80661718D01*
X147875463Y-80787160D01*
X147814956Y-80933237D01*
X147814955Y-80933239D01*
X147794318Y-81089998D01*
X141331300Y-81089998D01*
X141316330Y-80976291D01*
X141260861Y-80842375D01*
X141172621Y-80727379D01*
X141057625Y-80639139D01*
X141057624Y-80639138D01*
X141057622Y-80639137D01*
X140923712Y-80583671D01*
X140923710Y-80583670D01*
X140923709Y-80583670D01*
X140851854Y-80574210D01*
X140780001Y-80564750D01*
X140779999Y-80564750D01*
X140636291Y-80583670D01*
X140636287Y-80583671D01*
X140502377Y-80639137D01*
X140387379Y-80727379D01*
X140299137Y-80842377D01*
X140243671Y-80976287D01*
X140243670Y-80976291D01*
X140224750Y-81119999D01*
X98040500Y-81119999D01*
X98040500Y-79499999D01*
X179694750Y-79499999D01*
X179694750Y-79500000D01*
X179713670Y-79643708D01*
X179713671Y-79643712D01*
X179769137Y-79777622D01*
X179769138Y-79777624D01*
X179769139Y-79777625D01*
X179857379Y-79892621D01*
X179972375Y-79980861D01*
X180106291Y-80036330D01*
X180233280Y-80053048D01*
X180249999Y-80055250D01*
X180250000Y-80055250D01*
X180250001Y-80055250D01*
X180264977Y-80053278D01*
X180393709Y-80036330D01*
X180527625Y-79980861D01*
X180642621Y-79892621D01*
X180730861Y-79777625D01*
X180786330Y-79643709D01*
X180805250Y-79500000D01*
X180786330Y-79356291D01*
X180730861Y-79222375D01*
X180642621Y-79107379D01*
X180527625Y-79019139D01*
X180527624Y-79019138D01*
X180527622Y-79019137D01*
X180393712Y-78963671D01*
X180393710Y-78963670D01*
X180393709Y-78963670D01*
X180321854Y-78954210D01*
X180250001Y-78944750D01*
X180249999Y-78944750D01*
X180106291Y-78963670D01*
X180106287Y-78963671D01*
X179972377Y-79019137D01*
X179857379Y-79107379D01*
X179769137Y-79222377D01*
X179713671Y-79356287D01*
X179713670Y-79356291D01*
X179694750Y-79499999D01*
X98040500Y-79499999D01*
X98040500Y-78299999D01*
X144619750Y-78299999D01*
X144619750Y-78300000D01*
X144638670Y-78443708D01*
X144638671Y-78443712D01*
X144694137Y-78577622D01*
X144694138Y-78577624D01*
X144694139Y-78577625D01*
X144782379Y-78692621D01*
X144897375Y-78780861D01*
X145031291Y-78836330D01*
X145158280Y-78853048D01*
X145174999Y-78855250D01*
X145175000Y-78855250D01*
X145175001Y-78855250D01*
X145189977Y-78853278D01*
X145318709Y-78836330D01*
X145452625Y-78780861D01*
X145567621Y-78692621D01*
X145655861Y-78577625D01*
X145711330Y-78443709D01*
X145730250Y-78300000D01*
X145711330Y-78156291D01*
X145655861Y-78022375D01*
X145567621Y-77907379D01*
X145452625Y-77819139D01*
X145452624Y-77819138D01*
X145452622Y-77819137D01*
X145318712Y-77763671D01*
X145318710Y-77763670D01*
X145318709Y-77763670D01*
X145246854Y-77754210D01*
X145175001Y-77744750D01*
X145174999Y-77744750D01*
X145031291Y-77763670D01*
X145031287Y-77763671D01*
X144897377Y-77819137D01*
X144782379Y-77907379D01*
X144694137Y-78022377D01*
X144638671Y-78156287D01*
X144638670Y-78156291D01*
X144619750Y-78299999D01*
X98040500Y-78299999D01*
X98040500Y-77299999D01*
X146769750Y-77299999D01*
X146769750Y-77300000D01*
X146788670Y-77443708D01*
X146788671Y-77443712D01*
X146844137Y-77577622D01*
X146844138Y-77577624D01*
X146844139Y-77577625D01*
X146932379Y-77692621D01*
X147047375Y-77780861D01*
X147047376Y-77780861D01*
X147047377Y-77780862D01*
X147063705Y-77787625D01*
X147181291Y-77836330D01*
X147308280Y-77853048D01*
X147324999Y-77855250D01*
X147325000Y-77855250D01*
X147325001Y-77855250D01*
X147339977Y-77853278D01*
X147440840Y-77839999D01*
X158544750Y-77839999D01*
X158544750Y-77840000D01*
X158563670Y-77983708D01*
X158563671Y-77983712D01*
X158619137Y-78117622D01*
X158619138Y-78117624D01*
X158619139Y-78117625D01*
X158707379Y-78232621D01*
X158822375Y-78320861D01*
X158956291Y-78376330D01*
X159083280Y-78393048D01*
X159099999Y-78395250D01*
X159100000Y-78395250D01*
X159100001Y-78395250D01*
X159114977Y-78393278D01*
X159243709Y-78376330D01*
X159377625Y-78320861D01*
X159492621Y-78232621D01*
X159580861Y-78117625D01*
X159636330Y-77983709D01*
X159655250Y-77840000D01*
X159636330Y-77696291D01*
X159587178Y-77577625D01*
X159580862Y-77562377D01*
X159580861Y-77562376D01*
X159580861Y-77562375D01*
X159540671Y-77509999D01*
X176124750Y-77509999D01*
X176124750Y-77510000D01*
X176143670Y-77653708D01*
X176143671Y-77653712D01*
X176199137Y-77787622D01*
X176199138Y-77787624D01*
X176199139Y-77787625D01*
X176287379Y-77902621D01*
X176402375Y-77990861D01*
X176536291Y-78046330D01*
X176663280Y-78063048D01*
X176679999Y-78065250D01*
X176680000Y-78065250D01*
X176680001Y-78065250D01*
X176694977Y-78063278D01*
X176823709Y-78046330D01*
X176957625Y-77990861D01*
X177072621Y-77902621D01*
X177160861Y-77787625D01*
X177216330Y-77653709D01*
X177235250Y-77510000D01*
X177216330Y-77366291D01*
X177160861Y-77232375D01*
X177072621Y-77117379D01*
X176957625Y-77029139D01*
X176957624Y-77029138D01*
X176957622Y-77029137D01*
X176823712Y-76973671D01*
X176823710Y-76973670D01*
X176823709Y-76973670D01*
X176751854Y-76964210D01*
X176680001Y-76954750D01*
X176679999Y-76954750D01*
X176536291Y-76973670D01*
X176536287Y-76973671D01*
X176402377Y-77029137D01*
X176287379Y-77117379D01*
X176199137Y-77232377D01*
X176143671Y-77366287D01*
X176143670Y-77366291D01*
X176124750Y-77509999D01*
X159540671Y-77509999D01*
X159492621Y-77447379D01*
X159377625Y-77359139D01*
X159377624Y-77359138D01*
X159377622Y-77359137D01*
X159243712Y-77303671D01*
X159243710Y-77303670D01*
X159243709Y-77303670D01*
X159171854Y-77294210D01*
X159100001Y-77284750D01*
X159099999Y-77284750D01*
X158956291Y-77303670D01*
X158956287Y-77303671D01*
X158822377Y-77359137D01*
X158707379Y-77447379D01*
X158619137Y-77562377D01*
X158563671Y-77696287D01*
X158563670Y-77696291D01*
X158544750Y-77839999D01*
X147440840Y-77839999D01*
X147468709Y-77836330D01*
X147602625Y-77780861D01*
X147717621Y-77692621D01*
X147805861Y-77577625D01*
X147861330Y-77443709D01*
X147880250Y-77300000D01*
X147861330Y-77156291D01*
X147805861Y-77022375D01*
X147717621Y-76907379D01*
X147602625Y-76819139D01*
X147602624Y-76819138D01*
X147602622Y-76819137D01*
X147468712Y-76763671D01*
X147468710Y-76763670D01*
X147468709Y-76763670D01*
X147396854Y-76754210D01*
X147325001Y-76744750D01*
X147324999Y-76744750D01*
X147181291Y-76763670D01*
X147181287Y-76763671D01*
X147047377Y-76819137D01*
X146932379Y-76907379D01*
X146844137Y-77022377D01*
X146788671Y-77156287D01*
X146788670Y-77156291D01*
X146769750Y-77299999D01*
X98040500Y-77299999D01*
X98040500Y-74599999D01*
X131314750Y-74599999D01*
X131314750Y-74600000D01*
X131333670Y-74743708D01*
X131333671Y-74743712D01*
X131389137Y-74877622D01*
X131389138Y-74877624D01*
X131389139Y-74877625D01*
X131477379Y-74992621D01*
X131592375Y-75080861D01*
X131726291Y-75136330D01*
X131853280Y-75153048D01*
X131869999Y-75155250D01*
X131870000Y-75155250D01*
X131870001Y-75155250D01*
X131884977Y-75153278D01*
X132013709Y-75136330D01*
X132147625Y-75080861D01*
X132155264Y-75074999D01*
X135819750Y-75074999D01*
X135819750Y-75075000D01*
X135838670Y-75218708D01*
X135838671Y-75218712D01*
X135894137Y-75352622D01*
X135894138Y-75352624D01*
X135894139Y-75352625D01*
X135982379Y-75467621D01*
X136097375Y-75555861D01*
X136231291Y-75611330D01*
X136358280Y-75628048D01*
X136374999Y-75630250D01*
X136375000Y-75630250D01*
X136375001Y-75630250D01*
X136389977Y-75628278D01*
X136518709Y-75611330D01*
X136652625Y-75555861D01*
X136767621Y-75467621D01*
X136855861Y-75352625D01*
X136911330Y-75218709D01*
X136930250Y-75075000D01*
X136911330Y-74931291D01*
X136868841Y-74828711D01*
X189289500Y-74828711D01*
X189289500Y-75071288D01*
X189321161Y-75311785D01*
X189383947Y-75546104D01*
X189410965Y-75611330D01*
X189476776Y-75770212D01*
X189598064Y-75980289D01*
X189598066Y-75980292D01*
X189598067Y-75980293D01*
X189745733Y-76172736D01*
X189745739Y-76172743D01*
X189917256Y-76344260D01*
X189917262Y-76344265D01*
X190109711Y-76491936D01*
X190319788Y-76613224D01*
X190543900Y-76706054D01*
X190778211Y-76768838D01*
X190958586Y-76792584D01*
X191018711Y-76800500D01*
X191018712Y-76800500D01*
X191261289Y-76800500D01*
X191309388Y-76794167D01*
X191501789Y-76768838D01*
X191736100Y-76706054D01*
X191960212Y-76613224D01*
X192170289Y-76491936D01*
X192362738Y-76344265D01*
X192534265Y-76172738D01*
X192681936Y-75980289D01*
X192803224Y-75770212D01*
X192896054Y-75546100D01*
X192958838Y-75311789D01*
X192990500Y-75071288D01*
X192990500Y-74828712D01*
X192986374Y-74797375D01*
X192958838Y-74588214D01*
X192958838Y-74588211D01*
X192896054Y-74353900D01*
X192803224Y-74129788D01*
X192681936Y-73919711D01*
X192534265Y-73727262D01*
X192534260Y-73727256D01*
X192362743Y-73555739D01*
X192362736Y-73555733D01*
X192170293Y-73408067D01*
X192170292Y-73408066D01*
X192170289Y-73408064D01*
X191960212Y-73286776D01*
X191955321Y-73284750D01*
X191736104Y-73193947D01*
X191501785Y-73131161D01*
X191261289Y-73099500D01*
X191261288Y-73099500D01*
X191018712Y-73099500D01*
X191018711Y-73099500D01*
X190778214Y-73131161D01*
X190543895Y-73193947D01*
X190319794Y-73286773D01*
X190319785Y-73286777D01*
X190109706Y-73408067D01*
X189917263Y-73555733D01*
X189917256Y-73555739D01*
X189745739Y-73727256D01*
X189745733Y-73727263D01*
X189598067Y-73919706D01*
X189476777Y-74129785D01*
X189476773Y-74129794D01*
X189383947Y-74353895D01*
X189321161Y-74588214D01*
X189289500Y-74828711D01*
X136868841Y-74828711D01*
X136855861Y-74797375D01*
X136767621Y-74682379D01*
X136652625Y-74594139D01*
X136652624Y-74594138D01*
X136652622Y-74594137D01*
X136518712Y-74538671D01*
X136518710Y-74538670D01*
X136518709Y-74538670D01*
X136446854Y-74529210D01*
X136375001Y-74519750D01*
X136374999Y-74519750D01*
X136231291Y-74538670D01*
X136231287Y-74538671D01*
X136097377Y-74594137D01*
X135982379Y-74682379D01*
X135894137Y-74797377D01*
X135838671Y-74931287D01*
X135838670Y-74931291D01*
X135819750Y-75074999D01*
X132155264Y-75074999D01*
X132262621Y-74992621D01*
X132350861Y-74877625D01*
X132406330Y-74743709D01*
X132425250Y-74600000D01*
X132406330Y-74456291D01*
X132350861Y-74322375D01*
X132262621Y-74207379D01*
X132147625Y-74119139D01*
X132147624Y-74119138D01*
X132147622Y-74119137D01*
X132013712Y-74063671D01*
X132013710Y-74063670D01*
X132013709Y-74063670D01*
X131941854Y-74054210D01*
X131870001Y-74044750D01*
X131869999Y-74044750D01*
X131726291Y-74063670D01*
X131726287Y-74063671D01*
X131592377Y-74119137D01*
X131477379Y-74207379D01*
X131389137Y-74322377D01*
X131333671Y-74456287D01*
X131333670Y-74456291D01*
X131314750Y-74599999D01*
X98040500Y-74599999D01*
X98040500Y-73839999D01*
X139404750Y-73839999D01*
X139404750Y-73840000D01*
X139423670Y-73983708D01*
X139423671Y-73983712D01*
X139479137Y-74117622D01*
X139479138Y-74117624D01*
X139479139Y-74117625D01*
X139567379Y-74232621D01*
X139682375Y-74320861D01*
X139816291Y-74376330D01*
X139943280Y-74393048D01*
X139959999Y-74395250D01*
X139960000Y-74395250D01*
X139960001Y-74395250D01*
X139974977Y-74393278D01*
X140103709Y-74376330D01*
X140237625Y-74320861D01*
X140352621Y-74232621D01*
X140440861Y-74117625D01*
X140496330Y-73983709D01*
X140515250Y-73840000D01*
X140496330Y-73696291D01*
X140440861Y-73562375D01*
X140352621Y-73447379D01*
X140237625Y-73359139D01*
X140237624Y-73359138D01*
X140237622Y-73359137D01*
X140103712Y-73303671D01*
X140103710Y-73303670D01*
X140103709Y-73303670D01*
X140031854Y-73294210D01*
X139960001Y-73284750D01*
X139959999Y-73284750D01*
X139816291Y-73303670D01*
X139816287Y-73303671D01*
X139682377Y-73359137D01*
X139567379Y-73447379D01*
X139479137Y-73562377D01*
X139423671Y-73696287D01*
X139423670Y-73696291D01*
X139404750Y-73839999D01*
X98040500Y-73839999D01*
X98040500Y-69118711D01*
X99379500Y-69118711D01*
X99379500Y-69361288D01*
X99411161Y-69601785D01*
X99473947Y-69836104D01*
X99542240Y-70000977D01*
X99566776Y-70060212D01*
X99688064Y-70270289D01*
X99688066Y-70270292D01*
X99688067Y-70270293D01*
X99835733Y-70462736D01*
X99835739Y-70462743D01*
X100007256Y-70634260D01*
X100007262Y-70634265D01*
X100199711Y-70781936D01*
X100409788Y-70903224D01*
X100633900Y-70996054D01*
X100868211Y-71058838D01*
X101048586Y-71082584D01*
X101108711Y-71090500D01*
X101108712Y-71090500D01*
X101351289Y-71090500D01*
X101399388Y-71084167D01*
X101591789Y-71058838D01*
X101826100Y-70996054D01*
X102050212Y-70903224D01*
X102260289Y-70781936D01*
X102452738Y-70634265D01*
X102624265Y-70462738D01*
X102771936Y-70270289D01*
X102893224Y-70060212D01*
X102986054Y-69836100D01*
X103048838Y-69601789D01*
X103080500Y-69361288D01*
X103080500Y-69118712D01*
X103048838Y-68878211D01*
X102986054Y-68643900D01*
X102893224Y-68419788D01*
X102771936Y-68209711D01*
X102624265Y-68017262D01*
X102624260Y-68017256D01*
X102452743Y-67845739D01*
X102452736Y-67845733D01*
X102260293Y-67698067D01*
X102260292Y-67698066D01*
X102260289Y-67698064D01*
X102050212Y-67576776D01*
X102050205Y-67576773D01*
X101826104Y-67483947D01*
X101591785Y-67421161D01*
X101351289Y-67389500D01*
X101351288Y-67389500D01*
X101108712Y-67389500D01*
X101108711Y-67389500D01*
X100868214Y-67421161D01*
X100633895Y-67483947D01*
X100409794Y-67576773D01*
X100409785Y-67576777D01*
X100199706Y-67698067D01*
X100007263Y-67845733D01*
X100007256Y-67845739D01*
X99835739Y-68017256D01*
X99835733Y-68017263D01*
X99688067Y-68209706D01*
X99566777Y-68419785D01*
X99566773Y-68419794D01*
X99473947Y-68643895D01*
X99411161Y-68878214D01*
X99379500Y-69118711D01*
X98040500Y-69118711D01*
X98040500Y-67305226D01*
X98040883Y-67295494D01*
X98050358Y-67175146D01*
X98055123Y-67114620D01*
X98058164Y-67095422D01*
X98099387Y-66923737D01*
X98105399Y-66905237D01*
X98105407Y-66905219D01*
X98172969Y-66742121D01*
X98181798Y-66724795D01*
X98274050Y-66574259D01*
X98285486Y-66558521D01*
X98285511Y-66558492D01*
X98400150Y-66424271D01*
X98413904Y-66410519D01*
X98548158Y-66295858D01*
X98563889Y-66284428D01*
X98714438Y-66192175D01*
X98731755Y-66183351D01*
X98894876Y-66115785D01*
X98913372Y-66109775D01*
X99085058Y-66068559D01*
X99104256Y-66065518D01*
X99285784Y-66051231D01*
X99295508Y-66050850D01*
X99334170Y-66050850D01*
X143055830Y-66050850D01*
X143095126Y-66050850D01*
X143104854Y-66051232D01*
G37*
%TD.AperFunction*%
%TD*%
M02*
