M48
; DRILL file {KiCad 8.0.8-8.0.8-0~ubuntu24.04.1} date 2025-08-26T22:36:19+0300
; FORMAT={-:-/ absolute / inch / decimal}
; #@! TF.CreationDate,2025-08-26T22:36:19+03:00
; #@! TF.GenerationSoftware,Kicad,Pcbnew,8.0.8-8.0.8-0~ubuntu24.04.1
; #@! TF.FileFunction,Plated,1,4,PTH
FMAT,2
INCH
; #@! TA.AperFunction,Plated,PTH,ViaDrill
T1C0.0118
; #@! TA.AperFunction,Plated,PTH,ViaDrill
T2C0.0157
; #@! TA.AperFunction,Plated,PTH,ComponentDrill
T3C0.0236
%
G90
G05
T1
X4.0442Y-3.9475
X4.2244Y-3.5039
X4.2244Y-4.4114
X4.3945Y-4.2157
X4.4362Y-4.2406
X4.4376Y-4.2032
X4.5236Y-4.1043
X4.6831Y-3.563
X4.7598Y-3.2323
X4.7736Y-3.311
X4.9685Y-3.5591
X5.0079Y-3.5591
X5.0846Y-4.2677
X5.122Y-4.2677
X5.126Y-3.4193
X5.126Y-3.4547
X5.1543Y-2.9379
X5.1551Y-3.7423
X5.1917Y-2.937
X5.1925Y-3.7417
X5.3691Y-2.9557
X5.4064Y-2.9577
X5.5102Y-2.9071
X5.5425Y-3.1937
X5.5476Y-2.9076
X5.7087Y-3.3091
X5.7156Y-3.0827
X5.7175Y-3.0453
X5.7605Y-3.0452
X5.8002Y-3.0433
X5.8031Y-3.189
X5.9902Y-3.7437
X6.0697Y-3.163
X6.1661Y-4.326
X6.2067Y-3.874
X6.2146Y-3.3465
X6.2264Y-3.065
X6.2275Y-3.1951
X6.237Y-3.2313
X6.2598Y-3.3465
X6.2598Y-4.198
X6.2638Y-3.0646
X6.3268Y-3.9823
X6.3799Y-4.2283
X6.408Y-4.0824
X6.4114Y-4.2283
X6.4134Y-3.7441
X6.4134Y-3.7874
X6.6142Y-3.4862
X6.6236Y-4.0713
X6.6673Y-4.2283
X6.6988Y-4.2283
X6.7106Y-3.4646
X6.7478Y-3.3031
X6.7501Y-3.3633
X6.7524Y-3.4626
X6.7528Y-3.4256
X6.8772Y-4.1394
X6.8781Y-4.1768
X6.8859Y-3.7448
X6.9213Y-3.7449
X6.9559Y-3.0516
X6.9783Y-3.0889
X7.0965Y-3.1299
X7.1358Y-3.1201
X7.1398Y-3.4553
X7.1398Y-3.4927
X7.1602Y-4.2457
X7.1614Y-4.2913
X7.2362Y-3.4528
X7.2362Y-3.4902
X7.3063Y-4.1705
X7.3406Y-3.4547
X7.3406Y-3.4921
X7.5055Y-3.4921
X7.506Y-3.4547
T2
X3.937Y-2.9528
X3.937Y-3.1496
X3.937Y-3.3465
X3.937Y-3.5433
X3.937Y-3.7402
X3.937Y-3.937
X3.937Y-4.1339
X3.937Y-4.3307
X4.0433Y-3.9902
X4.1301Y-3.7441
X4.1339Y-2.7559
X4.1339Y-2.9528
X4.1339Y-4.3307
X4.1339Y-4.5276
X4.3307Y-2.7559
X4.3307Y-2.9528
X4.3307Y-3.1496
X4.3307Y-3.3465
X4.3307Y-3.7402
X4.3307Y-3.937
X4.4843Y-4.1043
X4.5276Y-2.7559
X4.5276Y-2.9528
X4.5276Y-3.1496
X4.5276Y-3.3465
X4.5276Y-3.7402
X4.5276Y-3.937
X4.7244Y-2.9528
X4.7244Y-3.7402
X4.7244Y-3.937
X4.7244Y-4.1339
X4.7244Y-4.3307
X4.7244Y-4.5276
X4.7736Y-3.3484
X4.9213Y-2.7559
X4.9213Y-2.9528
X4.9213Y-3.7402
X4.9213Y-3.937
X4.9213Y-4.1339
X4.9213Y-4.3307
X4.9213Y-4.5276
X5.1181Y-4.3307
X5.1181Y-4.5276
X5.1811Y-4.2126
X5.315Y-4.1339
X5.315Y-4.5276
X5.3661Y-2.7953
X5.4496Y-3.0874
X5.4949Y-3.2012
X5.5118Y-2.7559
X5.5118Y-3.7402
X5.5118Y-4.1339
X5.5118Y-4.3307
X5.5118Y-4.5276
X5.685Y-3.564
X5.7087Y-2.9528
X5.7087Y-3.3465
X5.7087Y-4.5276
X5.8425Y-3.1925
X5.9055Y-2.9528
X5.9055Y-3.4803
X5.9055Y-3.5236
X5.9055Y-4.5276
X5.9449Y-3.4803
X5.9449Y-3.5236
X6.0413Y-2.9252
X6.0689Y-4.0118
X6.0689Y-4.0472
X6.1024Y-4.5276
X6.1122Y-2.8701
X6.1339Y-2.9016
X6.1535Y-2.8701
X6.1614Y-4.5079
X6.2173Y-3.5602
X6.3154Y-3.4724
X6.3169Y-3.3051
X6.3268Y-4.0217
X6.378Y-2.8878
X6.4252Y-3.1909
X6.4409Y-2.8898
X6.4961Y-4.5276
X6.5039Y-2.8898
X6.5669Y-2.8898
X6.6299Y-2.8898
X6.685Y-3.563
X6.6929Y-3.7402
X6.7087Y-2.8898
X6.7919Y-3.8686
X6.7933Y-3.9173
X6.815Y-3.2874
X6.8425Y-4.0531
X6.8504Y-2.8622
X6.8799Y-4.0531
X6.8898Y-4.3307
X6.8898Y-4.5276
X7.0276Y-4.3858
X7.0339Y-3.5647
X7.0866Y-4.5276
X7.2835Y-4.5276
X7.3425Y-3.0315
X7.4803Y-3.1496
X7.4803Y-4.1339
X7.4803Y-4.3307
T3
G00X6.3697Y-4.2911
M15
G01X6.3697Y-4.3344
M16
G05
G00X6.3697Y-4.4656
M15
G01X6.3697Y-4.4892
M16
G05
G00X6.7098Y-4.2911
M15
G01X6.7098Y-4.3344
M16
G05
G00X6.7098Y-4.4656
M15
G01X6.7098Y-4.4892
M16
G05
M30
