%TF.GenerationSoftware,KiCad,Pcbnew,8.0.8-8.0.8-0~ubuntu24.04.1*%
%TF.CreationDate,2025-08-27T21:16:11+03:00*%
%TF.ProjectId,pocketmuseum_edu_v0,706f636b-6574-46d7-9573-65756d5f6564,rev?*%
%TF.SameCoordinates,Original*%
%TF.FileFunction,Soldermask,Bot*%
%TF.FilePolarity,Negative*%
%FSLAX46Y46*%
G04 Gerber Fmt 4.6, Leading zero omitted, Abs format (unit mm)*
G04 Created by KiCad (PCBNEW 8.0.8-8.0.8-0~ubuntu24.04.1) date 2025-08-27 21:16:11*
%MOMM*%
%LPD*%
G01*
G04 APERTURE LIST*
G04 Aperture macros list*
%AMRoundRect*
0 Rectangle with rounded corners*
0 $1 Rounding radius*
0 $2 $3 $4 $5 $6 $7 $8 $9 X,Y pos of 4 corners*
0 Add a 4 corners polygon primitive as box body*
4,1,4,$2,$3,$4,$5,$6,$7,$8,$9,$2,$3,0*
0 Add four circle primitives for the rounded corners*
1,1,$1+$1,$2,$3*
1,1,$1+$1,$4,$5*
1,1,$1+$1,$6,$7*
1,1,$1+$1,$8,$9*
0 Add four rect primitives between the rounded corners*
20,1,$1+$1,$2,$3,$4,$5,0*
20,1,$1+$1,$4,$5,$6,$7,0*
20,1,$1+$1,$6,$7,$8,$9,0*
20,1,$1+$1,$8,$9,$2,$3,0*%
%AMFreePoly0*
4,1,176,-0.504349,0.685979,-0.500813,0.684515,-0.490131,0.674029,-0.488670,0.670678,-0.487017,0.663426,-0.485076,0.611062,-0.476562,0.560917,-0.463206,0.512267,-0.445075,0.464554,-0.422247,0.418897,-0.394717,0.376177,-0.362397,0.336253,-0.326246,0.300102,-0.286321,0.267781,-0.243602,0.240252,-0.197944,0.217423,-0.150231,0.199292,-0.101581,0.185936,-0.051436,0.177422,0.000000,0.175516,
0.051436,0.177422,0.101581,0.185936,0.150231,0.199292,0.197944,0.217423,0.243602,0.240252,0.286321,0.267781,0.326246,0.300102,0.362397,0.336253,0.394717,0.376177,0.422247,0.418897,0.445075,0.464554,0.463206,0.512267,0.476562,0.560917,0.485076,0.611062,0.487017,0.663426,0.488823,0.671020,0.490418,0.674499,0.501287,0.684780,0.504689,0.686116,0.512000,0.687500,
0.813000,0.687500,0.820651,0.685979,0.824187,0.684515,0.835012,0.673693,0.835015,0.673687,0.836479,0.670151,0.837991,0.661888,0.837982,0.661594,0.837956,0.661032,0.832956,0.576032,0.832879,0.575095,0.832829,0.574624,0.832706,0.573676,0.819706,0.489676,0.819510,0.488607,0.819398,0.488076,0.819146,0.487021,0.797146,0.405021,0.796821,0.403933,0.796646,0.403403,
0.796272,0.402368,0.765272,0.323368,0.764934,0.322560,0.764752,0.322150,0.764361,0.321320,0.726361,0.245320,0.725822,0.244315,0.725537,0.243818,0.724935,0.242835,0.677935,0.170835,0.677390,0.170042,0.677102,0.169644,0.676493,0.168846,0.623493,0.102846,0.622792,0.102020,0.622429,0.101615,0.621678,0.100822,0.561678,0.040822,0.560885,0.040071,0.560480,0.039708,
0.559654,0.039007,0.493654,-0.013993,0.492856,-0.014602,0.492458,-0.014890,0.491665,-0.015435,0.419665,-0.062435,0.418682,-0.063037,0.418185,-0.063322,0.417180,-0.063861,0.341180,-0.101861,0.340350,-0.102252,0.339940,-0.102434,0.339132,-0.102772,0.260132,-0.133772,0.259097,-0.134146,0.258567,-0.134321,0.257479,-0.134646,0.175479,-0.156646,0.174424,-0.156898,0.173893,-0.157010,
0.172824,-0.157206,0.088824,-0.170206,0.087876,-0.170329,0.087405,-0.170379,0.086468,-0.170456,0.001468,-0.175456,0.000294,-0.175491,-0.000294,-0.175491,-0.001468,-0.175456,-0.086468,-0.170456,-0.087405,-0.170379,-0.087876,-0.170329,-0.088824,-0.170206,-0.172824,-0.157206,-0.173893,-0.157010,-0.174424,-0.156898,-0.175479,-0.156646,-0.257479,-0.134646,-0.258567,-0.134321,-0.259097,-0.134146,
-0.260132,-0.133772,-0.339132,-0.102772,-0.339940,-0.102434,-0.340350,-0.102252,-0.341180,-0.101861,-0.417180,-0.063861,-0.418185,-0.063322,-0.418682,-0.063037,-0.419665,-0.062435,-0.491665,-0.015435,-0.492458,-0.014890,-0.492856,-0.014602,-0.493654,-0.013993,-0.559654,0.039007,-0.560480,0.039708,-0.560885,0.040071,-0.561678,0.040822,-0.621678,0.100822,-0.622429,0.101615,-0.622792,0.102020,
-0.623493,0.102846,-0.676493,0.168846,-0.677102,0.169644,-0.677390,0.170042,-0.677935,0.170835,-0.724935,0.242835,-0.725537,0.243818,-0.725822,0.244315,-0.726361,0.245320,-0.764361,0.321320,-0.764752,0.322150,-0.764934,0.322560,-0.765272,0.323368,-0.796272,0.402368,-0.796646,0.403403,-0.796821,0.403933,-0.797146,0.405021,-0.819146,0.487021,-0.819398,0.488076,-0.819510,0.488607,
-0.819706,0.489676,-0.832706,0.573676,-0.832829,0.574624,-0.832879,0.575095,-0.832956,0.576032,-0.837956,0.661032,-0.836887,0.668759,-0.835633,0.672375,-0.825465,0.683817,-0.825461,0.683819,-0.822018,0.685488,-0.813906,0.687482,-0.813612,0.687491,-0.813000,0.687500,-0.512000,0.687500,-0.504349,0.685979,-0.504349,0.685979,$1*%
%AMFreePoly1*
4,1,176,0.001175,0.174472,0.086175,0.170472,0.087225,0.170395,0.087755,0.170342,0.088824,0.170206,0.172824,0.157206,0.173893,0.157010,0.174424,0.156898,0.175479,0.156646,0.257479,0.134646,0.258567,0.134321,0.259097,0.134146,0.260132,0.133772,0.339132,0.102772,0.339940,0.102434,0.340350,0.102252,0.341180,0.101861,0.417180,0.063861,0.418185,0.063322,0.418682,0.063037,
0.419665,0.062435,0.491665,0.015435,0.492458,0.014890,0.492856,0.014602,0.493654,0.013993,0.559654,-0.039007,0.560480,-0.039708,0.560885,-0.040071,0.561678,-0.040822,0.621678,-0.100822,0.622429,-0.101615,0.622792,-0.102020,0.623493,-0.102846,0.676493,-0.168846,0.677102,-0.169644,0.677390,-0.170042,0.677935,-0.170835,0.724935,-0.242835,0.725537,-0.243818,0.725822,-0.244315,
0.726361,-0.245320,0.764361,-0.321320,0.764752,-0.322150,0.764934,-0.322560,0.765272,-0.323368,0.796272,-0.402368,0.796646,-0.403403,0.796821,-0.403933,0.797146,-0.405021,0.819146,-0.487021,0.819398,-0.488076,0.819510,-0.488607,0.819706,-0.489676,0.832706,-0.573676,0.832829,-0.574624,0.832879,-0.575095,0.832956,-0.576032,0.837956,-0.661032,0.836887,-0.668759,0.835633,-0.672375,
0.825465,-0.683817,0.825461,-0.683819,0.822018,-0.685488,0.813906,-0.687482,0.813612,-0.687491,0.813000,-0.687500,0.512000,-0.687500,0.504349,-0.685979,0.500813,-0.684515,0.490131,-0.674029,0.488670,-0.670678,0.487017,-0.663426,0.485076,-0.611062,0.476562,-0.560917,0.463206,-0.512267,0.445075,-0.464554,0.422247,-0.418897,0.394717,-0.376177,0.362397,-0.336253,0.326246,-0.300102,
0.286321,-0.267781,0.243602,-0.240252,0.197944,-0.217423,0.150231,-0.199292,0.101581,-0.185936,0.051436,-0.177422,0.000000,-0.175516,-0.051436,-0.177422,-0.101581,-0.185936,-0.150231,-0.199292,-0.197944,-0.217423,-0.243602,-0.240252,-0.286321,-0.267781,-0.326246,-0.300102,-0.362397,-0.336253,-0.394717,-0.376177,-0.422247,-0.418897,-0.445075,-0.464554,-0.463206,-0.512267,-0.476562,-0.560917,
-0.485076,-0.611062,-0.487017,-0.663426,-0.488823,-0.671020,-0.490418,-0.674499,-0.501287,-0.684780,-0.504689,-0.686116,-0.512000,-0.687500,-0.813000,-0.687500,-0.820651,-0.685979,-0.824187,-0.684515,-0.835012,-0.673693,-0.835015,-0.673687,-0.836479,-0.670151,-0.837991,-0.661888,-0.837982,-0.661594,-0.837956,-0.661032,-0.832956,-0.576032,-0.832879,-0.575095,-0.832829,-0.574624,-0.832706,-0.573676,
-0.819706,-0.489676,-0.819510,-0.488607,-0.819398,-0.488076,-0.819146,-0.487021,-0.797146,-0.405021,-0.796821,-0.403933,-0.796646,-0.403403,-0.796272,-0.402368,-0.765272,-0.323368,-0.764934,-0.322560,-0.764752,-0.322150,-0.764361,-0.321320,-0.726361,-0.245320,-0.725822,-0.244315,-0.725537,-0.243818,-0.724935,-0.242835,-0.677935,-0.170835,-0.677390,-0.170042,-0.677102,-0.169644,-0.676493,-0.168846,
-0.623493,-0.102846,-0.622792,-0.102020,-0.622429,-0.101615,-0.621678,-0.100822,-0.561678,-0.040822,-0.560885,-0.040071,-0.560480,-0.039708,-0.559654,-0.039007,-0.493654,0.013993,-0.492856,0.014602,-0.492458,0.014890,-0.491665,0.015435,-0.419665,0.062435,-0.418682,0.063037,-0.418185,0.063322,-0.417180,0.063861,-0.341180,0.101861,-0.340350,0.102252,-0.339940,0.102434,-0.339132,0.102772,
-0.260132,0.133772,-0.259097,0.134146,-0.258567,0.134321,-0.257479,0.134646,-0.175479,0.156646,-0.174424,0.156898,-0.173893,0.157010,-0.172824,0.157206,-0.088824,0.170206,-0.087755,0.170342,-0.087225,0.170395,-0.086175,0.170472,-0.001175,0.174472,-0.000235,0.174494,0.000235,0.174494,0.001175,0.174472,0.001175,0.174472,$1*%
G04 Aperture macros list end*
%ADD10C,0.500000*%
%ADD11RoundRect,0.020000X0.362500X0.261000X-0.362500X0.261000X-0.362500X-0.261000X0.362500X-0.261000X0*%
%ADD12FreePoly0,180.000000*%
%ADD13FreePoly1,180.000000*%
%ADD14C,3.200000*%
%ADD15C,0.650000*%
%ADD16O,1.000000X2.100000*%
%ADD17O,1.000000X1.600000*%
%ADD18R,1.050000X0.650000*%
%ADD19RoundRect,0.140000X0.140000X0.170000X-0.140000X0.170000X-0.140000X-0.170000X0.140000X-0.170000X0*%
%ADD20RoundRect,0.135000X-0.185000X0.135000X-0.185000X-0.135000X0.185000X-0.135000X0.185000X0.135000X0*%
%ADD21RoundRect,0.140000X-0.140000X-0.170000X0.140000X-0.170000X0.140000X0.170000X-0.140000X0.170000X0*%
%ADD22RoundRect,0.050000X0.350000X0.300000X-0.350000X0.300000X-0.350000X-0.300000X0.350000X-0.300000X0*%
%ADD23RoundRect,0.050000X-0.350000X-0.300000X0.350000X-0.300000X0.350000X0.300000X-0.350000X0.300000X0*%
%ADD24RoundRect,0.135000X-0.135000X-0.185000X0.135000X-0.185000X0.135000X0.185000X-0.135000X0.185000X0*%
%ADD25RoundRect,0.140000X-0.170000X0.140000X-0.170000X-0.140000X0.170000X-0.140000X0.170000X0.140000X0*%
%ADD26RoundRect,0.150000X0.150000X-0.587500X0.150000X0.587500X-0.150000X0.587500X-0.150000X-0.587500X0*%
%ADD27RoundRect,0.140000X0.170000X-0.140000X0.170000X0.140000X-0.170000X0.140000X-0.170000X-0.140000X0*%
%ADD28RoundRect,0.135000X0.135000X0.185000X-0.135000X0.185000X-0.135000X-0.185000X0.135000X-0.185000X0*%
%ADD29RoundRect,0.150000X-0.150000X0.587500X-0.150000X-0.587500X0.150000X-0.587500X0.150000X0.587500X0*%
%ADD30R,0.650000X1.050000*%
%ADD31RoundRect,0.087500X0.087500X-0.125000X0.087500X0.125000X-0.087500X0.125000X-0.087500X-0.125000X0*%
%ADD32RoundRect,0.087500X0.125000X-0.087500X0.125000X0.087500X-0.125000X0.087500X-0.125000X-0.087500X0*%
%ADD33RoundRect,0.102000X-0.275000X-0.125000X0.275000X-0.125000X0.275000X0.125000X-0.275000X0.125000X0*%
%ADD34RoundRect,0.150000X0.587500X0.150000X-0.587500X0.150000X-0.587500X-0.150000X0.587500X-0.150000X0*%
%ADD35RoundRect,0.050000X-0.050000X0.225000X-0.050000X-0.225000X0.050000X-0.225000X0.050000X0.225000X0*%
%ADD36RoundRect,0.050000X0.225000X0.050000X-0.225000X0.050000X-0.225000X-0.050000X0.225000X-0.050000X0*%
G04 APERTURE END LIST*
D10*
%TO.C,U304*%
X183982500Y-109102000D03*
D11*
X184820000Y-107028000D03*
X184820000Y-107850000D03*
D12*
X183982500Y-108439500D03*
D13*
X183982500Y-109764500D03*
D11*
X183145000Y-107850000D03*
X183145000Y-107028000D03*
%TD*%
D14*
%TO.C,H3*%
X101230000Y-69240000D03*
%TD*%
D15*
%TO.C,J101*%
X163220000Y-110075000D03*
X169000000Y-110075000D03*
D16*
X161790000Y-109545000D03*
D17*
X161790000Y-113725000D03*
D16*
X170430000Y-109545000D03*
D17*
X170430000Y-113725000D03*
%TD*%
D14*
%TO.C,H1*%
X191140000Y-74950000D03*
%TD*%
%TO.C,H4*%
X191160000Y-113350000D03*
%TD*%
%TO.C,H2*%
X101220000Y-113360000D03*
%TD*%
D18*
%TO.C,SW201*%
X186485000Y-78345000D03*
X182335000Y-78345000D03*
X186485000Y-80495000D03*
X182335000Y-80495000D03*
%TD*%
D19*
%TO.C,C401*%
X169220000Y-80050000D03*
X168260000Y-80050000D03*
%TD*%
D20*
%TO.C,R302*%
X110170000Y-103750000D03*
X110170000Y-104770000D03*
%TD*%
D21*
%TO.C,C408*%
X170820000Y-90500000D03*
X171780000Y-90500000D03*
%TD*%
D22*
%TO.C,D401*%
X170560000Y-80040000D03*
X170560000Y-78840000D03*
X171860000Y-78840000D03*
X171860000Y-80040000D03*
%TD*%
D21*
%TO.C,C302*%
X107290000Y-110600000D03*
X108250000Y-110600000D03*
%TD*%
D23*
%TO.C,D409*%
X184600000Y-91575000D03*
X184600000Y-92775000D03*
X183300000Y-92775000D03*
X183300000Y-91575000D03*
%TD*%
D24*
%TO.C,R112*%
X136300000Y-72030000D03*
X137320000Y-72030000D03*
%TD*%
%TO.C,R308*%
X133562500Y-110130000D03*
X134582500Y-110130000D03*
%TD*%
D25*
%TO.C,C301*%
X110690000Y-106120000D03*
X110690000Y-107080000D03*
%TD*%
D23*
%TO.C,D408*%
X171925000Y-91550000D03*
X171925000Y-92750000D03*
X170625000Y-92750000D03*
X170625000Y-91550000D03*
%TD*%
D21*
%TO.C,C404*%
X107295000Y-90375000D03*
X108255000Y-90375000D03*
%TD*%
D26*
%TO.C,Q303*%
X112872500Y-111447500D03*
X110972500Y-111447500D03*
X111922500Y-109572500D03*
%TD*%
D23*
%TO.C,D406*%
X146525000Y-91550000D03*
X146525000Y-92750000D03*
X145225000Y-92750000D03*
X145225000Y-91550000D03*
%TD*%
D27*
%TO.C,C203*%
X187760000Y-79850000D03*
X187760000Y-78890000D03*
%TD*%
D22*
%TO.C,D402*%
X157860000Y-80040000D03*
X157860000Y-78840000D03*
X159160000Y-78840000D03*
X159160000Y-80040000D03*
%TD*%
D28*
%TO.C,R111*%
X137320000Y-73050000D03*
X136300000Y-73050000D03*
%TD*%
D21*
%TO.C,C409*%
X183495000Y-90525000D03*
X184455000Y-90525000D03*
%TD*%
D29*
%TO.C,Q302*%
X103060000Y-106162500D03*
X104960000Y-106162500D03*
X104010000Y-108037500D03*
%TD*%
D24*
%TO.C,R304*%
X108780000Y-111640000D03*
X109800000Y-111640000D03*
%TD*%
D19*
%TO.C,C403*%
X120890000Y-81140000D03*
X119930000Y-81140000D03*
%TD*%
D21*
%TO.C,C402*%
X155530000Y-80070000D03*
X156490000Y-80070000D03*
%TD*%
D30*
%TO.C,SW101*%
X132805000Y-68905000D03*
X132805000Y-73055000D03*
X134955000Y-68905000D03*
X134955000Y-73055000D03*
%TD*%
D23*
%TO.C,D407*%
X159175000Y-91525000D03*
X159175000Y-92725000D03*
X157875000Y-92725000D03*
X157875000Y-91525000D03*
%TD*%
D21*
%TO.C,C308*%
X183467500Y-105868000D03*
X184427500Y-105868000D03*
%TD*%
D19*
%TO.C,C303*%
X111620000Y-108030000D03*
X110660000Y-108030000D03*
%TD*%
D31*
%TO.C,U302*%
X158730000Y-109647500D03*
X158230000Y-109647500D03*
D32*
X157717500Y-109385000D03*
X157717500Y-108885000D03*
X157717500Y-108385000D03*
D31*
X158230000Y-108122500D03*
X158730000Y-108122500D03*
D32*
X159242500Y-108385000D03*
X159242500Y-108885000D03*
X159242500Y-109385000D03*
%TD*%
D24*
%TO.C,R301*%
X103540000Y-103460000D03*
X104560000Y-103460000D03*
%TD*%
D21*
%TO.C,C407*%
X159070000Y-90350000D03*
X160030000Y-90350000D03*
%TD*%
D22*
%TO.C,D403*%
X119760000Y-80040000D03*
X119760000Y-78840000D03*
X121060000Y-78840000D03*
X121060000Y-80040000D03*
%TD*%
D21*
%TO.C,C406*%
X145420000Y-90525000D03*
X146380000Y-90525000D03*
%TD*%
D33*
%TO.C,U303*%
X133142500Y-109050000D03*
X133142500Y-108550000D03*
X133142500Y-108050000D03*
X135892500Y-108050000D03*
X135892500Y-108550000D03*
X135892500Y-109050000D03*
%TD*%
D19*
%TO.C,C307*%
X134555000Y-106975000D03*
X133595000Y-106975000D03*
%TD*%
D23*
%TO.C,D404*%
X108425000Y-91550000D03*
X108425000Y-92750000D03*
X107125000Y-92750000D03*
X107125000Y-91550000D03*
%TD*%
D21*
%TO.C,C405*%
X120020000Y-90500000D03*
X120980000Y-90500000D03*
%TD*%
D34*
%TO.C,Q301*%
X108627500Y-103280000D03*
X108627500Y-105180000D03*
X106752500Y-104230000D03*
%TD*%
D35*
%TO.C,U301*%
X106790000Y-106530000D03*
X107190000Y-106530000D03*
X107590000Y-106530000D03*
X107990000Y-106530000D03*
X108390000Y-106530000D03*
X108790000Y-106530000D03*
D36*
X109290000Y-107030000D03*
X109290000Y-107430000D03*
X109290000Y-107830000D03*
X109290000Y-108230000D03*
X109290000Y-108630000D03*
X109290000Y-109030000D03*
D35*
X108790000Y-109530000D03*
X108390000Y-109530000D03*
X107990000Y-109530000D03*
X107590000Y-109530000D03*
X107190000Y-109530000D03*
X106790000Y-109530000D03*
D36*
X106290000Y-109030000D03*
X106290000Y-108630000D03*
X106290000Y-108230000D03*
X106290000Y-107830000D03*
X106290000Y-107430000D03*
X106290000Y-107030000D03*
%TD*%
D27*
%TO.C,C304*%
X160220000Y-109347500D03*
X160220000Y-108387500D03*
%TD*%
D25*
%TO.C,C305*%
X156760000Y-107387500D03*
X156760000Y-108347500D03*
%TD*%
D27*
%TO.C,C306*%
X131622500Y-109010000D03*
X131622500Y-108050000D03*
%TD*%
D24*
%TO.C,R305*%
X103550000Y-104660000D03*
X104570000Y-104660000D03*
%TD*%
D23*
%TO.C,D405*%
X121125000Y-91575000D03*
X121125000Y-92775000D03*
X119825000Y-92775000D03*
X119825000Y-91575000D03*
%TD*%
M02*
