%TF.GenerationSoftware,KiCad,Pcbnew,8.0.8-8.0.8-0~ubuntu24.04.1*%
%TF.CreationDate,2025-08-26T22:36:19+03:00*%
%TF.ProjectId,pocketmuseum_edu_v0,706f636b-6574-46d7-9573-65756d5f6564,rev?*%
%TF.SameCoordinates,Original*%
%TF.FileFunction,Legend,Top*%
%TF.FilePolarity,Positive*%
%FSLAX46Y46*%
G04 Gerber Fmt 4.6, Leading zero omitted, Abs format (unit mm)*
G04 Created by KiCad (PCBNEW 8.0.8-8.0.8-0~ubuntu24.04.1) date 2025-08-26 22:36:19*
%MOMM*%
%LPD*%
G01*
G04 APERTURE LIST*
G04 Aperture macros list*
%AMRoundRect*
0 Rectangle with rounded corners*
0 $1 Rounding radius*
0 $2 $3 $4 $5 $6 $7 $8 $9 X,Y pos of 4 corners*
0 Add a 4 corners polygon primitive as box body*
4,1,4,$2,$3,$4,$5,$6,$7,$8,$9,$2,$3,0*
0 Add four circle primitives for the rounded corners*
1,1,$1+$1,$2,$3*
1,1,$1+$1,$4,$5*
1,1,$1+$1,$6,$7*
1,1,$1+$1,$8,$9*
0 Add four rect primitives between the rounded corners*
20,1,$1+$1,$2,$3,$4,$5,0*
20,1,$1+$1,$4,$5,$6,$7,0*
20,1,$1+$1,$6,$7,$8,$9,0*
20,1,$1+$1,$8,$9,$2,$3,0*%
%AMFreePoly0*
4,1,6,0.725000,-0.725000,-0.725000,-0.725000,-0.725000,0.125000,-0.125000,0.725000,0.725000,0.725000,0.725000,-0.725000,0.725000,-0.725000,$1*%
G04 Aperture macros list end*
%ADD10C,0.155000*%
%ADD11C,0.125000*%
%ADD12C,0.200000*%
%ADD13C,0.220000*%
%ADD14C,0.100000*%
%ADD15C,0.120000*%
%ADD16C,0.127000*%
%ADD17C,0.000000*%
%ADD18R,1.600000X0.700000*%
%ADD19R,1.500000X1.200000*%
%ADD20R,2.200000X1.200000*%
%ADD21R,1.500000X1.600000*%
%ADD22RoundRect,0.135000X-0.185000X0.135000X-0.185000X-0.135000X0.185000X-0.135000X0.185000X0.135000X0*%
%ADD23RoundRect,0.150000X0.150000X-0.512500X0.150000X0.512500X-0.150000X0.512500X-0.150000X-0.512500X0*%
%ADD24RoundRect,0.135000X0.135000X0.185000X-0.135000X0.185000X-0.135000X-0.185000X0.135000X-0.185000X0*%
%ADD25RoundRect,0.135000X0.185000X-0.135000X0.185000X0.135000X-0.185000X0.135000X-0.185000X-0.135000X0*%
%ADD26RoundRect,0.225000X-0.250000X0.225000X-0.250000X-0.225000X0.250000X-0.225000X0.250000X0.225000X0*%
%ADD27RoundRect,0.225000X-0.225000X-0.250000X0.225000X-0.250000X0.225000X0.250000X-0.225000X0.250000X0*%
%ADD28RoundRect,0.140000X0.170000X-0.140000X0.170000X0.140000X-0.170000X0.140000X-0.170000X-0.140000X0*%
%ADD29RoundRect,0.147500X0.172500X-0.147500X0.172500X0.147500X-0.172500X0.147500X-0.172500X-0.147500X0*%
%ADD30RoundRect,0.135000X-0.135000X-0.185000X0.135000X-0.185000X0.135000X0.185000X-0.135000X0.185000X0*%
%ADD31RoundRect,0.140000X0.140000X0.170000X-0.140000X0.170000X-0.140000X-0.170000X0.140000X-0.170000X0*%
%ADD32C,3.200000*%
%ADD33RoundRect,0.150000X-0.200000X0.150000X-0.200000X-0.150000X0.200000X-0.150000X0.200000X0.150000X0*%
%ADD34RoundRect,0.140000X-0.170000X0.140000X-0.170000X-0.140000X0.170000X-0.140000X0.170000X0.140000X0*%
%ADD35C,0.650000*%
%ADD36R,0.300000X1.450000*%
%ADD37R,0.600000X1.450000*%
%ADD38O,1.000000X2.100000*%
%ADD39O,1.000000X1.600000*%
%ADD40RoundRect,0.150000X-0.150000X0.587500X-0.150000X-0.587500X0.150000X-0.587500X0.150000X0.587500X0*%
%ADD41RoundRect,0.200000X0.200000X0.275000X-0.200000X0.275000X-0.200000X-0.275000X0.200000X-0.275000X0*%
%ADD42RoundRect,0.150000X-0.150000X-0.200000X0.150000X-0.200000X0.150000X0.200000X-0.150000X0.200000X0*%
%ADD43C,2.000000*%
%ADD44R,0.800000X0.400000*%
%ADD45R,0.400000X0.800000*%
%ADD46FreePoly0,0.000000*%
%ADD47R,1.450000X1.450000*%
%ADD48R,0.700000X0.700000*%
%ADD49RoundRect,0.250000X-0.250000X-1.500000X0.250000X-1.500000X0.250000X1.500000X-0.250000X1.500000X0*%
%ADD50RoundRect,0.250001X-0.499999X-1.449999X0.499999X-1.449999X0.499999X1.449999X-0.499999X1.449999X0*%
%ADD51RoundRect,0.200000X-0.275000X0.200000X-0.275000X-0.200000X0.275000X-0.200000X0.275000X0.200000X0*%
%ADD52RoundRect,0.150000X0.587500X0.150000X-0.587500X0.150000X-0.587500X-0.150000X0.587500X-0.150000X0*%
%ADD53RoundRect,0.150000X0.625000X-0.150000X0.625000X0.150000X-0.625000X0.150000X-0.625000X-0.150000X0*%
%ADD54RoundRect,0.250000X0.650000X-0.350000X0.650000X0.350000X-0.650000X0.350000X-0.650000X-0.350000X0*%
%ADD55RoundRect,0.150000X-0.625000X0.150000X-0.625000X-0.150000X0.625000X-0.150000X0.625000X0.150000X0*%
%ADD56RoundRect,0.250000X-0.650000X0.350000X-0.650000X-0.350000X0.650000X-0.350000X0.650000X0.350000X0*%
%ADD57RoundRect,0.225000X0.250000X-0.225000X0.250000X0.225000X-0.250000X0.225000X-0.250000X-0.225000X0*%
%ADD58RoundRect,0.147500X0.147500X0.172500X-0.147500X0.172500X-0.147500X-0.172500X0.147500X-0.172500X0*%
%ADD59C,0.500000*%
G04 APERTURE END LIST*
D10*
X101370000Y-85360000D02*
X103370000Y-85360000D01*
X103370000Y-95360000D01*
X101370000Y-95360000D01*
X101370000Y-85360000D01*
G36*
X101370000Y-85360000D02*
G01*
X103370000Y-85360000D01*
X103370000Y-95360000D01*
X101370000Y-95360000D01*
X101370000Y-85360000D01*
G37*
X41250007Y-62414207D02*
G75*
G02*
X42250007Y-61414207I999993J7D01*
G01*
D11*
G36*
X116627735Y-70813264D02*
G01*
X116039623Y-70813264D01*
X116039623Y-71171129D01*
X116498506Y-71171129D01*
X116498506Y-71297158D01*
X116039623Y-71297158D01*
X116039623Y-71796000D01*
X115916304Y-71796000D01*
X115916304Y-70687235D01*
X116627735Y-70687235D01*
X116627735Y-70813264D01*
G37*
G36*
X117296727Y-70690305D02*
G01*
X117356758Y-70701649D01*
X117410875Y-70721352D01*
X117459078Y-70749414D01*
X117489888Y-70774576D01*
X117531028Y-70822130D01*
X117560413Y-70877451D01*
X117578044Y-70940539D01*
X117583830Y-71002112D01*
X117583921Y-71011394D01*
X117579383Y-71073620D01*
X117563083Y-71136974D01*
X117534927Y-71192047D01*
X117494917Y-71238841D01*
X117489082Y-71244108D01*
X117437985Y-71280525D01*
X117387021Y-71303854D01*
X117355442Y-71312395D01*
X117645715Y-71796000D01*
X117499291Y-71796000D01*
X117221898Y-71335553D01*
X116978883Y-71335553D01*
X116978883Y-71796000D01*
X116855565Y-71796000D01*
X116855565Y-71209817D01*
X116978883Y-71209817D01*
X117238953Y-71209817D01*
X117296019Y-71205899D01*
X117349007Y-71192355D01*
X117398117Y-71163332D01*
X117401496Y-71160284D01*
X117435939Y-71111675D01*
X117452147Y-71052378D01*
X117454692Y-71011394D01*
X117448407Y-70949140D01*
X117427211Y-70894577D01*
X117401496Y-70862796D01*
X117353703Y-70832613D01*
X117296019Y-70817182D01*
X117238953Y-70813264D01*
X116978883Y-70813264D01*
X116978883Y-71209817D01*
X116855565Y-71209817D01*
X116855565Y-70687235D01*
X117240565Y-70687235D01*
X117296727Y-70690305D01*
G37*
G36*
X118689755Y-71796000D02*
G01*
X118558914Y-71796000D01*
X118451179Y-71488547D01*
X117990683Y-71488547D01*
X117882948Y-71796000D01*
X117753450Y-71796000D01*
X117908171Y-71362517D01*
X118035282Y-71362517D01*
X118406311Y-71362517D01*
X118220125Y-70816488D01*
X118035282Y-71362517D01*
X117908171Y-71362517D01*
X118149197Y-70687235D01*
X118295621Y-70687235D01*
X118689755Y-71796000D01*
G37*
G36*
X119271688Y-71812706D02*
G01*
X119210210Y-71809382D01*
X119152486Y-71799410D01*
X119098516Y-71782791D01*
X119048300Y-71759523D01*
X119021290Y-71743243D01*
X118971604Y-71704738D01*
X118927862Y-71658979D01*
X118894463Y-71612990D01*
X118865616Y-71561446D01*
X118858210Y-71545699D01*
X118835702Y-71487464D01*
X118818723Y-71424573D01*
X118808569Y-71366959D01*
X118802477Y-71305925D01*
X118800446Y-71241471D01*
X118802581Y-71177115D01*
X118808985Y-71116160D01*
X118819658Y-71058606D01*
X118837506Y-70995756D01*
X118861165Y-70937535D01*
X118890161Y-70884419D01*
X118923785Y-70836884D01*
X118962038Y-70794932D01*
X119004919Y-70758561D01*
X119031500Y-70740284D01*
X119080882Y-70713104D01*
X119133350Y-70692600D01*
X119188903Y-70678771D01*
X119247542Y-70671618D01*
X119282435Y-70670528D01*
X119337073Y-70672713D01*
X119395804Y-70680783D01*
X119449135Y-70694800D01*
X119503472Y-70718101D01*
X119527997Y-70732664D01*
X119573133Y-70767926D01*
X119613702Y-70811579D01*
X119649703Y-70863621D01*
X119677457Y-70916040D01*
X119681137Y-70924053D01*
X119568834Y-70991170D01*
X119543820Y-70935947D01*
X119507395Y-70885581D01*
X119461636Y-70846090D01*
X119412735Y-70819815D01*
X119357380Y-70803271D01*
X119302043Y-70796703D01*
X119282435Y-70796265D01*
X119226273Y-70800461D01*
X119168258Y-70814967D01*
X119114860Y-70839834D01*
X119099741Y-70849314D01*
X119053512Y-70887050D01*
X119013894Y-70933944D01*
X118983891Y-70983981D01*
X118975080Y-71002308D01*
X118953131Y-71061633D01*
X118939652Y-71119583D01*
X118931848Y-71182442D01*
X118929675Y-71241471D01*
X118931552Y-71300613D01*
X118938294Y-71363569D01*
X118949939Y-71421578D01*
X118968900Y-71480926D01*
X118994134Y-71533435D01*
X119029249Y-71583078D01*
X119071816Y-71623561D01*
X119086039Y-71633920D01*
X119138094Y-71661741D01*
X119190685Y-71677970D01*
X119248717Y-71685852D01*
X119276256Y-71686676D01*
X119333557Y-71682812D01*
X119387081Y-71671220D01*
X119393932Y-71669091D01*
X119445247Y-71647109D01*
X119489577Y-71616334D01*
X119527963Y-71573525D01*
X119553520Y-71527235D01*
X119570849Y-71468763D01*
X119576535Y-71410147D01*
X119576625Y-71401205D01*
X119576625Y-71362517D01*
X119253150Y-71362517D01*
X119253150Y-71236488D01*
X119688928Y-71236488D01*
X119688928Y-71796000D01*
X119591939Y-71796000D01*
X119585760Y-71589370D01*
X119612090Y-71594353D01*
X119585917Y-71649312D01*
X119552433Y-71696805D01*
X119511638Y-71736834D01*
X119485816Y-71755846D01*
X119434011Y-71783332D01*
X119382431Y-71800212D01*
X119325645Y-71809985D01*
X119271688Y-71812706D01*
G37*
G36*
X120099720Y-70687235D02*
G01*
X120099720Y-71796000D01*
X119976402Y-71796000D01*
X119976402Y-70687235D01*
X120099720Y-70687235D01*
G37*
G36*
X120555380Y-71669970D02*
G01*
X121137313Y-71669970D01*
X121137313Y-71796000D01*
X120432062Y-71796000D01*
X120432062Y-70687235D01*
X120555380Y-70687235D01*
X120555380Y-71669970D01*
G37*
G36*
X121460788Y-70687235D02*
G01*
X121460788Y-71167612D01*
X121442519Y-71446635D01*
X121350097Y-71446635D01*
X121331559Y-71167612D01*
X121331559Y-70687235D01*
X121460788Y-70687235D01*
G37*
G36*
X121396308Y-71594353D02*
G01*
X121449631Y-71608760D01*
X121468579Y-71624834D01*
X121494063Y-71677769D01*
X121496252Y-71703676D01*
X121483172Y-71761846D01*
X121468579Y-71782517D01*
X121420056Y-71810318D01*
X121396308Y-71812706D01*
X121342742Y-71798437D01*
X121323768Y-71782517D01*
X121298284Y-71729583D01*
X121296095Y-71703676D01*
X121309175Y-71645505D01*
X121323768Y-71624834D01*
X121372430Y-71596764D01*
X121396308Y-71594353D01*
G37*
G36*
X112371129Y-112570504D02*
G01*
X112428190Y-112581804D01*
X112479950Y-112601175D01*
X112494445Y-112608561D01*
X112542965Y-112640857D01*
X112583613Y-112681327D01*
X112613733Y-112725211D01*
X112638360Y-112780557D01*
X112652764Y-112842623D01*
X112656988Y-112904876D01*
X112652764Y-112967129D01*
X112638360Y-113029195D01*
X112613733Y-113084541D01*
X112580243Y-113132476D01*
X112538880Y-113172307D01*
X112494445Y-113201484D01*
X112444274Y-113223123D01*
X112388804Y-113236747D01*
X112334349Y-113242157D01*
X112315244Y-113242517D01*
X112079623Y-113242517D01*
X112079623Y-113676000D01*
X111956304Y-113676000D01*
X111956304Y-113116488D01*
X112079623Y-113116488D01*
X112296706Y-113116488D01*
X112352706Y-113113081D01*
X112406032Y-113101102D01*
X112457297Y-113074750D01*
X112472145Y-113061973D01*
X112506035Y-113014327D01*
X112523360Y-112958776D01*
X112527759Y-112904876D01*
X112522328Y-112844769D01*
X112501473Y-112785638D01*
X112472145Y-112747193D01*
X112421531Y-112714330D01*
X112365441Y-112698530D01*
X112311465Y-112693475D01*
X112296706Y-112693264D01*
X112079623Y-112693264D01*
X112079623Y-113116488D01*
X111956304Y-113116488D01*
X111956304Y-112567235D01*
X112315244Y-112567235D01*
X112371129Y-112570504D01*
G37*
G36*
X113336727Y-112570305D02*
G01*
X113396758Y-112581649D01*
X113450875Y-112601352D01*
X113499078Y-112629414D01*
X113529888Y-112654576D01*
X113571028Y-112702130D01*
X113600413Y-112757451D01*
X113618044Y-112820539D01*
X113623830Y-112882112D01*
X113623921Y-112891394D01*
X113619383Y-112953620D01*
X113603083Y-113016974D01*
X113574927Y-113072047D01*
X113534917Y-113118841D01*
X113529082Y-113124108D01*
X113477985Y-113160525D01*
X113427021Y-113183854D01*
X113395442Y-113192395D01*
X113685715Y-113676000D01*
X113539291Y-113676000D01*
X113261898Y-113215553D01*
X113018883Y-113215553D01*
X113018883Y-113676000D01*
X112895565Y-113676000D01*
X112895565Y-113089817D01*
X113018883Y-113089817D01*
X113278953Y-113089817D01*
X113336019Y-113085899D01*
X113389007Y-113072355D01*
X113438117Y-113043332D01*
X113441496Y-113040284D01*
X113475939Y-112991675D01*
X113492147Y-112932378D01*
X113494692Y-112891394D01*
X113488407Y-112829140D01*
X113467211Y-112774577D01*
X113441496Y-112742796D01*
X113393703Y-112712613D01*
X113336019Y-112697182D01*
X113278953Y-112693264D01*
X113018883Y-112693264D01*
X113018883Y-113089817D01*
X112895565Y-113089817D01*
X112895565Y-112567235D01*
X113280565Y-112567235D01*
X113336727Y-112570305D01*
G37*
G36*
X114381234Y-112553866D02*
G01*
X114438920Y-112563880D01*
X114492826Y-112580570D01*
X114542952Y-112603935D01*
X114569898Y-112620284D01*
X114619702Y-112658661D01*
X114663529Y-112704328D01*
X114696973Y-112750268D01*
X114725841Y-112801789D01*
X114733248Y-112817535D01*
X114755755Y-112875756D01*
X114772735Y-112938606D01*
X114784186Y-113006083D01*
X114789601Y-113067605D01*
X114791011Y-113121471D01*
X114788981Y-113185925D01*
X114782888Y-113246959D01*
X114772735Y-113304573D01*
X114755755Y-113367464D01*
X114733248Y-113425699D01*
X114705688Y-113478830D01*
X114673551Y-113526406D01*
X114631219Y-113573978D01*
X114582910Y-113614297D01*
X114569898Y-113623243D01*
X114521932Y-113650309D01*
X114470186Y-113670727D01*
X114414660Y-113684498D01*
X114355355Y-113691620D01*
X114319769Y-113692706D01*
X114258291Y-113689382D01*
X114200567Y-113679410D01*
X114146597Y-113662791D01*
X114096381Y-113639523D01*
X114069371Y-113623243D01*
X114019685Y-113584738D01*
X113975942Y-113538979D01*
X113942544Y-113492990D01*
X113913697Y-113441446D01*
X113906290Y-113425699D01*
X113883783Y-113367464D01*
X113866804Y-113304573D01*
X113856650Y-113246959D01*
X113850558Y-113185925D01*
X113848527Y-113121471D01*
X113977756Y-113121471D01*
X113979749Y-113180613D01*
X113986906Y-113243569D01*
X113999269Y-113301578D01*
X114019399Y-113360926D01*
X114045608Y-113413435D01*
X114081259Y-113463078D01*
X114123784Y-113503561D01*
X114137882Y-113513920D01*
X114188776Y-113541741D01*
X114245076Y-113559258D01*
X114300366Y-113566213D01*
X114319769Y-113566676D01*
X114377105Y-113562503D01*
X114429722Y-113549984D01*
X114482653Y-113526285D01*
X114502194Y-113513920D01*
X114546472Y-113476184D01*
X114583928Y-113429290D01*
X114614562Y-113373236D01*
X114619870Y-113360926D01*
X114640001Y-113301578D01*
X114652364Y-113243569D01*
X114659521Y-113180613D01*
X114661514Y-113121471D01*
X114659521Y-113062442D01*
X114652364Y-112999583D01*
X114640001Y-112941633D01*
X114619870Y-112882308D01*
X114593834Y-112829799D01*
X114558425Y-112780156D01*
X114516194Y-112739673D01*
X114502194Y-112729314D01*
X114451593Y-112701339D01*
X114395168Y-112683725D01*
X114339405Y-112676731D01*
X114319769Y-112676265D01*
X114263019Y-112680461D01*
X114205098Y-112694967D01*
X114152582Y-112719834D01*
X114137882Y-112729314D01*
X114093294Y-112767050D01*
X114055581Y-112813944D01*
X114027517Y-112863981D01*
X114019399Y-112882308D01*
X113999269Y-112941633D01*
X113986906Y-112999583D01*
X113979749Y-113062442D01*
X113977756Y-113121471D01*
X113848527Y-113121471D01*
X113850558Y-113057115D01*
X113856650Y-112996160D01*
X113868891Y-112929344D01*
X113886660Y-112867155D01*
X113906290Y-112817535D01*
X113933838Y-112764419D01*
X113965936Y-112716884D01*
X114008192Y-112669394D01*
X114056393Y-112629195D01*
X114069371Y-112620284D01*
X114117442Y-112593104D01*
X114169267Y-112572600D01*
X114224846Y-112558771D01*
X114284179Y-112551618D01*
X114319769Y-112550528D01*
X114381234Y-112553866D01*
G37*
G36*
X115185415Y-112567235D02*
G01*
X115185415Y-113676000D01*
X115062096Y-113676000D01*
X115062096Y-112567235D01*
X115185415Y-112567235D01*
G37*
G36*
X115517756Y-113676000D02*
G01*
X115517756Y-112567235D01*
X116230799Y-112567235D01*
X116230799Y-112693264D01*
X115641074Y-112693264D01*
X115641074Y-113051129D01*
X116099958Y-113051129D01*
X116099958Y-113177158D01*
X115641074Y-113177158D01*
X115641074Y-113549970D01*
X116253904Y-113549970D01*
X116253904Y-113676000D01*
X115517756Y-113676000D01*
G37*
G36*
X117295526Y-113391994D02*
G01*
X117272648Y-113448277D01*
X117244312Y-113499522D01*
X117210518Y-113545730D01*
X117203105Y-113554367D01*
X117159439Y-113597236D01*
X117110820Y-113632347D01*
X117062323Y-113657535D01*
X117010363Y-113676082D01*
X116955570Y-113687760D01*
X116897943Y-113692568D01*
X116886078Y-113692706D01*
X116824600Y-113689382D01*
X116766876Y-113679410D01*
X116712905Y-113662791D01*
X116662689Y-113639523D01*
X116635680Y-113623243D01*
X116585993Y-113584738D01*
X116542251Y-113538979D01*
X116508852Y-113492990D01*
X116480005Y-113441446D01*
X116472599Y-113425699D01*
X116450092Y-113367464D01*
X116433112Y-113304573D01*
X116422958Y-113246959D01*
X116416866Y-113185925D01*
X116414836Y-113121471D01*
X116416866Y-113057115D01*
X116422958Y-112996160D01*
X116435199Y-112929344D01*
X116452968Y-112867155D01*
X116472599Y-112817535D01*
X116500146Y-112764419D01*
X116532244Y-112716884D01*
X116574500Y-112669394D01*
X116622701Y-112629195D01*
X116635680Y-112620284D01*
X116683597Y-112593104D01*
X116734959Y-112572600D01*
X116789766Y-112558771D01*
X116848019Y-112551618D01*
X116882854Y-112550528D01*
X116936595Y-112552847D01*
X116992270Y-112560861D01*
X117048603Y-112576288D01*
X117058293Y-112579838D01*
X117108638Y-112603382D01*
X117157477Y-112636808D01*
X117189940Y-112667179D01*
X117227910Y-112714330D01*
X117257207Y-112763924D01*
X117277257Y-112809035D01*
X117155551Y-112871170D01*
X117131455Y-112815947D01*
X117098161Y-112765581D01*
X117057756Y-112726090D01*
X117009351Y-112697723D01*
X116952056Y-112681130D01*
X116892257Y-112676265D01*
X116836159Y-112680461D01*
X116778364Y-112694967D01*
X116725344Y-112719834D01*
X116710369Y-112729314D01*
X116664696Y-112766964D01*
X116625739Y-112813601D01*
X116596421Y-112863258D01*
X116587857Y-112881429D01*
X116566688Y-112940468D01*
X116553687Y-112998514D01*
X116546160Y-113061799D01*
X116544064Y-113121471D01*
X116546057Y-113180613D01*
X116553215Y-113243569D01*
X116565577Y-113301578D01*
X116585708Y-113360926D01*
X116611916Y-113413435D01*
X116647567Y-113463078D01*
X116690092Y-113503561D01*
X116704190Y-113513920D01*
X116755085Y-113541741D01*
X116811384Y-113559258D01*
X116866675Y-113566213D01*
X116886078Y-113566676D01*
X116941142Y-113562225D01*
X116997488Y-113546838D01*
X117048745Y-113520460D01*
X117063129Y-113510403D01*
X117106247Y-113469736D01*
X117141232Y-113418079D01*
X117165764Y-113362190D01*
X117172477Y-113341582D01*
X117295526Y-113391994D01*
G37*
G36*
X118247414Y-112567235D02*
G01*
X118247414Y-112693264D01*
X117893042Y-112693264D01*
X117893042Y-113676000D01*
X117769993Y-113676000D01*
X117769993Y-112693264D01*
X117415621Y-112693264D01*
X117415621Y-112567235D01*
X118247414Y-112567235D01*
G37*
G36*
X119133747Y-113676000D02*
G01*
X119002906Y-113676000D01*
X118895170Y-113368547D01*
X118434675Y-113368547D01*
X118326939Y-113676000D01*
X118197442Y-113676000D01*
X118352163Y-113242517D01*
X118479274Y-113242517D01*
X118850303Y-113242517D01*
X118664117Y-112696488D01*
X118479274Y-113242517D01*
X118352163Y-113242517D01*
X118593189Y-112567235D01*
X118739612Y-112567235D01*
X119133747Y-113676000D01*
G37*
G36*
X119915300Y-112567235D02*
G01*
X119915300Y-112693264D01*
X119560928Y-112693264D01*
X119560928Y-113676000D01*
X119437878Y-113676000D01*
X119437878Y-112693264D01*
X119083506Y-112693264D01*
X119083506Y-112567235D01*
X119915300Y-112567235D01*
G37*
G36*
X121431926Y-113391994D02*
G01*
X121409047Y-113448277D01*
X121380711Y-113499522D01*
X121346918Y-113545730D01*
X121339504Y-113554367D01*
X121295838Y-113597236D01*
X121247219Y-113632347D01*
X121198722Y-113657535D01*
X121146763Y-113676082D01*
X121091969Y-113687760D01*
X121034342Y-113692568D01*
X121022477Y-113692706D01*
X120960999Y-113689382D01*
X120903275Y-113679410D01*
X120849305Y-113662791D01*
X120799088Y-113639523D01*
X120772079Y-113623243D01*
X120722392Y-113584738D01*
X120678650Y-113538979D01*
X120645252Y-113492990D01*
X120616404Y-113441446D01*
X120608998Y-113425699D01*
X120586491Y-113367464D01*
X120569511Y-113304573D01*
X120559358Y-113246959D01*
X120553265Y-113185925D01*
X120551235Y-113121471D01*
X120553265Y-113057115D01*
X120559358Y-112996160D01*
X120571599Y-112929344D01*
X120589368Y-112867155D01*
X120608998Y-112817535D01*
X120636545Y-112764419D01*
X120668643Y-112716884D01*
X120710900Y-112669394D01*
X120759100Y-112629195D01*
X120772079Y-112620284D01*
X120819996Y-112593104D01*
X120871358Y-112572600D01*
X120926165Y-112558771D01*
X120984418Y-112551618D01*
X121019253Y-112550528D01*
X121072994Y-112552847D01*
X121128669Y-112560861D01*
X121185003Y-112576288D01*
X121194692Y-112579838D01*
X121245037Y-112603382D01*
X121293876Y-112636808D01*
X121326339Y-112667179D01*
X121364310Y-112714330D01*
X121393606Y-112763924D01*
X121413656Y-112809035D01*
X121291950Y-112871170D01*
X121267854Y-112815947D01*
X121234560Y-112765581D01*
X121194155Y-112726090D01*
X121145750Y-112697723D01*
X121088456Y-112681130D01*
X121028656Y-112676265D01*
X120972558Y-112680461D01*
X120914763Y-112694967D01*
X120861743Y-112719834D01*
X120846769Y-112729314D01*
X120801095Y-112766964D01*
X120762138Y-112813601D01*
X120732820Y-112863258D01*
X120724256Y-112881429D01*
X120703087Y-112940468D01*
X120690086Y-112998514D01*
X120682559Y-113061799D01*
X120680464Y-113121471D01*
X120682456Y-113180613D01*
X120689614Y-113243569D01*
X120701977Y-113301578D01*
X120722107Y-113360926D01*
X120748315Y-113413435D01*
X120783966Y-113463078D01*
X120826491Y-113503561D01*
X120840589Y-113513920D01*
X120891484Y-113541741D01*
X120947783Y-113559258D01*
X121003074Y-113566213D01*
X121022477Y-113566676D01*
X121077541Y-113562225D01*
X121133887Y-113546838D01*
X121185144Y-113520460D01*
X121199528Y-113510403D01*
X121242646Y-113469736D01*
X121277631Y-113418079D01*
X121302163Y-113362190D01*
X121308876Y-113341582D01*
X121431926Y-113391994D01*
G37*
G36*
X122446950Y-112567235D02*
G01*
X122446950Y-113262741D01*
X122444431Y-113326857D01*
X122436875Y-113385850D01*
X122421158Y-113449879D01*
X122398187Y-113506531D01*
X122367962Y-113555805D01*
X122343782Y-113584555D01*
X122294365Y-113626696D01*
X122245192Y-113654578D01*
X122189729Y-113674857D01*
X122127976Y-113687531D01*
X122071709Y-113692283D01*
X122047979Y-113692706D01*
X121990410Y-113690065D01*
X121937091Y-113682144D01*
X121878719Y-113665668D01*
X121826467Y-113641588D01*
X121780336Y-113609903D01*
X121752983Y-113584555D01*
X121717739Y-113540200D01*
X121689787Y-113488467D01*
X121669127Y-113429356D01*
X121655759Y-113362868D01*
X121650189Y-113301825D01*
X121649277Y-113262741D01*
X121649277Y-112567235D01*
X121772327Y-112567235D01*
X121772327Y-113229035D01*
X121774679Y-113290797D01*
X121783368Y-113354779D01*
X121801137Y-113417253D01*
X121831124Y-113473961D01*
X121839225Y-113484611D01*
X121882893Y-113524281D01*
X121938335Y-113550969D01*
X121997500Y-113563791D01*
X122047979Y-113566676D01*
X122106350Y-113562749D01*
X122164306Y-113548644D01*
X122218348Y-113520515D01*
X122256465Y-113484611D01*
X122288933Y-113431097D01*
X122308873Y-113371462D01*
X122319434Y-113309965D01*
X122323369Y-113250332D01*
X122323632Y-113229035D01*
X122323632Y-112567235D01*
X122446950Y-112567235D01*
G37*
G36*
X124265826Y-112567235D02*
G01*
X124265826Y-113676000D01*
X124148688Y-113676000D01*
X124148688Y-112978735D01*
X124162658Y-112686523D01*
X124161046Y-112686523D01*
X123826824Y-113676000D01*
X123722313Y-113676000D01*
X123388091Y-112686523D01*
X123386479Y-112686523D01*
X123400450Y-112978735D01*
X123400450Y-113676000D01*
X123283311Y-113676000D01*
X123283311Y-112567235D01*
X123472721Y-112567235D01*
X123695983Y-113240759D01*
X123773091Y-113518023D01*
X123776046Y-113518023D01*
X123854766Y-113242517D01*
X124076416Y-112567235D01*
X124265826Y-112567235D01*
G37*
G36*
X125407662Y-113676000D02*
G01*
X125276821Y-113676000D01*
X125169085Y-113368547D01*
X124708590Y-113368547D01*
X124600854Y-113676000D01*
X124471357Y-113676000D01*
X124626078Y-113242517D01*
X124753189Y-113242517D01*
X125124218Y-113242517D01*
X124938032Y-112696488D01*
X124753189Y-113242517D01*
X124626078Y-113242517D01*
X124867103Y-112567235D01*
X125013527Y-112567235D01*
X125407662Y-113676000D01*
G37*
G36*
X125176877Y-112427723D02*
G01*
X125062962Y-112427723D01*
X124939644Y-112248058D01*
X124816325Y-112427723D01*
X124702411Y-112427723D01*
X124871939Y-112160717D01*
X125007348Y-112160717D01*
X125176877Y-112427723D01*
G37*
G36*
X126410865Y-112567235D02*
G01*
X126410865Y-113676000D01*
X126258531Y-113676000D01*
X125833499Y-112933306D01*
X125725495Y-112725211D01*
X125724152Y-112725211D01*
X125730331Y-112893152D01*
X125730331Y-113676000D01*
X125613192Y-113676000D01*
X125613192Y-112567235D01*
X125765795Y-112567235D01*
X126189214Y-113306411D01*
X126298562Y-113519782D01*
X126300174Y-113519782D01*
X126293995Y-113350082D01*
X126293995Y-112567235D01*
X126410865Y-112567235D01*
G37*
G36*
X127128756Y-112569479D02*
G01*
X127183602Y-112576211D01*
X127247661Y-112590937D01*
X127306722Y-112612675D01*
X127360784Y-112641426D01*
X127409849Y-112677190D01*
X127445502Y-112710849D01*
X127484821Y-112758742D01*
X127517475Y-112812659D01*
X127543466Y-112872601D01*
X127562792Y-112938568D01*
X127575454Y-113010560D01*
X127580785Y-113072491D01*
X127581985Y-113121471D01*
X127579852Y-113186363D01*
X127573455Y-113247390D01*
X127559460Y-113318238D01*
X127538801Y-113383048D01*
X127511478Y-113441818D01*
X127477490Y-113494548D01*
X127445502Y-113532385D01*
X127400436Y-113573758D01*
X127350372Y-113608119D01*
X127295309Y-113635468D01*
X127235249Y-113655804D01*
X127170190Y-113669127D01*
X127114545Y-113674737D01*
X127070711Y-113676000D01*
X126742669Y-113676000D01*
X126742669Y-113549970D01*
X126865987Y-113549970D01*
X127083070Y-113549970D01*
X127145674Y-113545983D01*
X127202912Y-113534020D01*
X127254786Y-113514081D01*
X127308525Y-113480740D01*
X127354961Y-113436544D01*
X127393067Y-113382698D01*
X127418279Y-113329825D01*
X127436616Y-113270749D01*
X127448076Y-113205470D01*
X127452374Y-113146332D01*
X127452756Y-113121471D01*
X127450368Y-113060694D01*
X127441200Y-112993430D01*
X127425156Y-112932348D01*
X127402235Y-112877448D01*
X127366803Y-112821212D01*
X127354961Y-112806690D01*
X127308525Y-112762494D01*
X127254786Y-112729153D01*
X127202912Y-112709215D01*
X127145674Y-112697252D01*
X127083070Y-112693264D01*
X126865987Y-112693264D01*
X126865987Y-113549970D01*
X126742669Y-113549970D01*
X126742669Y-112567235D01*
X127070711Y-112567235D01*
X127128756Y-112569479D01*
G37*
G36*
X128293963Y-112570305D02*
G01*
X128353994Y-112581649D01*
X128408111Y-112601352D01*
X128456314Y-112629414D01*
X128487124Y-112654576D01*
X128528264Y-112702130D01*
X128557650Y-112757451D01*
X128575281Y-112820539D01*
X128581066Y-112882112D01*
X128581158Y-112891394D01*
X128576620Y-112953620D01*
X128560319Y-113016974D01*
X128532164Y-113072047D01*
X128492153Y-113118841D01*
X128486318Y-113124108D01*
X128435221Y-113160525D01*
X128384258Y-113183854D01*
X128352678Y-113192395D01*
X128642951Y-113676000D01*
X128496528Y-113676000D01*
X128219134Y-113215553D01*
X127976120Y-113215553D01*
X127976120Y-113676000D01*
X127852801Y-113676000D01*
X127852801Y-113089817D01*
X127976120Y-113089817D01*
X128236189Y-113089817D01*
X128293256Y-113085899D01*
X128346244Y-113072355D01*
X128395353Y-113043332D01*
X128398733Y-113040284D01*
X128433175Y-112991675D01*
X128449384Y-112932378D01*
X128451929Y-112891394D01*
X128445643Y-112829140D01*
X128424448Y-112774577D01*
X128398733Y-112742796D01*
X128350940Y-112712613D01*
X128293256Y-112697182D01*
X128236189Y-112693264D01*
X127976120Y-112693264D01*
X127976120Y-113089817D01*
X127852801Y-113089817D01*
X127852801Y-112567235D01*
X128237801Y-112567235D01*
X128293963Y-112570305D01*
G37*
G36*
X129000279Y-112567235D02*
G01*
X129000279Y-113676000D01*
X128876960Y-113676000D01*
X128876960Y-112567235D01*
X129000279Y-112567235D01*
G37*
G36*
X129332620Y-113676000D02*
G01*
X129332620Y-112567235D01*
X130045662Y-112567235D01*
X130045662Y-112693264D01*
X129455938Y-112693264D01*
X129455938Y-113051129D01*
X129914822Y-113051129D01*
X129914822Y-113177158D01*
X129455938Y-113177158D01*
X129455938Y-113549970D01*
X130068768Y-113549970D01*
X130068768Y-113676000D01*
X129332620Y-113676000D01*
G37*
G36*
X130962623Y-112567235D02*
G01*
X130962623Y-113676000D01*
X130839305Y-113676000D01*
X130839305Y-112567235D01*
X130962623Y-112567235D01*
G37*
G36*
X131138063Y-112427723D02*
G01*
X131024148Y-112427723D01*
X130900830Y-112248058D01*
X130777512Y-112427723D01*
X130663597Y-112427723D01*
X130833126Y-112160717D01*
X130968534Y-112160717D01*
X131138063Y-112427723D01*
G37*
G36*
X132092637Y-112567235D02*
G01*
X132092637Y-113676000D01*
X131940303Y-113676000D01*
X131515272Y-112933306D01*
X131407267Y-112725211D01*
X131405924Y-112725211D01*
X131412103Y-112893152D01*
X131412103Y-113676000D01*
X131294965Y-113676000D01*
X131294965Y-112567235D01*
X131447568Y-112567235D01*
X131870987Y-113306411D01*
X131980334Y-113519782D01*
X131981946Y-113519782D01*
X131975767Y-113350082D01*
X131975767Y-112567235D01*
X132092637Y-112567235D01*
G37*
G36*
X172013293Y-113546632D02*
G01*
X172013293Y-114563000D01*
X171901186Y-114563000D01*
X171901186Y-113546632D01*
X172013293Y-113546632D01*
G37*
G36*
X172172784Y-113418746D02*
G01*
X172069225Y-113418746D01*
X171957117Y-113254053D01*
X171845010Y-113418746D01*
X171741451Y-113418746D01*
X171895568Y-113173990D01*
X172018667Y-113173990D01*
X172172784Y-113418746D01*
G37*
G36*
X173040579Y-113546632D02*
G01*
X173040579Y-114563000D01*
X172902093Y-114563000D01*
X172515701Y-113882197D01*
X172417515Y-113691443D01*
X172416294Y-113691443D01*
X172421912Y-113845390D01*
X172421912Y-114563000D01*
X172315422Y-114563000D01*
X172315422Y-113546632D01*
X172454152Y-113546632D01*
X172839078Y-114224210D01*
X172938485Y-114419800D01*
X172939951Y-114419800D01*
X172934333Y-114264242D01*
X172934333Y-113546632D01*
X173040579Y-113546632D01*
G37*
G36*
X174086915Y-114302661D02*
G01*
X174066116Y-114354254D01*
X174040356Y-114401228D01*
X174009635Y-114443585D01*
X174002896Y-114451503D01*
X173963199Y-114490799D01*
X173919000Y-114522985D01*
X173874912Y-114546073D01*
X173827676Y-114563075D01*
X173777864Y-114573780D01*
X173725476Y-114578188D01*
X173714689Y-114578314D01*
X173658800Y-114575267D01*
X173606323Y-114566126D01*
X173557260Y-114550891D01*
X173511609Y-114529563D01*
X173487055Y-114514639D01*
X173441885Y-114479343D01*
X173402119Y-114437398D01*
X173371757Y-114395240D01*
X173345532Y-114347992D01*
X173338799Y-114333558D01*
X173318338Y-114280175D01*
X173302902Y-114222525D01*
X173293672Y-114169713D01*
X173288133Y-114113765D01*
X173286287Y-114054681D01*
X173288133Y-113995689D01*
X173293672Y-113939813D01*
X173304800Y-113878565D01*
X173320953Y-113821559D01*
X173338799Y-113776073D01*
X173363842Y-113727384D01*
X173393022Y-113683810D01*
X173431437Y-113640278D01*
X173475256Y-113603429D01*
X173487055Y-113595260D01*
X173530615Y-113570345D01*
X173577308Y-113551550D01*
X173627133Y-113538873D01*
X173680090Y-113532317D01*
X173711758Y-113531318D01*
X173760614Y-113533443D01*
X173811228Y-113540789D01*
X173862440Y-113554931D01*
X173871249Y-113558184D01*
X173917016Y-113579766D01*
X173961415Y-113610407D01*
X173990928Y-113638247D01*
X174025446Y-113681469D01*
X174052079Y-113726930D01*
X174070307Y-113768282D01*
X173959665Y-113825240D01*
X173937759Y-113774618D01*
X173907492Y-113728449D01*
X173870760Y-113692249D01*
X173826755Y-113666246D01*
X173774670Y-113651036D01*
X173720307Y-113646576D01*
X173669308Y-113650423D01*
X173616767Y-113663719D01*
X173568568Y-113686514D01*
X173554954Y-113695205D01*
X173513433Y-113729717D01*
X173478018Y-113772467D01*
X173451365Y-113817987D01*
X173443579Y-113834643D01*
X173424335Y-113888762D01*
X173412515Y-113941971D01*
X173405673Y-113999982D01*
X173403768Y-114054681D01*
X173405579Y-114108896D01*
X173412086Y-114166604D01*
X173423325Y-114219780D01*
X173441625Y-114274182D01*
X173465451Y-114322316D01*
X173497861Y-114367821D01*
X173536520Y-114404931D01*
X173549337Y-114414427D01*
X173595604Y-114439929D01*
X173646786Y-114455986D01*
X173697050Y-114462362D01*
X173714689Y-114462787D01*
X173764747Y-114458706D01*
X173815971Y-114444601D01*
X173862568Y-114420421D01*
X173875645Y-114411203D01*
X173914843Y-114373925D01*
X173946647Y-114326572D01*
X173968949Y-114275341D01*
X173975052Y-114256450D01*
X174086915Y-114302661D01*
G37*
G36*
X175038974Y-114563000D02*
G01*
X174920027Y-114563000D01*
X174822086Y-114281168D01*
X174403454Y-114281168D01*
X174305512Y-114563000D01*
X174187787Y-114563000D01*
X174328443Y-114165641D01*
X174443998Y-114165641D01*
X174781297Y-114165641D01*
X174612037Y-113665114D01*
X174443998Y-114165641D01*
X174328443Y-114165641D01*
X174547557Y-113546632D01*
X174680669Y-113546632D01*
X175038974Y-114563000D01*
G37*
G36*
X174506658Y-113259355D02*
G01*
X174528018Y-113300533D01*
X174569611Y-113333554D01*
X174613503Y-113341370D01*
X174663695Y-113331161D01*
X174699476Y-113300533D01*
X174723244Y-113250425D01*
X174729762Y-113205693D01*
X174820621Y-113205693D01*
X174816080Y-113259909D01*
X174800386Y-113312971D01*
X174773481Y-113358477D01*
X174763224Y-113370655D01*
X174723940Y-113403950D01*
X174677834Y-113424913D01*
X174624907Y-113433545D01*
X174613503Y-113433792D01*
X174564333Y-113428797D01*
X174516181Y-113411533D01*
X174474851Y-113381938D01*
X174463782Y-113370655D01*
X174433514Y-113327416D01*
X174414456Y-113276621D01*
X174406609Y-113218270D01*
X174406385Y-113205693D01*
X174497243Y-113205693D01*
X174506658Y-113259355D01*
G37*
G36*
X175626876Y-113549446D02*
G01*
X175681449Y-113559845D01*
X175730647Y-113577906D01*
X175774468Y-113603630D01*
X175802477Y-113626695D01*
X175839877Y-113670286D01*
X175866591Y-113720997D01*
X175882619Y-113778827D01*
X175887878Y-113835269D01*
X175887962Y-113843778D01*
X175883836Y-113900818D01*
X175869017Y-113958893D01*
X175843422Y-114009377D01*
X175807049Y-114052271D01*
X175801744Y-114057099D01*
X175755292Y-114090481D01*
X175708962Y-114111866D01*
X175680253Y-114119695D01*
X175944138Y-114563000D01*
X175811025Y-114563000D01*
X175558849Y-114140923D01*
X175337927Y-114140923D01*
X175337927Y-114563000D01*
X175225819Y-114563000D01*
X175225819Y-114025665D01*
X175337927Y-114025665D01*
X175574354Y-114025665D01*
X175626232Y-114022074D01*
X175674404Y-114009658D01*
X175719049Y-113983054D01*
X175722121Y-113980260D01*
X175753432Y-113935702D01*
X175768167Y-113881347D01*
X175770481Y-113843778D01*
X175764767Y-113786711D01*
X175745498Y-113736695D01*
X175722121Y-113707563D01*
X175678672Y-113679895D01*
X175626232Y-113665750D01*
X175574354Y-113662159D01*
X175337927Y-113662159D01*
X175337927Y-114025665D01*
X175225819Y-114025665D01*
X175225819Y-113546632D01*
X175575819Y-113546632D01*
X175626876Y-113549446D01*
G37*
G36*
X176892777Y-114302661D02*
G01*
X176871978Y-114354254D01*
X176846218Y-114401228D01*
X176815497Y-114443585D01*
X176808757Y-114451503D01*
X176769061Y-114490799D01*
X176724862Y-114522985D01*
X176680774Y-114546073D01*
X176633538Y-114563075D01*
X176583726Y-114573780D01*
X176531338Y-114578188D01*
X176520551Y-114578314D01*
X176464662Y-114575267D01*
X176412185Y-114566126D01*
X176363121Y-114550891D01*
X176317470Y-114529563D01*
X176292916Y-114514639D01*
X176247747Y-114479343D01*
X176207981Y-114437398D01*
X176177619Y-114395240D01*
X176151394Y-114347992D01*
X176144661Y-114333558D01*
X176124200Y-114280175D01*
X176108764Y-114222525D01*
X176099533Y-114169713D01*
X176093995Y-114113765D01*
X176092149Y-114054681D01*
X176093995Y-113995689D01*
X176099533Y-113939813D01*
X176110661Y-113878565D01*
X176126815Y-113821559D01*
X176144661Y-113776073D01*
X176169704Y-113727384D01*
X176198884Y-113683810D01*
X176237299Y-113640278D01*
X176281117Y-113603429D01*
X176292916Y-113595260D01*
X176336477Y-113570345D01*
X176383170Y-113551550D01*
X176432995Y-113538873D01*
X176485952Y-113532317D01*
X176517620Y-113531318D01*
X176566476Y-113533443D01*
X176617089Y-113540789D01*
X176668301Y-113554931D01*
X176677110Y-113558184D01*
X176722878Y-113579766D01*
X176767277Y-113610407D01*
X176796789Y-113638247D01*
X176831308Y-113681469D01*
X176857941Y-113726930D01*
X176876168Y-113768282D01*
X176765526Y-113825240D01*
X176743621Y-113774618D01*
X176713354Y-113728449D01*
X176676622Y-113692249D01*
X176632617Y-113666246D01*
X176580531Y-113651036D01*
X176526168Y-113646576D01*
X176475170Y-113650423D01*
X176422629Y-113663719D01*
X176374429Y-113686514D01*
X176360816Y-113695205D01*
X176319295Y-113729717D01*
X176283879Y-113772467D01*
X176257226Y-113817987D01*
X176249441Y-113834643D01*
X176230196Y-113888762D01*
X176218377Y-113941971D01*
X176211535Y-113999982D01*
X176209630Y-114054681D01*
X176211441Y-114108896D01*
X176217948Y-114166604D01*
X176229187Y-114219780D01*
X176247487Y-114274182D01*
X176271313Y-114322316D01*
X176303723Y-114367821D01*
X176342382Y-114404931D01*
X176355198Y-114414427D01*
X176401466Y-114439929D01*
X176452647Y-114455986D01*
X176502912Y-114462362D01*
X176520551Y-114462787D01*
X176570609Y-114458706D01*
X176621833Y-114444601D01*
X176668430Y-114420421D01*
X176681507Y-114411203D01*
X176720705Y-114373925D01*
X176752509Y-114326572D01*
X176774811Y-114275341D01*
X176780914Y-114256450D01*
X176892777Y-114302661D01*
G37*
G36*
X177844836Y-114563000D02*
G01*
X177725889Y-114563000D01*
X177627948Y-114281168D01*
X177209316Y-114281168D01*
X177111374Y-114563000D01*
X176993649Y-114563000D01*
X177134305Y-114165641D01*
X177249860Y-114165641D01*
X177587159Y-114165641D01*
X177417899Y-113665114D01*
X177249860Y-114165641D01*
X177134305Y-114165641D01*
X177353419Y-113546632D01*
X177486531Y-113546632D01*
X177844836Y-114563000D01*
G37*
G36*
X178432738Y-113549446D02*
G01*
X178487311Y-113559845D01*
X178536508Y-113577906D01*
X178580329Y-113603630D01*
X178608339Y-113626695D01*
X178645738Y-113670286D01*
X178672452Y-113720997D01*
X178688481Y-113778827D01*
X178693740Y-113835269D01*
X178693824Y-113843778D01*
X178689698Y-113900818D01*
X178674879Y-113958893D01*
X178649283Y-114009377D01*
X178612910Y-114052271D01*
X178607606Y-114057099D01*
X178561154Y-114090481D01*
X178514823Y-114111866D01*
X178486115Y-114119695D01*
X178750000Y-114563000D01*
X178616887Y-114563000D01*
X178364711Y-114140923D01*
X178143789Y-114140923D01*
X178143789Y-114563000D01*
X178031681Y-114563000D01*
X178031681Y-114025665D01*
X178143789Y-114025665D01*
X178380216Y-114025665D01*
X178432094Y-114022074D01*
X178480265Y-114009658D01*
X178524910Y-113983054D01*
X178527983Y-113980260D01*
X178559294Y-113935702D01*
X178574029Y-113881347D01*
X178576343Y-113843778D01*
X178570628Y-113786711D01*
X178551360Y-113736695D01*
X178527983Y-113707563D01*
X178484534Y-113679895D01*
X178432094Y-113665750D01*
X178380216Y-113662159D01*
X178143789Y-113662159D01*
X178143789Y-114025665D01*
X178031681Y-114025665D01*
X178031681Y-113546632D01*
X178381681Y-113546632D01*
X178432738Y-113549446D01*
G37*
G36*
X178962735Y-114563000D02*
G01*
X178962735Y-113546632D01*
X179610956Y-113546632D01*
X179610956Y-113662159D01*
X179074842Y-113662159D01*
X179074842Y-113990201D01*
X179492009Y-113990201D01*
X179492009Y-114105728D01*
X179074842Y-114105728D01*
X179074842Y-114447473D01*
X179631960Y-114447473D01*
X179631960Y-114563000D01*
X178962735Y-114563000D01*
G37*
D12*
G36*
X116342669Y-69158582D02*
G01*
X116398311Y-69165408D01*
X116447667Y-69177127D01*
X116497305Y-69196982D01*
X116543558Y-69227829D01*
X116579248Y-69266936D01*
X116604741Y-69313869D01*
X116620037Y-69368627D01*
X116625056Y-69422959D01*
X116625136Y-69431210D01*
X116619623Y-69487280D01*
X116603086Y-69538017D01*
X116578485Y-69579514D01*
X116540924Y-69617307D01*
X116496961Y-69642243D01*
X116449399Y-69657013D01*
X116437801Y-69659308D01*
X116437801Y-69660920D01*
X116487154Y-69671566D01*
X116534829Y-69691009D01*
X116578058Y-69721885D01*
X116595826Y-69740983D01*
X116626002Y-69788767D01*
X116643651Y-69843092D01*
X116648827Y-69898153D01*
X116644783Y-69953078D01*
X116630258Y-70008734D01*
X116605170Y-70056800D01*
X116569518Y-70097277D01*
X116564319Y-70101803D01*
X116517012Y-70132951D01*
X116467129Y-70152906D01*
X116418065Y-70164587D01*
X116363179Y-70171261D01*
X116312993Y-70173000D01*
X115842581Y-70173000D01*
X115842581Y-69986276D01*
X116074612Y-69986276D01*
X116271472Y-69986276D01*
X116322556Y-69980671D01*
X116367366Y-69958793D01*
X116369413Y-69956991D01*
X116397330Y-69910499D01*
X116401898Y-69873436D01*
X116391619Y-69820759D01*
X116369413Y-69790955D01*
X116322556Y-69767710D01*
X116271472Y-69762207D01*
X116074612Y-69762207D01*
X116074612Y-69986276D01*
X115842581Y-69986276D01*
X115842581Y-69571722D01*
X116074612Y-69571722D01*
X116249246Y-69571722D01*
X116299495Y-69566413D01*
X116345966Y-69543983D01*
X116373672Y-69498472D01*
X116378206Y-69460763D01*
X116368005Y-69407515D01*
X116332743Y-69368789D01*
X116279471Y-69352331D01*
X116249246Y-69350609D01*
X116074612Y-69350609D01*
X116074612Y-69571722D01*
X115842581Y-69571722D01*
X115842581Y-69156632D01*
X116291500Y-69156632D01*
X116342669Y-69158582D01*
G37*
G36*
X117633859Y-70173000D02*
G01*
X117386196Y-70173000D01*
X117321960Y-69943826D01*
X117004933Y-69943826D01*
X116939720Y-70173000D01*
X116697676Y-70173000D01*
X116828048Y-69763551D01*
X117050607Y-69763551D01*
X117277020Y-69763551D01*
X117163935Y-69351953D01*
X117050607Y-69763551D01*
X116828048Y-69763551D01*
X117021297Y-69156632D01*
X117309748Y-69156632D01*
X117633859Y-70173000D01*
G37*
G36*
X118402735Y-69156632D02*
G01*
X118402735Y-69360819D01*
X118100851Y-69360819D01*
X118100851Y-70173000D01*
X117860272Y-70173000D01*
X117860272Y-69360819D01*
X117557655Y-69360819D01*
X117557655Y-69156632D01*
X118402735Y-69156632D01*
G37*
G36*
X118539023Y-70173000D02*
G01*
X118539023Y-69156632D01*
X119258562Y-69156632D01*
X119258562Y-69360819D01*
X118779357Y-69360819D01*
X118779357Y-69567692D01*
X119159644Y-69567692D01*
X119159644Y-69760058D01*
X118779357Y-69760058D01*
X118779357Y-69968812D01*
X119277124Y-69968812D01*
X119277124Y-70173000D01*
X118539023Y-70173000D01*
G37*
G36*
X119912562Y-69158711D02*
G01*
X119967562Y-69166695D01*
X120017445Y-69180668D01*
X120069173Y-69204538D01*
X120113936Y-69236559D01*
X120119762Y-69241799D01*
X120155736Y-69281811D01*
X120182874Y-69327326D01*
X120201177Y-69378342D01*
X120210643Y-69434862D01*
X120212086Y-69469629D01*
X120208875Y-69525356D01*
X120197010Y-69583782D01*
X120176404Y-69635111D01*
X120147055Y-69679344D01*
X120120739Y-69706593D01*
X120077352Y-69738208D01*
X120026906Y-69762058D01*
X120024903Y-69762642D01*
X120265575Y-70173000D01*
X119999839Y-70173000D01*
X119803199Y-69801970D01*
X119658387Y-69801970D01*
X119658387Y-70173000D01*
X119422205Y-70173000D01*
X119422205Y-69614172D01*
X119658387Y-69614172D01*
X119828625Y-69614172D01*
X119880249Y-69609117D01*
X119927518Y-69589017D01*
X119934382Y-69583544D01*
X119962623Y-69537356D01*
X119969309Y-69485212D01*
X119961634Y-69430405D01*
X119934382Y-69387417D01*
X119887139Y-69363099D01*
X119837338Y-69356373D01*
X119828625Y-69356251D01*
X119658387Y-69356251D01*
X119658387Y-69614172D01*
X119422205Y-69614172D01*
X119422205Y-69156632D01*
X119862819Y-69156632D01*
X119912562Y-69158711D01*
G37*
G36*
X120626810Y-69156632D02*
G01*
X120626810Y-70173000D01*
X120386475Y-70173000D01*
X120386475Y-69156632D01*
X120626810Y-69156632D01*
G37*
G36*
X120830997Y-70173000D02*
G01*
X120830997Y-69156632D01*
X121550537Y-69156632D01*
X121550537Y-69360819D01*
X121071332Y-69360819D01*
X121071332Y-69567692D01*
X121451618Y-69567692D01*
X121451618Y-69760058D01*
X121071332Y-69760058D01*
X121071332Y-69968812D01*
X121569099Y-69968812D01*
X121569099Y-70173000D01*
X120830997Y-70173000D01*
G37*
G36*
X174160293Y-111796632D02*
G01*
X174160293Y-112398983D01*
X174157746Y-112463520D01*
X174150108Y-112522796D01*
X174137377Y-112576811D01*
X174115378Y-112634686D01*
X174086046Y-112684986D01*
X174056001Y-112721115D01*
X174013371Y-112757546D01*
X173963700Y-112786439D01*
X173916929Y-112804759D01*
X173865268Y-112817845D01*
X173808718Y-112825696D01*
X173747278Y-112828314D01*
X173697845Y-112826639D01*
X173640423Y-112819834D01*
X173587855Y-112807795D01*
X173540141Y-112790522D01*
X173489290Y-112762885D01*
X173445430Y-112727711D01*
X173438799Y-112721115D01*
X173403273Y-112677128D01*
X173375098Y-112625566D01*
X173354272Y-112566429D01*
X173342532Y-112511362D01*
X173335897Y-112451034D01*
X173334263Y-112398983D01*
X173334263Y-111796632D01*
X173575575Y-111796632D01*
X173575575Y-112403282D01*
X173578956Y-112460521D01*
X173590644Y-112513750D01*
X173615688Y-112563219D01*
X173618318Y-112566632D01*
X173660339Y-112601422D01*
X173711722Y-112617794D01*
X173747278Y-112620365D01*
X173797176Y-112615118D01*
X173845719Y-112594968D01*
X173876727Y-112566632D01*
X173902922Y-112518473D01*
X173915515Y-112466335D01*
X173919671Y-112410079D01*
X173919713Y-112403282D01*
X173919713Y-111796632D01*
X174160293Y-111796632D01*
G37*
G36*
X174707641Y-111781318D02*
G01*
X174762421Y-111783400D01*
X174814350Y-111789648D01*
X174863427Y-111800062D01*
X174916023Y-111817064D01*
X174934787Y-111824842D01*
X174982475Y-111849257D01*
X175026866Y-111878978D01*
X175067960Y-111914006D01*
X175105757Y-111954339D01*
X174989253Y-112124943D01*
X174950665Y-112084722D01*
X174910313Y-112051374D01*
X174863886Y-112022632D01*
X174859560Y-112020431D01*
X174809875Y-112000546D01*
X174760950Y-111989632D01*
X174708447Y-111985539D01*
X174703000Y-111985505D01*
X174653690Y-111989144D01*
X174619225Y-111998401D01*
X174577339Y-112026283D01*
X174572330Y-112032790D01*
X174557920Y-112081688D01*
X174579238Y-112130820D01*
X174585764Y-112136496D01*
X174630484Y-112160160D01*
X174674180Y-112173840D01*
X174830739Y-112213066D01*
X174879895Y-112227042D01*
X174930688Y-112246331D01*
X174980094Y-112272312D01*
X175024655Y-112306559D01*
X175032972Y-112314891D01*
X175064024Y-112356545D01*
X175084913Y-112405339D01*
X175095640Y-112461274D01*
X175097208Y-112495435D01*
X175093228Y-112553791D01*
X175081288Y-112606748D01*
X175058686Y-112659259D01*
X175046894Y-112678397D01*
X175011775Y-112721200D01*
X174969309Y-112756919D01*
X174924808Y-112783010D01*
X174908653Y-112790431D01*
X174857264Y-112808744D01*
X174808114Y-112819990D01*
X174755697Y-112826501D01*
X174707152Y-112828314D01*
X174655562Y-112826528D01*
X174605478Y-112821173D01*
X174556901Y-112812247D01*
X174530565Y-112805745D01*
X174479956Y-112789830D01*
X174432543Y-112770294D01*
X174388327Y-112747137D01*
X174379867Y-112742071D01*
X174336114Y-112712192D01*
X174297210Y-112679074D01*
X174266050Y-112646157D01*
X174382554Y-112469643D01*
X174418893Y-112509329D01*
X174459298Y-112542535D01*
X174468771Y-112549168D01*
X174511977Y-112575108D01*
X174558246Y-112596169D01*
X174580635Y-112604245D01*
X174630370Y-112617118D01*
X174680751Y-112623428D01*
X174704221Y-112624127D01*
X174753878Y-112620556D01*
X174785554Y-112612842D01*
X174828850Y-112586653D01*
X174834159Y-112580334D01*
X174850034Y-112529287D01*
X174832382Y-112478970D01*
X174828541Y-112474748D01*
X174784979Y-112448835D01*
X174749651Y-112437940D01*
X174578681Y-112396028D01*
X174531220Y-112382264D01*
X174482926Y-112364033D01*
X174438729Y-112342563D01*
X174396529Y-112314202D01*
X174359339Y-112276315D01*
X174342986Y-112252829D01*
X174320689Y-112202461D01*
X174310196Y-112147546D01*
X174308548Y-112111778D01*
X174313151Y-112054073D01*
X174326962Y-112000512D01*
X174349979Y-111951097D01*
X174355687Y-111941712D01*
X174389275Y-111898153D01*
X174431116Y-111860839D01*
X174475829Y-111832595D01*
X174492219Y-111824304D01*
X174539296Y-111805498D01*
X174590893Y-111792064D01*
X174639746Y-111784718D01*
X174692059Y-111781486D01*
X174707641Y-111781318D01*
G37*
G36*
X175748971Y-111798582D02*
G01*
X175804612Y-111805408D01*
X175853968Y-111817127D01*
X175903606Y-111836982D01*
X175949860Y-111867829D01*
X175985550Y-111906936D01*
X176011043Y-111953869D01*
X176026338Y-112008627D01*
X176031357Y-112062959D01*
X176031437Y-112071210D01*
X176025925Y-112127280D01*
X176009387Y-112178017D01*
X175984787Y-112219514D01*
X175947226Y-112257307D01*
X175903262Y-112282243D01*
X175855700Y-112297013D01*
X175844103Y-112299308D01*
X175844103Y-112300920D01*
X175893455Y-112311566D01*
X175941130Y-112331009D01*
X175984359Y-112361885D01*
X176002128Y-112380983D01*
X176032303Y-112428767D01*
X176049953Y-112483092D01*
X176055129Y-112538153D01*
X176051085Y-112593078D01*
X176036560Y-112648734D01*
X176011472Y-112696800D01*
X175975820Y-112737277D01*
X175970621Y-112741803D01*
X175923314Y-112772951D01*
X175873430Y-112792906D01*
X175824366Y-112804587D01*
X175769480Y-112811261D01*
X175719295Y-112813000D01*
X175248883Y-112813000D01*
X175248883Y-112626276D01*
X175480914Y-112626276D01*
X175677773Y-112626276D01*
X175728857Y-112620671D01*
X175773667Y-112598793D01*
X175775715Y-112596991D01*
X175803631Y-112550499D01*
X175808199Y-112513436D01*
X175797921Y-112460759D01*
X175775715Y-112430955D01*
X175728857Y-112407710D01*
X175677773Y-112402207D01*
X175480914Y-112402207D01*
X175480914Y-112626276D01*
X175248883Y-112626276D01*
X175248883Y-112211722D01*
X175480914Y-112211722D01*
X175655547Y-112211722D01*
X175705796Y-112206413D01*
X175752267Y-112183983D01*
X175779974Y-112138472D01*
X175784508Y-112100763D01*
X175774307Y-112047515D01*
X175739044Y-112008789D01*
X175685772Y-111992331D01*
X175655547Y-111990609D01*
X175480914Y-111990609D01*
X175480914Y-112211722D01*
X175248883Y-112211722D01*
X175248883Y-111796632D01*
X175697801Y-111796632D01*
X175748971Y-111798582D01*
G37*
G36*
X176729483Y-112294741D02*
G01*
X176729483Y-112507525D01*
X176217062Y-112507525D01*
X176217062Y-112294741D01*
X176729483Y-112294741D01*
G37*
G36*
X177763607Y-112522302D02*
G01*
X177746003Y-112578761D01*
X177723413Y-112629355D01*
X177695839Y-112674083D01*
X177678367Y-112696398D01*
X177639617Y-112735507D01*
X177596335Y-112767532D01*
X177548522Y-112792473D01*
X177538415Y-112796611D01*
X177491195Y-112811936D01*
X177441309Y-112822245D01*
X177388756Y-112827540D01*
X177358408Y-112828314D01*
X177307266Y-112826122D01*
X177250986Y-112818027D01*
X177198353Y-112803966D01*
X177149366Y-112783939D01*
X177116608Y-112765983D01*
X177074293Y-112735999D01*
X177036466Y-112700820D01*
X177003127Y-112660449D01*
X176974275Y-112614883D01*
X176959804Y-112586513D01*
X176938391Y-112532989D01*
X176922237Y-112474914D01*
X176912577Y-112421514D01*
X176906781Y-112364769D01*
X176904849Y-112304681D01*
X176906781Y-112244694D01*
X176912577Y-112188050D01*
X176922237Y-112134750D01*
X176938391Y-112076793D01*
X176959804Y-112023387D01*
X176986091Y-111974761D01*
X177016865Y-111931381D01*
X177052128Y-111893246D01*
X177091878Y-111860356D01*
X177116608Y-111843917D01*
X177162932Y-111819525D01*
X177212785Y-111801125D01*
X177266168Y-111788715D01*
X177314735Y-111782846D01*
X177357187Y-111781318D01*
X177410573Y-111783677D01*
X177461369Y-111790754D01*
X177509577Y-111802548D01*
X177535240Y-111811140D01*
X177583512Y-111832785D01*
X177626965Y-111860780D01*
X177665600Y-111895124D01*
X177672749Y-111902755D01*
X177704792Y-111944734D01*
X177730394Y-111993430D01*
X177749557Y-112048843D01*
X177752616Y-112060732D01*
X177540369Y-112155840D01*
X177526030Y-112102054D01*
X177502399Y-112052888D01*
X177477355Y-112024730D01*
X177431055Y-111999082D01*
X177382333Y-111989556D01*
X177365736Y-111988997D01*
X177314899Y-111994895D01*
X177266734Y-112014436D01*
X177251186Y-112024730D01*
X177213385Y-112062395D01*
X177185987Y-112109249D01*
X177177424Y-112130316D01*
X177162824Y-112182557D01*
X177154809Y-112237046D01*
X177151879Y-112291784D01*
X177151779Y-112304681D01*
X177153672Y-112360033D01*
X177160217Y-112415603D01*
X177172816Y-112469518D01*
X177175715Y-112478509D01*
X177199153Y-112530285D01*
X177233321Y-112572953D01*
X177247766Y-112584901D01*
X177294402Y-112609144D01*
X177345828Y-112619499D01*
X177367690Y-112620365D01*
X177418877Y-112613714D01*
X177466428Y-112591675D01*
X177481507Y-112580065D01*
X177514731Y-112539831D01*
X177536742Y-112489783D01*
X177545743Y-112454866D01*
X177763607Y-112522302D01*
G37*
D13*
G36*
X133462233Y-112569503D02*
G01*
X133522733Y-112578213D01*
X133577604Y-112593456D01*
X133634505Y-112619497D01*
X133683744Y-112654429D01*
X133690153Y-112660145D01*
X133729724Y-112703794D01*
X133759576Y-112753446D01*
X133779709Y-112809101D01*
X133790122Y-112870758D01*
X133791709Y-112908686D01*
X133788177Y-112969480D01*
X133775126Y-113033217D01*
X133752459Y-113089212D01*
X133720175Y-113137466D01*
X133691228Y-113167193D01*
X133643502Y-113201682D01*
X133588011Y-113227700D01*
X133585808Y-113228337D01*
X133850547Y-113676000D01*
X133558237Y-113676000D01*
X133341934Y-113271240D01*
X133182641Y-113271240D01*
X133182641Y-113676000D01*
X132922840Y-113676000D01*
X132922840Y-113066369D01*
X133182641Y-113066369D01*
X133369902Y-113066369D01*
X133426688Y-113060855D01*
X133478684Y-113038928D01*
X133486235Y-113032957D01*
X133517300Y-112982570D01*
X133524654Y-112925685D01*
X133516212Y-112865897D01*
X133486235Y-112819000D01*
X133434268Y-112792472D01*
X133379487Y-112785134D01*
X133369902Y-112785002D01*
X133182641Y-112785002D01*
X133182641Y-113066369D01*
X132922840Y-113066369D01*
X132922840Y-112567235D01*
X133407515Y-112567235D01*
X133462233Y-112569503D01*
G37*
G36*
X134485230Y-112552929D02*
G01*
X134538700Y-112560132D01*
X134597238Y-112574603D01*
X134651636Y-112595611D01*
X134694968Y-112618819D01*
X134741292Y-112651429D01*
X134782706Y-112689761D01*
X134819208Y-112733815D01*
X134850799Y-112783591D01*
X134866646Y-112814604D01*
X134890096Y-112872865D01*
X134907786Y-112936091D01*
X134918365Y-112994237D01*
X134924712Y-113056030D01*
X134926828Y-113121471D01*
X134924712Y-113187021D01*
X134918365Y-113248924D01*
X134907786Y-113307179D01*
X134890096Y-113370534D01*
X134866646Y-113428923D01*
X134837861Y-113481869D01*
X134804166Y-113529149D01*
X134765559Y-113570763D01*
X134722041Y-113606711D01*
X134694968Y-113624709D01*
X134644118Y-113651204D01*
X134589129Y-113671191D01*
X134530000Y-113684671D01*
X134476023Y-113691046D01*
X134428719Y-113692706D01*
X134372463Y-113690315D01*
X134310555Y-113681484D01*
X134252658Y-113666144D01*
X134198772Y-113644298D01*
X134162739Y-113624709D01*
X134116192Y-113591998D01*
X134074582Y-113553622D01*
X134037909Y-113509580D01*
X134006173Y-113459872D01*
X133990254Y-113428923D01*
X133966700Y-113370534D01*
X133948931Y-113307179D01*
X133938305Y-113248924D01*
X133931929Y-113187021D01*
X133929804Y-113121471D01*
X134201427Y-113121471D01*
X134203509Y-113182375D01*
X134210709Y-113243249D01*
X134224568Y-113301945D01*
X134227756Y-113311687D01*
X134253139Y-113367790D01*
X134289401Y-113414145D01*
X134304595Y-113427165D01*
X134353345Y-113453612D01*
X134406349Y-113464908D01*
X134428719Y-113465853D01*
X134484847Y-113459468D01*
X134536566Y-113438310D01*
X134552843Y-113427165D01*
X134592308Y-113386020D01*
X134620481Y-113334754D01*
X134629145Y-113311687D01*
X134643829Y-113254565D01*
X134651889Y-113195122D01*
X134654836Y-113135506D01*
X134654937Y-113121471D01*
X134652897Y-113060329D01*
X134645844Y-112999410D01*
X134632268Y-112940927D01*
X134629145Y-112931254D01*
X134604109Y-112875340D01*
X134568024Y-112829082D01*
X134552843Y-112816069D01*
X134504357Y-112789422D01*
X134451230Y-112778040D01*
X134428719Y-112777088D01*
X134372850Y-112783522D01*
X134321014Y-112804839D01*
X134304595Y-112816069D01*
X134265027Y-112857158D01*
X134236574Y-112908272D01*
X134227756Y-112931254D01*
X134212766Y-112988112D01*
X134204538Y-113047555D01*
X134201529Y-113107367D01*
X134201427Y-113121471D01*
X133929804Y-113121471D01*
X133931929Y-113056030D01*
X133938305Y-112994237D01*
X133948931Y-112936091D01*
X133966700Y-112872865D01*
X133990254Y-112814604D01*
X134019170Y-112761558D01*
X134053022Y-112714234D01*
X134091810Y-112672632D01*
X134135536Y-112636752D01*
X134162739Y-112618819D01*
X134213759Y-112592210D01*
X134268791Y-112572136D01*
X134327833Y-112558598D01*
X134381634Y-112552196D01*
X134428719Y-112550528D01*
X134485230Y-112552929D01*
G37*
G36*
X136285209Y-112567235D02*
G01*
X136285209Y-113676000D01*
X136050662Y-113676000D01*
X136050662Y-113166314D01*
X136058991Y-112825448D01*
X136055767Y-112825448D01*
X135803757Y-113676000D01*
X135589898Y-113676000D01*
X135340038Y-112825448D01*
X135335471Y-112825448D01*
X135343799Y-113166314D01*
X135343799Y-113676000D01*
X135108715Y-113676000D01*
X135108715Y-112567235D01*
X135485655Y-112567235D01*
X135645244Y-113132022D01*
X135702739Y-113366788D01*
X135705694Y-113366788D01*
X135763995Y-113132608D01*
X135923046Y-112567235D01*
X136285209Y-112567235D01*
G37*
G36*
X137433761Y-113676000D02*
G01*
X137161332Y-113676000D01*
X137090673Y-113425993D01*
X136741943Y-113425993D01*
X136670209Y-113676000D01*
X136403960Y-113676000D01*
X136547370Y-113229328D01*
X136792184Y-113229328D01*
X137041238Y-113229328D01*
X136916845Y-112780312D01*
X136792184Y-113229328D01*
X136547370Y-113229328D01*
X136759944Y-112567235D01*
X137077240Y-112567235D01*
X137433761Y-113676000D01*
G37*
G36*
X137200020Y-112462015D02*
G01*
X137017864Y-112462015D01*
X136917651Y-112307556D01*
X136817438Y-112462015D01*
X136635282Y-112462015D01*
X136789766Y-112186802D01*
X137045537Y-112186802D01*
X137200020Y-112462015D01*
G37*
G36*
X138468398Y-112567235D02*
G01*
X138468398Y-113676000D01*
X138174476Y-113676000D01*
X137858524Y-113076628D01*
X137782222Y-112911617D01*
X137779804Y-112911617D01*
X137785983Y-113115902D01*
X137785983Y-113676000D01*
X137552512Y-113676000D01*
X137552512Y-112567235D01*
X137846165Y-112567235D01*
X138161580Y-113166314D01*
X138238688Y-113332203D01*
X138241106Y-113332203D01*
X138234926Y-113127332D01*
X138234926Y-112567235D01*
X138468398Y-112567235D01*
G37*
G36*
X138957103Y-112567235D02*
G01*
X138957103Y-113676000D01*
X138692735Y-113676000D01*
X138692735Y-112567235D01*
X138957103Y-112567235D01*
G37*
G36*
X140105387Y-113676000D02*
G01*
X139832958Y-113676000D01*
X139762299Y-113425993D01*
X139413569Y-113425993D01*
X139341835Y-113676000D01*
X139075586Y-113676000D01*
X139218996Y-113229328D01*
X139463810Y-113229328D01*
X139712864Y-113229328D01*
X139588471Y-112780312D01*
X139463810Y-113229328D01*
X139218996Y-113229328D01*
X139431570Y-112567235D01*
X139748866Y-112567235D01*
X140105387Y-113676000D01*
G37*
%TO.C,J201*%
D14*
X178610000Y-105870000D02*
X192010000Y-105870000D01*
X192010000Y-93620000D01*
X178610000Y-93620000D01*
X178610000Y-105870000D01*
D15*
%TO.C,R202*%
X156045000Y-75196359D02*
X156045000Y-75503641D01*
X156805000Y-75196359D02*
X156805000Y-75503641D01*
%TO.C,U103*%
X155310000Y-95347500D02*
X155310000Y-94547500D01*
X155310000Y-95347500D02*
X155310000Y-96147500D01*
X158430000Y-95347500D02*
X158430000Y-94547500D01*
X158430000Y-95347500D02*
X158430000Y-96147500D01*
X155360000Y-96647500D02*
X155030000Y-96887500D01*
X155030000Y-96407500D01*
X155360000Y-96647500D01*
G36*
X155360000Y-96647500D02*
G01*
X155030000Y-96887500D01*
X155030000Y-96407500D01*
X155360000Y-96647500D01*
G37*
%TO.C,R113*%
X160273641Y-88920000D02*
X159966359Y-88920000D01*
X160273641Y-89680000D02*
X159966359Y-89680000D01*
%TO.C,R106*%
X159370000Y-101103641D02*
X159370000Y-100796359D01*
X160130000Y-101103641D02*
X160130000Y-100796359D01*
%TO.C,C104*%
X154590000Y-100704420D02*
X154590000Y-100985580D01*
X155610000Y-100704420D02*
X155610000Y-100985580D01*
%TO.C,C107*%
X155959420Y-97730000D02*
X156240580Y-97730000D01*
X155959420Y-98750000D02*
X156240580Y-98750000D01*
%TO.C,C101*%
X156980000Y-110917836D02*
X156980000Y-110702164D01*
X157700000Y-110917836D02*
X157700000Y-110702164D01*
D14*
%TO.C,D208*%
X168050000Y-87785000D02*
G75*
G02*
X167950000Y-87785000I-50000J0D01*
G01*
X167950000Y-87785000D02*
G75*
G02*
X168050000Y-87785000I50000J0D01*
G01*
D15*
%TO.C,R110*%
X156887500Y-81266359D02*
X156887500Y-81573641D01*
X157647500Y-81266359D02*
X157647500Y-81573641D01*
%TO.C,R303*%
X158496359Y-82600000D02*
X158803641Y-82600000D01*
X158496359Y-83360000D02*
X158803641Y-83360000D01*
%TO.C,R109*%
X153426359Y-96190000D02*
X153733641Y-96190000D01*
X153426359Y-96950000D02*
X153733641Y-96950000D01*
%TO.C,R101*%
X168970000Y-105113641D02*
X168970000Y-104806359D01*
X169730000Y-105113641D02*
X169730000Y-104806359D01*
%TO.C,C105*%
X153697836Y-95210000D02*
X153482164Y-95210000D01*
X153697836Y-95930000D02*
X153482164Y-95930000D01*
%TO.C,C110*%
X155936920Y-84547500D02*
X156218080Y-84547500D01*
X155936920Y-85567500D02*
X156218080Y-85567500D01*
D16*
%TO.C,U101*%
X156300000Y-104015000D02*
X156300000Y-102015000D01*
X158760000Y-104015000D02*
X158760000Y-102015000D01*
D12*
X156730000Y-104915000D02*
G75*
G02*
X156530000Y-104915000I-100000J0D01*
G01*
X156530000Y-104915000D02*
G75*
G02*
X156730000Y-104915000I100000J0D01*
G01*
D15*
%TO.C,C206*%
X172040000Y-101319770D02*
X172040000Y-101600930D01*
X173060000Y-101319770D02*
X173060000Y-101600930D01*
%TO.C,D101*%
X158210000Y-110830000D02*
X158210000Y-112790000D01*
X158210000Y-112790000D02*
X159410000Y-112790000D01*
X159410000Y-110830000D02*
X159410000Y-112790000D01*
%TO.C,C106*%
X156900000Y-83212164D02*
X156900000Y-83427836D01*
X157620000Y-83212164D02*
X157620000Y-83427836D01*
%TO.C,R105*%
X156520000Y-100178641D02*
X156520000Y-99871359D01*
X157280000Y-100178641D02*
X157280000Y-99871359D01*
%TO.C,C207*%
X173490000Y-101352514D02*
X173490000Y-101568186D01*
X174210000Y-101352514D02*
X174210000Y-101568186D01*
%TO.C,J101*%
X161410000Y-110775000D02*
X161410000Y-112775000D01*
X161410000Y-114675000D02*
X161410000Y-116575000D01*
X161410000Y-116575000D02*
X170810000Y-116575000D01*
X170810000Y-110775000D02*
X170810000Y-112775000D01*
X170810000Y-114675000D02*
X170810000Y-116575000D01*
%TO.C,D104*%
X159000000Y-95347500D02*
X159000000Y-94697500D01*
X159000000Y-95347500D02*
X159000000Y-95997500D01*
X162120000Y-95347500D02*
X162120000Y-94697500D01*
X162120000Y-95347500D02*
X162120000Y-95997500D01*
X162400000Y-94425000D02*
X162070000Y-94185000D01*
X162400000Y-93945000D01*
X162400000Y-94425000D01*
G36*
X162400000Y-94425000D02*
G01*
X162070000Y-94185000D01*
X162400000Y-93945000D01*
X162400000Y-94425000D01*
G37*
%TO.C,R104*%
X157780000Y-106321141D02*
X157780000Y-106013859D01*
X158540000Y-106321141D02*
X158540000Y-106013859D01*
%TO.C,R204*%
X169736359Y-85650000D02*
X170043641Y-85650000D01*
X169736359Y-86410000D02*
X170043641Y-86410000D01*
%TO.C,R114*%
X159237258Y-113977500D02*
X158762742Y-113977500D01*
X159237258Y-115022500D02*
X158762742Y-115022500D01*
%TO.C,D103*%
X166847500Y-103830000D02*
X168807500Y-103830000D01*
X166847500Y-105030000D02*
X168807500Y-105030000D01*
X168807500Y-105030000D02*
X168807500Y-103830000D01*
%TO.C,R103*%
X156530000Y-106311141D02*
X156530000Y-106003859D01*
X157290000Y-106311141D02*
X157290000Y-106003859D01*
%TO.C,TP105*%
X113450000Y-100100000D02*
G75*
G02*
X111050000Y-100100000I-1200000J0D01*
G01*
X111050000Y-100100000D02*
G75*
G02*
X113450000Y-100100000I1200000J0D01*
G01*
%TO.C,U201*%
X159600000Y-82100350D02*
X159600000Y-82900350D01*
X159600000Y-82900350D02*
X160400000Y-82900350D01*
X159800000Y-82700350D02*
X159810000Y-72910350D01*
X173000000Y-72890350D02*
X173000000Y-82700350D01*
X173000000Y-82700350D02*
X159800000Y-82700350D01*
X173200000Y-82100350D02*
X173200000Y-82900350D01*
X173200000Y-82900350D02*
X172400000Y-82900350D01*
%TO.C,J102*%
X133340000Y-80490000D02*
X134360000Y-80490000D01*
X133340000Y-84740000D02*
X133340000Y-80490000D01*
X134360000Y-80490000D02*
X134360000Y-82090000D01*
X134360000Y-82090000D02*
X135640000Y-82090000D01*
X135060000Y-88310000D02*
X139740000Y-88310000D01*
X135640000Y-82090000D02*
X135640000Y-79200000D01*
X140440000Y-80490000D02*
X140440000Y-82090000D01*
X140440000Y-82090000D02*
X139160000Y-82090000D01*
X141460000Y-80490000D02*
X140440000Y-80490000D01*
X141460000Y-84740000D02*
X141460000Y-80490000D01*
%TO.C,C108*%
X155939420Y-91960000D02*
X156220580Y-91960000D01*
X155939420Y-92980000D02*
X156220580Y-92980000D01*
%TO.C,TP101*%
X162950000Y-98800000D02*
G75*
G02*
X160550000Y-98800000I-1200000J0D01*
G01*
X160550000Y-98800000D02*
G75*
G02*
X162950000Y-98800000I1200000J0D01*
G01*
%TO.C,R203*%
X168990000Y-87663641D02*
X168990000Y-87356359D01*
X169750000Y-87663641D02*
X169750000Y-87356359D01*
%TO.C,C202*%
X158690000Y-74308186D02*
X158690000Y-74092514D01*
X159410000Y-74308186D02*
X159410000Y-74092514D01*
%TO.C,R213*%
X173570000Y-98446359D02*
X173570000Y-98753641D01*
X174330000Y-98446359D02*
X174330000Y-98753641D01*
%TO.C,R107*%
X159370000Y-103246359D02*
X159370000Y-103553641D01*
X160130000Y-103246359D02*
X160130000Y-103553641D01*
D17*
%TO.C,G\u002A\u002A\u002A*%
G36*
X148675000Y-94928061D02*
G01*
X148675000Y-95122449D01*
X147978444Y-95122449D01*
X147281888Y-95122449D01*
X147281888Y-94928061D01*
X147281888Y-94733673D01*
X147978444Y-94733673D01*
X148675000Y-94733673D01*
X148675000Y-94928061D01*
G37*
G36*
X146985918Y-94723697D02*
G01*
X147033882Y-94760523D01*
X147074083Y-94842830D01*
X147085617Y-94949440D01*
X147068248Y-95050405D01*
X147036589Y-95103936D01*
X146964265Y-95140426D01*
X146863937Y-95153812D01*
X146769077Y-95141458D01*
X146738074Y-95127431D01*
X146695535Y-95067360D01*
X146675661Y-94972219D01*
X146680483Y-94868363D01*
X146711533Y-94782898D01*
X146787205Y-94719930D01*
X146887296Y-94699598D01*
X146985918Y-94723697D01*
G37*
G36*
X147466810Y-105216216D02*
G01*
X147629496Y-105237797D01*
X147614003Y-105375251D01*
X147612010Y-105499724D01*
X147641660Y-105594813D01*
X147708967Y-105663866D01*
X147819941Y-105710229D01*
X147980595Y-105737251D01*
X148196940Y-105748279D01*
X148285184Y-105748980D01*
X148675000Y-105748980D01*
X148675000Y-105943367D01*
X148675000Y-106137755D01*
X147978444Y-106137755D01*
X147281888Y-106137755D01*
X147281888Y-105959566D01*
X147281888Y-105781378D01*
X147399650Y-105781378D01*
X147517412Y-105781378D01*
X147428122Y-105711142D01*
X147340989Y-105615382D01*
X147280156Y-105495936D01*
X147252030Y-105372944D01*
X147263014Y-105266545D01*
X147277303Y-105236922D01*
X147317760Y-105212049D01*
X147401168Y-105209238D01*
X147466810Y-105216216D01*
G37*
G36*
X150060013Y-102322399D02*
G01*
X150991454Y-102330995D01*
X151001247Y-102501084D01*
X151011040Y-102671173D01*
X150304691Y-102673728D01*
X149598342Y-102676283D01*
X150294898Y-102911319D01*
X150991454Y-103146355D01*
X150991454Y-103305639D01*
X150991454Y-103464923D01*
X150311097Y-103697103D01*
X149630740Y-103929283D01*
X150311097Y-103940088D01*
X150991454Y-103950893D01*
X151001247Y-104120982D01*
X151011040Y-104291071D01*
X150068544Y-104291071D01*
X149126049Y-104291071D01*
X149135410Y-104009652D01*
X149144771Y-103728232D01*
X149533546Y-103602579D01*
X149721294Y-103542666D01*
X149923810Y-103479285D01*
X150113332Y-103421067D01*
X150230102Y-103386026D01*
X150537883Y-103295125D01*
X150392092Y-103255990D01*
X150313367Y-103233308D01*
X150186334Y-103194914D01*
X150024370Y-103144929D01*
X149840852Y-103087474D01*
X149687436Y-103038880D01*
X149128572Y-102860904D01*
X149128572Y-102587353D01*
X149128572Y-102313802D01*
X150060013Y-102322399D01*
G37*
G36*
X148459249Y-95193815D02*
G01*
X148500279Y-95201007D01*
X148592333Y-95228637D01*
X148659016Y-95267941D01*
X148666901Y-95276470D01*
X148694906Y-95351420D01*
X148704900Y-95461731D01*
X148697180Y-95580608D01*
X148672042Y-95681256D01*
X148662187Y-95702046D01*
X148634052Y-95747823D01*
X148601143Y-95784154D01*
X148556122Y-95812139D01*
X148491651Y-95832877D01*
X148400393Y-95847470D01*
X148275009Y-95857015D01*
X148108163Y-95862615D01*
X147892516Y-95865368D01*
X147620732Y-95866374D01*
X147565370Y-95866454D01*
X146666327Y-95867602D01*
X146666327Y-95673214D01*
X146666327Y-95478827D01*
X147507534Y-95478827D01*
X147764093Y-95478519D01*
X147963396Y-95477269D01*
X148112982Y-95474582D01*
X148220387Y-95469966D01*
X148293150Y-95462927D01*
X148338809Y-95452971D01*
X148364903Y-95439606D01*
X148378970Y-95422338D01*
X148379268Y-95421785D01*
X148396015Y-95348560D01*
X148391975Y-95271520D01*
X148383829Y-95212251D01*
X148400970Y-95189789D01*
X148459249Y-95193815D01*
G37*
G36*
X148675000Y-107984439D02*
G01*
X148675000Y-108178827D01*
X148219299Y-108178827D01*
X147997025Y-108181610D01*
X147831422Y-108191910D01*
X147714528Y-108212650D01*
X147638380Y-108246755D01*
X147595017Y-108297149D01*
X147576477Y-108366757D01*
X147573966Y-108415842D01*
X147585986Y-108522629D01*
X147627769Y-108603625D01*
X147705935Y-108661817D01*
X147827099Y-108700192D01*
X147997881Y-108721739D01*
X148224898Y-108729444D01*
X148268985Y-108729592D01*
X148675000Y-108729592D01*
X148675000Y-108924448D01*
X148675000Y-109119304D01*
X147678763Y-109110736D01*
X146682526Y-109102168D01*
X146672809Y-108915880D01*
X146663093Y-108729592D01*
X147074415Y-108729592D01*
X147485737Y-108729592D01*
X147402231Y-108652200D01*
X147316997Y-108532667D01*
X147270489Y-108380875D01*
X147264140Y-108217555D01*
X147299379Y-108063434D01*
X147354810Y-107965268D01*
X147411029Y-107904319D01*
X147477029Y-107859029D01*
X147562857Y-107827198D01*
X147678556Y-107806629D01*
X147834171Y-107795124D01*
X148039748Y-107790485D01*
X148155592Y-107790051D01*
X148675000Y-107790051D01*
X148675000Y-107984439D01*
G37*
G36*
X150060013Y-105335409D02*
G01*
X150991454Y-105344005D01*
X151001247Y-105514094D01*
X151011040Y-105684184D01*
X150304691Y-105686328D01*
X149598342Y-105688472D01*
X150294898Y-105921213D01*
X150991454Y-106153954D01*
X150991454Y-106315944D01*
X150991454Y-106477934D01*
X150294898Y-106709416D01*
X149598342Y-106940898D01*
X150294898Y-106952400D01*
X150991454Y-106963903D01*
X151001247Y-107133992D01*
X151011040Y-107304082D01*
X150068544Y-107304082D01*
X149126049Y-107304082D01*
X149135410Y-107023056D01*
X149144771Y-106742030D01*
X149610060Y-106588301D01*
X149793363Y-106528585D01*
X149973898Y-106471259D01*
X150133868Y-106421875D01*
X150255476Y-106385989D01*
X150281410Y-106378795D01*
X150401397Y-106341522D01*
X150458340Y-106310460D01*
X150453438Y-106283383D01*
X150387891Y-106258067D01*
X150351223Y-106249293D01*
X150273454Y-106229040D01*
X150154782Y-106194492D01*
X150015811Y-106151730D01*
X149954720Y-106132259D01*
X149783079Y-106077460D01*
X149593867Y-106017870D01*
X149423228Y-105964858D01*
X149395855Y-105956458D01*
X149128572Y-105874650D01*
X149128572Y-105600731D01*
X149128572Y-105326812D01*
X150060013Y-105335409D01*
G37*
G36*
X151001269Y-100896570D02*
G01*
X150992763Y-100996622D01*
X150975499Y-101049810D01*
X150939511Y-101074054D01*
X150897295Y-101083494D01*
X150835048Y-101098014D01*
X150829104Y-101117934D01*
X150858934Y-101146110D01*
X150938381Y-101246554D01*
X150995690Y-101384981D01*
X151024062Y-101536423D01*
X151016700Y-101675907D01*
X151010045Y-101701127D01*
X150971183Y-101809480D01*
X150925110Y-101891981D01*
X150862967Y-101952105D01*
X150775899Y-101993328D01*
X150655048Y-102019123D01*
X150491560Y-102032967D01*
X150276575Y-102038333D01*
X150149107Y-102038922D01*
X149598342Y-102039413D01*
X149588626Y-101853125D01*
X149578910Y-101666837D01*
X150031989Y-101666837D01*
X150203682Y-101664680D01*
X150357933Y-101658768D01*
X150480208Y-101649941D01*
X150555976Y-101639037D01*
X150566202Y-101635990D01*
X150659610Y-101569653D01*
X150704324Y-101465063D01*
X150701324Y-101355400D01*
X150678848Y-101277471D01*
X150638844Y-101219333D01*
X150572405Y-101177693D01*
X150470622Y-101149261D01*
X150324587Y-101130744D01*
X150125393Y-101118853D01*
X150053555Y-101116071D01*
X149598342Y-101099872D01*
X149598342Y-100921684D01*
X149598342Y-100743495D01*
X150304713Y-100734759D01*
X151011084Y-100726023D01*
X151001269Y-100896570D01*
G37*
G36*
X151007653Y-96612755D02*
G01*
X151005027Y-96708894D01*
X150991626Y-96756856D01*
X150959164Y-96773210D01*
X150926658Y-96774745D01*
X150861976Y-96789014D01*
X150847072Y-96822778D01*
X150878292Y-96855882D01*
X150937150Y-96923869D01*
X150983817Y-97036002D01*
X151013595Y-97172069D01*
X151021783Y-97311853D01*
X151008693Y-97416721D01*
X150944230Y-97555408D01*
X150833705Y-97667174D01*
X150752735Y-97712519D01*
X150680718Y-97726990D01*
X150550183Y-97736489D01*
X150367237Y-97740753D01*
X150137987Y-97739517D01*
X150132274Y-97739422D01*
X149598342Y-97730485D01*
X149598342Y-97552296D01*
X149598342Y-97374107D01*
X150111290Y-97357908D01*
X150306708Y-97351036D01*
X150447514Y-97343739D01*
X150543885Y-97334579D01*
X150605996Y-97322115D01*
X150644024Y-97304907D01*
X150668145Y-97281515D01*
X150670154Y-97278821D01*
X150712481Y-97171199D01*
X150701160Y-97054340D01*
X150641540Y-96945798D01*
X150544321Y-96865982D01*
X150485719Y-96850015D01*
X150376505Y-96834342D01*
X150230849Y-96820551D01*
X150062921Y-96810226D01*
X150035715Y-96809035D01*
X149598342Y-96790944D01*
X149588549Y-96620855D01*
X149578757Y-96450765D01*
X150293205Y-96450765D01*
X151007653Y-96450765D01*
X151007653Y-96612755D01*
G37*
G36*
X148675000Y-110948208D02*
G01*
X148672915Y-111050490D01*
X148661881Y-111103831D01*
X148634729Y-111124059D01*
X148594005Y-111127041D01*
X148527164Y-111139930D01*
X148520133Y-111176615D01*
X148566626Y-111228367D01*
X148643093Y-111329315D01*
X148689954Y-111468342D01*
X148704559Y-111624606D01*
X148684260Y-111777264D01*
X148648199Y-111870196D01*
X148600212Y-111947026D01*
X148543525Y-112004740D01*
X148468641Y-112045979D01*
X148366066Y-112073381D01*
X148226303Y-112089586D01*
X148039856Y-112097233D01*
X147825059Y-112098980D01*
X147281888Y-112098980D01*
X147281888Y-111904592D01*
X147281888Y-111710204D01*
X147743559Y-111709726D01*
X147959553Y-111707851D01*
X148119210Y-111700577D01*
X148230952Y-111684662D01*
X148303202Y-111656865D01*
X148344381Y-111613947D01*
X148362913Y-111552667D01*
X148367220Y-111469783D01*
X148367220Y-111469759D01*
X148361363Y-111366693D01*
X148336830Y-111301937D01*
X148283173Y-111249532D01*
X148276605Y-111244568D01*
X148232743Y-111216958D01*
X148179201Y-111197250D01*
X148103829Y-111183654D01*
X147994475Y-111174383D01*
X147838988Y-111167648D01*
X147732433Y-111164459D01*
X147278876Y-111152003D01*
X147288482Y-110969433D01*
X147298087Y-110786862D01*
X147986544Y-110778118D01*
X148675000Y-110769375D01*
X148675000Y-110948208D01*
G37*
G36*
X148374293Y-109283046D02*
G01*
X148501748Y-109353930D01*
X148597588Y-109464142D01*
X148646466Y-109555740D01*
X148692338Y-109714341D01*
X148705305Y-109899120D01*
X148685391Y-110080750D01*
X148645976Y-110203699D01*
X148551837Y-110352976D01*
X148427618Y-110473951D01*
X148308414Y-110541816D01*
X148230707Y-110558963D01*
X148113120Y-110571304D01*
X147980530Y-110576267D01*
X147975044Y-110576275D01*
X147744017Y-110553908D01*
X147558871Y-110486194D01*
X147418322Y-110372211D01*
X147321084Y-110211039D01*
X147280024Y-110078434D01*
X147257223Y-109869032D01*
X147281866Y-109674200D01*
X147351742Y-109510455D01*
X147357184Y-109502188D01*
X147420943Y-109425100D01*
X147499973Y-109352676D01*
X147578817Y-109296272D01*
X147642016Y-109267244D01*
X147671108Y-109271578D01*
X147694571Y-109314859D01*
X147726500Y-109391385D01*
X147759261Y-109480040D01*
X147785221Y-109559706D01*
X147796747Y-109609267D01*
X147795587Y-109615944D01*
X147760691Y-109632866D01*
X147694312Y-109662174D01*
X147607108Y-109729962D01*
X147563225Y-109827973D01*
X147562120Y-109938741D01*
X147603254Y-110044796D01*
X147686083Y-110128670D01*
X147709185Y-110142070D01*
X147816261Y-110175847D01*
X147953343Y-110190707D01*
X148095308Y-110186790D01*
X148217037Y-110164240D01*
X148274602Y-110138884D01*
X148360360Y-110051018D01*
X148403428Y-109939749D01*
X148403561Y-109823203D01*
X148360511Y-109719508D01*
X148281252Y-109650362D01*
X148221660Y-109608788D01*
X148196818Y-109554527D01*
X148205306Y-109473134D01*
X148245703Y-109350162D01*
X148250502Y-109337488D01*
X148280965Y-109277134D01*
X148322479Y-109266592D01*
X148374293Y-109283046D01*
G37*
G36*
X148675000Y-91882653D02*
G01*
X148671458Y-91980061D01*
X148656755Y-92028623D01*
X148624775Y-92044095D01*
X148612116Y-92044643D01*
X148544907Y-92061140D01*
X148532690Y-92102571D01*
X148566983Y-92146265D01*
X148644424Y-92248510D01*
X148690371Y-92388657D01*
X148702514Y-92546756D01*
X148678545Y-92702859D01*
X148642022Y-92794727D01*
X148539027Y-92923661D01*
X148390756Y-93019613D01*
X148209200Y-93079925D01*
X148006346Y-93101935D01*
X147963206Y-93098081D01*
X147794184Y-93082983D01*
X147598860Y-93026197D01*
X147453214Y-92937520D01*
X147345288Y-92811230D01*
X147279032Y-92661052D01*
X147258399Y-92500712D01*
X147269659Y-92439716D01*
X147574579Y-92439716D01*
X147622236Y-92553309D01*
X147673149Y-92608727D01*
X147745927Y-92659287D01*
X147825692Y-92684660D01*
X147938823Y-92692472D01*
X147963206Y-92692602D01*
X148138770Y-92679390D01*
X148262950Y-92637338D01*
X148344053Y-92562824D01*
X148369805Y-92515199D01*
X148396982Y-92381063D01*
X148361648Y-92259103D01*
X148302904Y-92187066D01*
X148189934Y-92122528D01*
X148045308Y-92093688D01*
X147890850Y-92099663D01*
X147748385Y-92139569D01*
X147639740Y-92212525D01*
X147638397Y-92213955D01*
X147579398Y-92320135D01*
X147574579Y-92439716D01*
X147269659Y-92439716D01*
X147287340Y-92343934D01*
X147364172Y-92211009D01*
X147415623Y-92145198D01*
X147442670Y-92101499D01*
X147443878Y-92096662D01*
X147413569Y-92089088D01*
X147330987Y-92082871D01*
X147208655Y-92078645D01*
X147059090Y-92077042D01*
X147055102Y-92077041D01*
X146666327Y-92077041D01*
X146666327Y-91898852D01*
X146666327Y-91720663D01*
X147670664Y-91720663D01*
X148675000Y-91720663D01*
X148675000Y-91882653D01*
G37*
G36*
X150456888Y-98378444D02*
G01*
X150458461Y-98579373D01*
X150464922Y-98721221D01*
X150478884Y-98809664D01*
X150502959Y-98850378D01*
X150539761Y-98849038D01*
X150591903Y-98811319D01*
X150636549Y-98768692D01*
X150700572Y-98662642D01*
X150719707Y-98532539D01*
X150693820Y-98401188D01*
X150639258Y-98308955D01*
X150593304Y-98249699D01*
X150579091Y-98199857D01*
X150593036Y-98131525D01*
X150609905Y-98080362D01*
X150651236Y-97984248D01*
X150696865Y-97946730D01*
X150759373Y-97962139D01*
X150806491Y-97991809D01*
X150901328Y-98093800D01*
X150971396Y-98240107D01*
X151012513Y-98413608D01*
X151020496Y-98597183D01*
X150994560Y-98761794D01*
X150917328Y-98953500D01*
X150802950Y-99095005D01*
X150647914Y-99188751D01*
X150448710Y-99237177D01*
X150298636Y-99245516D01*
X150165306Y-99232984D01*
X150062843Y-99223354D01*
X149874179Y-99156745D01*
X149732449Y-99045503D01*
X149637459Y-98889442D01*
X149589017Y-98688378D01*
X149584005Y-98594622D01*
X149872513Y-98594622D01*
X149904638Y-98708928D01*
X149986024Y-98801036D01*
X150067606Y-98843183D01*
X150165306Y-98877242D01*
X150165306Y-98571146D01*
X150163722Y-98426008D01*
X150157712Y-98334342D01*
X150145398Y-98284876D01*
X150124896Y-98266334D01*
X150114217Y-98265051D01*
X150060280Y-98286621D01*
X149988935Y-98340331D01*
X149968426Y-98359753D01*
X149892745Y-98473203D01*
X149872513Y-98594622D01*
X149584005Y-98594622D01*
X149582143Y-98559782D01*
X149587982Y-98437167D01*
X149603006Y-98327318D01*
X149616699Y-98275260D01*
X149707340Y-98123584D01*
X149846522Y-98009434D01*
X150027373Y-97936753D01*
X150243019Y-97909485D01*
X150254401Y-97909385D01*
X150456888Y-97908673D01*
X150456888Y-98378444D01*
G37*
G36*
X148181455Y-97644350D02*
G01*
X148369236Y-97702810D01*
X148523312Y-97796584D01*
X148631962Y-97921804D01*
X148643609Y-97943046D01*
X148694207Y-98095886D01*
X148702857Y-98258206D01*
X148672348Y-98412029D01*
X148605465Y-98539381D01*
X148541622Y-98600995D01*
X148514301Y-98622663D01*
X148510904Y-98637431D01*
X148539819Y-98646615D01*
X148609433Y-98651531D01*
X148728133Y-98653495D01*
X148878378Y-98653827D01*
X149290561Y-98653827D01*
X149290561Y-98833032D01*
X149283035Y-98952424D01*
X149261485Y-99018333D01*
X149249690Y-99027921D01*
X149207964Y-99031619D01*
X149109895Y-99034428D01*
X148963933Y-99036290D01*
X148778525Y-99037144D01*
X148562120Y-99036931D01*
X148323166Y-99035589D01*
X148253453Y-99035004D01*
X148062574Y-99033286D01*
X147298087Y-99026403D01*
X147288294Y-98856314D01*
X147278502Y-98686224D01*
X147397957Y-98686224D01*
X147517412Y-98686224D01*
X147434594Y-98621080D01*
X147371731Y-98550038D01*
X147313022Y-98449690D01*
X147296751Y-98411853D01*
X147282907Y-98347437D01*
X147568393Y-98347437D01*
X147599803Y-98465651D01*
X147657553Y-98540459D01*
X147769209Y-98607040D01*
X147911122Y-98640829D01*
X148062574Y-98642070D01*
X148202847Y-98611005D01*
X148311223Y-98547878D01*
X148326203Y-98532614D01*
X148385987Y-98420368D01*
X148395469Y-98290988D01*
X148354700Y-98168117D01*
X148325325Y-98127223D01*
X148226434Y-98058333D01*
X148092047Y-98023237D01*
X147941994Y-98021995D01*
X147796104Y-98054672D01*
X147674204Y-98121327D01*
X147669539Y-98125178D01*
X147591814Y-98227844D01*
X147568393Y-98347437D01*
X147282907Y-98347437D01*
X147257219Y-98227912D01*
X147277245Y-98054028D01*
X147351604Y-97898966D01*
X147475071Y-97771489D01*
X147642421Y-97680361D01*
X147751658Y-97648830D01*
X147971689Y-97625067D01*
X148181455Y-97644350D01*
G37*
G36*
X150694410Y-99345353D02*
G01*
X150787061Y-99373765D01*
X150806491Y-99384922D01*
X150895249Y-99481810D01*
X150964045Y-99625325D01*
X151008611Y-99799225D01*
X151024676Y-99987267D01*
X151010344Y-100160332D01*
X150955327Y-100343026D01*
X150864795Y-100494738D01*
X150815871Y-100546750D01*
X150772317Y-100582056D01*
X150737349Y-100586037D01*
X150691114Y-100553653D01*
X150635566Y-100500985D01*
X150524087Y-100392935D01*
X150620079Y-100283605D01*
X150679557Y-100204235D01*
X150708121Y-100124398D01*
X150716023Y-100013785D01*
X150716072Y-99999864D01*
X150710862Y-99859972D01*
X150692793Y-99774053D01*
X150658201Y-99731940D01*
X150616317Y-99722959D01*
X150575662Y-99739667D01*
X150540662Y-99797473D01*
X150504368Y-99907905D01*
X150503993Y-99909247D01*
X150441009Y-100124993D01*
X150385320Y-100285702D01*
X150331155Y-100399801D01*
X150272741Y-100475717D01*
X150204309Y-100521879D01*
X150120087Y-100546713D01*
X150062030Y-100554635D01*
X149903918Y-100542987D01*
X149774389Y-100475449D01*
X149676093Y-100355511D01*
X149611684Y-100186665D01*
X149583813Y-99972402D01*
X149582855Y-99923838D01*
X149594826Y-99732519D01*
X149636331Y-99582317D01*
X149713783Y-99453816D01*
X149753570Y-99407079D01*
X149821900Y-99348693D01*
X149881615Y-99344003D01*
X149946600Y-99395207D01*
X149986572Y-99443981D01*
X150070319Y-99553779D01*
X149972022Y-99652076D01*
X149906928Y-99730762D01*
X149878700Y-99813322D01*
X149873725Y-99900786D01*
X149886115Y-100039742D01*
X149920978Y-100134074D01*
X149974858Y-100175373D01*
X149987118Y-100176531D01*
X150022559Y-100166469D01*
X150054443Y-100129915D01*
X150087234Y-100057314D01*
X150125400Y-99939111D01*
X150165735Y-99794407D01*
X150227820Y-99602377D01*
X150298474Y-99467799D01*
X150384306Y-99383361D01*
X150491930Y-99341750D01*
X150581763Y-99334184D01*
X150694410Y-99345353D01*
G37*
G36*
X148348862Y-112297913D02*
G01*
X148414324Y-112328819D01*
X148494378Y-112378600D01*
X148554982Y-112432371D01*
X148599043Y-112499779D01*
X148629465Y-112590474D01*
X148649155Y-112714104D01*
X148661019Y-112880318D01*
X148667961Y-113098764D01*
X148669524Y-113176212D01*
X148680248Y-113751275D01*
X148135867Y-113751275D01*
X147754282Y-113751275D01*
X147379082Y-113751275D01*
X146828317Y-113751275D01*
X146828497Y-113257207D01*
X146830478Y-113088954D01*
X147152296Y-113088954D01*
X147152296Y-113362500D01*
X147379082Y-113362500D01*
X147605868Y-113362500D01*
X147888316Y-113362500D01*
X148135867Y-113362500D01*
X148383419Y-113362500D01*
X148383419Y-113117385D01*
X148378602Y-112988050D01*
X148365915Y-112876540D01*
X148348002Y-112805280D01*
X148346171Y-112801505D01*
X148290994Y-112723671D01*
X148218180Y-112689035D01*
X148137356Y-112682639D01*
X148047330Y-112695715D01*
X147983684Y-112741718D01*
X147941465Y-112829254D01*
X147915723Y-112966929D01*
X147905603Y-113085413D01*
X147888316Y-113362500D01*
X147605868Y-113362500D01*
X147605868Y-113118043D01*
X147603446Y-112987988D01*
X147593102Y-112903827D01*
X147570217Y-112846743D01*
X147530171Y-112797918D01*
X147526345Y-112794063D01*
X147422221Y-112726941D01*
X147311195Y-112723620D01*
X147224301Y-112764975D01*
X147188763Y-112796229D01*
X147167247Y-112839072D01*
X147156325Y-112908937D01*
X147152565Y-113021258D01*
X147152296Y-113088954D01*
X146830478Y-113088954D01*
X146830645Y-113074800D01*
X146836431Y-112906474D01*
X146845071Y-112767063D01*
X146855782Y-112671400D01*
X146860690Y-112647903D01*
X146929971Y-112506626D01*
X147040223Y-112402446D01*
X147177366Y-112338562D01*
X147327322Y-112318177D01*
X147476013Y-112344492D01*
X147609359Y-112420707D01*
X147656234Y-112467016D01*
X147755196Y-112581098D01*
X147814306Y-112471337D01*
X147910465Y-112355546D01*
X148041132Y-112285783D01*
X148192026Y-112265441D01*
X148348862Y-112297913D01*
G37*
G36*
X148675000Y-99313923D02*
G01*
X148675000Y-99516589D01*
X148463357Y-99591305D01*
X148251714Y-99666021D01*
X148260870Y-100008220D01*
X148270026Y-100350419D01*
X148472206Y-100417365D01*
X148674386Y-100484311D01*
X148674693Y-100690265D01*
X148672468Y-100802450D01*
X148663244Y-100861935D01*
X148643836Y-100880701D01*
X148625038Y-100877046D01*
X148581458Y-100861160D01*
X148485914Y-100826849D01*
X148347503Y-100777360D01*
X148175322Y-100715945D01*
X147978469Y-100645854D01*
X147934415Y-100630188D01*
X147839387Y-100596396D01*
X147624850Y-100520053D01*
X147423084Y-100448080D01*
X147244627Y-100384250D01*
X147100016Y-100332336D01*
X146999789Y-100296109D01*
X146966008Y-100283722D01*
X146828317Y-100232523D01*
X146828317Y-100013583D01*
X147188809Y-100013583D01*
X147227904Y-100023366D01*
X147321423Y-100050350D01*
X147461971Y-100092322D01*
X147642154Y-100147068D01*
X147854578Y-100212374D01*
X147905549Y-100228139D01*
X147934415Y-100230464D01*
X147951466Y-100207216D01*
X147959716Y-100146292D01*
X147962180Y-100035592D01*
X147962245Y-100000525D01*
X147961262Y-99883845D01*
X147958659Y-99797383D01*
X147954958Y-99756879D01*
X147954146Y-99755677D01*
X147919501Y-99765314D01*
X147840230Y-99790519D01*
X147730111Y-99826647D01*
X147602925Y-99869056D01*
X147472452Y-99913101D01*
X147352472Y-99954139D01*
X147256765Y-99987526D01*
X147199111Y-100008619D01*
X147188809Y-100013583D01*
X146828317Y-100013583D01*
X146828317Y-99993940D01*
X146829769Y-99878955D01*
X146833605Y-99794350D01*
X146839045Y-99756107D01*
X146839970Y-99755357D01*
X146872507Y-99744995D01*
X146957315Y-99715948D01*
X147085626Y-99671277D01*
X147248671Y-99614042D01*
X147437683Y-99547304D01*
X147544626Y-99509397D01*
X147759790Y-99433100D01*
X147968497Y-99359218D01*
X148158163Y-99292197D01*
X148316204Y-99236481D01*
X148430033Y-99196518D01*
X148456314Y-99187348D01*
X148675000Y-99111258D01*
X148675000Y-99313923D01*
G37*
G36*
X148128554Y-96048548D02*
G01*
X148234533Y-96058516D01*
X148316930Y-96079961D01*
X148396293Y-96116680D01*
X148414837Y-96126878D01*
X148561026Y-96242564D01*
X148660463Y-96393945D01*
X148705168Y-96567877D01*
X148706865Y-96607859D01*
X148687253Y-96759463D01*
X148633627Y-96898284D01*
X148555510Y-97001681D01*
X148533976Y-97018851D01*
X148511730Y-97038347D01*
X148516104Y-97051676D01*
X148555418Y-97059985D01*
X148637992Y-97064421D01*
X148772146Y-97066132D01*
X148878378Y-97066327D01*
X149290561Y-97066327D01*
X149290065Y-97220217D01*
X149284564Y-97320481D01*
X149271230Y-97396192D01*
X149263551Y-97415096D01*
X149241737Y-97427239D01*
X149189745Y-97436570D01*
X149101836Y-97443274D01*
X148972269Y-97447539D01*
X148795301Y-97449552D01*
X148565191Y-97449499D01*
X148276199Y-97447568D01*
X148267810Y-97447494D01*
X147929359Y-97444496D01*
X147298087Y-97438903D01*
X147288294Y-97268814D01*
X147278502Y-97098724D01*
X147399738Y-97098724D01*
X147520974Y-97098724D01*
X147419467Y-96999482D01*
X147312494Y-96854173D01*
X147281105Y-96754640D01*
X147570577Y-96754640D01*
X147602902Y-96870688D01*
X147651333Y-96933793D01*
X147775214Y-97009580D01*
X147929359Y-97045423D01*
X148092238Y-97040317D01*
X148242324Y-96993257D01*
X148292158Y-96963723D01*
X148368822Y-96874314D01*
X148399038Y-96758327D01*
X148381237Y-96635920D01*
X148325196Y-96539580D01*
X148226886Y-96470862D01*
X148092456Y-96433749D01*
X147942482Y-96428482D01*
X147797545Y-96455302D01*
X147678223Y-96514453D01*
X147657553Y-96531735D01*
X147588905Y-96634471D01*
X147570577Y-96754640D01*
X147281105Y-96754640D01*
X147261106Y-96691225D01*
X147263482Y-96523050D01*
X147317801Y-96362062D01*
X147422242Y-96220673D01*
X147547570Y-96126023D01*
X147626977Y-96086277D01*
X147707038Y-96062250D01*
X147807998Y-96050195D01*
X147950105Y-96046364D01*
X147978444Y-96046263D01*
X148128554Y-96048548D01*
G37*
G36*
X148149423Y-104347768D02*
G01*
X148154533Y-104512329D01*
X148162470Y-104651001D01*
X148172294Y-104752295D01*
X148183061Y-104804720D01*
X148187271Y-104809439D01*
X148277555Y-104779834D01*
X148353732Y-104702148D01*
X148403407Y-104593071D01*
X148415817Y-104501658D01*
X148400748Y-104412160D01*
X148363486Y-104318284D01*
X148315945Y-104245165D01*
X148282047Y-104219483D01*
X148268941Y-104185345D01*
X148277384Y-104115280D01*
X148300824Y-104031745D01*
X148332710Y-103957199D01*
X148366492Y-103914101D01*
X148371865Y-103911547D01*
X148427214Y-103923392D01*
X148499562Y-103977284D01*
X148573994Y-104058878D01*
X148635593Y-104153830D01*
X148645961Y-104175132D01*
X148685854Y-104312299D01*
X148703143Y-104479926D01*
X148696945Y-104648415D01*
X148666374Y-104788164D01*
X148664436Y-104793240D01*
X148604089Y-104925968D01*
X148536102Y-105018194D01*
X148441359Y-105093189D01*
X148394431Y-105121972D01*
X148228868Y-105187356D01*
X148033346Y-105215896D01*
X147845649Y-105207616D01*
X147831614Y-105206997D01*
X147647420Y-105160067D01*
X147605588Y-105141687D01*
X147454928Y-105034505D01*
X147344861Y-104887188D01*
X147278022Y-104712116D01*
X147261523Y-104562285D01*
X147557886Y-104562285D01*
X147596227Y-104682513D01*
X147686370Y-104773209D01*
X147717592Y-104790277D01*
X147793484Y-104824029D01*
X147841556Y-104841264D01*
X147845649Y-104841837D01*
X147853986Y-104811787D01*
X147860529Y-104731018D01*
X147864390Y-104613601D01*
X147865051Y-104534056D01*
X147861596Y-104379478D01*
X147851683Y-104275552D01*
X147835997Y-104228452D01*
X147831044Y-104226275D01*
X147741289Y-104252640D01*
X147651107Y-104318410D01*
X147585985Y-104403602D01*
X147576511Y-104425865D01*
X147557886Y-104562285D01*
X147261523Y-104562285D01*
X147257051Y-104521671D01*
X147284583Y-104328234D01*
X147363259Y-104144186D01*
X147385626Y-104109206D01*
X147489356Y-103996892D01*
X147624541Y-103925774D01*
X147801413Y-103891546D01*
X147913648Y-103886895D01*
X148140434Y-103886097D01*
X148149423Y-104347768D01*
G37*
G36*
X148555858Y-106220762D02*
G01*
X148646438Y-106251771D01*
X148692122Y-106306010D01*
X148706570Y-106401804D01*
X148706902Y-106423367D01*
X148683793Y-106563208D01*
X148619430Y-106675351D01*
X148583988Y-106707740D01*
X148557716Y-106738356D01*
X148567373Y-106779969D01*
X148609616Y-106842785D01*
X148665896Y-106959605D01*
X148697321Y-107109247D01*
X148702507Y-107267407D01*
X148680067Y-107409782D01*
X148646391Y-107488302D01*
X148556093Y-107595930D01*
X148446938Y-107649432D01*
X148339437Y-107660459D01*
X148322501Y-107656702D01*
X148204228Y-107630464D01*
X148089601Y-107540201D01*
X147995263Y-107389250D01*
X147920921Y-107177195D01*
X147884306Y-107012500D01*
X147859494Y-106896112D01*
X147834453Y-106829772D01*
X147816918Y-106813171D01*
X148104194Y-106813171D01*
X148104649Y-106842411D01*
X148122008Y-106908244D01*
X148145078Y-107005819D01*
X148153603Y-107043997D01*
X148194581Y-107159647D01*
X148254010Y-107240455D01*
X148320947Y-107271666D01*
X148322501Y-107271684D01*
X148361721Y-107251213D01*
X148399974Y-107218102D01*
X148434393Y-107142421D01*
X148431047Y-107039406D01*
X148393524Y-106931607D01*
X148342750Y-106858610D01*
X148277089Y-106810534D01*
X148203108Y-106786096D01*
X148139309Y-106786556D01*
X148104194Y-106813171D01*
X147816918Y-106813171D01*
X147802057Y-106799101D01*
X147774877Y-106791651D01*
X147697030Y-106809016D01*
X147618904Y-106866926D01*
X147555293Y-106970311D01*
X147550490Y-107085719D01*
X147602932Y-107201642D01*
X147674824Y-107278597D01*
X147778768Y-107366506D01*
X147719795Y-107497283D01*
X147665063Y-107589429D01*
X147604519Y-107623181D01*
X147529123Y-107599348D01*
X147434095Y-107522768D01*
X147332201Y-107384310D01*
X147271872Y-107207911D01*
X147256569Y-107008039D01*
X147275180Y-106858650D01*
X147314309Y-106706128D01*
X147365109Y-106592244D01*
X147437089Y-106511019D01*
X147539757Y-106456471D01*
X147682622Y-106422622D01*
X147875190Y-106403491D01*
X148009269Y-106396939D01*
X148432016Y-106380740D01*
X148442466Y-106289587D01*
X148455730Y-106228347D01*
X148489971Y-106210610D01*
X148555858Y-106220762D01*
G37*
G36*
X148012871Y-93216751D02*
G01*
X148140434Y-93227168D01*
X148149400Y-93705038D01*
X148154442Y-93872653D01*
X148162331Y-94014575D01*
X148172152Y-94119512D01*
X148182989Y-94176168D01*
X148188090Y-94182908D01*
X148230225Y-94163485D01*
X148295709Y-94115656D01*
X148308717Y-94104718D01*
X148365583Y-94044927D01*
X148392465Y-93977003D01*
X148399594Y-93873893D01*
X148399618Y-93864344D01*
X148390624Y-93746401D01*
X148357976Y-93664374D01*
X148323185Y-93620800D01*
X148278633Y-93569449D01*
X148263370Y-93526567D01*
X148275269Y-93467613D01*
X148303288Y-93391404D01*
X148341043Y-93305659D01*
X148374213Y-93252220D01*
X148386740Y-93243367D01*
X148438078Y-93269056D01*
X148506103Y-93334680D01*
X148576870Y-93423081D01*
X148636432Y-93517097D01*
X148668140Y-93589624D01*
X148701200Y-93787001D01*
X148694080Y-93999036D01*
X148654008Y-94173415D01*
X148563874Y-94336738D01*
X148425795Y-94458893D01*
X148243654Y-94537603D01*
X148021330Y-94570592D01*
X147975179Y-94571503D01*
X147802062Y-94553122D01*
X147745637Y-94547131D01*
X147558857Y-94474683D01*
X147416688Y-94355980D01*
X147320979Y-94192847D01*
X147273581Y-93987103D01*
X147269256Y-93891327D01*
X147558743Y-93891327D01*
X147569531Y-93995268D01*
X147610869Y-94068656D01*
X147648908Y-94105352D01*
X147726051Y-94157527D01*
X147795436Y-94182534D01*
X147802062Y-94182908D01*
X147832022Y-94177607D01*
X147850643Y-94153511D01*
X147860578Y-94098333D01*
X147864483Y-93999783D01*
X147865051Y-93891327D01*
X147863906Y-93752638D01*
X147858701Y-93666443D01*
X147846781Y-93620451D01*
X147825491Y-93602375D01*
X147802062Y-93599745D01*
X147736088Y-93620044D01*
X147658074Y-93669678D01*
X147648908Y-93677301D01*
X147586365Y-93747427D01*
X147561370Y-93831493D01*
X147558743Y-93891327D01*
X147269256Y-93891327D01*
X147268524Y-93875128D01*
X147283321Y-93684775D01*
X147329523Y-93539008D01*
X147413500Y-93422643D01*
X147484341Y-93360871D01*
X147630899Y-93280621D01*
X147809049Y-93229391D01*
X147989057Y-93215288D01*
X148012871Y-93216751D01*
G37*
G36*
X151001083Y-94155673D02*
G01*
X151010712Y-94339025D01*
X150504106Y-94350061D01*
X150312081Y-94354683D01*
X150174174Y-94359943D01*
X150079718Y-94367485D01*
X150018042Y-94378950D01*
X149978479Y-94395982D01*
X149950358Y-94420222D01*
X149935613Y-94437582D01*
X149880756Y-94547159D01*
X149890432Y-94658645D01*
X149946620Y-94749762D01*
X150011360Y-94806113D01*
X150100132Y-94846756D01*
X150222687Y-94873721D01*
X150388776Y-94889039D01*
X150608151Y-94894744D01*
X150643176Y-94894890D01*
X151007653Y-94895663D01*
X151007653Y-95073852D01*
X151007653Y-95252041D01*
X150578380Y-95253869D01*
X150399552Y-95257580D01*
X150239149Y-95266379D01*
X150112696Y-95279108D01*
X150036410Y-95294367D01*
X149937649Y-95354709D01*
X149888886Y-95441589D01*
X149889172Y-95541508D01*
X149937558Y-95640968D01*
X150033097Y-95726468D01*
X150068150Y-95746059D01*
X150132756Y-95771274D01*
X150215753Y-95788098D01*
X150330295Y-95797951D01*
X150489536Y-95802247D01*
X150594579Y-95802756D01*
X151007653Y-95802806D01*
X151007653Y-95982012D01*
X150999962Y-96102857D01*
X150977720Y-96168231D01*
X150966281Y-96177093D01*
X150922547Y-96181483D01*
X150824426Y-96184548D01*
X150682313Y-96186183D01*
X150506607Y-96186284D01*
X150307703Y-96184747D01*
X150261626Y-96184176D01*
X149598342Y-96175383D01*
X149598342Y-96013393D01*
X149600542Y-95917150D01*
X149614959Y-95867179D01*
X149653324Y-95844960D01*
X149711735Y-95834327D01*
X149783568Y-95821309D01*
X149798404Y-95807147D01*
X149763555Y-95782755D01*
X149756455Y-95778751D01*
X149667079Y-95694290D01*
X149609971Y-95570370D01*
X149585278Y-95423803D01*
X149593147Y-95271404D01*
X149633723Y-95129984D01*
X149707152Y-95016359D01*
X149749515Y-94979774D01*
X149820064Y-94930360D01*
X149729693Y-94840116D01*
X149643784Y-94735286D01*
X149597808Y-94621979D01*
X149582490Y-94475532D01*
X149582264Y-94448082D01*
X149611326Y-94273055D01*
X149693812Y-94124536D01*
X149797784Y-94030778D01*
X149838746Y-94008949D01*
X149891768Y-93993231D01*
X149967355Y-93982667D01*
X150076008Y-93976299D01*
X150228232Y-93973169D01*
X150434529Y-93972322D01*
X150439190Y-93972321D01*
X150991454Y-93972321D01*
X151001083Y-94155673D01*
G37*
G36*
X150996782Y-107455515D02*
G01*
X151005820Y-107509793D01*
X151007651Y-107614229D01*
X151007653Y-107622416D01*
X151007653Y-107818712D01*
X150780868Y-107891754D01*
X150554082Y-107964795D01*
X150554082Y-108308418D01*
X150554082Y-108652042D01*
X150780868Y-108725083D01*
X151007653Y-108798124D01*
X151007653Y-109687200D01*
X151007653Y-110576275D01*
X150067455Y-110576275D01*
X149127257Y-110576275D01*
X149136014Y-109904018D01*
X149144771Y-109231760D01*
X149298661Y-109221886D01*
X149452551Y-109212011D01*
X149452551Y-109699755D01*
X149452551Y-110187500D01*
X149678276Y-110187500D01*
X149904001Y-110187500D01*
X149913161Y-109823023D01*
X149922322Y-109458546D01*
X150076212Y-109448671D01*
X150230102Y-109438797D01*
X150230102Y-109813148D01*
X150230102Y-110187500D01*
X150456888Y-110187500D01*
X150683674Y-110187500D01*
X150683674Y-109685332D01*
X150683674Y-109183163D01*
X150786267Y-109183163D01*
X150851476Y-109178748D01*
X150873340Y-109167982D01*
X150872333Y-109166636D01*
X150838655Y-109151906D01*
X150751797Y-109118551D01*
X150619691Y-109069485D01*
X150450268Y-109007622D01*
X150251460Y-108935878D01*
X150238202Y-108931140D01*
X150031198Y-108857166D01*
X150000288Y-108846178D01*
X149144771Y-108542247D01*
X149144771Y-108306670D01*
X149144771Y-108300748D01*
X149537695Y-108300748D01*
X149557572Y-108314380D01*
X149625236Y-108341945D01*
X149726429Y-108378691D01*
X149846892Y-108419871D01*
X149972368Y-108460736D01*
X150088598Y-108496536D01*
X150181324Y-108522523D01*
X150236288Y-108533946D01*
X150238202Y-108534071D01*
X150250172Y-108505003D01*
X150258849Y-108427435D01*
X150262480Y-108317647D01*
X150262500Y-108308418D01*
X150259985Y-108196633D01*
X150253364Y-108115634D01*
X150244030Y-108081811D01*
X150243266Y-108081633D01*
X150204043Y-108090824D01*
X150119058Y-108115113D01*
X150004175Y-108149574D01*
X149875257Y-108189280D01*
X149748166Y-108229306D01*
X149638766Y-108264726D01*
X149562918Y-108290612D01*
X149537695Y-108300748D01*
X149144771Y-108300748D01*
X149144771Y-108071092D01*
X150003317Y-107764751D01*
X150229573Y-107684361D01*
X150438708Y-107610704D01*
X150622135Y-107546752D01*
X150771267Y-107495478D01*
X150877517Y-107459856D01*
X150932297Y-107442858D01*
X150934758Y-107442265D01*
X150974955Y-107437604D01*
X150996782Y-107455515D01*
G37*
G36*
X149452551Y-111044271D02*
G01*
X149452551Y-111353827D01*
X150230102Y-111353827D01*
X151007653Y-111353827D01*
X151007653Y-111548214D01*
X151007653Y-111742602D01*
X150230102Y-111742602D01*
X149452551Y-111742602D01*
X149452551Y-112024858D01*
X149452551Y-112307114D01*
X149590243Y-112448106D01*
X149727934Y-112589099D01*
X149637932Y-112655183D01*
X149538373Y-112760967D01*
X149472351Y-112897098D01*
X149442550Y-113046017D01*
X149451653Y-113190164D01*
X149502344Y-113311981D01*
X149532074Y-113347774D01*
X149623750Y-113414071D01*
X149704667Y-113418117D01*
X149775426Y-113359410D01*
X149836629Y-113237451D01*
X149888876Y-113051738D01*
X149889082Y-113050803D01*
X149951645Y-112806657D01*
X150021024Y-112620730D01*
X150101417Y-112486497D01*
X150197019Y-112397432D01*
X150312028Y-112347012D01*
X150346782Y-112339210D01*
X150527866Y-112335955D01*
X150695131Y-112390737D01*
X150836583Y-112496822D01*
X150940224Y-112647476D01*
X150954581Y-112680405D01*
X150994647Y-112825163D01*
X151018812Y-113003563D01*
X151024703Y-113185879D01*
X151009948Y-113342385D01*
X151008131Y-113351363D01*
X150951401Y-113530507D01*
X150865360Y-113694491D01*
X150769905Y-113811662D01*
X150687841Y-113888247D01*
X150593786Y-113821274D01*
X150494470Y-113745053D01*
X150446998Y-113687344D01*
X150447205Y-113634077D01*
X150490925Y-113571181D01*
X150512728Y-113547461D01*
X150604517Y-113438835D01*
X150656811Y-113338367D01*
X150679712Y-113219873D01*
X150683674Y-113104306D01*
X150668754Y-112935471D01*
X150625056Y-112818480D01*
X150554173Y-112756475D01*
X150502506Y-112746939D01*
X150440468Y-112762088D01*
X150388047Y-112812942D01*
X150340587Y-112907609D01*
X150293433Y-113054199D01*
X150266336Y-113158293D01*
X150200719Y-113390332D01*
X150130006Y-113564355D01*
X150048395Y-113687140D01*
X149950082Y-113765462D01*
X149829264Y-113806098D01*
X149703090Y-113816071D01*
X149525896Y-113798300D01*
X149389459Y-113739165D01*
X149279172Y-113629936D01*
X149211470Y-113522241D01*
X149154286Y-113397667D01*
X149125445Y-113273662D01*
X149116784Y-113140752D01*
X149120678Y-112944781D01*
X149145239Y-112790163D01*
X149196040Y-112655235D01*
X149275981Y-112522217D01*
X149388830Y-112358163D01*
X149258135Y-112358163D01*
X149127440Y-112358163D01*
X149136105Y-111556314D01*
X149144771Y-110754464D01*
X149298661Y-110744590D01*
X149452551Y-110734715D01*
X149452551Y-111044271D01*
G37*
G36*
X145817069Y-103454116D02*
G01*
X145830503Y-103470492D01*
X145840489Y-103507197D01*
X145847532Y-103571554D01*
X145852137Y-103670884D01*
X145854810Y-103812508D01*
X145856055Y-104003747D01*
X145856377Y-104251922D01*
X145856378Y-104272574D01*
X145856378Y-105096423D01*
X145686289Y-105143185D01*
X145521109Y-105188080D01*
X145342306Y-105235833D01*
X145167818Y-105281733D01*
X145015587Y-105321071D01*
X144903551Y-105349135D01*
X144884439Y-105353716D01*
X144771046Y-105380490D01*
X144762394Y-106174211D01*
X144753742Y-106967932D01*
X145151170Y-107074655D01*
X145318308Y-107119641D01*
X145477045Y-107162546D01*
X145609123Y-107198427D01*
X145694388Y-107221810D01*
X145840179Y-107262242D01*
X145848835Y-108076912D01*
X145850865Y-108298943D01*
X145852054Y-108497902D01*
X145852402Y-108665146D01*
X145851909Y-108792032D01*
X145850574Y-108869917D01*
X145848835Y-108891157D01*
X145814769Y-108880997D01*
X145723012Y-108851739D01*
X145577388Y-108804638D01*
X145381722Y-108740948D01*
X145139838Y-108661922D01*
X144855562Y-108568816D01*
X144532719Y-108462882D01*
X144175132Y-108345376D01*
X143786628Y-108217552D01*
X143637986Y-108168592D01*
X143371031Y-108080662D01*
X142932166Y-107935963D01*
X142473858Y-107784708D01*
X142397425Y-107759469D01*
X140509773Y-107136099D01*
X140518343Y-106160464D01*
X140518354Y-106159219D01*
X141839031Y-106159219D01*
X141851583Y-106172929D01*
X141917758Y-106198875D01*
X142028215Y-106234000D01*
X142173610Y-106275247D01*
X142276403Y-106302349D01*
X142491155Y-106358091D01*
X142727570Y-106420462D01*
X142958520Y-106482249D01*
X143156878Y-106536241D01*
X143176315Y-106541608D01*
X143334087Y-106584297D01*
X143471744Y-106619761D01*
X143576008Y-106644706D01*
X143633603Y-106655839D01*
X143637986Y-106656122D01*
X143656713Y-106646759D01*
X143669953Y-106612730D01*
X143678581Y-106545126D01*
X143683472Y-106435041D01*
X143685500Y-106273565D01*
X143685715Y-106170153D01*
X143684049Y-106001036D01*
X143679458Y-105857515D01*
X143672555Y-105750789D01*
X143663949Y-105692054D01*
X143659197Y-105684184D01*
X143615042Y-105692624D01*
X143531430Y-105714188D01*
X143472909Y-105730730D01*
X143394585Y-105752406D01*
X143265114Y-105786930D01*
X143096159Y-105831249D01*
X142899387Y-105882310D01*
X142686465Y-105937060D01*
X142600383Y-105959055D01*
X142392803Y-106012251D01*
X142204694Y-106060941D01*
X142045704Y-106102590D01*
X141925479Y-106134660D01*
X141853667Y-106154615D01*
X141839031Y-106159219D01*
X140518354Y-106159219D01*
X140526914Y-105184829D01*
X143134949Y-104318803D01*
X143531018Y-104187478D01*
X143910107Y-104062160D01*
X144267619Y-103944347D01*
X144598957Y-103835537D01*
X144899523Y-103737227D01*
X145164720Y-103650914D01*
X145389952Y-103578096D01*
X145570622Y-103520270D01*
X145702131Y-103478935D01*
X145779884Y-103455587D01*
X145799681Y-103450750D01*
X145817069Y-103454116D01*
G37*
G36*
X145856378Y-92433230D02*
G01*
X145856378Y-93146173D01*
X143985396Y-93148561D01*
X142114414Y-93150948D01*
X142405995Y-93242049D01*
X142527651Y-93279532D01*
X142696701Y-93330882D01*
X142898383Y-93391652D01*
X143117937Y-93457397D01*
X143340602Y-93523673D01*
X143377934Y-93534741D01*
X143622883Y-93607448D01*
X143889087Y-93686679D01*
X144155377Y-93766119D01*
X144400583Y-93839454D01*
X144592857Y-93897156D01*
X144794405Y-93957672D01*
X144998287Y-94018681D01*
X145186314Y-94074753D01*
X145340300Y-94120461D01*
X145402806Y-94138896D01*
X145537778Y-94178661D01*
X145657502Y-94214120D01*
X145741947Y-94239336D01*
X145759184Y-94244558D01*
X145840179Y-94269303D01*
X145840179Y-94929336D01*
X145840179Y-95589370D01*
X145694388Y-95632975D01*
X145603888Y-95659841D01*
X145470375Y-95699225D01*
X145313029Y-95745479D01*
X145176021Y-95785641D01*
X144874540Y-95873978D01*
X144561026Y-95966001D01*
X144242091Y-96059756D01*
X143924351Y-96153289D01*
X143614419Y-96244646D01*
X143318909Y-96331873D01*
X143044435Y-96413016D01*
X142797612Y-96486121D01*
X142585054Y-96549233D01*
X142413374Y-96600398D01*
X142289187Y-96637663D01*
X142219107Y-96659073D01*
X142211607Y-96661461D01*
X142191938Y-96670419D01*
X142195080Y-96678086D01*
X142225200Y-96684569D01*
X142286468Y-96689975D01*
X142383050Y-96694412D01*
X142519114Y-96697987D01*
X142698829Y-96700807D01*
X142926361Y-96702980D01*
X143205878Y-96704614D01*
X143541549Y-96705815D01*
X143937540Y-96706691D01*
X143969197Y-96706746D01*
X145856378Y-96709949D01*
X145856378Y-97422892D01*
X145856378Y-98135836D01*
X143191646Y-98127548D01*
X140526914Y-98119260D01*
X140518400Y-96977232D01*
X140516860Y-96712498D01*
X140516282Y-96469467D01*
X140516620Y-96255445D01*
X140517824Y-96077736D01*
X140519850Y-95943645D01*
X140522648Y-95860478D01*
X140525783Y-95835204D01*
X140560102Y-95826779D01*
X140648040Y-95803108D01*
X140780870Y-95766600D01*
X140949867Y-95719664D01*
X141146304Y-95664709D01*
X141295649Y-95622706D01*
X141573224Y-95544980D01*
X141872073Y-95462191D01*
X142182406Y-95376978D01*
X142494433Y-95291980D01*
X142798365Y-95209839D01*
X143084413Y-95133193D01*
X143342787Y-95064683D01*
X143563697Y-95006948D01*
X143737355Y-94962628D01*
X143808741Y-94945032D01*
X143919342Y-94916024D01*
X143997895Y-94890975D01*
X144030226Y-94874522D01*
X144029899Y-94872670D01*
X143995476Y-94860566D01*
X143907264Y-94834945D01*
X143774269Y-94798269D01*
X143605496Y-94752998D01*
X143409951Y-94701594D01*
X143291311Y-94670841D01*
X143059281Y-94610274D01*
X142804370Y-94542481D01*
X142533727Y-94469471D01*
X142254497Y-94393256D01*
X141973829Y-94315847D01*
X141698868Y-94239255D01*
X141436762Y-94165490D01*
X141194658Y-94096564D01*
X140979702Y-94034487D01*
X140799042Y-93981270D01*
X140659824Y-93938925D01*
X140569196Y-93909461D01*
X140534563Y-93895184D01*
X140528871Y-93858085D01*
X140524153Y-93763982D01*
X140520523Y-93620663D01*
X140518098Y-93435914D01*
X140516992Y-93217524D01*
X140517322Y-92973279D01*
X140518364Y-92803925D01*
X140526914Y-91736862D01*
X143191646Y-91728574D01*
X145856378Y-91720287D01*
X145856378Y-92433230D01*
G37*
G36*
X144558356Y-108909081D02*
G01*
X144775093Y-108931415D01*
X144959699Y-108975005D01*
X144989624Y-108985821D01*
X145199187Y-109098235D01*
X145392049Y-109260231D01*
X145551992Y-109456595D01*
X145623302Y-109580272D01*
X145666915Y-109669941D01*
X145704089Y-109751861D01*
X145735379Y-109831924D01*
X145761340Y-109916017D01*
X145782529Y-110010030D01*
X145799501Y-110119853D01*
X145812810Y-110251374D01*
X145823013Y-110410484D01*
X145830664Y-110603071D01*
X145836319Y-110835025D01*
X145840534Y-111112235D01*
X145843863Y-111440590D01*
X145846863Y-111825980D01*
X145847836Y-111961288D01*
X145860406Y-113718878D01*
X144252679Y-113718878D01*
X143185560Y-113718878D01*
X142163010Y-113718878D01*
X140510715Y-113718878D01*
X140510715Y-112235821D01*
X140511493Y-111897408D01*
X140513494Y-111611970D01*
X141709439Y-111611970D01*
X141709439Y-112163775D01*
X142163010Y-112163775D01*
X142616582Y-112163775D01*
X143782908Y-112163775D01*
X144252679Y-112163775D01*
X144722449Y-112163775D01*
X144721738Y-111556314D01*
X144720688Y-111335392D01*
X144717540Y-111168573D01*
X144711408Y-111045175D01*
X144701411Y-110954517D01*
X144686663Y-110885918D01*
X144666282Y-110828694D01*
X144660448Y-110815453D01*
X144584221Y-110687854D01*
X144487796Y-110612442D01*
X144355831Y-110579667D01*
X144276259Y-110576275D01*
X144099547Y-110595036D01*
X143968379Y-110654379D01*
X143874419Y-110758896D01*
X143845870Y-110813309D01*
X143823704Y-110869701D01*
X143807463Y-110934019D01*
X143796249Y-111017004D01*
X143789160Y-111129399D01*
X143785297Y-111281943D01*
X143783760Y-111485378D01*
X143783620Y-111556314D01*
X143782908Y-112163775D01*
X142616582Y-112163775D01*
X142616582Y-111611970D01*
X142614549Y-111373734D01*
X142608135Y-111193197D01*
X142596867Y-111063378D01*
X142580271Y-110977298D01*
X142571911Y-110953251D01*
X142491765Y-110822639D01*
X142377806Y-110742365D01*
X142222608Y-110707936D01*
X142163010Y-110705867D01*
X142032415Y-110713891D01*
X141940736Y-110742108D01*
X141888071Y-110776103D01*
X141827580Y-110831005D01*
X141782241Y-110894065D01*
X141749959Y-110975082D01*
X141728640Y-111083857D01*
X141716189Y-111230190D01*
X141710512Y-111423882D01*
X141709439Y-111611970D01*
X140513494Y-111611970D01*
X140513736Y-111577498D01*
X140517300Y-111283325D01*
X140522045Y-111022124D01*
X140527829Y-110801132D01*
X140534511Y-110627583D01*
X140541948Y-110508713D01*
X140545087Y-110478232D01*
X140604596Y-110156284D01*
X140696768Y-109865526D01*
X140817837Y-109614020D01*
X140964040Y-109409826D01*
X141104510Y-109280035D01*
X141280196Y-109169127D01*
X141462184Y-109095481D01*
X141668342Y-109053920D01*
X141916537Y-109039269D01*
X141936225Y-109039117D01*
X142098173Y-109040166D01*
X142214723Y-109047263D01*
X142305203Y-109063477D01*
X142388942Y-109091877D01*
X142456070Y-109121669D01*
X142666301Y-109241262D01*
X142832433Y-109386923D01*
X142964974Y-109570643D01*
X143074430Y-109804417D01*
X143089613Y-109844833D01*
X143128290Y-109945020D01*
X143155912Y-109990354D01*
X143179157Y-109978696D01*
X143204704Y-109907904D01*
X143233449Y-109798724D01*
X143319464Y-109571268D01*
X143452977Y-109359088D01*
X143622284Y-109175720D01*
X143815683Y-109034703D01*
X143947652Y-108972577D01*
X144121406Y-108929367D01*
X144332717Y-108908300D01*
X144558356Y-108909081D01*
G37*
G36*
X147573470Y-101650638D02*
G01*
X147573470Y-101861224D01*
X147943732Y-101861224D01*
X148140935Y-101857050D01*
X148280117Y-101841814D01*
X148367676Y-101811452D01*
X148410007Y-101761897D01*
X148413509Y-101689084D01*
X148384578Y-101588945D01*
X148382163Y-101582539D01*
X148368519Y-101504175D01*
X148404521Y-101458817D01*
X148495369Y-101441214D01*
X148522763Y-101440547D01*
X148591052Y-101453198D01*
X148637249Y-101503486D01*
X148660454Y-101552403D01*
X148697305Y-101693682D01*
X148704609Y-101850839D01*
X148682453Y-101994720D01*
X148658986Y-102055254D01*
X148616111Y-102127891D01*
X148567048Y-102179964D01*
X148500764Y-102214836D01*
X148406229Y-102235868D01*
X148272410Y-102246420D01*
X148088277Y-102249855D01*
X148019832Y-102250000D01*
X147573470Y-102250000D01*
X147573470Y-102391824D01*
X147586482Y-102505817D01*
X147622555Y-102574356D01*
X147623835Y-102575448D01*
X147699135Y-102657707D01*
X147713284Y-102736045D01*
X147667875Y-102822728D01*
X147657570Y-102835381D01*
X147591292Y-102943144D01*
X147555460Y-103062261D01*
X147549856Y-103177309D01*
X147574261Y-103272862D01*
X147628458Y-103333499D01*
X147664788Y-103345643D01*
X147708439Y-103343510D01*
X147743963Y-103316067D01*
X147776541Y-103253579D01*
X147811354Y-103146317D01*
X147850589Y-102996590D01*
X147900866Y-102820285D01*
X147953199Y-102696546D01*
X148014202Y-102613300D01*
X148090491Y-102558477D01*
X148090777Y-102558329D01*
X148236964Y-102515958D01*
X148382989Y-102532021D01*
X148514695Y-102601684D01*
X148617927Y-102720112D01*
X148630528Y-102742636D01*
X148667696Y-102854500D01*
X148690668Y-103006554D01*
X148698601Y-103175586D01*
X148690654Y-103338381D01*
X148665987Y-103471726D01*
X148657824Y-103495883D01*
X148604371Y-103604873D01*
X148537928Y-103697844D01*
X148471851Y-103758393D01*
X148432430Y-103772704D01*
X148388434Y-103751039D01*
X148323877Y-103697006D01*
X148303228Y-103676350D01*
X148210914Y-103579995D01*
X148296380Y-103494530D01*
X148360079Y-103402024D01*
X148399099Y-103286982D01*
X148413815Y-103164620D01*
X148404604Y-103050158D01*
X148371842Y-102958812D01*
X148315905Y-102905801D01*
X148281643Y-102898455D01*
X148255902Y-102926492D01*
X148221696Y-102999547D01*
X148185789Y-103099658D01*
X148154946Y-103208861D01*
X148142089Y-103269029D01*
X148099631Y-103418875D01*
X148033782Y-103556993D01*
X147955969Y-103661440D01*
X147923072Y-103689568D01*
X147818872Y-103729817D01*
X147686858Y-103737094D01*
X147555056Y-103711303D01*
X147507383Y-103691042D01*
X147401686Y-103602216D01*
X147324479Y-103468881D01*
X147276936Y-103305286D01*
X147260233Y-103125679D01*
X147275547Y-102944308D01*
X147324054Y-102775423D01*
X147406930Y-102633273D01*
X147418910Y-102619064D01*
X147515386Y-102509184D01*
X147398637Y-102509184D01*
X147323896Y-102505452D01*
X147290682Y-102481797D01*
X147282157Y-102419527D01*
X147281888Y-102379592D01*
X147281888Y-102250000D01*
X147122335Y-102250000D01*
X146962782Y-102250000D01*
X146913540Y-102082018D01*
X146888847Y-101983704D01*
X146878164Y-101911095D01*
X146880617Y-101887630D01*
X146919288Y-101873527D01*
X147002875Y-101863946D01*
X147089412Y-101861224D01*
X147281888Y-101861224D01*
X147281888Y-101650638D01*
X147281888Y-101440051D01*
X147427679Y-101440051D01*
X147573470Y-101440051D01*
X147573470Y-101650638D01*
G37*
G36*
X141385777Y-98623998D02*
G01*
X141462365Y-98676296D01*
X141573578Y-98756117D01*
X141711059Y-98857451D01*
X141866454Y-98974291D01*
X141885628Y-98988855D01*
X142390132Y-99372480D01*
X142194978Y-99585455D01*
X141985090Y-99857360D01*
X141835216Y-100150929D01*
X141743920Y-100469922D01*
X141709769Y-100818097D01*
X141709439Y-100857923D01*
X141724907Y-101112160D01*
X141771837Y-101311938D01*
X141851019Y-101459875D01*
X141909206Y-101520601D01*
X142024674Y-101587931D01*
X142132589Y-101592500D01*
X142229428Y-101536216D01*
X142311665Y-101420988D01*
X142369440Y-101271369D01*
X142396536Y-101167755D01*
X142431097Y-101020583D01*
X142468556Y-100849963D01*
X142502263Y-100686502D01*
X142606053Y-100237951D01*
X142727786Y-99850032D01*
X142869279Y-99520621D01*
X143032350Y-99247593D01*
X143218817Y-99028824D01*
X143430496Y-98862188D01*
X143669204Y-98745561D01*
X143936760Y-98676818D01*
X144234980Y-98653834D01*
X144240835Y-98653827D01*
X144540330Y-98685225D01*
X144825901Y-98775971D01*
X145089572Y-98920889D01*
X145323370Y-99114805D01*
X145519318Y-99352543D01*
X145638796Y-99560969D01*
X145722887Y-99745410D01*
X145787090Y-99911510D01*
X145834188Y-100073410D01*
X145866965Y-100245254D01*
X145888204Y-100441184D01*
X145900689Y-100675342D01*
X145906605Y-100921684D01*
X145908316Y-101133470D01*
X145906989Y-101337630D01*
X145902941Y-101519680D01*
X145896485Y-101665137D01*
X145888451Y-101755941D01*
X145796670Y-102197475D01*
X145648778Y-102612055D01*
X145446895Y-102994715D01*
X145232235Y-103293845D01*
X145106848Y-103446746D01*
X144566370Y-103087261D01*
X144400177Y-102976446D01*
X144252203Y-102877252D01*
X144131027Y-102795476D01*
X144045232Y-102736912D01*
X144003395Y-102707354D01*
X144001260Y-102705620D01*
X144009263Y-102673105D01*
X144053969Y-102609242D01*
X144125058Y-102528553D01*
X144346571Y-102253614D01*
X144517649Y-101947418D01*
X144560232Y-101845025D01*
X144599128Y-101705779D01*
X144628870Y-101525736D01*
X144648799Y-101321668D01*
X144658257Y-101110345D01*
X144656583Y-100908539D01*
X144643120Y-100733022D01*
X144617207Y-100600564D01*
X144609967Y-100579380D01*
X144537044Y-100446947D01*
X144445073Y-100366362D01*
X144343745Y-100340043D01*
X144242752Y-100370408D01*
X144151785Y-100459875D01*
X144148771Y-100464301D01*
X144113713Y-100520295D01*
X144083798Y-100579996D01*
X144056057Y-100653473D01*
X144027517Y-100750796D01*
X143995209Y-100882036D01*
X143956162Y-101057262D01*
X143910377Y-101272415D01*
X143823363Y-101653334D01*
X143733820Y-101976639D01*
X143638795Y-102249512D01*
X143535336Y-102479134D01*
X143420491Y-102672685D01*
X143291310Y-102837346D01*
X143248172Y-102883360D01*
X143028364Y-103067726D01*
X142782868Y-103194944D01*
X142507087Y-103266855D01*
X142244005Y-103285871D01*
X141916965Y-103259922D01*
X141623864Y-103180664D01*
X141358371Y-103045551D01*
X141114154Y-102852036D01*
X141078107Y-102816959D01*
X140864256Y-102557981D01*
X140694045Y-102251820D01*
X140567812Y-101899492D01*
X140485893Y-101502016D01*
X140448623Y-101060406D01*
X140446179Y-100905485D01*
X140470311Y-100434255D01*
X140543184Y-100003489D01*
X140665510Y-99610151D01*
X140833258Y-99259466D01*
X140904219Y-99145144D01*
X140991373Y-99018961D01*
X141085744Y-98892233D01*
X141178356Y-98776278D01*
X141260234Y-98682410D01*
X141322401Y-98621947D01*
X141352167Y-98605230D01*
X141385777Y-98623998D01*
G37*
D15*
%TO.C,R208*%
X177927500Y-109062742D02*
X177927500Y-109537258D01*
X178972500Y-109062742D02*
X178972500Y-109537258D01*
%TO.C,U102*%
X154807500Y-80620000D02*
X154157500Y-80620000D01*
X154807500Y-80620000D02*
X155457500Y-80620000D01*
X154807500Y-83740000D02*
X154157500Y-83740000D01*
X154807500Y-83740000D02*
X155457500Y-83740000D01*
X156210000Y-84020000D02*
X155730000Y-84020000D01*
X155970000Y-83690000D01*
X156210000Y-84020000D01*
G36*
X156210000Y-84020000D02*
G01*
X155730000Y-84020000D01*
X155970000Y-83690000D01*
X156210000Y-84020000D01*
G37*
%TO.C,R211*%
X182436359Y-90210000D02*
X182743641Y-90210000D01*
X182436359Y-90970000D02*
X182743641Y-90970000D01*
%TO.C,U104*%
X155297500Y-87935000D02*
X155297500Y-87135000D01*
X155297500Y-87935000D02*
X155297500Y-88735000D01*
X158417500Y-87935000D02*
X158417500Y-87135000D01*
X158417500Y-87935000D02*
X158417500Y-88735000D01*
X155347500Y-89235000D02*
X155017500Y-89475000D01*
X155017500Y-88995000D01*
X155347500Y-89235000D01*
G36*
X155347500Y-89235000D02*
G01*
X155017500Y-89475000D01*
X155017500Y-88995000D01*
X155347500Y-89235000D01*
G37*
%TO.C,C102*%
X155580000Y-110937836D02*
X155580000Y-110722164D01*
X156300000Y-110937836D02*
X156300000Y-110722164D01*
%TO.C,J206*%
X179140000Y-73940000D02*
X179140000Y-74990000D01*
X179140000Y-79110000D02*
X178150000Y-79110000D01*
X179140000Y-80160000D02*
X179140000Y-79110000D01*
X181640000Y-73940000D02*
X179140000Y-73940000D01*
X181640000Y-80160000D02*
X179140000Y-80160000D01*
X183610000Y-78990000D02*
X183610000Y-75110000D01*
%TO.C,J205*%
X146870000Y-74860000D02*
X146870000Y-78740000D01*
X148840000Y-73690000D02*
X151340000Y-73690000D01*
X148840000Y-79910000D02*
X151340000Y-79910000D01*
X151340000Y-73690000D02*
X151340000Y-74740000D01*
X151340000Y-74740000D02*
X152330000Y-74740000D01*
X151340000Y-79910000D02*
X151340000Y-78860000D01*
%TO.C,TP104*%
X163400000Y-91000000D02*
G75*
G02*
X161000000Y-91000000I-1200000J0D01*
G01*
X161000000Y-91000000D02*
G75*
G02*
X163400000Y-91000000I1200000J0D01*
G01*
%TO.C,R210*%
X185076359Y-90260000D02*
X185383641Y-90260000D01*
X185076359Y-91020000D02*
X185383641Y-91020000D01*
%TO.C,C103*%
X154590000Y-104015580D02*
X154590000Y-103734420D01*
X155610000Y-104015580D02*
X155610000Y-103734420D01*
%TO.C,R206*%
X156141141Y-78570350D02*
X155833859Y-78570350D01*
X156141141Y-79330350D02*
X155833859Y-79330350D01*
%TO.C,R215*%
X167620000Y-84621359D02*
X167620000Y-84928641D01*
X168380000Y-84621359D02*
X168380000Y-84928641D01*
%TO.C,C204*%
X156125336Y-79590000D02*
X155909664Y-79590000D01*
X156125336Y-80310000D02*
X155909664Y-80310000D01*
%TO.C,R205*%
X170020000Y-84693641D02*
X170020000Y-84386359D01*
X170780000Y-84693641D02*
X170780000Y-84386359D01*
%TO.C,D102*%
X163750000Y-103832500D02*
X165710000Y-103832500D01*
X163750000Y-105032500D02*
X165710000Y-105032500D01*
X165710000Y-105032500D02*
X165710000Y-103832500D01*
%TO.C,R102*%
X162262500Y-105096141D02*
X162262500Y-104788859D01*
X163022500Y-105096141D02*
X163022500Y-104788859D01*
%TO.C,R207*%
X190246359Y-90220000D02*
X190553641Y-90220000D01*
X190246359Y-90980000D02*
X190553641Y-90980000D01*
%TO.C,C201*%
X157190000Y-74040930D02*
X157190000Y-73759770D01*
X158210000Y-74040930D02*
X158210000Y-73759770D01*
%TO.C,R201*%
X156045000Y-77453641D02*
X156045000Y-77146359D01*
X156805000Y-77453641D02*
X156805000Y-77146359D01*
%TO.C,R108*%
X153753641Y-94180000D02*
X153446359Y-94180000D01*
X153753641Y-94940000D02*
X153446359Y-94940000D01*
%TO.C,TP102*%
X135700000Y-76750000D02*
G75*
G02*
X133300000Y-76750000I-1200000J0D01*
G01*
X133300000Y-76750000D02*
G75*
G02*
X135700000Y-76750000I1200000J0D01*
G01*
%TO.C,C109*%
X155936920Y-90307500D02*
X156218080Y-90307500D01*
X155936920Y-91327500D02*
X156218080Y-91327500D01*
%TO.C,TP103*%
X163600000Y-87350000D02*
G75*
G02*
X161200000Y-87350000I-1200000J0D01*
G01*
X161200000Y-87350000D02*
G75*
G02*
X163600000Y-87350000I1200000J0D01*
G01*
%TO.C,R209*%
X173853641Y-103780000D02*
X173546359Y-103780000D01*
X173853641Y-104540000D02*
X173546359Y-104540000D01*
%TO.C,R212*%
X179936359Y-90240000D02*
X180243641Y-90240000D01*
X179936359Y-91000000D02*
X180243641Y-91000000D01*
%TO.C,R214*%
X175583641Y-96610000D02*
X175276359Y-96610000D01*
X175583641Y-97370000D02*
X175276359Y-97370000D01*
%TD*%
%LPC*%
D18*
%TO.C,J201*%
X177410000Y-96970000D03*
X177410000Y-98070000D03*
X177410000Y-99170000D03*
X177410000Y-100270000D03*
X177410000Y-101370000D03*
X177410000Y-102470000D03*
X177410000Y-103570000D03*
X177410000Y-104670000D03*
X177410000Y-105770000D03*
D19*
X178410000Y-106970000D03*
D20*
X188010000Y-106970000D03*
D21*
X178410000Y-92370000D03*
D20*
X188010000Y-91470000D03*
%TD*%
D22*
%TO.C,R202*%
X156425000Y-74840000D03*
X156425000Y-75860000D03*
%TD*%
D23*
%TO.C,U103*%
X155920000Y-96485000D03*
X156870000Y-96485000D03*
X157820000Y-96485000D03*
X157820000Y-94210000D03*
X155920000Y-94210000D03*
%TD*%
D24*
%TO.C,R113*%
X160630000Y-89300000D03*
X159610000Y-89300000D03*
%TD*%
D25*
%TO.C,R106*%
X159750000Y-101460000D03*
X159750000Y-100440000D03*
%TD*%
D26*
%TO.C,C104*%
X155100000Y-100070000D03*
X155100000Y-101620000D03*
%TD*%
D27*
%TO.C,C107*%
X155325000Y-98240000D03*
X156875000Y-98240000D03*
%TD*%
D28*
%TO.C,C101*%
X157340000Y-111290000D03*
X157340000Y-110330000D03*
%TD*%
D29*
%TO.C,D208*%
X168000000Y-87180000D03*
X168000000Y-86210000D03*
%TD*%
D22*
%TO.C,R110*%
X157267500Y-80910000D03*
X157267500Y-81930000D03*
%TD*%
D30*
%TO.C,R303*%
X158140000Y-82980000D03*
X159160000Y-82980000D03*
%TD*%
%TO.C,R109*%
X153070000Y-96570000D03*
X154090000Y-96570000D03*
%TD*%
D25*
%TO.C,R101*%
X169350000Y-105470000D03*
X169350000Y-104450000D03*
%TD*%
D31*
%TO.C,C105*%
X154070000Y-95570000D03*
X153110000Y-95570000D03*
%TD*%
D32*
%TO.C,H3*%
X101230000Y-69240000D03*
%TD*%
D27*
%TO.C,C110*%
X155302500Y-85057500D03*
X156852500Y-85057500D03*
%TD*%
D26*
%TO.C,C206*%
X172550000Y-100685350D03*
X172550000Y-102235350D03*
%TD*%
D33*
%TO.C,D101*%
X158810000Y-112230000D03*
X158810000Y-110830000D03*
%TD*%
D34*
%TO.C,C106*%
X157260000Y-82840000D03*
X157260000Y-83800000D03*
%TD*%
D25*
%TO.C,R105*%
X156900000Y-100535000D03*
X156900000Y-99515000D03*
%TD*%
D34*
%TO.C,C207*%
X173850000Y-100980350D03*
X173850000Y-101940350D03*
%TD*%
D35*
%TO.C,J101*%
X163220000Y-110075000D03*
X169000000Y-110075000D03*
D36*
X164860000Y-108630000D03*
X165860000Y-108630000D03*
X166360000Y-108630000D03*
X167360000Y-108630000D03*
D37*
X169360000Y-108630000D03*
X168560000Y-108630000D03*
D36*
X167860000Y-108630000D03*
X166860000Y-108630000D03*
X165360000Y-108630000D03*
X164360000Y-108630000D03*
D37*
X163660000Y-108630000D03*
X162860000Y-108630000D03*
D38*
X161790000Y-109545000D03*
D39*
X161790000Y-113725000D03*
D38*
X170430000Y-109545000D03*
D39*
X170430000Y-113725000D03*
%TD*%
D40*
%TO.C,D104*%
X161510000Y-94410000D03*
X159610000Y-94410000D03*
X160560000Y-96285000D03*
%TD*%
D25*
%TO.C,R104*%
X158160000Y-106677500D03*
X158160000Y-105657500D03*
%TD*%
D30*
%TO.C,R204*%
X169380000Y-86030000D03*
X170400000Y-86030000D03*
%TD*%
D41*
%TO.C,R114*%
X159825000Y-114500000D03*
X158175000Y-114500000D03*
%TD*%
D42*
%TO.C,D103*%
X168247500Y-104430000D03*
X166847500Y-104430000D03*
%TD*%
D25*
%TO.C,R103*%
X156910000Y-106667500D03*
X156910000Y-105647500D03*
%TD*%
D43*
%TO.C,TP105*%
X112250000Y-100100000D03*
%TD*%
D44*
%TO.C,U201*%
X160500000Y-73100350D03*
X160500000Y-73900350D03*
X160500000Y-74700350D03*
X160500000Y-75500350D03*
X160500000Y-76300350D03*
X160500000Y-77100350D03*
X160500000Y-77900350D03*
X160500000Y-78700350D03*
X160500000Y-79500350D03*
X160500000Y-80300350D03*
X160500000Y-81100350D03*
D45*
X161600000Y-82000350D03*
X162400000Y-82000350D03*
X163200000Y-82000350D03*
X164000000Y-82000350D03*
X164800000Y-82000350D03*
X165600000Y-82000350D03*
X166400000Y-82000350D03*
X167200000Y-82000350D03*
X168000000Y-82000350D03*
X168800000Y-82000350D03*
X169600000Y-82000350D03*
X170400000Y-82000350D03*
X171200000Y-82000350D03*
D44*
X172300000Y-81100350D03*
X172300000Y-80300350D03*
X172300000Y-79500350D03*
X172300000Y-78700350D03*
X172300000Y-77900350D03*
X172300000Y-77100350D03*
X172300000Y-76300350D03*
X172300000Y-75500350D03*
X172300000Y-74700350D03*
X172300000Y-73900350D03*
X172300000Y-73100350D03*
D45*
X171200000Y-72200350D03*
X170400000Y-72200350D03*
X169600000Y-72200350D03*
X168800000Y-72200350D03*
X168000000Y-72200350D03*
X167200000Y-72200350D03*
X166400000Y-72200350D03*
X165600000Y-72200350D03*
X164800000Y-72200350D03*
X164000000Y-72200350D03*
X163200000Y-72200350D03*
X162400000Y-72200350D03*
X161600000Y-72200350D03*
D46*
X164425000Y-75125350D03*
D47*
X164425000Y-77100350D03*
X164425000Y-79075350D03*
X166400000Y-75125350D03*
X166400000Y-77100350D03*
X166400000Y-79075350D03*
X168375000Y-75125350D03*
X168375000Y-77100350D03*
X168375000Y-79075350D03*
D48*
X172350000Y-72150350D03*
X172350000Y-82050350D03*
X160450000Y-82050350D03*
X160450000Y-72150350D03*
%TD*%
D49*
%TO.C,J102*%
X136400000Y-80950000D03*
X138400000Y-80950000D03*
D50*
X134050000Y-86700000D03*
X140750000Y-86700000D03*
%TD*%
D27*
%TO.C,C108*%
X155305000Y-92470000D03*
X156855000Y-92470000D03*
%TD*%
D43*
%TO.C,TP101*%
X161750000Y-98800000D03*
%TD*%
D25*
%TO.C,R203*%
X169370000Y-88020000D03*
X169370000Y-87000000D03*
%TD*%
D28*
%TO.C,C202*%
X159050000Y-74680350D03*
X159050000Y-73720350D03*
%TD*%
D22*
%TO.C,R213*%
X173950000Y-98090000D03*
X173950000Y-99110000D03*
%TD*%
%TO.C,R107*%
X159750000Y-102890000D03*
X159750000Y-103910000D03*
%TD*%
D51*
%TO.C,R208*%
X178450000Y-108475000D03*
X178450000Y-110125000D03*
%TD*%
D52*
%TO.C,U102*%
X155745000Y-83130000D03*
X155745000Y-81230000D03*
X153870000Y-82180000D03*
%TD*%
D30*
%TO.C,R211*%
X182080000Y-90590000D03*
X183100000Y-90590000D03*
%TD*%
D23*
%TO.C,U104*%
X155907500Y-89072500D03*
X156857500Y-89072500D03*
X157807500Y-89072500D03*
X157807500Y-86797500D03*
X155907500Y-86797500D03*
%TD*%
D28*
%TO.C,C102*%
X155940000Y-111310000D03*
X155940000Y-110350000D03*
%TD*%
D53*
%TO.C,J206*%
X178925000Y-78550000D03*
X178925000Y-77550000D03*
X178925000Y-76550000D03*
X178925000Y-75550000D03*
D54*
X182800000Y-79850000D03*
X182800000Y-74250000D03*
%TD*%
D55*
%TO.C,J205*%
X151555000Y-75300000D03*
X151555000Y-76300000D03*
X151555000Y-77300000D03*
X151555000Y-78300000D03*
D56*
X147680000Y-74000000D03*
X147680000Y-79600000D03*
%TD*%
D43*
%TO.C,TP104*%
X162200000Y-91000000D03*
%TD*%
D30*
%TO.C,R210*%
X184720000Y-90640000D03*
X185740000Y-90640000D03*
%TD*%
D32*
%TO.C,H1*%
X191140000Y-74950000D03*
%TD*%
D57*
%TO.C,C103*%
X155100000Y-104650000D03*
X155100000Y-103100000D03*
%TD*%
D24*
%TO.C,R206*%
X156497500Y-78950350D03*
X155477500Y-78950350D03*
%TD*%
D22*
%TO.C,R215*%
X168000000Y-84265000D03*
X168000000Y-85285000D03*
%TD*%
D31*
%TO.C,C204*%
X156497500Y-79950000D03*
X155537500Y-79950000D03*
%TD*%
D25*
%TO.C,R205*%
X170400000Y-85050000D03*
X170400000Y-84030000D03*
%TD*%
D42*
%TO.C,D102*%
X165150000Y-104432500D03*
X163750000Y-104432500D03*
%TD*%
D25*
%TO.C,R102*%
X162642500Y-105452500D03*
X162642500Y-104432500D03*
%TD*%
D30*
%TO.C,R207*%
X189890000Y-90600000D03*
X190910000Y-90600000D03*
%TD*%
D32*
%TO.C,H4*%
X191160000Y-113350000D03*
%TD*%
D57*
%TO.C,C201*%
X157700000Y-74675350D03*
X157700000Y-73125350D03*
%TD*%
D25*
%TO.C,R201*%
X156425000Y-77810000D03*
X156425000Y-76790000D03*
%TD*%
D24*
%TO.C,R108*%
X154110000Y-94560000D03*
X153090000Y-94560000D03*
%TD*%
D32*
%TO.C,H2*%
X101220000Y-113360000D03*
%TD*%
D43*
%TO.C,TP102*%
X134500000Y-76750000D03*
%TD*%
D27*
%TO.C,C109*%
X155302500Y-90817500D03*
X156852500Y-90817500D03*
%TD*%
D43*
%TO.C,TP103*%
X162400000Y-87350000D03*
%TD*%
D24*
%TO.C,R209*%
X174210000Y-104160000D03*
X173190000Y-104160000D03*
%TD*%
D58*
%TO.C,L101*%
X157125000Y-112230000D03*
X156155000Y-112230000D03*
%TD*%
D30*
%TO.C,R212*%
X179580000Y-90620000D03*
X180600000Y-90620000D03*
%TD*%
D24*
%TO.C,R214*%
X175940000Y-96990000D03*
X174920000Y-96990000D03*
%TD*%
D59*
%TO.C,U304*%
X183982500Y-109102000D03*
%TD*%
%LPD*%
M02*
