%TF.GenerationSoftware,KiCad,Pcbnew,8.0.8-8.0.8-0~ubuntu24.04.1*%
%TF.CreationDate,2025-05-06T14:11:54+03:00*%
%TF.ProjectId,kicad_soundcard_dev_v0,6b696361-645f-4736-9f75-6e6463617264,rev?*%
%TF.SameCoordinates,Original*%
%TF.FileFunction,Copper,L2,Inr*%
%TF.FilePolarity,Positive*%
%FSLAX46Y46*%
G04 Gerber Fmt 4.6, Leading zero omitted, Abs format (unit mm)*
G04 Created by KiCad (PCBNEW 8.0.8-8.0.8-0~ubuntu24.04.1) date 2025-05-06 14:11:54*
%MOMM*%
%LPD*%
G01*
G04 APERTURE LIST*
%TA.AperFunction,HeatsinkPad*%
%ADD10O,2.100000X1.000000*%
%TD*%
%TA.AperFunction,HeatsinkPad*%
%ADD11O,1.600000X1.000000*%
%TD*%
%TA.AperFunction,ViaPad*%
%ADD12C,0.700000*%
%TD*%
%TA.AperFunction,ViaPad*%
%ADD13C,0.800000*%
%TD*%
%TA.AperFunction,ViaPad*%
%ADD14C,0.550000*%
%TD*%
G04 APERTURE END LIST*
D10*
%TO.N,/Power/USB_shield_disconnect*%
%TO.C,J101*%
X145170000Y-64180000D03*
D11*
X140990000Y-64180000D03*
D10*
X145170000Y-72820000D03*
D11*
X140990000Y-72820000D03*
%TD*%
D12*
%TO.N,GND*%
X189510000Y-95910000D03*
X200800000Y-91400000D03*
X206000000Y-67200000D03*
X202400000Y-67800000D03*
X200800000Y-67800000D03*
X199200000Y-67800000D03*
X197600000Y-67800000D03*
X196000000Y-67800000D03*
X194400000Y-67800000D03*
X205150000Y-77800000D03*
X195300000Y-75300000D03*
X191150000Y-76950000D03*
X211800000Y-76550000D03*
%TO.N,+3.3V*%
X182600000Y-72900000D03*
%TO.N,GND*%
X207400000Y-95900000D03*
X176300000Y-72500000D03*
%TO.N,+3.3V*%
X175400000Y-72500000D03*
%TO.N,GND*%
X180500000Y-69600000D03*
X182600000Y-71800000D03*
%TO.N,I2C_SCL*%
X181350000Y-70250000D03*
%TO.N,I2C_SDA*%
X181900000Y-71100000D03*
%TO.N,VBUS*%
X217000000Y-81650000D03*
X154150000Y-63700000D03*
%TO.N,GND*%
X162912500Y-108900000D03*
D13*
X190750000Y-67200000D03*
D12*
X147500000Y-72600000D03*
X205400000Y-84300000D03*
X163500000Y-97750000D03*
X174200000Y-107200000D03*
X175600000Y-97900000D03*
X207525000Y-90800000D03*
X167650000Y-62350000D03*
X212100000Y-79800000D03*
X220900000Y-109900000D03*
X144650000Y-62700000D03*
X153800000Y-62900000D03*
X172350000Y-85400000D03*
X160189998Y-100519998D03*
X143000000Y-98500000D03*
X178909481Y-97313792D03*
X181750000Y-103775000D03*
X164675000Y-92075000D03*
X171950000Y-69400000D03*
X203075000Y-79525000D03*
X213525000Y-90800000D03*
X204500000Y-103500000D03*
X216300000Y-104700000D03*
X212450000Y-70500000D03*
X188950000Y-74050000D03*
X167700000Y-77400000D03*
X211700000Y-107000000D03*
D13*
X190200000Y-72000000D03*
D14*
X156400000Y-94400000D03*
D12*
X143480000Y-92280000D03*
X209475000Y-90800000D03*
X223350000Y-77000000D03*
X175100000Y-82200000D03*
X171000000Y-101150000D03*
D14*
X156700000Y-97500000D03*
X153100000Y-96500000D03*
D12*
X154750000Y-66900000D03*
D14*
X155000000Y-82075000D03*
D12*
X215400000Y-79800000D03*
X220910000Y-87640000D03*
X147550000Y-65200000D03*
X178800000Y-104700000D03*
X147500000Y-71799997D03*
X203380000Y-90720000D03*
X172750000Y-69400000D03*
X224470000Y-87870000D03*
X215200000Y-94700000D03*
X147550000Y-64300000D03*
X223350000Y-82050000D03*
X164412500Y-104000000D03*
X197700000Y-104700000D03*
X215150000Y-73650000D03*
X212200000Y-73350000D03*
X172350000Y-70100000D03*
X161300000Y-67150000D03*
X144650000Y-74300000D03*
X171950000Y-84700000D03*
X207700000Y-86400000D03*
X172750000Y-84700000D03*
X195800000Y-94700000D03*
X215150000Y-70500000D03*
X211400000Y-68000000D03*
X211525000Y-90800000D03*
X176400000Y-97100000D03*
X216100000Y-81700000D03*
D14*
X157200000Y-78975000D03*
D12*
X191300000Y-105900000D03*
X177100000Y-94700000D03*
X212163740Y-82030993D03*
X215500000Y-90800000D03*
X205500000Y-90800000D03*
X168275001Y-101125000D03*
X162250000Y-106450000D03*
%TO.N,+3.3VA*%
X163125000Y-92075000D03*
X174250000Y-82200000D03*
X160700000Y-101200000D03*
%TO.N,+3.3V*%
X207525000Y-91775000D03*
X215500000Y-91800000D03*
X209500000Y-91775000D03*
X204475000Y-102275000D03*
X211525000Y-91800000D03*
X179525000Y-97900000D03*
X213525000Y-91800000D03*
X175625000Y-99425000D03*
X202500000Y-90220000D03*
X176300000Y-104000000D03*
X205525000Y-91775000D03*
%TO.N,/MCU/STRAP_GPIO_9*%
X215350000Y-78950000D03*
X202550000Y-78750000D03*
%TO.N,/MCU/CHIP_PU*%
X190050000Y-74050000D03*
X211050000Y-68800000D03*
%TO.N,/Audio CODEC/AUX_VREF*%
X162575000Y-104025000D03*
X163150000Y-106450000D03*
%TO.N,/Audio CODEC/ES8388_I2C_CDATA*%
X169250000Y-101450000D03*
%TO.N,/Audio CODEC/ES8388_I2C_CCLK*%
X170175000Y-101425000D03*
%TO.N,/MCU/FTDI_RTS*%
X213350000Y-70500000D03*
X213300000Y-73350000D03*
%TO.N,WS2812B_D*%
X201500000Y-90700000D03*
%TO.N,/MCU/DTR*%
X214300000Y-73300000D03*
X214300000Y-70500000D03*
%TO.N,/MCU/SDIO_DAT2*%
X207400000Y-85600000D03*
X211500000Y-81500000D03*
%TO.N,/MCU/SDIO_DAT3*%
X211300000Y-79400000D03*
X206200000Y-84600000D03*
%TD*%
%TA.AperFunction,Conductor*%
%TO.N,GND*%
G36*
X175204853Y-60250882D02*
G01*
X175257188Y-60255000D01*
X175385736Y-60265117D01*
X175404952Y-60268160D01*
X175537571Y-60300000D01*
X175576629Y-60309377D01*
X175595134Y-60315390D01*
X175758246Y-60382953D01*
X175775583Y-60391787D01*
X175926115Y-60484033D01*
X175941857Y-60495470D01*
X176076109Y-60610132D01*
X176089867Y-60623890D01*
X176204529Y-60758142D01*
X176215966Y-60773884D01*
X176308212Y-60924416D01*
X176317046Y-60941753D01*
X176384609Y-61104865D01*
X176390622Y-61123370D01*
X176431838Y-61295045D01*
X176434882Y-61314264D01*
X176449118Y-61495146D01*
X176449500Y-61504875D01*
X176449500Y-64325196D01*
X176485135Y-64573044D01*
X176485136Y-64573048D01*
X176555676Y-64813291D01*
X176555678Y-64813297D01*
X176659695Y-65041061D01*
X176659705Y-65041079D01*
X176795068Y-65251708D01*
X176795072Y-65251714D01*
X176959047Y-65440952D01*
X177148285Y-65604927D01*
X177148291Y-65604931D01*
X177358920Y-65740294D01*
X177358928Y-65740298D01*
X177358932Y-65740301D01*
X177358935Y-65740302D01*
X177358938Y-65740304D01*
X177586702Y-65844321D01*
X177586708Y-65844323D01*
X177789788Y-65903951D01*
X177826954Y-65914864D01*
X178074802Y-65950500D01*
X178150172Y-65950500D01*
X225155830Y-65950500D01*
X225195125Y-65950500D01*
X225204853Y-65950882D01*
X225257188Y-65955000D01*
X225385736Y-65965117D01*
X225404952Y-65968160D01*
X225573959Y-66008736D01*
X225576629Y-66009377D01*
X225595134Y-66015390D01*
X225758246Y-66082953D01*
X225775583Y-66091787D01*
X225926115Y-66184033D01*
X225941857Y-66195470D01*
X226076109Y-66310132D01*
X226089867Y-66323890D01*
X226204529Y-66458142D01*
X226215966Y-66473884D01*
X226308212Y-66624416D01*
X226317046Y-66641753D01*
X226384609Y-66804865D01*
X226390622Y-66823370D01*
X226431838Y-66995045D01*
X226434882Y-67014264D01*
X226449118Y-67195146D01*
X226449500Y-67204875D01*
X226449500Y-109495124D01*
X226449118Y-109504853D01*
X226434882Y-109685735D01*
X226431838Y-109704954D01*
X226390622Y-109876629D01*
X226384609Y-109895134D01*
X226317046Y-110058246D01*
X226308212Y-110075583D01*
X226215966Y-110226115D01*
X226204529Y-110241857D01*
X226089867Y-110376109D01*
X226076109Y-110389867D01*
X225941857Y-110504529D01*
X225926115Y-110515966D01*
X225775583Y-110608212D01*
X225758246Y-110617046D01*
X225595134Y-110684609D01*
X225576629Y-110690622D01*
X225404954Y-110731838D01*
X225385735Y-110734882D01*
X225204854Y-110749118D01*
X225195125Y-110749500D01*
X139204875Y-110749500D01*
X139195146Y-110749118D01*
X139014264Y-110734882D01*
X138995045Y-110731838D01*
X138823370Y-110690622D01*
X138804865Y-110684609D01*
X138641753Y-110617046D01*
X138624416Y-110608212D01*
X138473884Y-110515966D01*
X138458142Y-110504529D01*
X138323890Y-110389867D01*
X138310132Y-110376109D01*
X138195470Y-110241857D01*
X138184033Y-110226115D01*
X138091787Y-110075583D01*
X138082953Y-110058246D01*
X138015390Y-109895134D01*
X138009377Y-109876629D01*
X137968161Y-109704954D01*
X137965117Y-109685734D01*
X137950882Y-109504852D01*
X137950500Y-109495124D01*
X137950500Y-106449999D01*
X162625009Y-106449999D01*
X162625009Y-106450000D01*
X162642898Y-106585877D01*
X162642899Y-106585881D01*
X162695342Y-106712493D01*
X162695343Y-106712495D01*
X162695344Y-106712496D01*
X162778775Y-106821225D01*
X162887504Y-106904656D01*
X163014122Y-106957102D01*
X163134191Y-106972909D01*
X163149999Y-106974991D01*
X163150000Y-106974991D01*
X163150001Y-106974991D01*
X163164161Y-106973126D01*
X163285878Y-106957102D01*
X163412496Y-106904656D01*
X163521225Y-106821225D01*
X163604656Y-106712496D01*
X163657102Y-106585878D01*
X163674991Y-106450000D01*
X163657102Y-106314122D01*
X163604656Y-106187505D01*
X163521225Y-106078775D01*
X163412496Y-105995344D01*
X163412495Y-105995343D01*
X163412493Y-105995342D01*
X163285881Y-105942899D01*
X163285879Y-105942898D01*
X163285878Y-105942898D01*
X163217939Y-105933953D01*
X163150001Y-105925009D01*
X163149999Y-105925009D01*
X163014122Y-105942898D01*
X163014118Y-105942899D01*
X162887505Y-105995343D01*
X162778775Y-106078775D01*
X162695343Y-106187505D01*
X162642899Y-106314118D01*
X162642898Y-106314122D01*
X162625009Y-106449999D01*
X137950500Y-106449999D01*
X137950500Y-103946530D01*
X149649500Y-103946530D01*
X149649500Y-104153469D01*
X149689868Y-104356412D01*
X149689870Y-104356420D01*
X149769058Y-104547596D01*
X149884024Y-104719657D01*
X150030342Y-104865975D01*
X150030345Y-104865977D01*
X150202402Y-104980941D01*
X150393580Y-105060130D01*
X150596530Y-105100499D01*
X150596534Y-105100500D01*
X150596535Y-105100500D01*
X150803466Y-105100500D01*
X150803467Y-105100499D01*
X151006420Y-105060130D01*
X151197598Y-104980941D01*
X151369655Y-104865977D01*
X151515977Y-104719655D01*
X151630941Y-104547598D01*
X151710130Y-104356420D01*
X151750500Y-104153465D01*
X151750500Y-104025000D01*
X162050009Y-104025000D01*
X162064606Y-104135877D01*
X162067898Y-104160877D01*
X162067899Y-104160881D01*
X162120342Y-104287493D01*
X162120343Y-104287495D01*
X162120344Y-104287496D01*
X162203775Y-104396225D01*
X162312504Y-104479656D01*
X162439122Y-104532102D01*
X162556824Y-104547598D01*
X162574999Y-104549991D01*
X162575000Y-104549991D01*
X162575001Y-104549991D01*
X162593176Y-104547598D01*
X162710878Y-104532102D01*
X162837496Y-104479656D01*
X162946225Y-104396225D01*
X163029656Y-104287496D01*
X163082102Y-104160878D01*
X163099991Y-104025000D01*
X163096699Y-103999999D01*
X175775009Y-103999999D01*
X175775009Y-104000000D01*
X175792898Y-104135877D01*
X175792899Y-104135881D01*
X175845342Y-104262493D01*
X175845343Y-104262495D01*
X175845344Y-104262496D01*
X175928775Y-104371225D01*
X176037504Y-104454656D01*
X176164122Y-104507102D01*
X176284191Y-104522909D01*
X176299999Y-104524991D01*
X176300000Y-104524991D01*
X176300001Y-104524991D01*
X176314161Y-104523126D01*
X176435878Y-104507102D01*
X176562496Y-104454656D01*
X176671225Y-104371225D01*
X176754656Y-104262496D01*
X176807102Y-104135878D01*
X176824991Y-104000000D01*
X176807102Y-103864122D01*
X176754656Y-103737505D01*
X176671225Y-103628775D01*
X176562496Y-103545344D01*
X176562495Y-103545343D01*
X176562493Y-103545342D01*
X176435881Y-103492899D01*
X176435879Y-103492898D01*
X176435878Y-103492898D01*
X176367939Y-103483953D01*
X176300001Y-103475009D01*
X176299999Y-103475009D01*
X176164122Y-103492898D01*
X176164118Y-103492899D01*
X176037505Y-103545343D01*
X175928775Y-103628775D01*
X175845343Y-103737505D01*
X175792899Y-103864118D01*
X175792898Y-103864122D01*
X175775009Y-103999999D01*
X163096699Y-103999999D01*
X163082102Y-103889122D01*
X163029656Y-103762505D01*
X162946225Y-103653775D01*
X162837496Y-103570344D01*
X162837495Y-103570343D01*
X162837493Y-103570342D01*
X162710881Y-103517899D01*
X162710879Y-103517898D01*
X162710878Y-103517898D01*
X162642939Y-103508953D01*
X162575001Y-103500009D01*
X162574999Y-103500009D01*
X162439122Y-103517898D01*
X162439118Y-103517899D01*
X162312505Y-103570343D01*
X162203775Y-103653775D01*
X162120343Y-103762505D01*
X162067899Y-103889118D01*
X162067898Y-103889122D01*
X162053301Y-103999999D01*
X162050009Y-104025000D01*
X151750500Y-104025000D01*
X151750500Y-103946535D01*
X151710130Y-103743580D01*
X151630941Y-103552402D01*
X151515977Y-103380345D01*
X151515975Y-103380342D01*
X151369657Y-103234024D01*
X151283626Y-103176541D01*
X151197598Y-103119059D01*
X151006420Y-103039870D01*
X151006412Y-103039868D01*
X150803469Y-102999500D01*
X150803465Y-102999500D01*
X150596535Y-102999500D01*
X150596530Y-102999500D01*
X150393587Y-103039868D01*
X150393579Y-103039870D01*
X150202403Y-103119058D01*
X150030342Y-103234024D01*
X149884024Y-103380342D01*
X149769058Y-103552403D01*
X149689870Y-103743579D01*
X149689868Y-103743587D01*
X149649500Y-103946530D01*
X137950500Y-103946530D01*
X137950500Y-102274999D01*
X203950009Y-102274999D01*
X203950009Y-102275000D01*
X203967898Y-102410877D01*
X203967899Y-102410881D01*
X204020342Y-102537493D01*
X204020343Y-102537495D01*
X204020344Y-102537496D01*
X204103775Y-102646225D01*
X204212504Y-102729656D01*
X204339122Y-102782102D01*
X204459191Y-102797909D01*
X204474999Y-102799991D01*
X204475000Y-102799991D01*
X204475001Y-102799991D01*
X204489161Y-102798126D01*
X204610878Y-102782102D01*
X204737496Y-102729656D01*
X204846225Y-102646225D01*
X204929656Y-102537496D01*
X204982102Y-102410878D01*
X204999991Y-102275000D01*
X204982102Y-102139122D01*
X204929656Y-102012505D01*
X204887143Y-101957101D01*
X204846226Y-101903776D01*
X204814794Y-101879657D01*
X204737496Y-101820344D01*
X204737495Y-101820343D01*
X204737493Y-101820342D01*
X204610881Y-101767899D01*
X204610879Y-101767898D01*
X204610878Y-101767898D01*
X204542939Y-101758953D01*
X204475001Y-101750009D01*
X204474999Y-101750009D01*
X204339122Y-101767898D01*
X204339118Y-101767899D01*
X204212505Y-101820343D01*
X204103775Y-101903775D01*
X204020343Y-102012505D01*
X203967899Y-102139118D01*
X203967898Y-102139122D01*
X203950009Y-102274999D01*
X137950500Y-102274999D01*
X137950500Y-101199999D01*
X160175009Y-101199999D01*
X160175009Y-101200000D01*
X160192898Y-101335877D01*
X160192899Y-101335881D01*
X160245342Y-101462493D01*
X160245343Y-101462495D01*
X160245344Y-101462496D01*
X160328775Y-101571225D01*
X160437504Y-101654656D01*
X160564122Y-101707102D01*
X160684191Y-101722909D01*
X160699999Y-101724991D01*
X160700000Y-101724991D01*
X160700001Y-101724991D01*
X160714161Y-101723126D01*
X160835878Y-101707102D01*
X160962496Y-101654656D01*
X161071225Y-101571225D01*
X161154656Y-101462496D01*
X161159832Y-101450000D01*
X168725009Y-101450000D01*
X168739606Y-101560877D01*
X168742898Y-101585877D01*
X168742899Y-101585881D01*
X168795342Y-101712493D01*
X168795343Y-101712495D01*
X168795344Y-101712496D01*
X168878775Y-101821225D01*
X168987504Y-101904656D01*
X169114122Y-101957102D01*
X169234191Y-101972909D01*
X169249999Y-101974991D01*
X169250000Y-101974991D01*
X169250001Y-101974991D01*
X169264161Y-101973126D01*
X169385878Y-101957102D01*
X169512496Y-101904656D01*
X169621225Y-101821225D01*
X169625462Y-101815702D01*
X169681884Y-101774499D01*
X169751629Y-101770340D01*
X169799326Y-101792810D01*
X169803772Y-101796222D01*
X169803775Y-101796225D01*
X169912504Y-101879656D01*
X170039122Y-101932102D01*
X170159191Y-101947909D01*
X170174999Y-101949991D01*
X170175000Y-101949991D01*
X170175001Y-101949991D01*
X170189161Y-101948126D01*
X170310878Y-101932102D01*
X170437496Y-101879656D01*
X170546225Y-101796225D01*
X170629656Y-101687496D01*
X170682102Y-101560878D01*
X170699991Y-101425000D01*
X170682102Y-101289122D01*
X170629656Y-101162505D01*
X170585267Y-101104656D01*
X170546226Y-101053776D01*
X170546225Y-101053775D01*
X170437496Y-100970344D01*
X170437495Y-100970343D01*
X170437493Y-100970342D01*
X170310881Y-100917899D01*
X170310879Y-100917898D01*
X170310878Y-100917898D01*
X170242939Y-100908953D01*
X170175001Y-100900009D01*
X170174999Y-100900009D01*
X170039122Y-100917898D01*
X170039118Y-100917899D01*
X169912505Y-100970343D01*
X169803775Y-101053775D01*
X169799534Y-101059302D01*
X169743105Y-101100503D01*
X169673358Y-101104656D01*
X169625673Y-101082189D01*
X169621226Y-101078777D01*
X169621225Y-101078775D01*
X169512496Y-100995344D01*
X169512495Y-100995343D01*
X169512493Y-100995342D01*
X169385881Y-100942899D01*
X169385879Y-100942898D01*
X169385878Y-100942898D01*
X169317939Y-100933953D01*
X169250001Y-100925009D01*
X169249999Y-100925009D01*
X169114122Y-100942898D01*
X169114118Y-100942899D01*
X168987505Y-100995343D01*
X168878775Y-101078775D01*
X168795343Y-101187505D01*
X168742899Y-101314118D01*
X168742898Y-101314122D01*
X168728301Y-101424999D01*
X168725009Y-101450000D01*
X161159832Y-101450000D01*
X161207102Y-101335878D01*
X161224991Y-101200000D01*
X161224193Y-101193942D01*
X161222909Y-101184191D01*
X161207102Y-101064122D01*
X161154656Y-100937505D01*
X161139611Y-100917898D01*
X161071226Y-100828776D01*
X160962493Y-100745342D01*
X160835881Y-100692899D01*
X160835879Y-100692898D01*
X160835878Y-100692898D01*
X160767939Y-100683953D01*
X160700001Y-100675009D01*
X160699999Y-100675009D01*
X160564122Y-100692898D01*
X160564118Y-100692899D01*
X160437505Y-100745343D01*
X160328775Y-100828775D01*
X160245343Y-100937505D01*
X160192899Y-101064118D01*
X160192898Y-101064122D01*
X160175009Y-101199999D01*
X137950500Y-101199999D01*
X137950500Y-99424999D01*
X175100009Y-99424999D01*
X175100009Y-99425000D01*
X175117898Y-99560877D01*
X175117899Y-99560881D01*
X175170342Y-99687493D01*
X175170343Y-99687495D01*
X175170344Y-99687496D01*
X175253775Y-99796225D01*
X175362504Y-99879656D01*
X175489122Y-99932102D01*
X175609191Y-99947909D01*
X175624999Y-99949991D01*
X175625000Y-99949991D01*
X175625001Y-99949991D01*
X175639161Y-99948126D01*
X175760878Y-99932102D01*
X175887496Y-99879656D01*
X175996225Y-99796225D01*
X176079656Y-99687496D01*
X176132102Y-99560878D01*
X176149991Y-99425000D01*
X176132102Y-99289122D01*
X176079656Y-99162505D01*
X175996225Y-99053775D01*
X175887496Y-98970344D01*
X175887495Y-98970343D01*
X175887493Y-98970342D01*
X175760881Y-98917899D01*
X175760879Y-98917898D01*
X175760878Y-98917898D01*
X175692939Y-98908953D01*
X175625001Y-98900009D01*
X175624999Y-98900009D01*
X175489122Y-98917898D01*
X175489118Y-98917899D01*
X175362505Y-98970343D01*
X175253775Y-99053775D01*
X175170343Y-99162505D01*
X175117899Y-99289118D01*
X175117898Y-99289122D01*
X175100009Y-99424999D01*
X137950500Y-99424999D01*
X137950500Y-97899999D01*
X179000009Y-97899999D01*
X179000009Y-97900000D01*
X179017898Y-98035877D01*
X179017899Y-98035881D01*
X179070342Y-98162493D01*
X179070343Y-98162495D01*
X179070344Y-98162496D01*
X179153775Y-98271225D01*
X179262504Y-98354656D01*
X179389122Y-98407102D01*
X179509191Y-98422909D01*
X179524999Y-98424991D01*
X179525000Y-98424991D01*
X179525001Y-98424991D01*
X179539161Y-98423126D01*
X179660878Y-98407102D01*
X179787496Y-98354656D01*
X179896225Y-98271225D01*
X179979656Y-98162496D01*
X180032102Y-98035878D01*
X180049991Y-97900000D01*
X180032102Y-97764122D01*
X179979656Y-97637505D01*
X179896225Y-97528775D01*
X179787496Y-97445344D01*
X179787495Y-97445343D01*
X179787493Y-97445342D01*
X179660881Y-97392899D01*
X179660879Y-97392898D01*
X179660878Y-97392898D01*
X179592939Y-97383953D01*
X179525001Y-97375009D01*
X179524999Y-97375009D01*
X179389122Y-97392898D01*
X179389118Y-97392899D01*
X179262505Y-97445343D01*
X179153775Y-97528775D01*
X179070343Y-97637505D01*
X179017899Y-97764118D01*
X179017898Y-97764122D01*
X179000009Y-97899999D01*
X137950500Y-97899999D01*
X137950500Y-92075000D01*
X162600009Y-92075000D01*
X162612677Y-92171225D01*
X162617898Y-92210877D01*
X162617899Y-92210881D01*
X162670342Y-92337493D01*
X162670343Y-92337495D01*
X162670344Y-92337496D01*
X162753775Y-92446225D01*
X162862504Y-92529656D01*
X162989122Y-92582102D01*
X163109191Y-92597909D01*
X163124999Y-92599991D01*
X163125000Y-92599991D01*
X163125001Y-92599991D01*
X163139161Y-92598126D01*
X163260878Y-92582102D01*
X163387496Y-92529656D01*
X163496225Y-92446225D01*
X163579656Y-92337496D01*
X163632102Y-92210878D01*
X163649991Y-92075000D01*
X163632102Y-91939122D01*
X163579656Y-91812505D01*
X163550877Y-91774999D01*
X205000009Y-91774999D01*
X205000009Y-91775000D01*
X205017898Y-91910877D01*
X205017899Y-91910881D01*
X205070342Y-92037493D01*
X205070343Y-92037495D01*
X205070344Y-92037496D01*
X205153775Y-92146225D01*
X205262504Y-92229656D01*
X205389122Y-92282102D01*
X205509191Y-92297909D01*
X205524999Y-92299991D01*
X205525000Y-92299991D01*
X205525001Y-92299991D01*
X205539161Y-92298126D01*
X205660878Y-92282102D01*
X205787496Y-92229656D01*
X205896225Y-92146225D01*
X205979656Y-92037496D01*
X206032102Y-91910878D01*
X206049991Y-91775000D01*
X206049991Y-91774999D01*
X207000009Y-91774999D01*
X207000009Y-91775000D01*
X207017898Y-91910877D01*
X207017899Y-91910881D01*
X207070342Y-92037493D01*
X207070343Y-92037495D01*
X207070344Y-92037496D01*
X207153775Y-92146225D01*
X207262504Y-92229656D01*
X207389122Y-92282102D01*
X207509191Y-92297909D01*
X207524999Y-92299991D01*
X207525000Y-92299991D01*
X207525001Y-92299991D01*
X207539161Y-92298126D01*
X207660878Y-92282102D01*
X207787496Y-92229656D01*
X207896225Y-92146225D01*
X207979656Y-92037496D01*
X208032102Y-91910878D01*
X208049991Y-91775000D01*
X208049991Y-91774999D01*
X208975009Y-91774999D01*
X208975009Y-91775000D01*
X208992898Y-91910877D01*
X208992899Y-91910881D01*
X209045342Y-92037493D01*
X209045343Y-92037495D01*
X209045344Y-92037496D01*
X209128775Y-92146225D01*
X209237504Y-92229656D01*
X209364122Y-92282102D01*
X209484191Y-92297909D01*
X209499999Y-92299991D01*
X209500000Y-92299991D01*
X209500001Y-92299991D01*
X209514161Y-92298126D01*
X209635878Y-92282102D01*
X209762496Y-92229656D01*
X209871225Y-92146225D01*
X209954656Y-92037496D01*
X210007102Y-91910878D01*
X210021700Y-91800000D01*
X211000009Y-91800000D01*
X211014606Y-91910877D01*
X211017898Y-91935877D01*
X211017899Y-91935881D01*
X211070342Y-92062493D01*
X211070343Y-92062495D01*
X211070344Y-92062496D01*
X211153775Y-92171225D01*
X211262504Y-92254656D01*
X211389122Y-92307102D01*
X211509191Y-92322909D01*
X211524999Y-92324991D01*
X211525000Y-92324991D01*
X211525001Y-92324991D01*
X211539161Y-92323126D01*
X211660878Y-92307102D01*
X211787496Y-92254656D01*
X211896225Y-92171225D01*
X211979656Y-92062496D01*
X212032102Y-91935878D01*
X212049991Y-91800000D01*
X213000009Y-91800000D01*
X213014606Y-91910877D01*
X213017898Y-91935877D01*
X213017899Y-91935881D01*
X213070342Y-92062493D01*
X213070343Y-92062495D01*
X213070344Y-92062496D01*
X213153775Y-92171225D01*
X213262504Y-92254656D01*
X213389122Y-92307102D01*
X213509191Y-92322909D01*
X213524999Y-92324991D01*
X213525000Y-92324991D01*
X213525001Y-92324991D01*
X213539161Y-92323126D01*
X213660878Y-92307102D01*
X213787496Y-92254656D01*
X213896225Y-92171225D01*
X213979656Y-92062496D01*
X214032102Y-91935878D01*
X214049991Y-91800000D01*
X214975009Y-91800000D01*
X214989606Y-91910877D01*
X214992898Y-91935877D01*
X214992899Y-91935881D01*
X215045342Y-92062493D01*
X215045343Y-92062495D01*
X215045344Y-92062496D01*
X215128775Y-92171225D01*
X215237504Y-92254656D01*
X215364122Y-92307102D01*
X215484191Y-92322909D01*
X215499999Y-92324991D01*
X215500000Y-92324991D01*
X215500001Y-92324991D01*
X215514161Y-92323126D01*
X215635878Y-92307102D01*
X215762496Y-92254656D01*
X215871225Y-92171225D01*
X215954656Y-92062496D01*
X216007102Y-91935878D01*
X216024991Y-91800000D01*
X216007102Y-91664122D01*
X215954656Y-91537505D01*
X215871225Y-91428775D01*
X215762496Y-91345344D01*
X215762495Y-91345343D01*
X215762493Y-91345342D01*
X215635881Y-91292899D01*
X215635879Y-91292898D01*
X215635878Y-91292898D01*
X215567939Y-91283953D01*
X215500001Y-91275009D01*
X215499999Y-91275009D01*
X215364122Y-91292898D01*
X215364118Y-91292899D01*
X215237505Y-91345343D01*
X215128775Y-91428775D01*
X215045343Y-91537505D01*
X214992899Y-91664118D01*
X214992898Y-91664122D01*
X214978301Y-91774999D01*
X214975009Y-91800000D01*
X214049991Y-91800000D01*
X214032102Y-91664122D01*
X213979656Y-91537505D01*
X213896225Y-91428775D01*
X213787496Y-91345344D01*
X213787495Y-91345343D01*
X213787493Y-91345342D01*
X213660881Y-91292899D01*
X213660879Y-91292898D01*
X213660878Y-91292898D01*
X213592939Y-91283953D01*
X213525001Y-91275009D01*
X213524999Y-91275009D01*
X213389122Y-91292898D01*
X213389118Y-91292899D01*
X213262505Y-91345343D01*
X213153775Y-91428775D01*
X213070343Y-91537505D01*
X213017899Y-91664118D01*
X213017898Y-91664122D01*
X213003301Y-91774999D01*
X213000009Y-91800000D01*
X212049991Y-91800000D01*
X212032102Y-91664122D01*
X211979656Y-91537505D01*
X211896225Y-91428775D01*
X211787496Y-91345344D01*
X211787495Y-91345343D01*
X211787493Y-91345342D01*
X211660881Y-91292899D01*
X211660879Y-91292898D01*
X211660878Y-91292898D01*
X211592939Y-91283953D01*
X211525001Y-91275009D01*
X211524999Y-91275009D01*
X211389122Y-91292898D01*
X211389118Y-91292899D01*
X211262505Y-91345343D01*
X211153775Y-91428775D01*
X211070343Y-91537505D01*
X211017899Y-91664118D01*
X211017898Y-91664122D01*
X211003301Y-91774999D01*
X211000009Y-91800000D01*
X210021700Y-91800000D01*
X210024991Y-91775000D01*
X210007102Y-91639122D01*
X209954656Y-91512505D01*
X209871225Y-91403775D01*
X209762496Y-91320344D01*
X209762495Y-91320343D01*
X209762493Y-91320342D01*
X209635881Y-91267899D01*
X209635879Y-91267898D01*
X209635878Y-91267898D01*
X209567939Y-91258953D01*
X209500001Y-91250009D01*
X209499999Y-91250009D01*
X209364122Y-91267898D01*
X209364118Y-91267899D01*
X209237505Y-91320343D01*
X209128775Y-91403775D01*
X209045343Y-91512505D01*
X208992899Y-91639118D01*
X208992898Y-91639122D01*
X208975009Y-91774999D01*
X208049991Y-91774999D01*
X208032102Y-91639122D01*
X207979656Y-91512505D01*
X207896225Y-91403775D01*
X207787496Y-91320344D01*
X207787495Y-91320343D01*
X207787493Y-91320342D01*
X207660881Y-91267899D01*
X207660879Y-91267898D01*
X207660878Y-91267898D01*
X207592939Y-91258953D01*
X207525001Y-91250009D01*
X207524999Y-91250009D01*
X207389122Y-91267898D01*
X207389118Y-91267899D01*
X207262505Y-91320343D01*
X207153775Y-91403775D01*
X207070343Y-91512505D01*
X207017899Y-91639118D01*
X207017898Y-91639122D01*
X207000009Y-91774999D01*
X206049991Y-91774999D01*
X206032102Y-91639122D01*
X205979656Y-91512505D01*
X205896225Y-91403775D01*
X205787496Y-91320344D01*
X205787495Y-91320343D01*
X205787493Y-91320342D01*
X205660881Y-91267899D01*
X205660879Y-91267898D01*
X205660878Y-91267898D01*
X205592939Y-91258953D01*
X205525001Y-91250009D01*
X205524999Y-91250009D01*
X205389122Y-91267898D01*
X205389118Y-91267899D01*
X205262505Y-91320343D01*
X205153775Y-91403775D01*
X205070343Y-91512505D01*
X205017899Y-91639118D01*
X205017898Y-91639122D01*
X205000009Y-91774999D01*
X163550877Y-91774999D01*
X163496225Y-91703775D01*
X163387496Y-91620344D01*
X163387495Y-91620343D01*
X163387493Y-91620342D01*
X163260881Y-91567899D01*
X163260879Y-91567898D01*
X163260878Y-91567898D01*
X163192939Y-91558953D01*
X163125001Y-91550009D01*
X163124999Y-91550009D01*
X162989122Y-91567898D01*
X162989118Y-91567899D01*
X162862505Y-91620343D01*
X162753775Y-91703775D01*
X162670343Y-91812505D01*
X162617899Y-91939118D01*
X162617898Y-91939122D01*
X162601656Y-92062493D01*
X162600009Y-92075000D01*
X137950500Y-92075000D01*
X137950500Y-90699999D01*
X200975009Y-90699999D01*
X200975009Y-90700000D01*
X200992898Y-90835877D01*
X200992899Y-90835881D01*
X201045342Y-90962493D01*
X201045343Y-90962495D01*
X201045344Y-90962496D01*
X201128775Y-91071225D01*
X201237504Y-91154656D01*
X201364122Y-91207102D01*
X201484191Y-91222909D01*
X201499999Y-91224991D01*
X201500000Y-91224991D01*
X201500001Y-91224991D01*
X201514161Y-91223126D01*
X201635878Y-91207102D01*
X201762496Y-91154656D01*
X201871225Y-91071225D01*
X201954656Y-90962496D01*
X202007102Y-90835878D01*
X202019486Y-90741811D01*
X202047752Y-90677915D01*
X202106077Y-90639444D01*
X202175942Y-90638613D01*
X202217913Y-90659623D01*
X202237502Y-90674655D01*
X202237503Y-90674655D01*
X202237504Y-90674656D01*
X202364122Y-90727102D01*
X202475854Y-90741812D01*
X202499999Y-90744991D01*
X202500000Y-90744991D01*
X202500001Y-90744991D01*
X202524146Y-90741812D01*
X202635878Y-90727102D01*
X202762496Y-90674656D01*
X202871225Y-90591225D01*
X202954656Y-90482496D01*
X203007102Y-90355878D01*
X203024991Y-90220000D01*
X203007102Y-90084122D01*
X202954656Y-89957505D01*
X202871225Y-89848775D01*
X202762496Y-89765344D01*
X202762495Y-89765343D01*
X202762493Y-89765342D01*
X202635881Y-89712899D01*
X202635879Y-89712898D01*
X202635878Y-89712898D01*
X202567939Y-89703953D01*
X202500001Y-89695009D01*
X202499999Y-89695009D01*
X202364122Y-89712898D01*
X202364118Y-89712899D01*
X202237505Y-89765343D01*
X202128775Y-89848775D01*
X202045343Y-89957505D01*
X201992899Y-90084118D01*
X201992898Y-90084122D01*
X201980513Y-90178189D01*
X201952246Y-90242085D01*
X201893921Y-90280555D01*
X201824056Y-90281386D01*
X201782089Y-90260378D01*
X201762496Y-90245344D01*
X201762495Y-90245343D01*
X201762493Y-90245342D01*
X201635881Y-90192899D01*
X201635879Y-90192898D01*
X201635878Y-90192898D01*
X201567939Y-90183953D01*
X201500001Y-90175009D01*
X201499999Y-90175009D01*
X201364122Y-90192898D01*
X201364118Y-90192899D01*
X201237505Y-90245343D01*
X201128775Y-90328775D01*
X201045343Y-90437505D01*
X200992899Y-90564118D01*
X200992898Y-90564122D01*
X200975009Y-90699999D01*
X137950500Y-90699999D01*
X137950500Y-85896530D01*
X149599500Y-85896530D01*
X149599500Y-86103469D01*
X149639868Y-86306412D01*
X149639870Y-86306420D01*
X149719058Y-86497596D01*
X149834024Y-86669657D01*
X149980342Y-86815975D01*
X149980345Y-86815977D01*
X150152402Y-86930941D01*
X150343580Y-87010130D01*
X150546530Y-87050499D01*
X150546534Y-87050500D01*
X150546535Y-87050500D01*
X150753466Y-87050500D01*
X150753467Y-87050499D01*
X150956420Y-87010130D01*
X151147598Y-86930941D01*
X151319655Y-86815977D01*
X151465977Y-86669655D01*
X151580941Y-86497598D01*
X151660130Y-86306420D01*
X151700500Y-86103465D01*
X151700500Y-85896535D01*
X151660130Y-85693580D01*
X151621367Y-85599999D01*
X206875009Y-85599999D01*
X206875009Y-85600000D01*
X206892898Y-85735877D01*
X206892899Y-85735881D01*
X206945342Y-85862493D01*
X206945343Y-85862495D01*
X206945344Y-85862496D01*
X207028775Y-85971225D01*
X207137504Y-86054656D01*
X207264122Y-86107102D01*
X207384191Y-86122909D01*
X207399999Y-86124991D01*
X207400000Y-86124991D01*
X207400001Y-86124991D01*
X207414161Y-86123126D01*
X207535878Y-86107102D01*
X207662496Y-86054656D01*
X207771225Y-85971225D01*
X207854656Y-85862496D01*
X207907102Y-85735878D01*
X207924991Y-85600000D01*
X207907102Y-85464122D01*
X207854656Y-85337505D01*
X207771225Y-85228775D01*
X207662496Y-85145344D01*
X207662495Y-85145343D01*
X207662493Y-85145342D01*
X207535881Y-85092899D01*
X207535879Y-85092898D01*
X207535878Y-85092898D01*
X207467939Y-85083953D01*
X207400001Y-85075009D01*
X207399999Y-85075009D01*
X207264122Y-85092898D01*
X207264118Y-85092899D01*
X207137505Y-85145343D01*
X207028775Y-85228775D01*
X206945343Y-85337505D01*
X206892899Y-85464118D01*
X206892898Y-85464122D01*
X206875009Y-85599999D01*
X151621367Y-85599999D01*
X151580941Y-85502402D01*
X151465977Y-85330345D01*
X151465975Y-85330342D01*
X151319657Y-85184024D01*
X151183276Y-85092898D01*
X151147598Y-85069059D01*
X151112826Y-85054656D01*
X150956420Y-84989870D01*
X150956412Y-84989868D01*
X150753469Y-84949500D01*
X150753465Y-84949500D01*
X150546535Y-84949500D01*
X150546530Y-84949500D01*
X150343587Y-84989868D01*
X150343579Y-84989870D01*
X150152403Y-85069058D01*
X149980342Y-85184024D01*
X149834024Y-85330342D01*
X149719058Y-85502403D01*
X149639870Y-85693579D01*
X149639868Y-85693587D01*
X149599500Y-85896530D01*
X137950500Y-85896530D01*
X137950500Y-84599999D01*
X205675009Y-84599999D01*
X205675009Y-84600000D01*
X205692898Y-84735877D01*
X205692899Y-84735881D01*
X205745342Y-84862493D01*
X205745343Y-84862495D01*
X205745344Y-84862496D01*
X205828775Y-84971225D01*
X205937504Y-85054656D01*
X205937505Y-85054656D01*
X205937506Y-85054657D01*
X205979710Y-85072138D01*
X206064122Y-85107102D01*
X206184191Y-85122909D01*
X206199999Y-85124991D01*
X206200000Y-85124991D01*
X206200001Y-85124991D01*
X206214161Y-85123126D01*
X206335878Y-85107102D01*
X206462496Y-85054656D01*
X206571225Y-84971225D01*
X206654656Y-84862496D01*
X206707102Y-84735878D01*
X206724991Y-84600000D01*
X206707102Y-84464122D01*
X206654656Y-84337505D01*
X206571225Y-84228775D01*
X206462496Y-84145344D01*
X206462495Y-84145343D01*
X206462493Y-84145342D01*
X206335881Y-84092899D01*
X206335879Y-84092898D01*
X206335878Y-84092898D01*
X206267939Y-84083953D01*
X206200001Y-84075009D01*
X206199999Y-84075009D01*
X206064122Y-84092898D01*
X206064118Y-84092899D01*
X205937505Y-84145343D01*
X205828775Y-84228775D01*
X205745343Y-84337505D01*
X205692899Y-84464118D01*
X205692898Y-84464122D01*
X205675009Y-84599999D01*
X137950500Y-84599999D01*
X137950500Y-82199999D01*
X173725009Y-82199999D01*
X173725009Y-82200000D01*
X173742898Y-82335877D01*
X173742899Y-82335881D01*
X173795342Y-82462493D01*
X173795343Y-82462495D01*
X173795344Y-82462496D01*
X173878775Y-82571225D01*
X173987504Y-82654656D01*
X174114122Y-82707102D01*
X174234191Y-82722909D01*
X174249999Y-82724991D01*
X174250000Y-82724991D01*
X174250001Y-82724991D01*
X174264161Y-82723126D01*
X174385878Y-82707102D01*
X174512496Y-82654656D01*
X174621225Y-82571225D01*
X174704656Y-82462496D01*
X174757102Y-82335878D01*
X174774991Y-82200000D01*
X174757102Y-82064122D01*
X174704656Y-81937505D01*
X174621225Y-81828775D01*
X174512496Y-81745344D01*
X174512495Y-81745343D01*
X174512493Y-81745342D01*
X174385881Y-81692899D01*
X174385879Y-81692898D01*
X174385878Y-81692898D01*
X174317939Y-81683953D01*
X174250001Y-81675009D01*
X174249999Y-81675009D01*
X174114122Y-81692898D01*
X174114118Y-81692899D01*
X173987505Y-81745343D01*
X173878775Y-81828775D01*
X173795343Y-81937505D01*
X173742899Y-82064118D01*
X173742898Y-82064122D01*
X173725009Y-82199999D01*
X137950500Y-82199999D01*
X137950500Y-81499999D01*
X210975009Y-81499999D01*
X210975009Y-81500000D01*
X210992898Y-81635877D01*
X210992899Y-81635881D01*
X211045342Y-81762493D01*
X211045343Y-81762495D01*
X211045344Y-81762496D01*
X211128775Y-81871225D01*
X211237504Y-81954656D01*
X211364122Y-82007102D01*
X211484191Y-82022909D01*
X211499999Y-82024991D01*
X211500000Y-82024991D01*
X211500001Y-82024991D01*
X211514161Y-82023126D01*
X211635878Y-82007102D01*
X211762496Y-81954656D01*
X211871225Y-81871225D01*
X211954656Y-81762496D01*
X212001253Y-81649999D01*
X216475009Y-81649999D01*
X216475009Y-81650000D01*
X216492898Y-81785877D01*
X216492899Y-81785881D01*
X216545342Y-81912493D01*
X216545343Y-81912495D01*
X216545344Y-81912496D01*
X216628775Y-82021225D01*
X216737504Y-82104656D01*
X216864122Y-82157102D01*
X216984191Y-82172909D01*
X216999999Y-82174991D01*
X217000000Y-82174991D01*
X217000001Y-82174991D01*
X217014161Y-82173126D01*
X217135878Y-82157102D01*
X217262496Y-82104656D01*
X217371225Y-82021225D01*
X217454656Y-81912496D01*
X217507102Y-81785878D01*
X217524991Y-81650000D01*
X217507102Y-81514122D01*
X217454656Y-81387505D01*
X217371225Y-81278775D01*
X217262496Y-81195344D01*
X217262495Y-81195343D01*
X217262493Y-81195342D01*
X217135881Y-81142899D01*
X217135879Y-81142898D01*
X217135878Y-81142898D01*
X217028613Y-81128776D01*
X217000001Y-81125009D01*
X216999999Y-81125009D01*
X216864122Y-81142898D01*
X216864118Y-81142899D01*
X216737505Y-81195343D01*
X216628775Y-81278775D01*
X216545343Y-81387505D01*
X216492899Y-81514118D01*
X216492898Y-81514122D01*
X216475009Y-81649999D01*
X212001253Y-81649999D01*
X212007102Y-81635878D01*
X212024991Y-81500000D01*
X212007102Y-81364122D01*
X211954656Y-81237505D01*
X211871225Y-81128775D01*
X211762496Y-81045344D01*
X211762495Y-81045343D01*
X211762493Y-81045342D01*
X211635881Y-80992899D01*
X211635879Y-80992898D01*
X211635878Y-80992898D01*
X211567939Y-80983953D01*
X211500001Y-80975009D01*
X211499999Y-80975009D01*
X211364122Y-80992898D01*
X211364118Y-80992899D01*
X211237505Y-81045343D01*
X211128775Y-81128775D01*
X211045343Y-81237505D01*
X210992899Y-81364118D01*
X210992898Y-81364122D01*
X210975009Y-81499999D01*
X137950500Y-81499999D01*
X137950500Y-79400000D01*
X210775009Y-79400000D01*
X210782526Y-79457100D01*
X210792898Y-79535877D01*
X210792899Y-79535881D01*
X210845342Y-79662493D01*
X210845343Y-79662495D01*
X210845344Y-79662496D01*
X210928775Y-79771225D01*
X211037504Y-79854656D01*
X211164122Y-79907102D01*
X211284191Y-79922909D01*
X211299999Y-79924991D01*
X211300000Y-79924991D01*
X211300001Y-79924991D01*
X211314161Y-79923126D01*
X211435878Y-79907102D01*
X211562496Y-79854656D01*
X211671225Y-79771225D01*
X211754656Y-79662496D01*
X211807102Y-79535878D01*
X211824991Y-79400000D01*
X211807102Y-79264122D01*
X211754656Y-79137505D01*
X211715044Y-79085881D01*
X211671226Y-79028776D01*
X211650006Y-79012493D01*
X211568562Y-78949999D01*
X214825009Y-78949999D01*
X214825009Y-78950000D01*
X214842898Y-79085877D01*
X214842899Y-79085881D01*
X214895342Y-79212493D01*
X214895343Y-79212495D01*
X214895344Y-79212496D01*
X214978775Y-79321225D01*
X215087504Y-79404656D01*
X215214122Y-79457102D01*
X215334191Y-79472909D01*
X215349999Y-79474991D01*
X215350000Y-79474991D01*
X215350001Y-79474991D01*
X215364161Y-79473126D01*
X215485878Y-79457102D01*
X215612496Y-79404656D01*
X215721225Y-79321225D01*
X215804656Y-79212496D01*
X215857102Y-79085878D01*
X215874991Y-78950000D01*
X215857102Y-78814122D01*
X215804656Y-78687505D01*
X215748348Y-78614122D01*
X215721226Y-78578776D01*
X215612493Y-78495342D01*
X215485881Y-78442899D01*
X215485879Y-78442898D01*
X215485878Y-78442898D01*
X215417939Y-78433953D01*
X215350001Y-78425009D01*
X215349999Y-78425009D01*
X215214122Y-78442898D01*
X215214118Y-78442899D01*
X215087505Y-78495343D01*
X214978775Y-78578775D01*
X214895343Y-78687505D01*
X214842899Y-78814118D01*
X214842898Y-78814122D01*
X214825009Y-78949999D01*
X211568562Y-78949999D01*
X211562496Y-78945344D01*
X211562495Y-78945343D01*
X211562493Y-78945342D01*
X211435881Y-78892899D01*
X211435879Y-78892898D01*
X211435878Y-78892898D01*
X211367939Y-78883953D01*
X211300001Y-78875009D01*
X211299999Y-78875009D01*
X211164122Y-78892898D01*
X211164118Y-78892899D01*
X211037505Y-78945343D01*
X210928775Y-79028775D01*
X210845343Y-79137505D01*
X210792899Y-79264118D01*
X210792898Y-79264122D01*
X210775009Y-79400000D01*
X137950500Y-79400000D01*
X137950500Y-78750000D01*
X202025009Y-78750000D01*
X202033450Y-78814118D01*
X202042898Y-78885877D01*
X202042899Y-78885881D01*
X202095342Y-79012493D01*
X202095343Y-79012495D01*
X202095344Y-79012496D01*
X202178775Y-79121225D01*
X202287504Y-79204656D01*
X202287505Y-79204656D01*
X202287506Y-79204657D01*
X202306432Y-79212496D01*
X202414122Y-79257102D01*
X202534191Y-79272909D01*
X202549999Y-79274991D01*
X202550000Y-79274991D01*
X202550001Y-79274991D01*
X202564161Y-79273126D01*
X202685878Y-79257102D01*
X202812496Y-79204656D01*
X202921225Y-79121225D01*
X203004656Y-79012496D01*
X203057102Y-78885878D01*
X203074991Y-78750000D01*
X203057102Y-78614122D01*
X203004656Y-78487505D01*
X202970428Y-78442898D01*
X202921226Y-78378776D01*
X202812493Y-78295342D01*
X202685881Y-78242899D01*
X202685879Y-78242898D01*
X202685878Y-78242898D01*
X202617939Y-78233953D01*
X202550001Y-78225009D01*
X202549999Y-78225009D01*
X202414122Y-78242898D01*
X202414118Y-78242899D01*
X202287505Y-78295343D01*
X202178775Y-78378775D01*
X202095343Y-78487505D01*
X202042899Y-78614118D01*
X202042898Y-78614122D01*
X202025009Y-78750000D01*
X137950500Y-78750000D01*
X137950500Y-74049999D01*
X189525009Y-74049999D01*
X189525009Y-74050000D01*
X189542898Y-74185877D01*
X189542899Y-74185881D01*
X189595342Y-74312493D01*
X189595343Y-74312495D01*
X189595344Y-74312496D01*
X189678775Y-74421225D01*
X189787504Y-74504656D01*
X189914122Y-74557102D01*
X190034191Y-74572909D01*
X190049999Y-74574991D01*
X190050000Y-74574991D01*
X190050001Y-74574991D01*
X190064161Y-74573126D01*
X190185878Y-74557102D01*
X190312496Y-74504656D01*
X190421225Y-74421225D01*
X190504656Y-74312496D01*
X190557102Y-74185878D01*
X190574991Y-74050000D01*
X190557102Y-73914122D01*
X190504656Y-73787505D01*
X190421225Y-73678775D01*
X190312496Y-73595344D01*
X190312495Y-73595343D01*
X190312493Y-73595342D01*
X190185881Y-73542899D01*
X190185879Y-73542898D01*
X190185878Y-73542898D01*
X190117939Y-73533953D01*
X190050001Y-73525009D01*
X190049999Y-73525009D01*
X189914122Y-73542898D01*
X189914118Y-73542899D01*
X189787505Y-73595343D01*
X189678775Y-73678775D01*
X189595343Y-73787505D01*
X189542899Y-73914118D01*
X189542898Y-73914122D01*
X189525009Y-74049999D01*
X137950500Y-74049999D01*
X137950500Y-72753957D01*
X140019500Y-72753957D01*
X140019500Y-72886042D01*
X140045265Y-73015570D01*
X140045267Y-73015578D01*
X140095809Y-73137598D01*
X140095814Y-73137607D01*
X140169188Y-73247418D01*
X140169191Y-73247422D01*
X140262577Y-73340808D01*
X140262581Y-73340811D01*
X140372392Y-73414185D01*
X140372398Y-73414188D01*
X140372399Y-73414189D01*
X140494422Y-73464733D01*
X140600721Y-73485877D01*
X140623957Y-73490499D01*
X140623961Y-73490500D01*
X140623962Y-73490500D01*
X141356039Y-73490500D01*
X141356040Y-73490499D01*
X141485578Y-73464733D01*
X141607601Y-73414189D01*
X141717419Y-73340811D01*
X141810811Y-73247419D01*
X141884189Y-73137601D01*
X141934733Y-73015578D01*
X141960500Y-72886038D01*
X141960500Y-72753962D01*
X141960499Y-72753957D01*
X143949500Y-72753957D01*
X143949500Y-72886042D01*
X143975265Y-73015570D01*
X143975267Y-73015578D01*
X144025809Y-73137598D01*
X144025814Y-73137607D01*
X144099188Y-73247418D01*
X144099191Y-73247422D01*
X144192577Y-73340808D01*
X144192581Y-73340811D01*
X144302392Y-73414185D01*
X144302398Y-73414188D01*
X144302399Y-73414189D01*
X144424422Y-73464733D01*
X144530721Y-73485877D01*
X144553957Y-73490499D01*
X144553961Y-73490500D01*
X144553962Y-73490500D01*
X145786039Y-73490500D01*
X145786040Y-73490499D01*
X145915578Y-73464733D01*
X146037601Y-73414189D01*
X146147419Y-73340811D01*
X146240811Y-73247419D01*
X146314189Y-73137601D01*
X146364733Y-73015578D01*
X146390500Y-72886038D01*
X146390500Y-72753962D01*
X146364733Y-72624422D01*
X146314189Y-72502399D01*
X146314188Y-72502398D01*
X146314185Y-72502392D01*
X146312586Y-72499999D01*
X174875009Y-72499999D01*
X174875009Y-72500000D01*
X174892898Y-72635877D01*
X174892899Y-72635881D01*
X174945342Y-72762493D01*
X174945343Y-72762495D01*
X174945344Y-72762496D01*
X175028775Y-72871225D01*
X175137504Y-72954656D01*
X175264122Y-73007102D01*
X175384191Y-73022909D01*
X175399999Y-73024991D01*
X175400000Y-73024991D01*
X175400001Y-73024991D01*
X175414161Y-73023126D01*
X175535878Y-73007102D01*
X175662496Y-72954656D01*
X175733725Y-72900000D01*
X182075009Y-72900000D01*
X182090225Y-73015578D01*
X182092898Y-73035877D01*
X182092899Y-73035881D01*
X182145342Y-73162493D01*
X182145343Y-73162495D01*
X182145344Y-73162496D01*
X182228775Y-73271225D01*
X182337504Y-73354656D01*
X182464122Y-73407102D01*
X182584191Y-73422909D01*
X182599999Y-73424991D01*
X182600000Y-73424991D01*
X182600001Y-73424991D01*
X182614161Y-73423126D01*
X182735878Y-73407102D01*
X182862496Y-73354656D01*
X182868564Y-73350000D01*
X212775009Y-73350000D01*
X212782526Y-73407100D01*
X212792898Y-73485877D01*
X212792899Y-73485881D01*
X212845342Y-73612493D01*
X212845343Y-73612495D01*
X212845344Y-73612496D01*
X212928775Y-73721225D01*
X213037504Y-73804656D01*
X213037505Y-73804656D01*
X213037506Y-73804657D01*
X213043409Y-73807102D01*
X213164122Y-73857102D01*
X213284191Y-73872909D01*
X213299999Y-73874991D01*
X213300000Y-73874991D01*
X213300001Y-73874991D01*
X213314161Y-73873126D01*
X213435878Y-73857102D01*
X213562496Y-73804656D01*
X213671225Y-73721225D01*
X213720808Y-73656607D01*
X213777235Y-73615405D01*
X213846981Y-73611250D01*
X213907901Y-73645462D01*
X213917558Y-73656607D01*
X213928775Y-73671225D01*
X214037504Y-73754656D01*
X214164122Y-73807102D01*
X214284191Y-73822909D01*
X214299999Y-73824991D01*
X214300000Y-73824991D01*
X214300001Y-73824991D01*
X214314161Y-73823126D01*
X214435878Y-73807102D01*
X214562496Y-73754656D01*
X214671225Y-73671225D01*
X214754656Y-73562496D01*
X214807102Y-73435878D01*
X214824991Y-73300000D01*
X214807102Y-73164122D01*
X214754656Y-73037505D01*
X214671225Y-72928775D01*
X214562496Y-72845344D01*
X214562495Y-72845343D01*
X214562493Y-72845342D01*
X214435881Y-72792899D01*
X214435879Y-72792898D01*
X214435878Y-72792898D01*
X214367939Y-72783953D01*
X214300001Y-72775009D01*
X214299999Y-72775009D01*
X214164122Y-72792898D01*
X214164118Y-72792899D01*
X214037505Y-72845343D01*
X213928774Y-72928775D01*
X213879191Y-72993393D01*
X213822763Y-73034596D01*
X213753017Y-73038750D01*
X213692097Y-73004537D01*
X213682439Y-72993390D01*
X213671225Y-72978775D01*
X213562496Y-72895344D01*
X213562495Y-72895343D01*
X213562493Y-72895342D01*
X213435881Y-72842899D01*
X213435879Y-72842898D01*
X213435878Y-72842898D01*
X213367939Y-72833953D01*
X213300001Y-72825009D01*
X213299999Y-72825009D01*
X213164122Y-72842898D01*
X213164118Y-72842899D01*
X213037505Y-72895343D01*
X212928775Y-72978775D01*
X212845343Y-73087505D01*
X212792899Y-73214118D01*
X212792898Y-73214122D01*
X212775009Y-73350000D01*
X182868564Y-73350000D01*
X182971225Y-73271225D01*
X183054656Y-73162496D01*
X183107102Y-73035878D01*
X183124991Y-72900000D01*
X183107102Y-72764122D01*
X183054656Y-72637505D01*
X183053407Y-72635877D01*
X182971226Y-72528776D01*
X182936842Y-72502392D01*
X182862496Y-72445344D01*
X182862495Y-72445343D01*
X182862493Y-72445342D01*
X182735881Y-72392899D01*
X182735879Y-72392898D01*
X182735878Y-72392898D01*
X182667939Y-72383953D01*
X182600001Y-72375009D01*
X182599999Y-72375009D01*
X182464122Y-72392898D01*
X182464118Y-72392899D01*
X182337505Y-72445343D01*
X182228775Y-72528775D01*
X182145343Y-72637505D01*
X182092899Y-72764118D01*
X182092898Y-72764122D01*
X182078798Y-72871224D01*
X182075009Y-72900000D01*
X175733725Y-72900000D01*
X175771225Y-72871225D01*
X175854656Y-72762496D01*
X175907102Y-72635878D01*
X175924991Y-72500000D01*
X175907102Y-72364122D01*
X175854656Y-72237505D01*
X175816200Y-72187388D01*
X175771226Y-72128776D01*
X175662493Y-72045342D01*
X175535881Y-71992899D01*
X175535879Y-71992898D01*
X175535878Y-71992898D01*
X175467939Y-71983953D01*
X175400001Y-71975009D01*
X175399999Y-71975009D01*
X175264122Y-71992898D01*
X175264118Y-71992899D01*
X175137505Y-72045343D01*
X175028775Y-72128775D01*
X174945343Y-72237505D01*
X174892899Y-72364118D01*
X174892898Y-72364122D01*
X174875009Y-72499999D01*
X146312586Y-72499999D01*
X146240811Y-72392581D01*
X146240808Y-72392577D01*
X146147422Y-72299191D01*
X146147418Y-72299188D01*
X146037607Y-72225814D01*
X146037598Y-72225809D01*
X145915578Y-72175267D01*
X145915570Y-72175265D01*
X145786042Y-72149500D01*
X145786038Y-72149500D01*
X145037973Y-72149500D01*
X144970934Y-72129815D01*
X144925179Y-72077011D01*
X144915235Y-72007853D01*
X144944260Y-71944297D01*
X144969082Y-71922398D01*
X145002593Y-71900005D01*
X145038733Y-71875858D01*
X145125858Y-71788733D01*
X145194311Y-71686286D01*
X145241463Y-71572452D01*
X145265500Y-71451606D01*
X145265500Y-71328394D01*
X145241463Y-71207548D01*
X145194311Y-71093714D01*
X145194310Y-71093713D01*
X145194307Y-71093707D01*
X145125858Y-70991267D01*
X145125855Y-70991263D01*
X145038736Y-70904144D01*
X145038732Y-70904141D01*
X144936292Y-70835692D01*
X144936283Y-70835687D01*
X144822454Y-70788538D01*
X144822455Y-70788538D01*
X144822452Y-70788537D01*
X144822448Y-70788536D01*
X144822444Y-70788535D01*
X144701610Y-70764500D01*
X144701606Y-70764500D01*
X144578394Y-70764500D01*
X144578389Y-70764500D01*
X144457555Y-70788535D01*
X144457545Y-70788538D01*
X144343716Y-70835687D01*
X144343707Y-70835692D01*
X144241267Y-70904141D01*
X144241263Y-70904144D01*
X144154144Y-70991263D01*
X144154141Y-70991267D01*
X144085692Y-71093707D01*
X144085687Y-71093716D01*
X144038538Y-71207545D01*
X144038535Y-71207555D01*
X144014500Y-71328389D01*
X144014500Y-71451610D01*
X144038535Y-71572444D01*
X144038538Y-71572454D01*
X144085687Y-71686283D01*
X144085692Y-71686292D01*
X144154141Y-71788732D01*
X144154144Y-71788736D01*
X144241263Y-71875855D01*
X144241267Y-71875858D01*
X144343707Y-71944307D01*
X144343716Y-71944312D01*
X144386281Y-71961943D01*
X144440684Y-72005784D01*
X144462749Y-72072078D01*
X144445470Y-72139777D01*
X144394333Y-72187388D01*
X144386282Y-72191065D01*
X144302398Y-72225811D01*
X144302392Y-72225814D01*
X144192581Y-72299188D01*
X144192577Y-72299191D01*
X144099191Y-72392577D01*
X144099188Y-72392581D01*
X144025814Y-72502392D01*
X144025809Y-72502401D01*
X143975267Y-72624421D01*
X143975265Y-72624429D01*
X143949500Y-72753957D01*
X141960499Y-72753957D01*
X141934733Y-72624422D01*
X141884189Y-72502399D01*
X141884188Y-72502398D01*
X141884185Y-72502392D01*
X141810811Y-72392581D01*
X141810808Y-72392577D01*
X141717422Y-72299191D01*
X141717418Y-72299188D01*
X141607607Y-72225814D01*
X141607598Y-72225809D01*
X141485578Y-72175267D01*
X141485570Y-72175265D01*
X141356042Y-72149500D01*
X141356038Y-72149500D01*
X140623962Y-72149500D01*
X140623957Y-72149500D01*
X140494429Y-72175265D01*
X140494421Y-72175267D01*
X140372401Y-72225809D01*
X140372392Y-72225814D01*
X140262581Y-72299188D01*
X140262577Y-72299191D01*
X140169191Y-72392577D01*
X140169188Y-72392581D01*
X140095814Y-72502392D01*
X140095809Y-72502401D01*
X140045267Y-72624421D01*
X140045265Y-72624429D01*
X140019500Y-72753957D01*
X137950500Y-72753957D01*
X137950500Y-70249999D01*
X180825009Y-70249999D01*
X180825009Y-70250000D01*
X180842898Y-70385877D01*
X180842899Y-70385881D01*
X180895342Y-70512493D01*
X180895343Y-70512495D01*
X180895344Y-70512496D01*
X180978775Y-70621225D01*
X181087504Y-70704656D01*
X181214122Y-70757102D01*
X181304753Y-70769034D01*
X181368647Y-70797299D01*
X181407119Y-70855623D01*
X181407951Y-70925488D01*
X181403129Y-70939421D01*
X181392898Y-70964122D01*
X181375009Y-71099999D01*
X181375009Y-71100000D01*
X181392898Y-71235877D01*
X181392899Y-71235881D01*
X181445342Y-71362493D01*
X181445343Y-71362495D01*
X181445344Y-71362496D01*
X181528775Y-71471225D01*
X181637504Y-71554656D01*
X181764122Y-71607102D01*
X181884191Y-71622909D01*
X181899999Y-71624991D01*
X181900000Y-71624991D01*
X181900001Y-71624991D01*
X181914161Y-71623126D01*
X182035878Y-71607102D01*
X182162496Y-71554656D01*
X182271225Y-71471225D01*
X182354656Y-71362496D01*
X182407102Y-71235878D01*
X182424991Y-71100000D01*
X182424162Y-71093707D01*
X182422909Y-71084191D01*
X182407102Y-70964122D01*
X182354656Y-70837505D01*
X182343515Y-70822986D01*
X182271226Y-70728776D01*
X182239794Y-70704657D01*
X182162496Y-70645344D01*
X182162495Y-70645343D01*
X182162493Y-70645342D01*
X182035881Y-70592899D01*
X182035879Y-70592898D01*
X182035878Y-70592898D01*
X181945246Y-70580965D01*
X181881351Y-70552699D01*
X181846590Y-70500000D01*
X212825009Y-70500000D01*
X212837239Y-70592898D01*
X212842898Y-70635877D01*
X212842899Y-70635881D01*
X212895342Y-70762493D01*
X212895343Y-70762495D01*
X212895344Y-70762496D01*
X212978775Y-70871225D01*
X213087504Y-70954656D01*
X213087505Y-70954656D01*
X213087506Y-70954657D01*
X213110357Y-70964122D01*
X213214122Y-71007102D01*
X213334191Y-71022909D01*
X213349999Y-71024991D01*
X213350000Y-71024991D01*
X213350001Y-71024991D01*
X213364161Y-71023126D01*
X213485878Y-71007102D01*
X213612496Y-70954656D01*
X213721225Y-70871225D01*
X213726625Y-70864187D01*
X213783050Y-70822986D01*
X213852796Y-70818829D01*
X213913717Y-70853041D01*
X213923368Y-70864179D01*
X213928775Y-70871225D01*
X214037504Y-70954656D01*
X214037505Y-70954656D01*
X214037506Y-70954657D01*
X214060357Y-70964122D01*
X214164122Y-71007102D01*
X214284191Y-71022909D01*
X214299999Y-71024991D01*
X214300000Y-71024991D01*
X214300001Y-71024991D01*
X214314161Y-71023126D01*
X214435878Y-71007102D01*
X214562496Y-70954656D01*
X214671225Y-70871225D01*
X214754656Y-70762496D01*
X214807102Y-70635878D01*
X214824991Y-70500000D01*
X214824250Y-70494375D01*
X214817308Y-70441645D01*
X214807102Y-70364122D01*
X214754656Y-70237505D01*
X214685175Y-70146955D01*
X214671226Y-70128776D01*
X214671225Y-70128775D01*
X214562496Y-70045344D01*
X214562495Y-70045343D01*
X214562493Y-70045342D01*
X214435881Y-69992899D01*
X214435879Y-69992898D01*
X214435878Y-69992898D01*
X214367939Y-69983953D01*
X214300001Y-69975009D01*
X214299999Y-69975009D01*
X214164122Y-69992898D01*
X214164118Y-69992899D01*
X214037505Y-70045343D01*
X213928776Y-70128774D01*
X213923375Y-70135813D01*
X213866946Y-70177015D01*
X213797200Y-70181169D01*
X213736280Y-70146955D01*
X213726625Y-70135813D01*
X213721225Y-70128775D01*
X213612496Y-70045344D01*
X213612495Y-70045343D01*
X213612493Y-70045342D01*
X213485881Y-69992899D01*
X213485879Y-69992898D01*
X213485878Y-69992898D01*
X213417939Y-69983953D01*
X213350001Y-69975009D01*
X213349999Y-69975009D01*
X213214122Y-69992898D01*
X213214118Y-69992899D01*
X213087505Y-70045343D01*
X212978775Y-70128775D01*
X212895343Y-70237505D01*
X212842899Y-70364118D01*
X212842898Y-70364122D01*
X212825750Y-70494375D01*
X212825009Y-70500000D01*
X181846590Y-70500000D01*
X181842880Y-70494375D01*
X181842049Y-70424510D01*
X181846866Y-70410590D01*
X181857102Y-70385878D01*
X181874991Y-70250000D01*
X181857102Y-70114122D01*
X181804656Y-69987505D01*
X181721225Y-69878775D01*
X181612496Y-69795344D01*
X181612495Y-69795343D01*
X181612493Y-69795342D01*
X181485881Y-69742899D01*
X181485879Y-69742898D01*
X181485878Y-69742898D01*
X181417939Y-69733953D01*
X181350001Y-69725009D01*
X181349999Y-69725009D01*
X181214122Y-69742898D01*
X181214118Y-69742899D01*
X181087505Y-69795343D01*
X180978775Y-69878775D01*
X180895343Y-69987505D01*
X180842899Y-70114118D01*
X180842898Y-70114122D01*
X180825009Y-70249999D01*
X137950500Y-70249999D01*
X137950500Y-68800000D01*
X210525009Y-68800000D01*
X210538058Y-68899119D01*
X210542898Y-68935877D01*
X210542899Y-68935881D01*
X210595342Y-69062493D01*
X210595343Y-69062495D01*
X210595344Y-69062496D01*
X210678775Y-69171225D01*
X210787504Y-69254656D01*
X210914122Y-69307102D01*
X211034191Y-69322909D01*
X211049999Y-69324991D01*
X211050000Y-69324991D01*
X211050001Y-69324991D01*
X211064161Y-69323126D01*
X211185878Y-69307102D01*
X211312496Y-69254656D01*
X211421225Y-69171225D01*
X211425540Y-69165602D01*
X221049500Y-69165602D01*
X221049500Y-69434397D01*
X221084582Y-69700880D01*
X221084583Y-69700885D01*
X221084584Y-69700891D01*
X221095840Y-69742898D01*
X221154152Y-69960524D01*
X221257011Y-70208850D01*
X221257019Y-70208866D01*
X221301911Y-70286620D01*
X221391413Y-70441641D01*
X221391415Y-70441644D01*
X221391416Y-70441645D01*
X221555042Y-70654888D01*
X221555048Y-70654895D01*
X221745104Y-70844951D01*
X221745111Y-70844957D01*
X221822242Y-70904141D01*
X221958359Y-71008587D01*
X222107968Y-71094964D01*
X222191133Y-71142980D01*
X222191149Y-71142988D01*
X222346008Y-71207132D01*
X222439474Y-71245847D01*
X222699109Y-71315416D01*
X222887319Y-71340193D01*
X222965602Y-71350500D01*
X222965603Y-71350500D01*
X223234398Y-71350500D01*
X223294905Y-71342534D01*
X223500891Y-71315416D01*
X223760526Y-71245847D01*
X223947457Y-71168417D01*
X224008850Y-71142988D01*
X224008853Y-71142986D01*
X224008859Y-71142984D01*
X224241641Y-71008587D01*
X224454890Y-70844956D01*
X224644956Y-70654890D01*
X224808587Y-70441641D01*
X224942984Y-70208859D01*
X225045847Y-69960526D01*
X225115416Y-69700891D01*
X225150500Y-69434397D01*
X225150500Y-69165603D01*
X225115416Y-68899109D01*
X225045847Y-68639474D01*
X224958573Y-68428775D01*
X224942988Y-68391149D01*
X224942980Y-68391133D01*
X224875935Y-68275009D01*
X224808587Y-68158359D01*
X224644956Y-67945110D01*
X224644951Y-67945104D01*
X224454895Y-67755048D01*
X224454888Y-67755042D01*
X224241645Y-67591416D01*
X224241644Y-67591415D01*
X224241641Y-67591413D01*
X224148832Y-67537830D01*
X224008866Y-67457019D01*
X224008850Y-67457011D01*
X223760524Y-67354152D01*
X223630708Y-67319368D01*
X223500891Y-67284584D01*
X223500885Y-67284583D01*
X223500880Y-67284582D01*
X223234398Y-67249500D01*
X223234397Y-67249500D01*
X222965603Y-67249500D01*
X222965602Y-67249500D01*
X222699119Y-67284582D01*
X222699112Y-67284583D01*
X222699109Y-67284584D01*
X222644239Y-67299286D01*
X222439475Y-67354152D01*
X222191149Y-67457011D01*
X222191133Y-67457019D01*
X221958354Y-67591416D01*
X221745111Y-67755042D01*
X221745104Y-67755048D01*
X221555048Y-67945104D01*
X221555042Y-67945111D01*
X221391416Y-68158354D01*
X221257019Y-68391133D01*
X221257011Y-68391149D01*
X221154152Y-68639475D01*
X221084585Y-68899106D01*
X221084582Y-68899119D01*
X221049500Y-69165602D01*
X211425540Y-69165602D01*
X211504656Y-69062496D01*
X211557102Y-68935878D01*
X211574991Y-68800000D01*
X211557102Y-68664122D01*
X211504656Y-68537505D01*
X211421225Y-68428775D01*
X211312496Y-68345344D01*
X211312495Y-68345343D01*
X211312493Y-68345342D01*
X211185881Y-68292899D01*
X211185879Y-68292898D01*
X211185878Y-68292898D01*
X211117939Y-68283953D01*
X211050001Y-68275009D01*
X211049999Y-68275009D01*
X210914122Y-68292898D01*
X210914118Y-68292899D01*
X210787505Y-68345343D01*
X210678775Y-68428775D01*
X210595343Y-68537505D01*
X210542899Y-68664118D01*
X210542898Y-68664122D01*
X210525009Y-68800000D01*
X137950500Y-68800000D01*
X137950500Y-64113957D01*
X140019500Y-64113957D01*
X140019500Y-64246042D01*
X140045265Y-64375570D01*
X140045267Y-64375578D01*
X140095809Y-64497598D01*
X140095814Y-64497607D01*
X140169188Y-64607418D01*
X140169191Y-64607422D01*
X140262577Y-64700808D01*
X140262581Y-64700811D01*
X140372392Y-64774185D01*
X140372398Y-64774188D01*
X140372399Y-64774189D01*
X140494422Y-64824733D01*
X140623957Y-64850499D01*
X140623961Y-64850500D01*
X140623962Y-64850500D01*
X141356039Y-64850500D01*
X141356040Y-64850499D01*
X141485578Y-64824733D01*
X141607601Y-64774189D01*
X141717419Y-64700811D01*
X141810811Y-64607419D01*
X141884189Y-64497601D01*
X141934733Y-64375578D01*
X141960500Y-64246038D01*
X141960500Y-64113962D01*
X141960499Y-64113957D01*
X143949500Y-64113957D01*
X143949500Y-64246042D01*
X143975265Y-64375570D01*
X143975267Y-64375578D01*
X144025809Y-64497598D01*
X144025814Y-64497607D01*
X144099188Y-64607418D01*
X144099191Y-64607422D01*
X144192577Y-64700808D01*
X144192581Y-64700811D01*
X144302392Y-64774185D01*
X144302405Y-64774192D01*
X144386280Y-64808934D01*
X144440684Y-64852775D01*
X144462749Y-64919069D01*
X144445470Y-64986768D01*
X144394333Y-65034379D01*
X144386283Y-65038055D01*
X144343719Y-65055686D01*
X144343707Y-65055692D01*
X144241267Y-65124141D01*
X144241263Y-65124144D01*
X144154144Y-65211263D01*
X144154141Y-65211267D01*
X144085692Y-65313707D01*
X144085687Y-65313716D01*
X144038538Y-65427545D01*
X144038535Y-65427555D01*
X144014500Y-65548389D01*
X144014500Y-65671610D01*
X144038535Y-65792444D01*
X144038538Y-65792454D01*
X144085687Y-65906283D01*
X144085692Y-65906292D01*
X144154141Y-66008732D01*
X144154144Y-66008736D01*
X144241263Y-66095855D01*
X144241267Y-66095858D01*
X144343707Y-66164307D01*
X144343713Y-66164310D01*
X144343714Y-66164311D01*
X144457548Y-66211463D01*
X144578389Y-66235499D01*
X144578393Y-66235500D01*
X144578394Y-66235500D01*
X144701607Y-66235500D01*
X144701608Y-66235499D01*
X144822452Y-66211463D01*
X144936286Y-66164311D01*
X145038733Y-66095858D01*
X145125858Y-66008733D01*
X145194311Y-65906286D01*
X145241463Y-65792452D01*
X145265500Y-65671606D01*
X145265500Y-65548394D01*
X145241463Y-65427548D01*
X145194311Y-65313714D01*
X145194310Y-65313713D01*
X145194307Y-65313707D01*
X145125858Y-65211267D01*
X145125855Y-65211263D01*
X145038736Y-65124144D01*
X145038732Y-65124141D01*
X144969082Y-65077602D01*
X144924277Y-65023990D01*
X144915570Y-64954665D01*
X144945725Y-64891637D01*
X145005168Y-64854918D01*
X145037973Y-64850500D01*
X145786039Y-64850500D01*
X145786040Y-64850499D01*
X145915578Y-64824733D01*
X146037601Y-64774189D01*
X146147419Y-64700811D01*
X146240811Y-64607419D01*
X146314189Y-64497601D01*
X146364733Y-64375578D01*
X146390500Y-64246038D01*
X146390500Y-64113962D01*
X146364733Y-63984422D01*
X146314189Y-63862399D01*
X146314188Y-63862398D01*
X146314185Y-63862392D01*
X146240811Y-63752581D01*
X146240808Y-63752577D01*
X146188230Y-63699999D01*
X153625009Y-63699999D01*
X153625009Y-63700000D01*
X153642898Y-63835877D01*
X153642899Y-63835881D01*
X153695342Y-63962493D01*
X153695343Y-63962495D01*
X153695344Y-63962496D01*
X153778775Y-64071225D01*
X153887504Y-64154656D01*
X154014122Y-64207102D01*
X154134191Y-64222909D01*
X154149999Y-64224991D01*
X154150000Y-64224991D01*
X154150001Y-64224991D01*
X154164161Y-64223126D01*
X154285878Y-64207102D01*
X154412496Y-64154656D01*
X154521225Y-64071225D01*
X154604656Y-63962496D01*
X154657102Y-63835878D01*
X154674991Y-63700000D01*
X154657102Y-63564122D01*
X154604656Y-63437505D01*
X154521225Y-63328775D01*
X154412496Y-63245344D01*
X154412495Y-63245343D01*
X154412493Y-63245342D01*
X154285881Y-63192899D01*
X154285879Y-63192898D01*
X154285878Y-63192898D01*
X154217939Y-63183953D01*
X154150001Y-63175009D01*
X154149999Y-63175009D01*
X154014122Y-63192898D01*
X154014118Y-63192899D01*
X153887505Y-63245343D01*
X153778775Y-63328775D01*
X153695343Y-63437505D01*
X153642899Y-63564118D01*
X153642898Y-63564122D01*
X153625009Y-63699999D01*
X146188230Y-63699999D01*
X146147422Y-63659191D01*
X146147418Y-63659188D01*
X146037607Y-63585814D01*
X146037598Y-63585809D01*
X145915578Y-63535267D01*
X145915570Y-63535265D01*
X145786042Y-63509500D01*
X145786038Y-63509500D01*
X144553962Y-63509500D01*
X144553957Y-63509500D01*
X144424429Y-63535265D01*
X144424421Y-63535267D01*
X144302401Y-63585809D01*
X144302392Y-63585814D01*
X144192581Y-63659188D01*
X144192577Y-63659191D01*
X144099191Y-63752577D01*
X144099188Y-63752581D01*
X144025814Y-63862392D01*
X144025809Y-63862401D01*
X143975267Y-63984421D01*
X143975265Y-63984429D01*
X143949500Y-64113957D01*
X141960499Y-64113957D01*
X141934733Y-63984422D01*
X141884189Y-63862399D01*
X141884188Y-63862398D01*
X141884185Y-63862392D01*
X141810811Y-63752581D01*
X141810808Y-63752577D01*
X141717422Y-63659191D01*
X141717418Y-63659188D01*
X141607607Y-63585814D01*
X141607598Y-63585809D01*
X141485578Y-63535267D01*
X141485570Y-63535265D01*
X141356042Y-63509500D01*
X141356038Y-63509500D01*
X140623962Y-63509500D01*
X140623957Y-63509500D01*
X140494429Y-63535265D01*
X140494421Y-63535267D01*
X140372401Y-63585809D01*
X140372392Y-63585814D01*
X140262581Y-63659188D01*
X140262577Y-63659191D01*
X140169191Y-63752577D01*
X140169188Y-63752581D01*
X140095814Y-63862392D01*
X140095809Y-63862401D01*
X140045267Y-63984421D01*
X140045265Y-63984429D01*
X140019500Y-64113957D01*
X137950500Y-64113957D01*
X137950500Y-61504875D01*
X137950882Y-61495147D01*
X137965117Y-61314265D01*
X137968161Y-61295045D01*
X138009377Y-61123370D01*
X138015390Y-61104865D01*
X138082953Y-60941753D01*
X138091787Y-60924416D01*
X138114900Y-60886700D01*
X138184034Y-60773881D01*
X138195470Y-60758142D01*
X138310136Y-60623885D01*
X138323885Y-60610136D01*
X138458144Y-60495468D01*
X138473884Y-60484033D01*
X138532220Y-60448285D01*
X138624419Y-60391785D01*
X138641749Y-60382954D01*
X138804869Y-60315388D01*
X138823365Y-60309378D01*
X138995049Y-60268160D01*
X139014261Y-60265117D01*
X139155483Y-60254003D01*
X139195147Y-60250882D01*
X139204875Y-60250500D01*
X139244170Y-60250500D01*
X175155830Y-60250500D01*
X175195125Y-60250500D01*
X175204853Y-60250882D01*
G37*
%TD.AperFunction*%
%TD*%
M02*
