%TF.GenerationSoftware,KiCad,Pcbnew,8.0.8-8.0.8-0~ubuntu24.04.1*%
%TF.CreationDate,2025-05-06T14:12:06+03:00*%
%TF.ProjectId,kicad_soundcard_dev_v0,6b696361-645f-4736-9f75-6e6463617264,rev?*%
%TF.SameCoordinates,Original*%
%TF.FileFunction,Paste,Bot*%
%TF.FilePolarity,Positive*%
%FSLAX46Y46*%
G04 Gerber Fmt 4.6, Leading zero omitted, Abs format (unit mm)*
G04 Created by KiCad (PCBNEW 8.0.8-8.0.8-0~ubuntu24.04.1) date 2025-05-06 14:12:06*
%MOMM*%
%LPD*%
G01*
G04 APERTURE LIST*
G04 Aperture macros list*
%AMRoundRect*
0 Rectangle with rounded corners*
0 $1 Rounding radius*
0 $2 $3 $4 $5 $6 $7 $8 $9 X,Y pos of 4 corners*
0 Add a 4 corners polygon primitive as box body*
4,1,4,$2,$3,$4,$5,$6,$7,$8,$9,$2,$3,0*
0 Add four circle primitives for the rounded corners*
1,1,$1+$1,$2,$3*
1,1,$1+$1,$4,$5*
1,1,$1+$1,$6,$7*
1,1,$1+$1,$8,$9*
0 Add four rect primitives between the rounded corners*
20,1,$1+$1,$2,$3,$4,$5,0*
20,1,$1+$1,$4,$5,$6,$7,0*
20,1,$1+$1,$6,$7,$8,$9,0*
20,1,$1+$1,$8,$9,$2,$3,0*%
G04 Aperture macros list end*
%ADD10RoundRect,0.200000X-0.200000X-0.275000X0.200000X-0.275000X0.200000X0.275000X-0.200000X0.275000X0*%
%ADD11RoundRect,0.200000X0.200000X0.275000X-0.200000X0.275000X-0.200000X-0.275000X0.200000X-0.275000X0*%
%ADD12RoundRect,0.140000X0.170000X-0.140000X0.170000X0.140000X-0.170000X0.140000X-0.170000X-0.140000X0*%
%ADD13RoundRect,0.050000X-0.350000X-0.300000X0.350000X-0.300000X0.350000X0.300000X-0.350000X0.300000X0*%
%ADD14RoundRect,0.140000X-0.140000X-0.170000X0.140000X-0.170000X0.140000X0.170000X-0.140000X0.170000X0*%
%ADD15RoundRect,0.135000X0.135000X0.185000X-0.135000X0.185000X-0.135000X-0.185000X0.135000X-0.185000X0*%
%ADD16RoundRect,0.050000X0.350000X0.300000X-0.350000X0.300000X-0.350000X-0.300000X0.350000X-0.300000X0*%
%ADD17RoundRect,0.140000X-0.170000X0.140000X-0.170000X-0.140000X0.170000X-0.140000X0.170000X0.140000X0*%
%ADD18RoundRect,0.140000X0.140000X0.170000X-0.140000X0.170000X-0.140000X-0.170000X0.140000X-0.170000X0*%
%ADD19R,1.000000X1.250000*%
%ADD20RoundRect,0.087500X0.087500X0.225000X-0.087500X0.225000X-0.087500X-0.225000X0.087500X-0.225000X0*%
%ADD21RoundRect,0.087500X0.225000X0.087500X-0.225000X0.087500X-0.225000X-0.087500X0.225000X-0.087500X0*%
%ADD22RoundRect,0.087500X-0.087500X0.125000X-0.087500X-0.125000X0.087500X-0.125000X0.087500X0.125000X0*%
%ADD23RoundRect,0.087500X-0.125000X0.087500X-0.125000X-0.087500X0.125000X-0.087500X0.125000X0.087500X0*%
G04 APERTURE END LIST*
D10*
%TO.C,R304*%
X157875000Y-94800000D03*
X159525000Y-94800000D03*
%TD*%
D11*
%TO.C,R303*%
X151875000Y-93300000D03*
X153525000Y-93300000D03*
%TD*%
%TO.C,R302*%
X153600000Y-76500000D03*
X151950000Y-76500000D03*
%TD*%
D10*
%TO.C,R301*%
X157775000Y-76500000D03*
X159425000Y-76500000D03*
%TD*%
D12*
%TO.C,C414*%
X166650000Y-104130000D03*
X166650000Y-103170000D03*
%TD*%
D13*
%TO.C,D302*%
X194100000Y-104700000D03*
X194100000Y-105900000D03*
X192800000Y-105900000D03*
X192800000Y-104700000D03*
%TD*%
D14*
%TO.C,C305*%
X190520000Y-95900000D03*
X191480000Y-95900000D03*
%TD*%
D15*
%TO.C,R409*%
X165610000Y-103150000D03*
X164590000Y-103150000D03*
%TD*%
D16*
%TO.C,D306*%
X174300000Y-95900000D03*
X174300000Y-94700000D03*
X175600000Y-94700000D03*
X175600000Y-95900000D03*
%TD*%
%TO.C,D304*%
X211700000Y-95900000D03*
X211700000Y-94700000D03*
X213000000Y-94700000D03*
X213000000Y-95900000D03*
%TD*%
D17*
%TO.C,C309*%
X156700000Y-96880000D03*
X156700000Y-95920000D03*
%TD*%
%TO.C,C413*%
X166650000Y-101070000D03*
X166650000Y-102030000D03*
%TD*%
%TO.C,C203*%
X206950000Y-80820000D03*
X206950000Y-81780000D03*
%TD*%
D14*
%TO.C,C308*%
X156380000Y-81475000D03*
X155420000Y-81475000D03*
%TD*%
D18*
%TO.C,C302*%
X196580000Y-104700000D03*
X195620000Y-104700000D03*
%TD*%
D14*
%TO.C,C304*%
X209320000Y-95900000D03*
X210280000Y-95900000D03*
%TD*%
D19*
%TO.C,SW201*%
X209550000Y-86375000D03*
X209550000Y-78625000D03*
%TD*%
D18*
%TO.C,C301*%
X177980000Y-104700000D03*
X177020000Y-104700000D03*
%TD*%
D20*
%TO.C,U301*%
X155500000Y-78275000D03*
X155000000Y-78275000D03*
X154500000Y-78275000D03*
D21*
X153837500Y-78437500D03*
X153837500Y-78937500D03*
X153837500Y-79437500D03*
X153837500Y-79937500D03*
D20*
X154500000Y-80100000D03*
X155000000Y-80100000D03*
X155500000Y-80100000D03*
D21*
X156162500Y-79937500D03*
X156162500Y-79437500D03*
X156162500Y-78937500D03*
X156162500Y-78437500D03*
%TD*%
D15*
%TO.C,R410*%
X165610000Y-102000000D03*
X164590000Y-102000000D03*
%TD*%
D19*
%TO.C,SW202*%
X209550000Y-76575000D03*
X209550000Y-68825000D03*
%TD*%
D16*
%TO.C,D305*%
X192900000Y-95900000D03*
X192900000Y-94700000D03*
X194200000Y-94700000D03*
X194200000Y-95900000D03*
%TD*%
D13*
%TO.C,D301*%
X175500000Y-104700000D03*
X175500000Y-105900000D03*
X174200000Y-105900000D03*
X174200000Y-104700000D03*
%TD*%
%TO.C,D303*%
X213000000Y-104700000D03*
X213000000Y-105900000D03*
X211700000Y-105900000D03*
X211700000Y-104700000D03*
%TD*%
D22*
%TO.C,U302*%
X154612500Y-94637500D03*
X155112500Y-94637500D03*
D23*
X155625000Y-94900000D03*
X155625000Y-95400000D03*
X155625000Y-95900000D03*
D22*
X155112500Y-96162500D03*
X154612500Y-96162500D03*
D23*
X154100000Y-95900000D03*
X154100000Y-95400000D03*
X154100000Y-94900000D03*
%TD*%
D18*
%TO.C,C303*%
X215380000Y-104700000D03*
X214420000Y-104700000D03*
%TD*%
%TO.C,C306*%
X175280000Y-97100000D03*
X174320000Y-97100000D03*
%TD*%
D14*
%TO.C,C204*%
X209570000Y-67450000D03*
X210530000Y-67450000D03*
%TD*%
D12*
%TO.C,C310*%
X153100000Y-95880000D03*
X153100000Y-94920000D03*
%TD*%
D14*
%TO.C,C307*%
X154480000Y-81475000D03*
X153520000Y-81475000D03*
%TD*%
M02*
