M48
; DRILL file {KiCad 8.0.8-8.0.8-0~ubuntu24.04.1} date 2025-05-06T14:10:31+0300
; FORMAT={-:-/ absolute / metric / decimal}
; #@! TF.CreationDate,2025-05-06T14:10:31+03:00
; #@! TF.GenerationSoftware,Kicad,Pcbnew,8.0.8-8.0.8-0~ubuntu24.04.1
; #@! TF.FileFunction,Plated,1,4,PTH
FMAT,2
METRIC
; #@! TA.AperFunction,Plated,PTH,ViaDrill
T1C0.250
; #@! TA.AperFunction,Plated,PTH,ViaDrill
T2C0.300
; #@! TA.AperFunction,Plated,PTH,ViaDrill
T3C0.400
; #@! TA.AperFunction,Plated,PTH,ComponentDrill
T4C0.600
%
G90
G05
T1
X153.1Y-96.5
X155.0Y-82.075
X156.4Y-94.4
X156.7Y-97.5
X157.2Y-78.975
T2
X143.0Y-98.5
X143.48Y-92.28
X144.65Y-62.7
X144.65Y-74.3
X147.5Y-71.8
X147.5Y-72.6
X147.55Y-64.3
X147.55Y-65.2
X153.8Y-62.9
X154.15Y-63.7
X154.75Y-66.9
X160.19Y-100.52
X160.7Y-101.2
X161.3Y-67.15
X162.25Y-106.45
X162.575Y-104.025
X162.912Y-108.9
X163.125Y-92.075
X163.15Y-106.45
X163.5Y-97.75
X164.412Y-104.0
X164.675Y-92.075
X167.65Y-62.35
X167.7Y-77.4
X168.275Y-101.125
X169.25Y-101.45
X170.175Y-101.425
X171.0Y-101.15
X171.95Y-69.4
X171.95Y-84.7
X172.35Y-70.1
X172.35Y-85.4
X172.75Y-69.4
X172.75Y-84.7
X174.2Y-107.2
X174.25Y-82.2
X175.1Y-82.2
X175.4Y-72.5
X175.6Y-97.9
X175.625Y-99.425
X176.3Y-72.5
X176.3Y-104.0
X176.4Y-97.1
X177.1Y-94.7
X178.8Y-104.7
X178.909Y-97.314
X179.525Y-97.9
X180.5Y-69.6
X181.35Y-70.25
X181.75Y-103.775
X181.9Y-71.1
X182.6Y-71.8
X182.6Y-72.9
X188.95Y-74.05
X189.51Y-95.91
X190.05Y-74.05
X191.15Y-76.95
X191.3Y-105.9
X194.4Y-67.8
X195.3Y-75.3
X195.8Y-94.7
X196.0Y-67.8
X197.6Y-67.8
X197.7Y-104.7
X199.2Y-67.8
X200.8Y-67.8
X200.8Y-91.4
X201.5Y-90.7
X202.4Y-67.8
X202.5Y-90.22
X202.55Y-78.75
X203.075Y-79.525
X203.38Y-90.72
X204.475Y-102.275
X204.5Y-103.5
X205.15Y-77.8
X205.4Y-84.3
X205.5Y-90.8
X205.525Y-91.775
X206.0Y-67.2
X206.2Y-84.6
X207.4Y-85.6
X207.4Y-95.9
X207.525Y-90.8
X207.525Y-91.775
X207.7Y-86.4
X209.475Y-90.8
X209.5Y-91.775
X211.05Y-68.8
X211.3Y-79.4
X211.4Y-68.0
X211.5Y-81.5
X211.525Y-90.8
X211.525Y-91.8
X211.7Y-107.0
X211.8Y-76.55
X212.1Y-79.8
X212.164Y-82.031
X212.2Y-73.35
X212.45Y-70.5
X213.3Y-73.35
X213.35Y-70.5
X213.525Y-90.8
X213.525Y-91.8
X214.3Y-70.5
X214.3Y-73.3
X215.15Y-70.5
X215.15Y-73.65
X215.2Y-94.7
X215.35Y-78.95
X215.4Y-79.8
X215.5Y-90.8
X215.5Y-91.8
X216.1Y-81.7
X216.3Y-104.7
X217.0Y-81.65
X220.9Y-109.9
X220.91Y-87.64
X223.35Y-77.0
X223.35Y-82.05
X224.47Y-87.87
T3
X190.2Y-72.0
X190.75Y-67.2
T4
G00X141.29Y-64.18
M15
G01X140.69Y-64.18
M16
G05
G00X141.29Y-72.82
M15
G01X140.69Y-72.82
M16
G05
G00X145.72Y-64.18
M15
G01X144.62Y-64.18
M16
G05
G00X145.72Y-72.82
M15
G01X144.62Y-72.82
M16
G05
M30
